G04 #@! TF.GenerationSoftware,KiCad,Pcbnew,7.0.8*
G04 #@! TF.CreationDate,2023-11-13T16:00:45+01:00*
G04 #@! TF.ProjectId,christmas,63687269-7374-46d6-9173-2e6b69636164,rev?*
G04 #@! TF.SameCoordinates,Original*
G04 #@! TF.FileFunction,Copper,L2,Bot*
G04 #@! TF.FilePolarity,Positive*
%FSLAX46Y46*%
G04 Gerber Fmt 4.6, Leading zero omitted, Abs format (unit mm)*
G04 Created by KiCad (PCBNEW 7.0.8) date 2023-11-13 16:00:45*
%MOMM*%
%LPD*%
G01*
G04 APERTURE LIST*
G04 Aperture macros list*
%AMRoundRect*
0 Rectangle with rounded corners*
0 $1 Rounding radius*
0 $2 $3 $4 $5 $6 $7 $8 $9 X,Y pos of 4 corners*
0 Add a 4 corners polygon primitive as box body*
4,1,4,$2,$3,$4,$5,$6,$7,$8,$9,$2,$3,0*
0 Add four circle primitives for the rounded corners*
1,1,$1+$1,$2,$3*
1,1,$1+$1,$4,$5*
1,1,$1+$1,$6,$7*
1,1,$1+$1,$8,$9*
0 Add four rect primitives between the rounded corners*
20,1,$1+$1,$2,$3,$4,$5,0*
20,1,$1+$1,$4,$5,$6,$7,0*
20,1,$1+$1,$6,$7,$8,$9,0*
20,1,$1+$1,$8,$9,$2,$3,0*%
%AMHorizOval*
0 Thick line with rounded ends*
0 $1 width*
0 $2 $3 position (X,Y) of the first rounded end (center of the circle)*
0 $4 $5 position (X,Y) of the second rounded end (center of the circle)*
0 Add line between two ends*
20,1,$1,$2,$3,$4,$5,0*
0 Add two circle primitives to create the rounded ends*
1,1,$1,$2,$3*
1,1,$1,$4,$5*%
%AMRotRect*
0 Rectangle, with rotation*
0 The origin of the aperture is its center*
0 $1 length*
0 $2 width*
0 $3 Rotation angle, in degrees counterclockwise*
0 Add horizontal line*
21,1,$1,$2,0,0,$3*%
G04 Aperture macros list end*
G04 #@! TA.AperFunction,ComponentPad*
%ADD10R,3.000000X3.200000*%
G04 #@! TD*
G04 #@! TA.AperFunction,ComponentPad*
%ADD11C,1.750000*%
G04 #@! TD*
G04 #@! TA.AperFunction,ComponentPad*
%ADD12R,1.800000X1.800000*%
G04 #@! TD*
G04 #@! TA.AperFunction,ComponentPad*
%ADD13C,1.800000*%
G04 #@! TD*
G04 #@! TA.AperFunction,ComponentPad*
%ADD14R,2.400000X1.600000*%
G04 #@! TD*
G04 #@! TA.AperFunction,ComponentPad*
%ADD15O,2.400000X1.600000*%
G04 #@! TD*
G04 #@! TA.AperFunction,ComponentPad*
%ADD16C,1.600000*%
G04 #@! TD*
G04 #@! TA.AperFunction,ComponentPad*
%ADD17O,1.600000X1.600000*%
G04 #@! TD*
G04 #@! TA.AperFunction,ComponentPad*
%ADD18HorizOval,1.600000X0.000000X0.000000X0.000000X0.000000X0*%
G04 #@! TD*
G04 #@! TA.AperFunction,ComponentPad*
%ADD19HorizOval,1.600000X0.000000X0.000000X0.000000X0.000000X0*%
G04 #@! TD*
G04 #@! TA.AperFunction,ComponentPad*
%ADD20HorizOval,1.600000X0.000000X0.000000X0.000000X0.000000X0*%
G04 #@! TD*
G04 #@! TA.AperFunction,ComponentPad*
%ADD21HorizOval,1.600000X0.000000X0.000000X0.000000X0.000000X0*%
G04 #@! TD*
G04 #@! TA.AperFunction,ComponentPad*
%ADD22HorizOval,1.600000X0.000000X0.000000X0.000000X0.000000X0*%
G04 #@! TD*
G04 #@! TA.AperFunction,ComponentPad*
%ADD23RotRect,1.700000X1.700000X45.000000*%
G04 #@! TD*
G04 #@! TA.AperFunction,ComponentPad*
%ADD24HorizOval,1.700000X0.000000X0.000000X0.000000X0.000000X0*%
G04 #@! TD*
G04 #@! TA.AperFunction,ComponentPad*
%ADD25HorizOval,1.600000X0.000000X0.000000X0.000000X0.000000X0*%
G04 #@! TD*
G04 #@! TA.AperFunction,ComponentPad*
%ADD26R,1.700000X1.700000*%
G04 #@! TD*
G04 #@! TA.AperFunction,ComponentPad*
%ADD27O,1.700000X1.700000*%
G04 #@! TD*
G04 #@! TA.AperFunction,ComponentPad*
%ADD28RotRect,1.800000X1.800000X315.000000*%
G04 #@! TD*
G04 #@! TA.AperFunction,ComponentPad*
%ADD29HorizOval,1.600000X0.000000X0.000000X0.000000X0.000000X0*%
G04 #@! TD*
G04 #@! TA.AperFunction,ComponentPad*
%ADD30RotRect,1.800000X1.800000X135.000000*%
G04 #@! TD*
G04 #@! TA.AperFunction,ComponentPad*
%ADD31R,1.600000X1.600000*%
G04 #@! TD*
G04 #@! TA.AperFunction,ComponentPad*
%ADD32RotRect,1.800000X1.800000X225.000000*%
G04 #@! TD*
G04 #@! TA.AperFunction,ComponentPad*
%ADD33RotRect,1.800000X1.800000X45.000000*%
G04 #@! TD*
G04 #@! TA.AperFunction,ComponentPad*
%ADD34HorizOval,1.600000X0.000000X0.000000X0.000000X0.000000X0*%
G04 #@! TD*
G04 #@! TA.AperFunction,ComponentPad*
%ADD35RoundRect,0.250000X-0.600000X-0.725000X0.600000X-0.725000X0.600000X0.725000X-0.600000X0.725000X0*%
G04 #@! TD*
G04 #@! TA.AperFunction,ComponentPad*
%ADD36O,1.700000X1.950000*%
G04 #@! TD*
G04 #@! TA.AperFunction,ComponentPad*
%ADD37RoundRect,0.250000X0.600000X0.725000X-0.600000X0.725000X-0.600000X-0.725000X0.600000X-0.725000X0*%
G04 #@! TD*
G04 #@! TA.AperFunction,ViaPad*
%ADD38C,0.800000*%
G04 #@! TD*
G04 #@! TA.AperFunction,Conductor*
%ADD39C,0.600000*%
G04 #@! TD*
G04 APERTURE END LIST*
D10*
X147700000Y-121600000D03*
X157100000Y-121600000D03*
D11*
X149900000Y-128600000D03*
X152400000Y-128600000D03*
X154900000Y-128600000D03*
D10*
X147700000Y-81600000D03*
X157100000Y-81600000D03*
D11*
X149900000Y-88600000D03*
X152400000Y-88600000D03*
X154900000Y-88600000D03*
D12*
X187400000Y-101600000D03*
D13*
X187400000Y-104140000D03*
D14*
X157480000Y-92710000D03*
D15*
X157480000Y-95250000D03*
X157480000Y-97790000D03*
X157480000Y-100330000D03*
X157480000Y-102870000D03*
X157480000Y-105410000D03*
X157480000Y-107950000D03*
X157480000Y-110490000D03*
X167640000Y-110490000D03*
X167640000Y-107950000D03*
X167640000Y-105410000D03*
X167640000Y-102870000D03*
X167640000Y-100330000D03*
X167640000Y-97790000D03*
X167640000Y-95250000D03*
X167640000Y-92710000D03*
D16*
X133340000Y-120640000D03*
D17*
X133340000Y-113020000D03*
D16*
X161925000Y-135890000D03*
D18*
X168964962Y-132973952D03*
D16*
X133340000Y-105440000D03*
X133340000Y-110440000D03*
X171159981Y-71308024D03*
D19*
X164120019Y-68391976D03*
D16*
X187066048Y-93399962D03*
D20*
X184150000Y-86360000D03*
D16*
X138510000Y-85090000D03*
X143510000Y-85090000D03*
D12*
X152400000Y-136600000D03*
D13*
X149860000Y-136600000D03*
D16*
X182691976Y-120359981D03*
D21*
X185608024Y-113320019D03*
D12*
X152400000Y-66600000D03*
D13*
X154940000Y-66600000D03*
D16*
X133350000Y-101600000D03*
D17*
X133350000Y-93980000D03*
D16*
X122108024Y-84110019D03*
D22*
X119191976Y-91149981D03*
D23*
X177908949Y-86468949D03*
D24*
X179705000Y-88265000D03*
D16*
X134910019Y-131891976D03*
D25*
X141949981Y-134808024D03*
D26*
X127635000Y-107950000D03*
D27*
X127635000Y-110490000D03*
X127635000Y-113030000D03*
D28*
X177148737Y-76851262D03*
D13*
X178944788Y-78647313D03*
D12*
X117400000Y-101600000D03*
D13*
X117400000Y-99060000D03*
D16*
X117921976Y-110780019D03*
D29*
X120838024Y-117819981D03*
D16*
X160060000Y-88900000D03*
X165060000Y-88900000D03*
X138470000Y-101600000D03*
X143470000Y-101600000D03*
D30*
X127651262Y-126348737D03*
D13*
X125855211Y-124552686D03*
D31*
X137160000Y-105410000D03*
D17*
X137160000Y-107950000D03*
X137160000Y-110490000D03*
X137160000Y-113030000D03*
X144780000Y-113030000D03*
X144780000Y-110490000D03*
X144780000Y-107950000D03*
X144780000Y-105410000D03*
D32*
X177148737Y-126348737D03*
D13*
X175352686Y-128144788D03*
D26*
X171980000Y-92960000D03*
D27*
X171980000Y-95500000D03*
X171980000Y-98040000D03*
D33*
X127651262Y-76851262D03*
D13*
X129447313Y-75055211D03*
D31*
X137170000Y-88910000D03*
D17*
X137170000Y-91450000D03*
X137170000Y-93990000D03*
X137170000Y-96530000D03*
X144790000Y-96530000D03*
X144790000Y-93990000D03*
X144790000Y-91450000D03*
X144790000Y-88910000D03*
D26*
X127635000Y-90805000D03*
D27*
X127635000Y-93345000D03*
X127635000Y-95885000D03*
D16*
X143219981Y-67121976D03*
D34*
X136180019Y-70038024D03*
D16*
X148590000Y-107990000D03*
X148590000Y-112990000D03*
X133350000Y-86400000D03*
X133350000Y-91400000D03*
X148590000Y-91480000D03*
X148590000Y-96480000D03*
D35*
X162400000Y-84600000D03*
D36*
X164900000Y-84600000D03*
X167400000Y-84600000D03*
X169900000Y-84600000D03*
D37*
X170020000Y-118600000D03*
D36*
X167520000Y-118600000D03*
X165020000Y-118600000D03*
X162520000Y-118600000D03*
D38*
X154305000Y-104140000D03*
X159385000Y-116205000D03*
X156210000Y-114300000D03*
X171450000Y-110490000D03*
X158750000Y-84600000D03*
X123952000Y-101600000D03*
X157988000Y-86487000D03*
X151765000Y-98425000D03*
X149860000Y-77470000D03*
D39*
X157988000Y-86487000D02*
X162647000Y-86487000D01*
X162647000Y-86487000D02*
X165060000Y-88900000D01*
X158750000Y-84600000D02*
X162400000Y-84600000D01*
X159385000Y-116205000D02*
X165100000Y-110490000D01*
X165100000Y-110490000D02*
X167640000Y-110490000D01*
X154305000Y-104140000D02*
X154305000Y-112395000D01*
X154305000Y-112395000D02*
X156210000Y-114300000D01*
X151765000Y-98425000D02*
X157480000Y-92710000D01*
X171450000Y-115570000D02*
X171450000Y-110490000D01*
X170020000Y-118600000D02*
X170020000Y-117000000D01*
X170020000Y-117000000D02*
X171450000Y-115570000D01*
X176212500Y-91757500D02*
X177292000Y-92837000D01*
X177292000Y-92837000D02*
X177292000Y-117983000D01*
X177292000Y-117983000D02*
X174625000Y-120650000D01*
X174625000Y-120650000D02*
X165735000Y-120650000D01*
X165735000Y-120650000D02*
X165020000Y-119935000D01*
X165020000Y-119935000D02*
X165020000Y-118600000D01*
X165100000Y-107950000D02*
X156210000Y-116840000D01*
X156210000Y-116840000D02*
X148652892Y-116840000D01*
X134910019Y-130582873D02*
X134910019Y-131891976D01*
X148652892Y-116840000D02*
X134910019Y-130582873D01*
X167640000Y-95250000D02*
X166370000Y-95250000D01*
X166370000Y-95250000D02*
X165100000Y-96520000D01*
X165100000Y-96520000D02*
X165100000Y-107950000D01*
X165100000Y-107950000D02*
X166370000Y-107950000D01*
X171980000Y-95500000D02*
X170180000Y-97300000D01*
X170180000Y-97300000D02*
X170180000Y-114300000D01*
X170180000Y-114300000D02*
X167520000Y-116960000D01*
X167520000Y-116960000D02*
X167520000Y-118600000D01*
X170810000Y-86355000D02*
X176212500Y-91757500D01*
X179705000Y-88265000D02*
X176212500Y-91757500D01*
X167605000Y-86355000D02*
X170810000Y-86355000D01*
X167400000Y-84600000D02*
X167400000Y-86150000D01*
X167400000Y-86150000D02*
X167605000Y-86355000D01*
X164900000Y-84600000D02*
X164900000Y-82985000D01*
X164900000Y-82985000D02*
X158115000Y-76200000D01*
X158115000Y-76200000D02*
X137668000Y-76200000D01*
X137668000Y-76200000D02*
X123952000Y-89916000D01*
X123952000Y-89916000D02*
X123952000Y-101600000D01*
X137170000Y-96530000D02*
X144790000Y-88910000D01*
X131661000Y-103086000D02*
X141984000Y-103086000D01*
X131318000Y-102743000D02*
X131661000Y-103086000D01*
X167605000Y-86355000D02*
X165060000Y-88900000D01*
X165060000Y-88900000D02*
X165060000Y-90130000D01*
X141984000Y-103086000D02*
X143470000Y-101600000D01*
X137170000Y-96530000D02*
X135626000Y-96530000D01*
X165060000Y-90130000D02*
X167640000Y-92710000D01*
X137160000Y-113030000D02*
X144780000Y-105410000D01*
X135626000Y-96530000D02*
X131318000Y-100838000D01*
X131318000Y-100838000D02*
X131318000Y-102743000D01*
X149900000Y-98010683D02*
X148850683Y-99060000D01*
X149900000Y-88600000D02*
X149900000Y-98010683D01*
X135890000Y-99060000D02*
X133350000Y-101600000D01*
X148850683Y-99060000D02*
X135890000Y-99060000D01*
X166370000Y-107950000D02*
X167640000Y-107950000D01*
X124815995Y-103886000D02*
X124510998Y-104190998D01*
X149479000Y-103886000D02*
X155575000Y-97790000D01*
X124510998Y-104190998D02*
X117921976Y-110780019D01*
X124815996Y-103886000D02*
X149479000Y-103886000D01*
X124510998Y-104190998D02*
X124815996Y-103886000D01*
X155575000Y-97790000D02*
X157480000Y-97790000D01*
X160020000Y-90932000D02*
X160020000Y-97790000D01*
X149860000Y-77470000D02*
X152400000Y-80010000D01*
X160020000Y-97790000D02*
X157480000Y-100330000D01*
X152400000Y-83312000D02*
X160020000Y-90932000D01*
X152400000Y-80010000D02*
X152400000Y-83312000D01*
G04 #@! TA.AperFunction,Conductor*
G36*
X143398269Y-104705454D02*
G01*
X143479051Y-104759430D01*
X143533027Y-104840212D01*
X143551981Y-104935500D01*
X143543497Y-104999942D01*
X143536784Y-105024999D01*
X143494365Y-105183306D01*
X143494363Y-105183320D01*
X143474532Y-105409994D01*
X143474532Y-105410000D01*
X143478361Y-105453775D01*
X143467782Y-105550352D01*
X143421050Y-105635529D01*
X143406378Y-105651542D01*
X138824344Y-110233576D01*
X138743562Y-110287552D01*
X138648274Y-110306506D01*
X138552986Y-110287552D01*
X138472204Y-110233576D01*
X138418228Y-110152794D01*
X138407758Y-110121950D01*
X138407695Y-110121716D01*
X138386739Y-110043504D01*
X138290568Y-109837266D01*
X138290565Y-109837262D01*
X138290563Y-109837258D01*
X138160050Y-109650865D01*
X138160049Y-109650864D01*
X138160047Y-109650861D01*
X137999139Y-109489953D01*
X137999133Y-109489949D01*
X137927725Y-109439949D01*
X137904902Y-109423968D01*
X137837719Y-109353789D01*
X137802506Y-109263240D01*
X137804625Y-109166108D01*
X137843753Y-109077181D01*
X137904902Y-109016031D01*
X137999139Y-108950047D01*
X138160047Y-108789139D01*
X138290568Y-108602734D01*
X138386739Y-108396496D01*
X138445635Y-108176692D01*
X138455713Y-108061504D01*
X138465468Y-107950005D01*
X138465468Y-107949994D01*
X138445636Y-107723320D01*
X138445635Y-107723308D01*
X138386739Y-107503504D01*
X138290568Y-107297266D01*
X138290565Y-107297262D01*
X138290563Y-107297258D01*
X138160050Y-107110865D01*
X138160049Y-107110864D01*
X138160047Y-107110861D01*
X137999139Y-106949953D01*
X137999135Y-106949950D01*
X137999134Y-106949949D01*
X137928623Y-106900577D01*
X137861439Y-106830396D01*
X137826226Y-106739847D01*
X137828345Y-106642715D01*
X137867474Y-106553788D01*
X137937655Y-106486604D01*
X138022868Y-106452392D01*
X138057545Y-106445494D01*
X138140237Y-106390241D01*
X138140241Y-106390237D01*
X138195495Y-106307544D01*
X138195495Y-106307543D01*
X138209999Y-106234628D01*
X138210000Y-106234623D01*
X138210000Y-105810001D01*
X138209999Y-105810000D01*
X137191481Y-105810000D01*
X137285148Y-105795165D01*
X137398045Y-105737641D01*
X137487641Y-105648045D01*
X137545165Y-105535148D01*
X137564986Y-105410000D01*
X137545165Y-105284852D01*
X137487641Y-105171955D01*
X137398045Y-105082359D01*
X137285148Y-105024835D01*
X137191481Y-105010000D01*
X138209999Y-105010000D01*
X138210000Y-105009999D01*
X138210000Y-104935500D01*
X138228954Y-104840212D01*
X138282930Y-104759430D01*
X138363712Y-104705454D01*
X138459000Y-104686500D01*
X143302981Y-104686500D01*
X143398269Y-104705454D01*
G37*
G04 #@! TD.AperFunction*
G04 #@! TA.AperFunction,Conductor*
G36*
X143141100Y-99879454D02*
G01*
X143221882Y-99933430D01*
X143275858Y-100014212D01*
X143294812Y-100109500D01*
X143275858Y-100204788D01*
X143221882Y-100285570D01*
X143141100Y-100339546D01*
X143110260Y-100350014D01*
X143066222Y-100361814D01*
X143023503Y-100373261D01*
X143023500Y-100373262D01*
X142817272Y-100469428D01*
X142817258Y-100469436D01*
X142630865Y-100599949D01*
X142469949Y-100760865D01*
X142339436Y-100947258D01*
X142339428Y-100947272D01*
X142243262Y-101153500D01*
X142243261Y-101153503D01*
X142184365Y-101373305D01*
X142184363Y-101373320D01*
X142164532Y-101599994D01*
X142164532Y-101600000D01*
X142168361Y-101643776D01*
X142157782Y-101740353D01*
X142111050Y-101825531D01*
X142096378Y-101841542D01*
X141725353Y-102212569D01*
X141644572Y-102266546D01*
X141549284Y-102285500D01*
X139695041Y-102285500D01*
X139599753Y-102266546D01*
X139518971Y-102212570D01*
X139464995Y-102131788D01*
X139446041Y-102036500D01*
X139456763Y-101964219D01*
X139504808Y-101805835D01*
X139525081Y-101600000D01*
X139525081Y-101599999D01*
X139504808Y-101394163D01*
X139444770Y-101196244D01*
X139444765Y-101196232D01*
X139442913Y-101192769D01*
X138797643Y-101838040D01*
X138855165Y-101725148D01*
X138874986Y-101600000D01*
X138855165Y-101474852D01*
X138797641Y-101361955D01*
X138708045Y-101272359D01*
X138595148Y-101214835D01*
X138501481Y-101200000D01*
X138438519Y-101200000D01*
X138344852Y-101214835D01*
X138231955Y-101272359D01*
X138142359Y-101361955D01*
X138084835Y-101474852D01*
X138065014Y-101600000D01*
X138084835Y-101725148D01*
X138142356Y-101838040D01*
X137497085Y-101192769D01*
X137497084Y-101192770D01*
X137495235Y-101196231D01*
X137495231Y-101196239D01*
X137435191Y-101394164D01*
X137414919Y-101599999D01*
X137414919Y-101600000D01*
X137435191Y-101805835D01*
X137483237Y-101964219D01*
X137492760Y-102060906D01*
X137464557Y-102153878D01*
X137402923Y-102228980D01*
X137317240Y-102274778D01*
X137244959Y-102285500D01*
X134837201Y-102285500D01*
X134741913Y-102266546D01*
X134661131Y-102212570D01*
X134607155Y-102131788D01*
X134588201Y-102036500D01*
X134596685Y-101972055D01*
X134597695Y-101968285D01*
X134635635Y-101826692D01*
X134655468Y-101600000D01*
X134651638Y-101556228D01*
X134662213Y-101459654D01*
X134708942Y-101374475D01*
X134723621Y-101358456D01*
X135454994Y-100627084D01*
X138062770Y-100627084D01*
X138470000Y-101034314D01*
X138877228Y-100627085D01*
X138873756Y-100625229D01*
X138675837Y-100565192D01*
X138470001Y-100544919D01*
X138469999Y-100544919D01*
X138264164Y-100565191D01*
X138066239Y-100625231D01*
X138066231Y-100625235D01*
X138062770Y-100627084D01*
X135454994Y-100627084D01*
X136148649Y-99933430D01*
X136229430Y-99879454D01*
X136324718Y-99860500D01*
X143045812Y-99860500D01*
X143141100Y-99879454D01*
G37*
G04 #@! TD.AperFunction*
G04 #@! TA.AperFunction,Conductor*
G36*
X138646070Y-101989614D02*
G01*
X138565288Y-102043591D01*
X138470000Y-102062545D01*
X138374712Y-102043591D01*
X138293931Y-101989615D01*
X138231959Y-101927643D01*
X138344852Y-101985165D01*
X138438519Y-102000000D01*
X138501481Y-102000000D01*
X138595148Y-101985165D01*
X138708040Y-101927643D01*
X138646070Y-101989614D01*
G37*
G04 #@! TD.AperFunction*
G04 #@! TA.AperFunction,Conductor*
G36*
X148979615Y-91303930D02*
G01*
X149033591Y-91384712D01*
X149052545Y-91480000D01*
X149033591Y-91575288D01*
X148979615Y-91656070D01*
X148979614Y-91656070D01*
X148917643Y-91718040D01*
X148975165Y-91605148D01*
X148994986Y-91480000D01*
X148975165Y-91354852D01*
X148917642Y-91241957D01*
X148979615Y-91303930D01*
G37*
G04 #@! TD.AperFunction*
G04 #@! TA.AperFunction,Conductor*
G36*
X153660812Y-61480306D02*
G01*
X154920380Y-61539706D01*
X156177461Y-61638641D01*
X157430813Y-61777012D01*
X158679201Y-61954684D01*
X159921392Y-62171481D01*
X161156161Y-62427189D01*
X162382288Y-62721556D01*
X163598564Y-63054292D01*
X164803788Y-63425067D01*
X165996771Y-63833516D01*
X167176335Y-64279237D01*
X168341318Y-64761788D01*
X169490568Y-65280695D01*
X170622951Y-65835444D01*
X171737352Y-66425488D01*
X172832668Y-67050245D01*
X173907820Y-67709099D01*
X174961746Y-68401399D01*
X175993406Y-69126462D01*
X177001783Y-69883573D01*
X177985880Y-70671984D01*
X178944728Y-71490917D01*
X179877379Y-72339564D01*
X180782913Y-73217087D01*
X181660436Y-74122621D01*
X182509083Y-75055272D01*
X183328016Y-76014120D01*
X184116427Y-76998217D01*
X184873538Y-78006594D01*
X185598601Y-79038254D01*
X186290901Y-80092180D01*
X186949755Y-81167332D01*
X187574512Y-82262648D01*
X188164556Y-83377049D01*
X188634690Y-84336711D01*
X188719305Y-84509432D01*
X189238212Y-85658682D01*
X189720763Y-86823665D01*
X190166484Y-88003229D01*
X190574933Y-89196212D01*
X190945708Y-90401436D01*
X191278444Y-91617712D01*
X191572811Y-92843839D01*
X191828519Y-94078608D01*
X192045316Y-95320799D01*
X192222988Y-96569187D01*
X192361359Y-97822539D01*
X192460294Y-99079620D01*
X192519694Y-100339188D01*
X192539500Y-101600000D01*
X192519694Y-102860812D01*
X192460294Y-104120380D01*
X192361359Y-105377461D01*
X192222988Y-106630813D01*
X192045316Y-107879201D01*
X191828519Y-109121392D01*
X191572811Y-110356161D01*
X191278444Y-111582288D01*
X191021237Y-112522478D01*
X190945708Y-112798564D01*
X190574933Y-114003788D01*
X190166484Y-115196771D01*
X189720763Y-116376335D01*
X189238212Y-117541318D01*
X188719305Y-118690568D01*
X188164556Y-119822951D01*
X187574512Y-120937352D01*
X186949755Y-122032668D01*
X186290901Y-123107820D01*
X185598601Y-124161746D01*
X184873538Y-125193406D01*
X184116427Y-126201783D01*
X183328016Y-127185880D01*
X182509083Y-128144728D01*
X181660436Y-129077379D01*
X180782913Y-129982913D01*
X179877379Y-130860436D01*
X178944728Y-131709083D01*
X177985880Y-132528016D01*
X177001783Y-133316427D01*
X175993406Y-134073538D01*
X174961746Y-134798601D01*
X173907820Y-135490901D01*
X172832668Y-136149755D01*
X171737352Y-136774512D01*
X170622951Y-137364556D01*
X169556652Y-137886931D01*
X169490568Y-137919305D01*
X168341318Y-138438212D01*
X167176335Y-138920763D01*
X165996771Y-139366484D01*
X164803788Y-139774933D01*
X163598564Y-140145708D01*
X162382288Y-140478444D01*
X161156161Y-140772811D01*
X159921392Y-141028519D01*
X158679201Y-141245316D01*
X157430813Y-141422988D01*
X156177461Y-141561359D01*
X154920380Y-141660294D01*
X153660812Y-141719694D01*
X152400000Y-141739500D01*
X151139188Y-141719694D01*
X149879620Y-141660294D01*
X148622539Y-141561359D01*
X147369187Y-141422988D01*
X146120799Y-141245316D01*
X144878608Y-141028519D01*
X143643839Y-140772811D01*
X142417712Y-140478444D01*
X141201436Y-140145708D01*
X139996212Y-139774933D01*
X138803229Y-139366484D01*
X137623665Y-138920763D01*
X136458682Y-138438212D01*
X135309432Y-137919305D01*
X135243348Y-137886931D01*
X134177049Y-137364556D01*
X133062648Y-136774512D01*
X132756696Y-136600000D01*
X148454700Y-136600000D01*
X148473866Y-136831308D01*
X148473868Y-136831315D01*
X148530841Y-137056293D01*
X148530842Y-137056297D01*
X148624074Y-137268846D01*
X148751019Y-137463151D01*
X148751022Y-137463155D01*
X148874735Y-137597543D01*
X148908216Y-137633913D01*
X149091374Y-137776470D01*
X149188863Y-137829228D01*
X149295487Y-137886931D01*
X149295489Y-137886931D01*
X149295497Y-137886936D01*
X149515019Y-137962298D01*
X149743951Y-138000500D01*
X149976049Y-138000500D01*
X150204981Y-137962298D01*
X150424503Y-137886936D01*
X150628626Y-137776470D01*
X150811784Y-137633913D01*
X150873807Y-137566537D01*
X150952287Y-137509270D01*
X151046711Y-137486395D01*
X151142701Y-137501395D01*
X151225644Y-137551986D01*
X151264037Y-137596844D01*
X151319760Y-137680239D01*
X151319762Y-137680241D01*
X151402455Y-137735495D01*
X151475371Y-137749999D01*
X151475376Y-137750000D01*
X151999999Y-137750000D01*
X152000000Y-137749999D01*
X152800000Y-137749999D01*
X152800001Y-137750000D01*
X153324624Y-137750000D01*
X153324628Y-137749999D01*
X153397543Y-137735495D01*
X153397544Y-137735495D01*
X153480237Y-137680241D01*
X153480241Y-137680237D01*
X153535495Y-137597544D01*
X153535495Y-137597543D01*
X153549999Y-137524628D01*
X153550000Y-137524623D01*
X153550000Y-137000001D01*
X153549999Y-137000000D01*
X152800001Y-137000000D01*
X152800000Y-137000001D01*
X152800000Y-137749999D01*
X152000000Y-137749999D01*
X152000000Y-136812541D01*
X152005887Y-136827541D01*
X152090465Y-136933599D01*
X152202547Y-137010016D01*
X152332173Y-137050000D01*
X152433724Y-137050000D01*
X152534138Y-137034865D01*
X152656357Y-136976007D01*
X152755798Y-136883740D01*
X152823625Y-136766260D01*
X152853810Y-136634008D01*
X152843673Y-136498735D01*
X152794113Y-136372459D01*
X152709535Y-136266401D01*
X152612142Y-136199999D01*
X152800000Y-136199999D01*
X152800001Y-136200000D01*
X153549999Y-136200000D01*
X153550000Y-136199999D01*
X153550000Y-135890005D01*
X160619532Y-135890005D01*
X160639363Y-136116679D01*
X160639365Y-136116694D01*
X160698261Y-136336496D01*
X160698262Y-136336499D01*
X160794428Y-136542727D01*
X160794436Y-136542741D01*
X160924949Y-136729134D01*
X160924953Y-136729139D01*
X161085861Y-136890047D01*
X161085864Y-136890049D01*
X161085865Y-136890050D01*
X161272258Y-137020563D01*
X161272262Y-137020565D01*
X161272266Y-137020568D01*
X161272270Y-137020569D01*
X161272272Y-137020571D01*
X161348893Y-137056300D01*
X161478504Y-137116739D01*
X161698308Y-137175635D01*
X161717984Y-137177356D01*
X161924994Y-137195468D01*
X161925000Y-137195468D01*
X161925006Y-137195468D01*
X162104668Y-137179749D01*
X162151692Y-137175635D01*
X162371496Y-137116739D01*
X162577734Y-137020568D01*
X162764139Y-136890047D01*
X162925047Y-136729139D01*
X163055568Y-136542734D01*
X163151739Y-136336496D01*
X163210635Y-136116692D01*
X163217803Y-136034761D01*
X163230468Y-135890005D01*
X163230468Y-135889994D01*
X163211383Y-135671854D01*
X163210635Y-135663308D01*
X163151739Y-135443504D01*
X163090915Y-135313068D01*
X163055571Y-135237272D01*
X163055563Y-135237258D01*
X162925050Y-135050865D01*
X162925049Y-135050864D01*
X162925047Y-135050861D01*
X162764139Y-134889953D01*
X162764135Y-134889950D01*
X162764134Y-134889949D01*
X162577741Y-134759436D01*
X162577727Y-134759428D01*
X162371499Y-134663262D01*
X162371496Y-134663261D01*
X162151694Y-134604365D01*
X162151679Y-134604363D01*
X161925006Y-134584532D01*
X161924994Y-134584532D01*
X161698320Y-134604363D01*
X161698305Y-134604365D01*
X161478503Y-134663261D01*
X161478500Y-134663262D01*
X161272272Y-134759428D01*
X161272258Y-134759436D01*
X161085865Y-134889949D01*
X160924949Y-135050865D01*
X160794436Y-135237258D01*
X160794428Y-135237272D01*
X160698262Y-135443500D01*
X160698261Y-135443503D01*
X160639365Y-135663305D01*
X160639363Y-135663320D01*
X160619532Y-135889994D01*
X160619532Y-135890005D01*
X153550000Y-135890005D01*
X153550000Y-135675376D01*
X153549999Y-135675371D01*
X153535495Y-135602456D01*
X153535495Y-135602455D01*
X153480241Y-135519762D01*
X153480237Y-135519758D01*
X153397544Y-135464504D01*
X153324628Y-135450000D01*
X152800001Y-135450000D01*
X152800000Y-135450001D01*
X152800000Y-136199999D01*
X152612142Y-136199999D01*
X152597453Y-136189984D01*
X152467827Y-136150000D01*
X152366276Y-136150000D01*
X152265862Y-136165135D01*
X152143643Y-136223993D01*
X152044202Y-136316260D01*
X152000000Y-136392820D01*
X152000000Y-135450001D01*
X151999999Y-135450000D01*
X151475371Y-135450000D01*
X151402456Y-135464504D01*
X151402455Y-135464504D01*
X151319762Y-135519758D01*
X151319756Y-135519764D01*
X151264036Y-135603155D01*
X151195336Y-135671854D01*
X151105577Y-135709033D01*
X151008422Y-135709032D01*
X150918663Y-135671852D01*
X150873807Y-135633461D01*
X150811786Y-135566089D01*
X150811779Y-135566083D01*
X150628628Y-135423531D01*
X150424512Y-135313068D01*
X150424507Y-135313066D01*
X150424503Y-135313064D01*
X150204981Y-135237702D01*
X150204978Y-135237701D01*
X150204974Y-135237700D01*
X149976049Y-135199500D01*
X149743951Y-135199500D01*
X149515025Y-135237700D01*
X149515019Y-135237701D01*
X149515019Y-135237702D01*
X149295497Y-135313064D01*
X149295494Y-135313065D01*
X149295487Y-135313068D01*
X149091371Y-135423531D01*
X148908220Y-135566083D01*
X148908214Y-135566088D01*
X148751022Y-135736844D01*
X148751019Y-135736848D01*
X148624074Y-135931153D01*
X148530842Y-136143702D01*
X148530841Y-136143706D01*
X148473868Y-136368684D01*
X148473866Y-136368691D01*
X148454700Y-136600000D01*
X132756696Y-136600000D01*
X131967332Y-136149755D01*
X130892180Y-135490901D01*
X129852607Y-134808029D01*
X140644513Y-134808029D01*
X140664344Y-135034703D01*
X140664346Y-135034718D01*
X140723242Y-135254520D01*
X140723243Y-135254523D01*
X140819409Y-135460751D01*
X140819417Y-135460765D01*
X140949930Y-135647158D01*
X140949934Y-135647163D01*
X141110842Y-135808071D01*
X141110845Y-135808073D01*
X141110846Y-135808074D01*
X141297239Y-135938587D01*
X141297243Y-135938589D01*
X141297247Y-135938592D01*
X141503485Y-136034763D01*
X141723289Y-136093659D01*
X141742965Y-136095380D01*
X141949975Y-136113492D01*
X141949981Y-136113492D01*
X141949987Y-136113492D01*
X142129649Y-136097773D01*
X142176673Y-136093659D01*
X142396477Y-136034763D01*
X142602715Y-135938592D01*
X142789120Y-135808071D01*
X142950028Y-135647163D01*
X143080549Y-135460758D01*
X143176720Y-135254520D01*
X143235616Y-135034716D01*
X143248281Y-134889953D01*
X143255449Y-134808029D01*
X143255449Y-134808018D01*
X143235617Y-134581344D01*
X143235616Y-134581332D01*
X143176720Y-134361528D01*
X143080549Y-134155290D01*
X143080546Y-134155286D01*
X143080544Y-134155282D01*
X142950031Y-133968889D01*
X142950030Y-133968888D01*
X142950028Y-133968885D01*
X142789120Y-133807977D01*
X142789116Y-133807974D01*
X142789115Y-133807973D01*
X142602722Y-133677460D01*
X142602708Y-133677452D01*
X142396480Y-133581286D01*
X142396477Y-133581285D01*
X142176675Y-133522389D01*
X142176660Y-133522387D01*
X141949987Y-133502556D01*
X141949975Y-133502556D01*
X141723301Y-133522387D01*
X141723286Y-133522389D01*
X141503484Y-133581285D01*
X141503481Y-133581286D01*
X141297253Y-133677452D01*
X141297239Y-133677460D01*
X141110846Y-133807973D01*
X140949930Y-133968889D01*
X140819417Y-134155282D01*
X140819409Y-134155296D01*
X140723243Y-134361524D01*
X140723242Y-134361527D01*
X140664346Y-134581329D01*
X140664344Y-134581344D01*
X140644513Y-134808018D01*
X140644513Y-134808029D01*
X129852607Y-134808029D01*
X129838254Y-134798601D01*
X128806594Y-134073538D01*
X127798217Y-133316427D01*
X126814120Y-132528016D01*
X125855272Y-131709083D01*
X124922621Y-130860436D01*
X124017087Y-129982913D01*
X123139564Y-129077379D01*
X122290917Y-128144728D01*
X121693081Y-127444751D01*
X127120931Y-127444751D01*
X127491901Y-127815721D01*
X127553716Y-127857024D01*
X127651260Y-127876427D01*
X127651264Y-127876427D01*
X127748807Y-127857024D01*
X127810626Y-127815718D01*
X127810629Y-127815716D01*
X128181591Y-127444752D01*
X127651261Y-126914422D01*
X127120931Y-127444751D01*
X121693081Y-127444751D01*
X121471984Y-127185880D01*
X120683573Y-126201783D01*
X119926462Y-125193406D01*
X119476156Y-124552686D01*
X124449911Y-124552686D01*
X124469077Y-124783994D01*
X124469079Y-124784001D01*
X124526052Y-125008979D01*
X124526053Y-125008983D01*
X124619285Y-125221532D01*
X124746230Y-125415837D01*
X124746233Y-125415841D01*
X124894735Y-125577157D01*
X124903427Y-125586599D01*
X125086585Y-125729156D01*
X125184074Y-125781914D01*
X125290698Y-125839617D01*
X125290700Y-125839617D01*
X125290708Y-125839622D01*
X125510230Y-125914984D01*
X125739162Y-125953186D01*
X125898845Y-125953186D01*
X125994133Y-125972140D01*
X126074915Y-126026116D01*
X126128891Y-126106898D01*
X126147845Y-126202186D01*
X126143060Y-126250764D01*
X126123572Y-126348735D01*
X126123572Y-126348738D01*
X126142974Y-126446282D01*
X126184277Y-126508097D01*
X126555246Y-126879066D01*
X127220480Y-126213832D01*
X127197452Y-126314729D01*
X127207589Y-126450002D01*
X127257149Y-126576278D01*
X127341727Y-126682336D01*
X127453809Y-126758753D01*
X127583435Y-126798737D01*
X127684986Y-126798737D01*
X127785400Y-126783602D01*
X127907619Y-126724744D01*
X128007060Y-126632477D01*
X128074887Y-126514997D01*
X128105072Y-126382745D01*
X128102523Y-126348736D01*
X128216947Y-126348736D01*
X128747277Y-126879066D01*
X129118241Y-126508104D01*
X129118243Y-126508101D01*
X129159549Y-126446282D01*
X129178952Y-126348738D01*
X129178952Y-126348735D01*
X129159549Y-126251191D01*
X129118246Y-126189376D01*
X128747276Y-125818406D01*
X128216947Y-126348736D01*
X128102523Y-126348736D01*
X128094935Y-126247472D01*
X128045375Y-126121196D01*
X127960797Y-126015138D01*
X127848715Y-125938721D01*
X127719089Y-125898737D01*
X127617538Y-125898737D01*
X127521030Y-125913283D01*
X127644191Y-125790123D01*
X128181591Y-125252721D01*
X127810622Y-124881752D01*
X127748807Y-124840449D01*
X127651264Y-124821047D01*
X127651262Y-124821047D01*
X127555358Y-124840123D01*
X127458203Y-124840122D01*
X127368444Y-124802942D01*
X127299745Y-124734243D01*
X127262566Y-124644483D01*
X127258633Y-124575345D01*
X127260511Y-124552686D01*
X127241345Y-124321381D01*
X127184368Y-124096386D01*
X127091135Y-123883837D01*
X126971355Y-123700500D01*
X126964191Y-123689534D01*
X126964188Y-123689530D01*
X126806996Y-123518774D01*
X126806990Y-123518769D01*
X126623839Y-123376217D01*
X126419723Y-123265754D01*
X126419718Y-123265752D01*
X126419714Y-123265750D01*
X126200192Y-123190388D01*
X126200189Y-123190387D01*
X126200185Y-123190386D01*
X125971260Y-123152186D01*
X125739162Y-123152186D01*
X125510236Y-123190386D01*
X125510230Y-123190387D01*
X125510230Y-123190388D01*
X125290708Y-123265750D01*
X125290705Y-123265751D01*
X125290698Y-123265754D01*
X125086582Y-123376217D01*
X124903431Y-123518769D01*
X124903425Y-123518774D01*
X124746233Y-123689530D01*
X124746230Y-123689534D01*
X124619285Y-123883839D01*
X124526053Y-124096388D01*
X124526052Y-124096392D01*
X124469079Y-124321370D01*
X124469077Y-124321377D01*
X124449911Y-124552686D01*
X119476156Y-124552686D01*
X119201399Y-124161746D01*
X118509099Y-123107820D01*
X117850245Y-122032668D01*
X117225488Y-120937352D01*
X117068051Y-120640005D01*
X132034532Y-120640005D01*
X132054363Y-120866679D01*
X132054365Y-120866694D01*
X132113261Y-121086496D01*
X132113262Y-121086499D01*
X132209428Y-121292727D01*
X132209436Y-121292741D01*
X132339949Y-121479134D01*
X132339953Y-121479139D01*
X132500861Y-121640047D01*
X132500864Y-121640049D01*
X132500865Y-121640050D01*
X132687258Y-121770563D01*
X132687262Y-121770565D01*
X132687266Y-121770568D01*
X132893504Y-121866739D01*
X133113308Y-121925635D01*
X133132984Y-121927356D01*
X133339994Y-121945468D01*
X133340000Y-121945468D01*
X133340006Y-121945468D01*
X133519668Y-121929749D01*
X133566692Y-121925635D01*
X133786496Y-121866739D01*
X133992734Y-121770568D01*
X134179139Y-121640047D01*
X134340047Y-121479139D01*
X134470568Y-121292734D01*
X134566739Y-121086496D01*
X134625635Y-120866692D01*
X134645468Y-120640000D01*
X134645468Y-120639994D01*
X134625636Y-120413320D01*
X134625635Y-120413308D01*
X134566739Y-120193504D01*
X134470568Y-119987266D01*
X134470565Y-119987262D01*
X134470563Y-119987258D01*
X134340050Y-119800865D01*
X134340049Y-119800864D01*
X134340047Y-119800861D01*
X134179139Y-119639953D01*
X134179135Y-119639950D01*
X134179134Y-119639949D01*
X133992741Y-119509436D01*
X133992727Y-119509428D01*
X133786499Y-119413262D01*
X133786496Y-119413261D01*
X133566694Y-119354365D01*
X133566679Y-119354363D01*
X133340006Y-119334532D01*
X133339994Y-119334532D01*
X133113320Y-119354363D01*
X133113305Y-119354365D01*
X132893503Y-119413261D01*
X132893500Y-119413262D01*
X132687272Y-119509428D01*
X132687258Y-119509436D01*
X132500865Y-119639949D01*
X132339949Y-119800865D01*
X132209436Y-119987258D01*
X132209428Y-119987272D01*
X132113262Y-120193500D01*
X132113261Y-120193503D01*
X132054365Y-120413305D01*
X132054363Y-120413320D01*
X132034532Y-120639994D01*
X132034532Y-120640005D01*
X117068051Y-120640005D01*
X116635444Y-119822951D01*
X116080695Y-118690568D01*
X115687612Y-117819986D01*
X119532556Y-117819986D01*
X119552387Y-118046660D01*
X119552389Y-118046675D01*
X119611285Y-118266477D01*
X119611286Y-118266480D01*
X119707452Y-118472708D01*
X119707460Y-118472722D01*
X119837973Y-118659115D01*
X119837977Y-118659120D01*
X119998885Y-118820028D01*
X119998888Y-118820030D01*
X119998889Y-118820031D01*
X120185282Y-118950544D01*
X120185286Y-118950546D01*
X120185290Y-118950549D01*
X120185294Y-118950550D01*
X120185296Y-118950552D01*
X120291337Y-119000000D01*
X120391528Y-119046720D01*
X120611332Y-119105616D01*
X120631008Y-119107337D01*
X120838018Y-119125449D01*
X120838024Y-119125449D01*
X120838030Y-119125449D01*
X121017692Y-119109730D01*
X121064716Y-119105616D01*
X121284520Y-119046720D01*
X121490758Y-118950549D01*
X121677163Y-118820028D01*
X121838071Y-118659120D01*
X121968592Y-118472715D01*
X122064763Y-118266477D01*
X122123659Y-118046673D01*
X122138637Y-117875473D01*
X122143492Y-117819986D01*
X122143492Y-117819975D01*
X122123660Y-117593301D01*
X122123659Y-117593289D01*
X122064763Y-117373485D01*
X122022237Y-117282288D01*
X121968595Y-117167253D01*
X121968587Y-117167239D01*
X121838074Y-116980846D01*
X121838073Y-116980845D01*
X121838071Y-116980842D01*
X121677163Y-116819934D01*
X121677159Y-116819931D01*
X121677158Y-116819930D01*
X121490765Y-116689417D01*
X121490751Y-116689409D01*
X121284523Y-116593243D01*
X121284520Y-116593242D01*
X121064718Y-116534346D01*
X121064703Y-116534344D01*
X120838030Y-116514513D01*
X120838018Y-116514513D01*
X120611344Y-116534344D01*
X120611329Y-116534346D01*
X120391527Y-116593242D01*
X120391524Y-116593243D01*
X120185296Y-116689409D01*
X120185282Y-116689417D01*
X119998889Y-116819930D01*
X119837973Y-116980846D01*
X119707460Y-117167239D01*
X119707452Y-117167253D01*
X119611286Y-117373481D01*
X119611285Y-117373484D01*
X119552389Y-117593286D01*
X119552387Y-117593301D01*
X119532556Y-117819975D01*
X119532556Y-117819986D01*
X115687612Y-117819986D01*
X115561788Y-117541318D01*
X115079237Y-116376335D01*
X114633516Y-115196771D01*
X114225067Y-114003788D01*
X113925492Y-113030005D01*
X126279341Y-113030005D01*
X126299935Y-113265401D01*
X126353818Y-113466499D01*
X126361097Y-113493663D01*
X126444596Y-113672727D01*
X126460965Y-113707830D01*
X126545906Y-113829139D01*
X126596505Y-113901401D01*
X126763599Y-114068495D01*
X126957170Y-114204035D01*
X127171337Y-114303903D01*
X127399592Y-114365063D01*
X127399595Y-114365063D01*
X127399598Y-114365064D01*
X127634995Y-114385659D01*
X127635000Y-114385659D01*
X127635005Y-114385659D01*
X127870401Y-114365064D01*
X127870403Y-114365063D01*
X127870408Y-114365063D01*
X128098663Y-114303903D01*
X128312830Y-114204035D01*
X128506401Y-114068495D01*
X128673495Y-113901401D01*
X128809035Y-113707830D01*
X128908903Y-113493663D01*
X128970063Y-113265408D01*
X128970064Y-113265401D01*
X128990659Y-113030005D01*
X128990659Y-113029994D01*
X128989785Y-113020005D01*
X132034532Y-113020005D01*
X132054363Y-113246679D01*
X132054365Y-113246694D01*
X132113261Y-113466496D01*
X132113262Y-113466499D01*
X132209428Y-113672727D01*
X132209436Y-113672741D01*
X132339949Y-113859134D01*
X132339953Y-113859139D01*
X132500861Y-114020047D01*
X132500864Y-114020049D01*
X132500865Y-114020050D01*
X132687258Y-114150563D01*
X132687262Y-114150565D01*
X132687266Y-114150568D01*
X132893504Y-114246739D01*
X133113308Y-114305635D01*
X133132984Y-114307356D01*
X133339994Y-114325468D01*
X133340000Y-114325468D01*
X133340006Y-114325468D01*
X133519668Y-114309749D01*
X133566692Y-114305635D01*
X133786496Y-114246739D01*
X133992734Y-114150568D01*
X134179139Y-114020047D01*
X134340047Y-113859139D01*
X134470568Y-113672734D01*
X134566739Y-113466496D01*
X134625635Y-113246692D01*
X134644593Y-113030004D01*
X134645468Y-113020005D01*
X134645468Y-113019994D01*
X134625636Y-112793320D01*
X134625635Y-112793308D01*
X134566739Y-112573504D01*
X134475231Y-112377266D01*
X134470571Y-112367272D01*
X134470563Y-112367258D01*
X134340050Y-112180865D01*
X134340049Y-112180864D01*
X134340047Y-112180861D01*
X134179139Y-112019953D01*
X134179133Y-112019949D01*
X134056341Y-111933970D01*
X133989156Y-111863789D01*
X133953943Y-111773240D01*
X133956062Y-111676108D01*
X133995190Y-111587181D01*
X134056341Y-111526030D01*
X134179139Y-111440047D01*
X134340047Y-111279139D01*
X134470568Y-111092734D01*
X134566739Y-110886496D01*
X134625635Y-110666692D01*
X134635553Y-110553327D01*
X134645468Y-110440005D01*
X134645468Y-110439994D01*
X134625636Y-110213320D01*
X134625635Y-110213308D01*
X134566739Y-109993504D01*
X134519487Y-109892173D01*
X134470571Y-109787272D01*
X134470563Y-109787258D01*
X134340050Y-109600865D01*
X134340049Y-109600864D01*
X134340047Y-109600861D01*
X134179139Y-109439953D01*
X134179135Y-109439950D01*
X134179134Y-109439949D01*
X133992741Y-109309436D01*
X133992727Y-109309428D01*
X133786499Y-109213262D01*
X133786496Y-109213261D01*
X133566694Y-109154365D01*
X133566679Y-109154363D01*
X133340006Y-109134532D01*
X133339994Y-109134532D01*
X133113320Y-109154363D01*
X133113305Y-109154365D01*
X132893503Y-109213261D01*
X132893500Y-109213262D01*
X132687272Y-109309428D01*
X132687258Y-109309436D01*
X132500865Y-109439949D01*
X132339949Y-109600865D01*
X132209436Y-109787258D01*
X132209428Y-109787272D01*
X132113262Y-109993500D01*
X132113261Y-109993503D01*
X132054365Y-110213305D01*
X132054363Y-110213320D01*
X132034532Y-110439994D01*
X132034532Y-110440005D01*
X132054363Y-110666679D01*
X132054365Y-110666694D01*
X132113261Y-110886496D01*
X132113262Y-110886499D01*
X132209428Y-111092727D01*
X132209436Y-111092741D01*
X132339949Y-111279134D01*
X132339953Y-111279139D01*
X132500861Y-111440047D01*
X132500864Y-111440049D01*
X132500865Y-111440050D01*
X132623659Y-111526031D01*
X132690843Y-111596212D01*
X132726056Y-111686761D01*
X132723937Y-111783893D01*
X132684808Y-111872820D01*
X132623659Y-111933969D01*
X132500865Y-112019949D01*
X132339949Y-112180865D01*
X132209436Y-112367258D01*
X132209428Y-112367272D01*
X132113262Y-112573500D01*
X132113261Y-112573503D01*
X132054365Y-112793305D01*
X132054363Y-112793320D01*
X132034532Y-113019994D01*
X132034532Y-113020005D01*
X128989785Y-113020005D01*
X128970064Y-112794598D01*
X128970063Y-112794595D01*
X128970063Y-112794592D01*
X128908903Y-112566337D01*
X128820737Y-112377266D01*
X128809038Y-112352177D01*
X128809034Y-112352169D01*
X128759724Y-112281747D01*
X128673495Y-112158599D01*
X128506401Y-111991505D01*
X128467074Y-111963967D01*
X128399891Y-111893789D01*
X128364678Y-111803240D01*
X128366797Y-111706108D01*
X128405925Y-111617181D01*
X128467073Y-111556032D01*
X128506401Y-111528495D01*
X128673495Y-111361401D01*
X128809035Y-111167830D01*
X128908903Y-110953663D01*
X128970063Y-110725408D01*
X128970064Y-110725401D01*
X128990659Y-110490005D01*
X128990659Y-110489994D01*
X128970064Y-110254598D01*
X128970063Y-110254595D01*
X128970063Y-110254592D01*
X128908903Y-110026337D01*
X128820737Y-109837266D01*
X128809038Y-109812177D01*
X128809034Y-109812169D01*
X128734586Y-109705847D01*
X128673495Y-109618599D01*
X128673492Y-109618596D01*
X128670151Y-109614614D01*
X128668150Y-109610966D01*
X128667259Y-109609694D01*
X128667398Y-109609596D01*
X128623423Y-109529434D01*
X128612848Y-109432857D01*
X128640037Y-109339584D01*
X128700850Y-109263815D01*
X128713571Y-109255135D01*
X128713073Y-109254469D01*
X128727329Y-109243796D01*
X128727331Y-109243796D01*
X128842546Y-109157546D01*
X128928796Y-109042331D01*
X128979091Y-108907483D01*
X128985500Y-108847873D01*
X128985499Y-107052128D01*
X128979091Y-106992517D01*
X128928796Y-106857669D01*
X128842546Y-106742454D01*
X128727331Y-106656204D01*
X128643358Y-106624884D01*
X128592481Y-106605908D01*
X128532873Y-106599500D01*
X126737134Y-106599500D01*
X126737130Y-106599500D01*
X126737128Y-106599501D01*
X126724314Y-106600878D01*
X126677519Y-106605908D01*
X126677515Y-106605909D01*
X126542670Y-106656203D01*
X126427455Y-106742453D01*
X126427453Y-106742455D01*
X126341204Y-106857669D01*
X126290908Y-106992518D01*
X126284500Y-107052123D01*
X126284500Y-108847865D01*
X126284500Y-108847868D01*
X126284501Y-108847872D01*
X126286298Y-108864592D01*
X126290908Y-108907480D01*
X126290909Y-108907484D01*
X126334668Y-109024807D01*
X126341204Y-109042331D01*
X126427454Y-109157546D01*
X126542669Y-109243796D01*
X126542670Y-109243796D01*
X126556927Y-109254469D01*
X126554454Y-109257771D01*
X126602965Y-109298305D01*
X126648006Y-109384389D01*
X126656675Y-109481156D01*
X126627653Y-109573875D01*
X126599855Y-109614605D01*
X126596513Y-109618587D01*
X126460965Y-109812169D01*
X126460961Y-109812177D01*
X126361098Y-110026333D01*
X126361097Y-110026335D01*
X126299935Y-110254598D01*
X126279341Y-110489994D01*
X126279341Y-110490005D01*
X126299935Y-110725401D01*
X126361096Y-110953660D01*
X126460965Y-111167830D01*
X126546859Y-111290500D01*
X126596505Y-111361401D01*
X126763599Y-111528495D01*
X126802925Y-111556031D01*
X126870107Y-111626209D01*
X126905321Y-111716758D01*
X126903202Y-111813890D01*
X126864074Y-111902818D01*
X126802928Y-111963965D01*
X126763603Y-111991501D01*
X126596504Y-112158600D01*
X126460965Y-112352169D01*
X126460961Y-112352177D01*
X126361098Y-112566333D01*
X126361097Y-112566335D01*
X126299935Y-112794598D01*
X126279341Y-113029994D01*
X126279341Y-113030005D01*
X113925492Y-113030005D01*
X113854292Y-112798564D01*
X113778763Y-112522478D01*
X113521556Y-111582288D01*
X113328949Y-110780024D01*
X116616508Y-110780024D01*
X116636339Y-111006698D01*
X116636341Y-111006713D01*
X116695237Y-111226515D01*
X116695238Y-111226518D01*
X116791404Y-111432746D01*
X116791412Y-111432760D01*
X116921925Y-111619153D01*
X116921929Y-111619158D01*
X117082837Y-111780066D01*
X117082840Y-111780068D01*
X117082841Y-111780069D01*
X117269234Y-111910582D01*
X117269238Y-111910584D01*
X117269242Y-111910587D01*
X117269246Y-111910588D01*
X117269248Y-111910590D01*
X117375813Y-111960282D01*
X117475480Y-112006758D01*
X117695284Y-112065654D01*
X117714960Y-112067375D01*
X117921970Y-112085487D01*
X117921976Y-112085487D01*
X117921982Y-112085487D01*
X118101644Y-112069768D01*
X118148668Y-112065654D01*
X118368472Y-112006758D01*
X118574710Y-111910587D01*
X118761115Y-111780066D01*
X118922023Y-111619158D01*
X119052544Y-111432753D01*
X119148715Y-111226515D01*
X119207611Y-111006711D01*
X119218128Y-110886499D01*
X119227444Y-110780023D01*
X119227444Y-110780019D01*
X119227443Y-110780013D01*
X119223614Y-110736247D01*
X119234189Y-110639673D01*
X119280918Y-110554494D01*
X119295584Y-110538487D01*
X123421159Y-106412913D01*
X132932769Y-106412913D01*
X132936232Y-106414765D01*
X132936244Y-106414770D01*
X133134163Y-106474808D01*
X133339999Y-106495081D01*
X133340001Y-106495081D01*
X133545837Y-106474807D01*
X133743754Y-106414770D01*
X133743766Y-106414766D01*
X133747228Y-106412914D01*
X133339999Y-106005685D01*
X132932769Y-106412913D01*
X123421159Y-106412913D01*
X125074645Y-104759428D01*
X125155425Y-104705454D01*
X125250713Y-104686500D01*
X132137443Y-104686500D01*
X132232731Y-104705454D01*
X132313513Y-104759430D01*
X132367489Y-104840212D01*
X132386443Y-104935500D01*
X132368736Y-105024518D01*
X132368783Y-105024532D01*
X132368641Y-105024999D01*
X132367491Y-105030782D01*
X132365234Y-105036230D01*
X132305191Y-105234164D01*
X132284919Y-105439999D01*
X132284919Y-105440000D01*
X132305192Y-105645837D01*
X132365229Y-105843756D01*
X132367085Y-105847227D01*
X133163929Y-105050384D01*
X133244711Y-104996408D01*
X133339999Y-104977454D01*
X133435287Y-104996408D01*
X133516068Y-105050384D01*
X133578041Y-105112357D01*
X133465148Y-105054835D01*
X133371481Y-105040000D01*
X133308519Y-105040000D01*
X133214852Y-105054835D01*
X133101955Y-105112359D01*
X133012359Y-105201955D01*
X132954835Y-105314852D01*
X132935014Y-105440000D01*
X132954835Y-105565148D01*
X133012359Y-105678045D01*
X133101955Y-105767641D01*
X133214852Y-105825165D01*
X133308519Y-105840000D01*
X133371481Y-105840000D01*
X133465148Y-105825165D01*
X133578045Y-105767641D01*
X133667641Y-105678045D01*
X133725165Y-105565148D01*
X133744986Y-105440000D01*
X133725165Y-105314852D01*
X133667642Y-105201958D01*
X134312914Y-105847229D01*
X134314766Y-105843766D01*
X134314770Y-105843754D01*
X134374807Y-105645837D01*
X134395081Y-105440000D01*
X134395081Y-105439999D01*
X134374808Y-105234164D01*
X134314765Y-105036230D01*
X134312509Y-105030782D01*
X134311359Y-105025000D01*
X134311217Y-105024532D01*
X134311263Y-105024518D01*
X134293557Y-104935494D01*
X134312513Y-104840206D01*
X134366492Y-104759426D01*
X134447275Y-104705452D01*
X134542557Y-104686500D01*
X135861000Y-104686500D01*
X135956288Y-104705454D01*
X136037070Y-104759430D01*
X136091046Y-104840212D01*
X136110000Y-104935500D01*
X136110000Y-105009999D01*
X136110001Y-105010000D01*
X137128519Y-105010000D01*
X137034852Y-105024835D01*
X136921955Y-105082359D01*
X136832359Y-105171955D01*
X136774835Y-105284852D01*
X136755014Y-105410000D01*
X136774835Y-105535148D01*
X136832359Y-105648045D01*
X136921955Y-105737641D01*
X137034852Y-105795165D01*
X137128519Y-105810000D01*
X136110001Y-105810000D01*
X136110000Y-105810001D01*
X136110000Y-106234628D01*
X136124504Y-106307543D01*
X136124504Y-106307544D01*
X136179758Y-106390237D01*
X136179762Y-106390241D01*
X136262454Y-106445494D01*
X136297131Y-106452392D01*
X136386891Y-106489571D01*
X136455591Y-106558269D01*
X136492771Y-106648028D01*
X136492772Y-106745183D01*
X136455593Y-106834943D01*
X136391377Y-106900576D01*
X136320866Y-106949948D01*
X136159949Y-107110865D01*
X136029436Y-107297258D01*
X136029428Y-107297272D01*
X135933262Y-107503500D01*
X135933261Y-107503503D01*
X135874365Y-107723305D01*
X135874363Y-107723320D01*
X135854532Y-107949994D01*
X135854532Y-107950005D01*
X135874363Y-108176679D01*
X135874365Y-108176694D01*
X135933261Y-108396496D01*
X135933262Y-108396499D01*
X136029428Y-108602727D01*
X136029436Y-108602741D01*
X136159949Y-108789134D01*
X136159953Y-108789139D01*
X136320861Y-108950047D01*
X136320864Y-108950049D01*
X136320865Y-108950050D01*
X136415096Y-109016031D01*
X136482280Y-109086212D01*
X136517493Y-109176761D01*
X136515374Y-109273893D01*
X136476245Y-109362820D01*
X136415096Y-109423969D01*
X136320865Y-109489949D01*
X136159949Y-109650865D01*
X136029436Y-109837258D01*
X136029428Y-109837272D01*
X135933262Y-110043500D01*
X135933261Y-110043503D01*
X135874365Y-110263305D01*
X135874363Y-110263320D01*
X135854532Y-110489994D01*
X135854532Y-110490005D01*
X135874363Y-110716679D01*
X135874365Y-110716694D01*
X135933261Y-110936496D01*
X135933262Y-110936499D01*
X136029428Y-111142727D01*
X136029436Y-111142741D01*
X136159949Y-111329134D01*
X136159953Y-111329139D01*
X136320861Y-111490047D01*
X136320864Y-111490049D01*
X136320865Y-111490050D01*
X136415096Y-111556031D01*
X136482280Y-111626212D01*
X136517493Y-111716761D01*
X136515374Y-111813893D01*
X136476245Y-111902820D01*
X136415096Y-111963969D01*
X136320865Y-112029949D01*
X136159949Y-112190865D01*
X136029436Y-112377258D01*
X136029428Y-112377272D01*
X135933262Y-112583500D01*
X135933261Y-112583503D01*
X135874365Y-112803305D01*
X135874363Y-112803320D01*
X135854532Y-113029994D01*
X135854532Y-113030005D01*
X135874363Y-113256679D01*
X135874365Y-113256694D01*
X135933261Y-113476496D01*
X135933262Y-113476499D01*
X136029428Y-113682727D01*
X136029436Y-113682741D01*
X136157252Y-113865282D01*
X136159953Y-113869139D01*
X136320861Y-114030047D01*
X136320864Y-114030049D01*
X136320865Y-114030050D01*
X136507258Y-114160563D01*
X136507262Y-114160565D01*
X136507266Y-114160568D01*
X136507270Y-114160569D01*
X136507272Y-114160571D01*
X136600481Y-114204035D01*
X136713504Y-114256739D01*
X136933308Y-114315635D01*
X136952984Y-114317356D01*
X137159994Y-114335468D01*
X137160000Y-114335468D01*
X137160006Y-114335468D01*
X137339668Y-114319749D01*
X137386692Y-114315635D01*
X137606496Y-114256739D01*
X137812734Y-114160568D01*
X137999139Y-114030047D01*
X138160047Y-113869139D01*
X138290568Y-113682734D01*
X138386739Y-113476496D01*
X138445635Y-113256692D01*
X138465468Y-113030000D01*
X138461638Y-112986228D01*
X138472213Y-112889654D01*
X138518942Y-112804475D01*
X138533609Y-112788467D01*
X143115657Y-108206419D01*
X143196436Y-108152446D01*
X143291724Y-108133492D01*
X143387012Y-108152446D01*
X143467794Y-108206422D01*
X143521770Y-108287204D01*
X143532239Y-108318044D01*
X143553260Y-108396493D01*
X143553262Y-108396499D01*
X143649428Y-108602727D01*
X143649436Y-108602741D01*
X143779949Y-108789134D01*
X143779953Y-108789139D01*
X143940861Y-108950047D01*
X143940864Y-108950049D01*
X143940865Y-108950050D01*
X144035096Y-109016031D01*
X144102280Y-109086212D01*
X144137493Y-109176761D01*
X144135374Y-109273893D01*
X144096245Y-109362820D01*
X144035096Y-109423969D01*
X143940865Y-109489949D01*
X143779949Y-109650865D01*
X143649436Y-109837258D01*
X143649428Y-109837272D01*
X143553262Y-110043500D01*
X143553261Y-110043503D01*
X143494365Y-110263305D01*
X143494363Y-110263320D01*
X143474532Y-110489994D01*
X143474532Y-110490005D01*
X143494363Y-110716679D01*
X143494365Y-110716694D01*
X143553261Y-110936496D01*
X143553262Y-110936499D01*
X143649428Y-111142727D01*
X143649436Y-111142741D01*
X143779949Y-111329134D01*
X143779953Y-111329139D01*
X143940861Y-111490047D01*
X143940864Y-111490049D01*
X143940865Y-111490050D01*
X144035096Y-111556031D01*
X144102280Y-111626212D01*
X144137493Y-111716761D01*
X144135374Y-111813893D01*
X144096245Y-111902820D01*
X144035096Y-111963969D01*
X143940865Y-112029949D01*
X143779949Y-112190865D01*
X143649436Y-112377258D01*
X143649428Y-112377272D01*
X143553262Y-112583500D01*
X143553261Y-112583503D01*
X143494365Y-112803305D01*
X143494363Y-112803320D01*
X143474532Y-113029994D01*
X143474532Y-113030005D01*
X143494363Y-113256679D01*
X143494365Y-113256694D01*
X143553261Y-113476496D01*
X143553262Y-113476499D01*
X143649428Y-113682727D01*
X143649436Y-113682741D01*
X143777252Y-113865282D01*
X143779953Y-113869139D01*
X143940861Y-114030047D01*
X143940864Y-114030049D01*
X143940865Y-114030050D01*
X144127258Y-114160563D01*
X144127262Y-114160565D01*
X144127266Y-114160568D01*
X144127270Y-114160569D01*
X144127272Y-114160571D01*
X144220481Y-114204035D01*
X144333504Y-114256739D01*
X144553308Y-114315635D01*
X144572984Y-114317356D01*
X144779994Y-114335468D01*
X144780000Y-114335468D01*
X144780006Y-114335468D01*
X144959668Y-114319749D01*
X145006692Y-114315635D01*
X145226496Y-114256739D01*
X145432734Y-114160568D01*
X145619139Y-114030047D01*
X145780047Y-113869139D01*
X145910568Y-113682734D01*
X146006739Y-113476496D01*
X146065635Y-113256692D01*
X146085468Y-113030000D01*
X146085468Y-113029994D01*
X146081969Y-112990005D01*
X147284532Y-112990005D01*
X147304363Y-113216679D01*
X147304365Y-113216694D01*
X147363261Y-113436496D01*
X147363262Y-113436499D01*
X147459428Y-113642727D01*
X147459436Y-113642741D01*
X147546989Y-113767780D01*
X147589953Y-113829139D01*
X147750861Y-113990047D01*
X147750864Y-113990049D01*
X147750865Y-113990050D01*
X147937258Y-114120563D01*
X147937262Y-114120565D01*
X147937266Y-114120568D01*
X148143504Y-114216739D01*
X148363308Y-114275635D01*
X148382984Y-114277356D01*
X148589994Y-114295468D01*
X148590000Y-114295468D01*
X148590006Y-114295468D01*
X148769668Y-114279749D01*
X148816692Y-114275635D01*
X149036496Y-114216739D01*
X149242734Y-114120568D01*
X149429139Y-113990047D01*
X149590047Y-113829139D01*
X149720568Y-113642734D01*
X149816739Y-113436496D01*
X149875635Y-113216692D01*
X149891968Y-113030004D01*
X149895468Y-112990005D01*
X149895468Y-112989994D01*
X149875636Y-112763320D01*
X149875635Y-112763308D01*
X149816739Y-112543504D01*
X149739223Y-112377272D01*
X149720571Y-112337272D01*
X149720563Y-112337258D01*
X149590050Y-112150865D01*
X149590049Y-112150864D01*
X149590047Y-112150861D01*
X149429139Y-111989953D01*
X149429135Y-111989950D01*
X149429134Y-111989949D01*
X149242741Y-111859436D01*
X149242727Y-111859428D01*
X149036499Y-111763262D01*
X149036496Y-111763261D01*
X148816694Y-111704365D01*
X148816679Y-111704363D01*
X148590006Y-111684532D01*
X148589994Y-111684532D01*
X148363320Y-111704363D01*
X148363305Y-111704365D01*
X148143503Y-111763261D01*
X148143500Y-111763262D01*
X147937272Y-111859428D01*
X147937258Y-111859436D01*
X147750865Y-111989949D01*
X147589949Y-112150865D01*
X147459436Y-112337258D01*
X147459428Y-112337272D01*
X147363262Y-112543500D01*
X147363261Y-112543503D01*
X147304365Y-112763305D01*
X147304363Y-112763320D01*
X147284532Y-112989994D01*
X147284532Y-112990005D01*
X146081969Y-112990005D01*
X146065636Y-112803320D01*
X146065635Y-112803308D01*
X146006739Y-112583504D01*
X145910568Y-112377266D01*
X145910565Y-112377262D01*
X145910563Y-112377258D01*
X145780050Y-112190865D01*
X145780049Y-112190864D01*
X145780047Y-112190861D01*
X145619139Y-112029953D01*
X145619133Y-112029949D01*
X145564223Y-111991501D01*
X145524902Y-111963968D01*
X145457719Y-111893789D01*
X145422506Y-111803240D01*
X145424625Y-111706108D01*
X145463753Y-111617181D01*
X145524902Y-111556031D01*
X145619139Y-111490047D01*
X145780047Y-111329139D01*
X145910568Y-111142734D01*
X146006739Y-110936496D01*
X146065635Y-110716692D01*
X146085468Y-110490000D01*
X146085468Y-110489994D01*
X146065636Y-110263320D01*
X146065635Y-110263308D01*
X146006739Y-110043504D01*
X145910568Y-109837266D01*
X145910565Y-109837262D01*
X145910563Y-109837258D01*
X145780050Y-109650865D01*
X145780049Y-109650864D01*
X145780047Y-109650861D01*
X145619139Y-109489953D01*
X145619133Y-109489949D01*
X145547725Y-109439949D01*
X145524902Y-109423968D01*
X145457719Y-109353789D01*
X145422506Y-109263240D01*
X145424625Y-109166108D01*
X145463753Y-109077181D01*
X145524902Y-109016031D01*
X145600764Y-108962913D01*
X148182769Y-108962913D01*
X148186232Y-108964765D01*
X148186244Y-108964770D01*
X148384163Y-109024808D01*
X148589999Y-109045081D01*
X148590001Y-109045081D01*
X148795837Y-109024807D01*
X148993754Y-108964770D01*
X148993766Y-108964766D01*
X148997228Y-108962914D01*
X148589999Y-108555685D01*
X148182769Y-108962913D01*
X145600764Y-108962913D01*
X145619139Y-108950047D01*
X145780047Y-108789139D01*
X145910568Y-108602734D01*
X146006739Y-108396496D01*
X146065635Y-108176692D01*
X146075713Y-108061504D01*
X146081969Y-107990000D01*
X147534919Y-107990000D01*
X147555192Y-108195837D01*
X147615229Y-108393756D01*
X147617085Y-108397228D01*
X148024314Y-107990000D01*
X148185014Y-107990000D01*
X148204835Y-108115148D01*
X148262359Y-108228045D01*
X148351955Y-108317641D01*
X148464852Y-108375165D01*
X148558519Y-108390000D01*
X148621481Y-108390000D01*
X148715148Y-108375165D01*
X148828045Y-108317641D01*
X148917641Y-108228045D01*
X148975165Y-108115148D01*
X148994986Y-107990000D01*
X148994986Y-107989999D01*
X149155685Y-107989999D01*
X149562914Y-108397228D01*
X149564766Y-108393766D01*
X149564770Y-108393754D01*
X149624807Y-108195837D01*
X149645081Y-107990000D01*
X149645081Y-107989999D01*
X149624808Y-107784163D01*
X149564770Y-107586244D01*
X149564765Y-107586232D01*
X149562913Y-107582769D01*
X149155685Y-107989999D01*
X148994986Y-107989999D01*
X148975165Y-107864852D01*
X148917641Y-107751955D01*
X148828045Y-107662359D01*
X148715148Y-107604835D01*
X148621481Y-107590000D01*
X148558519Y-107590000D01*
X148464852Y-107604835D01*
X148351955Y-107662359D01*
X148262359Y-107751955D01*
X148204835Y-107864852D01*
X148185014Y-107990000D01*
X148024314Y-107990000D01*
X147617084Y-107582770D01*
X147615235Y-107586231D01*
X147615231Y-107586239D01*
X147555191Y-107784164D01*
X147534919Y-107989999D01*
X147534919Y-107990000D01*
X146081969Y-107990000D01*
X146085468Y-107950005D01*
X146085468Y-107949994D01*
X146065636Y-107723320D01*
X146065635Y-107723308D01*
X146006739Y-107503504D01*
X145910568Y-107297266D01*
X145910565Y-107297262D01*
X145910563Y-107297258D01*
X145780050Y-107110865D01*
X145780049Y-107110864D01*
X145780047Y-107110861D01*
X145686270Y-107017084D01*
X148182770Y-107017084D01*
X148590000Y-107424314D01*
X148997228Y-107017085D01*
X148993756Y-107015229D01*
X148795837Y-106955192D01*
X148590001Y-106934919D01*
X148589999Y-106934919D01*
X148384164Y-106955191D01*
X148186239Y-107015231D01*
X148186231Y-107015235D01*
X148182770Y-107017084D01*
X145686270Y-107017084D01*
X145619139Y-106949953D01*
X145619133Y-106949949D01*
X145548622Y-106900577D01*
X145524902Y-106883968D01*
X145457719Y-106813789D01*
X145422506Y-106723240D01*
X145424625Y-106626108D01*
X145463753Y-106537181D01*
X145524902Y-106476031D01*
X145619139Y-106410047D01*
X145780047Y-106249139D01*
X145910568Y-106062734D01*
X146006739Y-105856496D01*
X146065635Y-105636692D01*
X146077393Y-105502298D01*
X146085468Y-105410005D01*
X146085468Y-105409994D01*
X146065636Y-105183320D01*
X146065635Y-105183308D01*
X146016502Y-104999943D01*
X146010149Y-104902998D01*
X146041379Y-104811000D01*
X146105438Y-104737955D01*
X146192574Y-104694984D01*
X146257019Y-104686500D01*
X149569192Y-104686500D01*
X149569194Y-104686500D01*
X149606487Y-104677987D01*
X149620242Y-104675650D01*
X149658255Y-104671368D01*
X149694354Y-104658736D01*
X149707756Y-104654874D01*
X149745061Y-104646360D01*
X149779525Y-104629762D01*
X149792418Y-104624421D01*
X149828522Y-104611789D01*
X149860913Y-104591435D01*
X149873116Y-104584690D01*
X149907587Y-104568091D01*
X149937502Y-104544233D01*
X149948874Y-104536166D01*
X149949323Y-104535883D01*
X149981262Y-104515816D01*
X150058837Y-104438241D01*
X150108817Y-104388262D01*
X154355076Y-100142002D01*
X155797879Y-98699198D01*
X155878658Y-98645225D01*
X155973946Y-98626271D01*
X156069234Y-98645225D01*
X156150012Y-98699198D01*
X156240861Y-98790047D01*
X156240864Y-98790049D01*
X156240865Y-98790050D01*
X156335096Y-98856031D01*
X156402280Y-98926212D01*
X156437493Y-99016761D01*
X156435374Y-99113893D01*
X156396245Y-99202820D01*
X156335096Y-99263969D01*
X156240865Y-99329949D01*
X156079949Y-99490865D01*
X155949436Y-99677258D01*
X155949428Y-99677272D01*
X155853262Y-99883500D01*
X155853261Y-99883503D01*
X155794365Y-100103305D01*
X155794363Y-100103320D01*
X155774532Y-100329994D01*
X155774532Y-100330005D01*
X155794363Y-100556679D01*
X155794365Y-100556694D01*
X155853261Y-100776496D01*
X155853262Y-100776499D01*
X155949428Y-100982727D01*
X155949436Y-100982741D01*
X156079949Y-101169134D01*
X156079953Y-101169139D01*
X156240861Y-101330047D01*
X156240864Y-101330049D01*
X156240865Y-101330050D01*
X156335096Y-101396031D01*
X156402280Y-101466212D01*
X156437493Y-101556761D01*
X156435374Y-101653893D01*
X156396245Y-101742820D01*
X156335096Y-101803969D01*
X156240865Y-101869949D01*
X156079949Y-102030865D01*
X155949436Y-102217258D01*
X155949428Y-102217272D01*
X155853262Y-102423500D01*
X155853261Y-102423503D01*
X155794365Y-102643305D01*
X155794363Y-102643320D01*
X155774532Y-102869994D01*
X155774532Y-102870005D01*
X155794363Y-103096679D01*
X155794365Y-103096694D01*
X155853261Y-103316496D01*
X155853262Y-103316499D01*
X155949428Y-103522727D01*
X155949436Y-103522741D01*
X156079949Y-103709134D01*
X156079953Y-103709139D01*
X156240861Y-103870047D01*
X156240864Y-103870049D01*
X156240865Y-103870050D01*
X156427258Y-104000563D01*
X156427264Y-104000566D01*
X156427266Y-104000568D01*
X156543155Y-104054608D01*
X156621502Y-104112055D01*
X156671903Y-104195114D01*
X156686683Y-104291138D01*
X156663591Y-104385509D01*
X156606142Y-104463859D01*
X156555298Y-104499875D01*
X156493827Y-104532732D01*
X156333952Y-104663938D01*
X156333938Y-104663952D01*
X156202733Y-104823825D01*
X156105233Y-105006236D01*
X156104092Y-105010000D01*
X157448519Y-105010000D01*
X157354852Y-105024835D01*
X157241955Y-105082359D01*
X157152359Y-105171955D01*
X157094835Y-105284852D01*
X157075014Y-105410000D01*
X157094835Y-105535148D01*
X157152359Y-105648045D01*
X157241955Y-105737641D01*
X157354852Y-105795165D01*
X157448519Y-105810000D01*
X156104092Y-105810000D01*
X156105233Y-105813763D01*
X156202733Y-105996174D01*
X156333938Y-106156047D01*
X156333952Y-106156061D01*
X156493826Y-106287267D01*
X156555296Y-106320123D01*
X156630398Y-106381757D01*
X156676198Y-106467439D01*
X156685721Y-106564126D01*
X156657519Y-106657098D01*
X156595885Y-106732200D01*
X156543153Y-106765392D01*
X156427268Y-106819430D01*
X156427258Y-106819436D01*
X156240865Y-106949949D01*
X156079949Y-107110865D01*
X155949436Y-107297258D01*
X155949428Y-107297272D01*
X155853262Y-107503500D01*
X155853261Y-107503503D01*
X155794365Y-107723305D01*
X155794363Y-107723320D01*
X155774532Y-107949994D01*
X155774532Y-107950005D01*
X155794363Y-108176679D01*
X155794365Y-108176694D01*
X155853261Y-108396496D01*
X155853262Y-108396499D01*
X155949428Y-108602727D01*
X155949436Y-108602741D01*
X156079949Y-108789134D01*
X156079953Y-108789139D01*
X156240861Y-108950047D01*
X156240864Y-108950049D01*
X156240865Y-108950050D01*
X156427258Y-109080563D01*
X156427264Y-109080566D01*
X156427266Y-109080568D01*
X156543155Y-109134608D01*
X156621502Y-109192055D01*
X156671903Y-109275114D01*
X156686683Y-109371138D01*
X156663591Y-109465509D01*
X156606142Y-109543859D01*
X156555298Y-109579875D01*
X156493827Y-109612732D01*
X156333952Y-109743938D01*
X156333938Y-109743952D01*
X156202733Y-109903825D01*
X156105233Y-110086236D01*
X156104092Y-110090000D01*
X157448519Y-110090000D01*
X157354852Y-110104835D01*
X157241955Y-110162359D01*
X157152359Y-110251955D01*
X157094835Y-110364852D01*
X157075014Y-110490000D01*
X157094835Y-110615148D01*
X157152359Y-110728045D01*
X157241955Y-110817641D01*
X157354852Y-110875165D01*
X157448519Y-110890000D01*
X157511481Y-110890000D01*
X157605148Y-110875165D01*
X157718045Y-110817641D01*
X157807641Y-110728045D01*
X157865165Y-110615148D01*
X157884986Y-110490000D01*
X157865165Y-110364852D01*
X157807641Y-110251955D01*
X157718045Y-110162359D01*
X157605148Y-110104835D01*
X157511481Y-110090000D01*
X158855908Y-110090000D01*
X158854766Y-110086236D01*
X158757266Y-109903825D01*
X158626061Y-109743952D01*
X158626047Y-109743938D01*
X158466174Y-109612733D01*
X158404702Y-109579876D01*
X158329600Y-109518241D01*
X158283801Y-109432559D01*
X158274278Y-109335871D01*
X158302480Y-109242900D01*
X158364115Y-109167798D01*
X158416842Y-109134609D01*
X158532734Y-109080568D01*
X158719139Y-108950047D01*
X158880047Y-108789139D01*
X159010568Y-108602734D01*
X159106739Y-108396496D01*
X159165635Y-108176692D01*
X159175713Y-108061504D01*
X159185468Y-107950005D01*
X159185468Y-107949994D01*
X159165636Y-107723320D01*
X159165635Y-107723308D01*
X159106739Y-107503504D01*
X159010568Y-107297266D01*
X159010565Y-107297262D01*
X159010563Y-107297258D01*
X158880050Y-107110865D01*
X158880049Y-107110864D01*
X158880047Y-107110861D01*
X158719139Y-106949953D01*
X158719135Y-106949950D01*
X158719134Y-106949949D01*
X158532741Y-106819436D01*
X158532731Y-106819430D01*
X158416846Y-106765392D01*
X158338496Y-106707943D01*
X158288095Y-106624884D01*
X158273316Y-106528860D01*
X158296409Y-106434489D01*
X158353858Y-106356139D01*
X158404704Y-106320122D01*
X158466175Y-106287266D01*
X158626047Y-106156061D01*
X158626061Y-106156047D01*
X158757266Y-105996174D01*
X158854766Y-105813763D01*
X158855908Y-105810000D01*
X157511481Y-105810000D01*
X157605148Y-105795165D01*
X157718045Y-105737641D01*
X157807641Y-105648045D01*
X157865165Y-105535148D01*
X157884986Y-105410000D01*
X157865165Y-105284852D01*
X157807641Y-105171955D01*
X157718045Y-105082359D01*
X157605148Y-105024835D01*
X157511481Y-105010000D01*
X158855908Y-105010000D01*
X158854766Y-105006236D01*
X158757266Y-104823825D01*
X158626061Y-104663952D01*
X158626047Y-104663938D01*
X158466174Y-104532733D01*
X158404702Y-104499876D01*
X158329600Y-104438241D01*
X158283801Y-104352559D01*
X158274278Y-104255871D01*
X158302480Y-104162900D01*
X158364115Y-104087798D01*
X158416842Y-104054609D01*
X158532734Y-104000568D01*
X158719139Y-103870047D01*
X158880047Y-103709139D01*
X159010568Y-103522734D01*
X159106739Y-103316496D01*
X159165635Y-103096692D01*
X159177285Y-102963530D01*
X159185468Y-102870005D01*
X159185468Y-102869994D01*
X159165636Y-102643320D01*
X159165635Y-102643308D01*
X159106739Y-102423504D01*
X159042386Y-102285500D01*
X159010571Y-102217272D01*
X159010563Y-102217258D01*
X158880050Y-102030865D01*
X158880049Y-102030864D01*
X158880047Y-102030861D01*
X158719139Y-101869953D01*
X158719133Y-101869949D01*
X158690561Y-101849942D01*
X158624902Y-101803968D01*
X158557719Y-101733789D01*
X158522506Y-101643240D01*
X158524625Y-101546108D01*
X158563753Y-101457181D01*
X158624902Y-101396031D01*
X158719139Y-101330047D01*
X158880047Y-101169139D01*
X159010568Y-100982734D01*
X159106739Y-100776496D01*
X159165635Y-100556692D01*
X159173564Y-100466067D01*
X159185468Y-100330005D01*
X159185468Y-100329994D01*
X159165636Y-100103320D01*
X159165635Y-100103308D01*
X159133767Y-99984377D01*
X159127413Y-99887433D01*
X159158642Y-99795434D01*
X159198214Y-99743863D01*
X159862458Y-99079620D01*
X160617826Y-98324252D01*
X160649816Y-98292262D01*
X160670166Y-98259874D01*
X160678233Y-98248502D01*
X160702091Y-98218587D01*
X160718692Y-98184113D01*
X160725430Y-98171921D01*
X160745789Y-98139522D01*
X160758424Y-98103409D01*
X160763763Y-98090521D01*
X160780359Y-98056061D01*
X160788870Y-98018768D01*
X160792735Y-98005357D01*
X160805368Y-97969255D01*
X160809650Y-97931246D01*
X160811986Y-97917491D01*
X160820500Y-97880195D01*
X160820500Y-97699806D01*
X160820500Y-90887046D01*
X160820500Y-90841805D01*
X160811989Y-90804515D01*
X160809650Y-90790751D01*
X160805368Y-90752745D01*
X160792734Y-90716639D01*
X160788868Y-90703220D01*
X160780359Y-90665939D01*
X160763766Y-90631483D01*
X160758425Y-90618590D01*
X160745789Y-90582478D01*
X160725438Y-90550090D01*
X160718680Y-90537861D01*
X160702093Y-90503416D01*
X160702090Y-90503412D01*
X160678245Y-90473510D01*
X160670164Y-90462122D01*
X160649816Y-90429738D01*
X160522262Y-90302184D01*
X160460742Y-90240664D01*
X160406766Y-90159882D01*
X160387812Y-90064594D01*
X160406766Y-89969306D01*
X160460742Y-89888524D01*
X160465431Y-89885045D01*
X160467229Y-89872914D01*
X160060000Y-89465685D01*
X159821956Y-89227641D01*
X159934852Y-89285165D01*
X160028519Y-89300000D01*
X160091481Y-89300000D01*
X160185148Y-89285165D01*
X160298045Y-89227641D01*
X160387641Y-89138045D01*
X160445165Y-89025148D01*
X160464986Y-88900000D01*
X160464986Y-88899999D01*
X160625685Y-88899999D01*
X161032914Y-89307228D01*
X161034766Y-89303766D01*
X161034770Y-89303754D01*
X161094807Y-89105837D01*
X161115081Y-88900000D01*
X161115081Y-88899999D01*
X161094808Y-88694163D01*
X161034770Y-88496244D01*
X161034765Y-88496232D01*
X161032913Y-88492769D01*
X160625685Y-88899999D01*
X160464986Y-88899999D01*
X160445165Y-88774852D01*
X160387641Y-88661955D01*
X160298045Y-88572359D01*
X160185148Y-88514835D01*
X160091481Y-88500000D01*
X160028519Y-88500000D01*
X159934852Y-88514835D01*
X159821955Y-88572359D01*
X159732359Y-88661955D01*
X159674835Y-88774852D01*
X159655014Y-88900000D01*
X159674835Y-89025148D01*
X159732358Y-89138043D01*
X159087084Y-88492770D01*
X159070059Y-88495296D01*
X159053378Y-88515629D01*
X158967701Y-88561438D01*
X158871015Y-88570974D01*
X158778040Y-88542784D01*
X158719318Y-88499240D01*
X158147162Y-87927084D01*
X159652770Y-87927084D01*
X160060000Y-88334314D01*
X160467228Y-87927085D01*
X160463756Y-87925229D01*
X160265837Y-87865192D01*
X160060001Y-87844919D01*
X160059999Y-87844919D01*
X159854164Y-87865191D01*
X159656239Y-87925231D01*
X159656231Y-87925235D01*
X159652770Y-87927084D01*
X158147162Y-87927084D01*
X158015135Y-87795057D01*
X157961159Y-87714275D01*
X157942205Y-87618987D01*
X157961159Y-87523699D01*
X158015135Y-87442917D01*
X158095917Y-87388941D01*
X158139431Y-87375429D01*
X158267803Y-87348144D01*
X158355658Y-87309027D01*
X158450416Y-87287585D01*
X158456936Y-87287500D01*
X162212282Y-87287500D01*
X162307570Y-87306454D01*
X162388352Y-87360430D01*
X163686378Y-88658456D01*
X163740354Y-88739238D01*
X163759308Y-88834526D01*
X163758361Y-88856223D01*
X163754532Y-88899999D01*
X163754532Y-88900005D01*
X163774363Y-89126679D01*
X163774365Y-89126694D01*
X163833261Y-89346496D01*
X163833262Y-89346499D01*
X163929428Y-89552727D01*
X163929436Y-89552741D01*
X164059949Y-89739134D01*
X164059953Y-89739139D01*
X164186572Y-89865758D01*
X164240546Y-89946537D01*
X164259500Y-90041825D01*
X164259500Y-90220194D01*
X164268009Y-90257478D01*
X164270349Y-90271247D01*
X164274632Y-90309255D01*
X164287262Y-90345350D01*
X164291129Y-90358775D01*
X164299639Y-90396061D01*
X164316232Y-90430515D01*
X164321577Y-90443421D01*
X164334209Y-90479519D01*
X164354558Y-90511906D01*
X164361315Y-90524130D01*
X164377909Y-90558587D01*
X164396968Y-90582486D01*
X164401752Y-90588485D01*
X164409837Y-90599880D01*
X164430183Y-90632261D01*
X165921786Y-92123864D01*
X165975762Y-92204646D01*
X165994716Y-92299934D01*
X165986232Y-92364379D01*
X165954365Y-92483306D01*
X165954363Y-92483320D01*
X165934532Y-92709994D01*
X165934532Y-92710005D01*
X165954363Y-92936679D01*
X165954365Y-92936694D01*
X166013261Y-93156496D01*
X166013262Y-93156499D01*
X166109428Y-93362727D01*
X166109436Y-93362741D01*
X166236007Y-93543504D01*
X166239953Y-93549139D01*
X166400861Y-93710047D01*
X166400864Y-93710049D01*
X166400865Y-93710050D01*
X166495096Y-93776031D01*
X166562280Y-93846212D01*
X166597493Y-93936761D01*
X166595374Y-94033893D01*
X166556245Y-94122820D01*
X166495096Y-94183969D01*
X166400865Y-94249949D01*
X166400861Y-94249952D01*
X166400861Y-94249953D01*
X166239953Y-94410861D01*
X166239950Y-94410864D01*
X166232266Y-94418549D01*
X166230513Y-94416796D01*
X166168374Y-94466649D01*
X166108864Y-94488515D01*
X166103943Y-94489638D01*
X166103938Y-94489640D01*
X166069475Y-94506235D01*
X166056574Y-94511579D01*
X166020478Y-94524210D01*
X166020474Y-94524212D01*
X165988085Y-94544563D01*
X165975861Y-94551318D01*
X165941416Y-94567906D01*
X165941415Y-94567907D01*
X165911509Y-94591754D01*
X165900122Y-94599834D01*
X165867741Y-94620181D01*
X165835747Y-94652175D01*
X164597738Y-95890183D01*
X164470185Y-96017736D01*
X164470181Y-96017741D01*
X164449834Y-96050122D01*
X164441754Y-96061509D01*
X164417907Y-96091415D01*
X164417906Y-96091416D01*
X164401318Y-96125861D01*
X164394563Y-96138085D01*
X164374212Y-96170474D01*
X164374210Y-96170478D01*
X164361579Y-96206574D01*
X164356235Y-96219475D01*
X164339640Y-96253938D01*
X164339638Y-96253944D01*
X164331128Y-96291227D01*
X164327262Y-96304644D01*
X164314631Y-96340745D01*
X164310347Y-96378756D01*
X164308009Y-96392520D01*
X164299500Y-96429808D01*
X164299500Y-107515282D01*
X164280546Y-107610570D01*
X164226570Y-107691352D01*
X157532386Y-114385535D01*
X157451604Y-114439511D01*
X157356316Y-114458465D01*
X157261028Y-114439511D01*
X157180246Y-114385535D01*
X157126270Y-114304753D01*
X157108680Y-114235492D01*
X157105374Y-114204034D01*
X157095674Y-114111744D01*
X157037179Y-113931716D01*
X156942533Y-113767784D01*
X156942531Y-113767781D01*
X156942530Y-113767780D01*
X156815873Y-113627114D01*
X156815872Y-113627113D01*
X156815871Y-113627112D01*
X156662730Y-113515849D01*
X156662729Y-113515848D01*
X156515975Y-113450508D01*
X156441184Y-113399106D01*
X155178430Y-112136352D01*
X155124454Y-112055570D01*
X155105500Y-111960282D01*
X155105500Y-110890000D01*
X156104092Y-110890000D01*
X156105233Y-110893763D01*
X156202733Y-111076174D01*
X156333938Y-111236047D01*
X156333952Y-111236061D01*
X156493823Y-111367264D01*
X156676241Y-111464769D01*
X156874163Y-111524808D01*
X157028411Y-111539999D01*
X157028415Y-111540000D01*
X157079999Y-111540000D01*
X157080000Y-111539999D01*
X157880000Y-111539999D01*
X157880001Y-111540000D01*
X157931585Y-111540000D01*
X157931588Y-111539999D01*
X158085836Y-111524808D01*
X158283758Y-111464769D01*
X158466176Y-111367264D01*
X158626047Y-111236061D01*
X158626061Y-111236047D01*
X158757266Y-111076174D01*
X158854766Y-110893763D01*
X158855908Y-110890000D01*
X157880001Y-110890000D01*
X157880000Y-110890001D01*
X157880000Y-111539999D01*
X157080000Y-111539999D01*
X157080000Y-110890001D01*
X157079999Y-110890000D01*
X156104092Y-110890000D01*
X155105500Y-110890000D01*
X155105500Y-104621132D01*
X155124454Y-104525844D01*
X155127028Y-104519854D01*
X155132176Y-104508289D01*
X155132175Y-104508289D01*
X155132179Y-104508284D01*
X155190674Y-104328256D01*
X155210460Y-104140000D01*
X155190674Y-103951744D01*
X155132179Y-103771716D01*
X155037533Y-103607784D01*
X155037531Y-103607781D01*
X155037530Y-103607780D01*
X154910873Y-103467114D01*
X154910872Y-103467113D01*
X154910871Y-103467112D01*
X154834300Y-103411480D01*
X154757728Y-103355847D01*
X154584810Y-103278858D01*
X154584796Y-103278854D01*
X154399646Y-103239500D01*
X154210354Y-103239500D01*
X154025203Y-103278854D01*
X154025189Y-103278858D01*
X153852271Y-103355847D01*
X153699126Y-103467114D01*
X153572469Y-103607780D01*
X153477822Y-103771714D01*
X153419325Y-103951744D01*
X153399540Y-104140000D01*
X153419326Y-104328256D01*
X153419326Y-104328258D01*
X153477823Y-104508289D01*
X153482972Y-104519854D01*
X153504415Y-104614613D01*
X153504500Y-104621132D01*
X153504500Y-112485194D01*
X153513009Y-112522478D01*
X153515348Y-112536244D01*
X153518740Y-112566337D01*
X153519632Y-112574255D01*
X153532262Y-112610350D01*
X153536129Y-112623775D01*
X153544639Y-112661061D01*
X153561232Y-112695515D01*
X153566577Y-112708421D01*
X153579209Y-112744519D01*
X153599558Y-112776906D01*
X153606316Y-112789132D01*
X153622908Y-112823585D01*
X153622910Y-112823588D01*
X153646752Y-112853485D01*
X153654837Y-112864880D01*
X153675183Y-112897261D01*
X155310043Y-114532121D01*
X155364019Y-114612903D01*
X155370785Y-114631243D01*
X155382819Y-114668281D01*
X155477469Y-114832219D01*
X155604126Y-114972885D01*
X155604129Y-114972888D01*
X155718984Y-115056335D01*
X155757271Y-115084152D01*
X155930189Y-115161141D01*
X155930192Y-115161142D01*
X155930197Y-115161144D01*
X156115354Y-115200500D01*
X156116282Y-115200500D01*
X156117321Y-115200706D01*
X156128332Y-115201864D01*
X156128225Y-115202875D01*
X156211570Y-115219454D01*
X156292352Y-115273430D01*
X156346328Y-115354212D01*
X156365282Y-115449500D01*
X156346328Y-115544788D01*
X156292352Y-115625570D01*
X155951352Y-115966570D01*
X155870570Y-116020546D01*
X155775282Y-116039500D01*
X148562696Y-116039500D01*
X148525409Y-116048009D01*
X148511643Y-116050348D01*
X148473639Y-116054631D01*
X148437532Y-116067264D01*
X148424117Y-116071129D01*
X148386836Y-116079639D01*
X148386827Y-116079642D01*
X148352370Y-116096234D01*
X148339469Y-116101578D01*
X148303374Y-116114208D01*
X148303372Y-116114210D01*
X148270983Y-116134560D01*
X148258760Y-116141315D01*
X148224306Y-116157907D01*
X148194401Y-116181754D01*
X148183014Y-116189834D01*
X148150633Y-116210181D01*
X148118639Y-116242175D01*
X134407757Y-129953056D01*
X134280204Y-130080609D01*
X134280200Y-130080614D01*
X134259853Y-130112995D01*
X134251773Y-130124382D01*
X134227926Y-130154288D01*
X134227925Y-130154289D01*
X134211337Y-130188734D01*
X134204582Y-130200958D01*
X134184231Y-130233347D01*
X134184229Y-130233351D01*
X134171598Y-130269447D01*
X134166254Y-130282348D01*
X134149659Y-130316811D01*
X134149657Y-130316817D01*
X134141147Y-130354100D01*
X134137281Y-130367517D01*
X134124650Y-130403618D01*
X134120366Y-130441629D01*
X134118028Y-130455393D01*
X134109519Y-130492681D01*
X134109519Y-130750151D01*
X134090565Y-130845439D01*
X134036591Y-130926217D01*
X133920331Y-131042478D01*
X133909968Y-131052841D01*
X133779455Y-131239234D01*
X133779447Y-131239248D01*
X133683281Y-131445476D01*
X133683280Y-131445479D01*
X133624384Y-131665281D01*
X133624382Y-131665296D01*
X133604551Y-131891970D01*
X133604551Y-131891981D01*
X133624382Y-132118655D01*
X133624384Y-132118670D01*
X133683280Y-132338472D01*
X133683281Y-132338475D01*
X133779447Y-132544703D01*
X133779455Y-132544717D01*
X133909968Y-132731110D01*
X133909972Y-132731115D01*
X134070880Y-132892023D01*
X134070883Y-132892025D01*
X134070884Y-132892026D01*
X134257277Y-133022539D01*
X134257281Y-133022541D01*
X134257285Y-133022544D01*
X134463523Y-133118715D01*
X134683327Y-133177611D01*
X134703003Y-133179332D01*
X134910013Y-133197444D01*
X134910019Y-133197444D01*
X134910025Y-133197444D01*
X135089687Y-133181725D01*
X135136711Y-133177611D01*
X135356515Y-133118715D01*
X135562753Y-133022544D01*
X135632143Y-132973957D01*
X167659494Y-132973957D01*
X167679325Y-133200631D01*
X167679327Y-133200646D01*
X167738223Y-133420448D01*
X167738224Y-133420451D01*
X167834390Y-133626679D01*
X167834398Y-133626693D01*
X167961331Y-133807973D01*
X167964915Y-133813091D01*
X168125823Y-133973999D01*
X168125826Y-133974001D01*
X168125827Y-133974002D01*
X168312220Y-134104515D01*
X168312224Y-134104517D01*
X168312228Y-134104520D01*
X168518466Y-134200691D01*
X168738270Y-134259587D01*
X168757946Y-134261308D01*
X168964956Y-134279420D01*
X168964962Y-134279420D01*
X168964968Y-134279420D01*
X169144630Y-134263701D01*
X169191654Y-134259587D01*
X169411458Y-134200691D01*
X169617696Y-134104520D01*
X169804101Y-133973999D01*
X169965009Y-133813091D01*
X170095530Y-133626686D01*
X170191701Y-133420448D01*
X170250597Y-133200644D01*
X170261720Y-133073513D01*
X170270430Y-132973957D01*
X170270430Y-132973946D01*
X170250598Y-132747272D01*
X170250597Y-132747260D01*
X170191701Y-132527456D01*
X170095530Y-132321218D01*
X170095527Y-132321214D01*
X170095525Y-132321210D01*
X169965012Y-132134817D01*
X169965011Y-132134816D01*
X169965009Y-132134813D01*
X169804101Y-131973905D01*
X169804097Y-131973902D01*
X169804096Y-131973901D01*
X169617703Y-131843388D01*
X169617689Y-131843380D01*
X169411461Y-131747214D01*
X169411458Y-131747213D01*
X169191656Y-131688317D01*
X169191641Y-131688315D01*
X168964968Y-131668484D01*
X168964956Y-131668484D01*
X168738282Y-131688315D01*
X168738267Y-131688317D01*
X168518465Y-131747213D01*
X168518462Y-131747214D01*
X168312234Y-131843380D01*
X168312220Y-131843388D01*
X168125827Y-131973901D01*
X167964911Y-132134817D01*
X167834398Y-132321210D01*
X167834390Y-132321224D01*
X167738224Y-132527452D01*
X167738223Y-132527455D01*
X167679327Y-132747257D01*
X167679325Y-132747272D01*
X167659494Y-132973946D01*
X167659494Y-132973957D01*
X135632143Y-132973957D01*
X135749158Y-132892023D01*
X135910066Y-132731115D01*
X136040587Y-132544710D01*
X136136758Y-132338472D01*
X136195654Y-132118668D01*
X136208319Y-131973905D01*
X136215487Y-131891981D01*
X136215487Y-131891970D01*
X136195655Y-131665296D01*
X136195654Y-131665284D01*
X136136758Y-131445480D01*
X136040587Y-131239242D01*
X136040584Y-131239238D01*
X136040582Y-131239234D01*
X135910066Y-131052837D01*
X135903079Y-131044510D01*
X135905500Y-131042478D01*
X135863192Y-130979158D01*
X135844238Y-130883870D01*
X135863192Y-130788582D01*
X135917165Y-130707803D01*
X138024968Y-128600000D01*
X148519786Y-128600000D01*
X148538610Y-128827179D01*
X148538612Y-128827186D01*
X148594568Y-129048148D01*
X148594569Y-129048152D01*
X148686136Y-129256905D01*
X148686139Y-129256910D01*
X148810811Y-129447738D01*
X148810817Y-129447745D01*
X148965198Y-129615448D01*
X148965200Y-129615450D01*
X148965206Y-129615456D01*
X149145094Y-129755469D01*
X149345574Y-129863963D01*
X149561177Y-129937980D01*
X149786023Y-129975500D01*
X150013977Y-129975500D01*
X150238823Y-129937980D01*
X150454426Y-129863963D01*
X150654906Y-129755469D01*
X150834794Y-129615456D01*
X150966809Y-129472048D01*
X151045286Y-129414785D01*
X151139709Y-129391909D01*
X151235699Y-129406908D01*
X151318643Y-129457500D01*
X151333172Y-129472029D01*
X151465206Y-129615456D01*
X151645094Y-129755469D01*
X151845574Y-129863963D01*
X152061177Y-129937980D01*
X152286023Y-129975500D01*
X152513977Y-129975500D01*
X152738823Y-129937980D01*
X152954426Y-129863963D01*
X153154906Y-129755469D01*
X153334794Y-129615456D01*
X153466809Y-129472048D01*
X153545286Y-129414785D01*
X153639709Y-129391909D01*
X153735699Y-129406908D01*
X153818643Y-129457500D01*
X153833172Y-129472029D01*
X153965206Y-129615456D01*
X154145094Y-129755469D01*
X154345574Y-129863963D01*
X154561177Y-129937980D01*
X154786023Y-129975500D01*
X155013977Y-129975500D01*
X155238823Y-129937980D01*
X155454426Y-129863963D01*
X155654906Y-129755469D01*
X155834794Y-129615456D01*
X155989183Y-129447745D01*
X155999654Y-129431719D01*
X156025662Y-129391909D01*
X156113862Y-129256909D01*
X156205430Y-129048155D01*
X156261390Y-128827176D01*
X156280214Y-128600000D01*
X156261390Y-128372824D01*
X156205430Y-128151845D01*
X156202335Y-128144788D01*
X173947386Y-128144788D01*
X173966552Y-128376096D01*
X173966554Y-128376103D01*
X174023527Y-128601081D01*
X174023528Y-128601085D01*
X174116760Y-128813634D01*
X174243705Y-129007939D01*
X174243708Y-129007943D01*
X174397055Y-129174522D01*
X174400902Y-129178701D01*
X174584060Y-129321258D01*
X174681549Y-129374016D01*
X174788173Y-129431719D01*
X174788175Y-129431719D01*
X174788183Y-129431724D01*
X175007705Y-129507086D01*
X175236637Y-129545288D01*
X175468735Y-129545288D01*
X175697667Y-129507086D01*
X175917189Y-129431724D01*
X176121312Y-129321258D01*
X176304470Y-129178701D01*
X176461665Y-129007941D01*
X176588610Y-128813637D01*
X176681843Y-128601088D01*
X176738820Y-128376093D01*
X176757986Y-128144788D01*
X176756108Y-128122130D01*
X176767126Y-128025606D01*
X176814245Y-127940642D01*
X176890292Y-127880177D01*
X176983688Y-127853417D01*
X177052835Y-127857351D01*
X177148735Y-127876427D01*
X177148739Y-127876427D01*
X177246282Y-127857024D01*
X177308101Y-127815718D01*
X177308104Y-127815716D01*
X177679067Y-127444752D01*
X177011705Y-126777390D01*
X177080910Y-126798737D01*
X177182461Y-126798737D01*
X177282875Y-126783602D01*
X177405094Y-126724744D01*
X177504535Y-126632477D01*
X177572362Y-126514997D01*
X177602547Y-126382745D01*
X177599998Y-126348736D01*
X177714422Y-126348736D01*
X178244752Y-126879066D01*
X178615716Y-126508104D01*
X178615718Y-126508101D01*
X178657024Y-126446282D01*
X178676427Y-126348738D01*
X178676427Y-126348735D01*
X178657024Y-126251191D01*
X178615721Y-126189376D01*
X178244751Y-125818406D01*
X177714422Y-126348736D01*
X177599998Y-126348736D01*
X177592410Y-126247472D01*
X177542850Y-126121196D01*
X177458272Y-126015138D01*
X177346190Y-125938721D01*
X177216564Y-125898737D01*
X177115013Y-125898737D01*
X177014599Y-125913872D01*
X176892380Y-125972730D01*
X176792939Y-126064997D01*
X176725112Y-126182477D01*
X176694927Y-126314729D01*
X176705064Y-126450002D01*
X176718466Y-126484151D01*
X176052721Y-125818406D01*
X175681755Y-126189372D01*
X175681753Y-126189375D01*
X175640449Y-126251191D01*
X175621047Y-126348735D01*
X175621047Y-126348738D01*
X175640535Y-126446710D01*
X175640536Y-126543865D01*
X175603356Y-126633624D01*
X175534658Y-126702324D01*
X175444898Y-126739503D01*
X175396320Y-126744288D01*
X175236637Y-126744288D01*
X175007711Y-126782488D01*
X175007705Y-126782489D01*
X175007705Y-126782490D01*
X174788183Y-126857852D01*
X174788180Y-126857853D01*
X174788173Y-126857856D01*
X174584057Y-126968319D01*
X174400906Y-127110871D01*
X174400900Y-127110876D01*
X174243708Y-127281632D01*
X174243705Y-127281636D01*
X174116760Y-127475941D01*
X174023528Y-127688490D01*
X174023527Y-127688494D01*
X173966554Y-127913472D01*
X173966552Y-127913479D01*
X173947386Y-128144788D01*
X156202335Y-128144788D01*
X156113862Y-127943091D01*
X156065116Y-127868479D01*
X155989188Y-127752261D01*
X155989182Y-127752254D01*
X155834801Y-127584551D01*
X155834798Y-127584549D01*
X155834794Y-127584544D01*
X155654906Y-127444531D01*
X155608128Y-127419216D01*
X155454427Y-127336037D01*
X155238822Y-127262019D01*
X155013977Y-127224500D01*
X154786023Y-127224500D01*
X154561177Y-127262019D01*
X154345572Y-127336037D01*
X154145097Y-127444529D01*
X154145090Y-127444534D01*
X153965210Y-127584541D01*
X153965198Y-127584551D01*
X153833195Y-127727946D01*
X153754713Y-127785215D01*
X153660290Y-127808090D01*
X153564300Y-127793090D01*
X153481357Y-127742498D01*
X153466805Y-127727946D01*
X153334801Y-127584551D01*
X153334798Y-127584549D01*
X153334794Y-127584544D01*
X153154906Y-127444531D01*
X153108128Y-127419216D01*
X152954427Y-127336037D01*
X152738822Y-127262019D01*
X152513977Y-127224500D01*
X152286023Y-127224500D01*
X152061177Y-127262019D01*
X151845572Y-127336037D01*
X151645097Y-127444529D01*
X151645090Y-127444534D01*
X151465210Y-127584541D01*
X151465198Y-127584551D01*
X151333195Y-127727946D01*
X151254713Y-127785215D01*
X151160290Y-127808090D01*
X151064300Y-127793090D01*
X150981357Y-127742498D01*
X150966805Y-127727946D01*
X150834801Y-127584551D01*
X150834798Y-127584549D01*
X150834794Y-127584544D01*
X150654906Y-127444531D01*
X150608128Y-127419216D01*
X150454427Y-127336037D01*
X150238822Y-127262019D01*
X150013977Y-127224500D01*
X149786023Y-127224500D01*
X149561177Y-127262019D01*
X149345572Y-127336037D01*
X149145097Y-127444529D01*
X149145090Y-127444534D01*
X148965210Y-127584541D01*
X148965198Y-127584551D01*
X148810817Y-127752254D01*
X148810811Y-127752261D01*
X148686139Y-127943089D01*
X148686136Y-127943094D01*
X148594569Y-128151847D01*
X148594568Y-128151851D01*
X148538612Y-128372813D01*
X148538610Y-128372820D01*
X148519786Y-128600000D01*
X138024968Y-128600000D01*
X141372247Y-125252721D01*
X176618406Y-125252721D01*
X177148736Y-125783050D01*
X177679066Y-125252721D01*
X177308097Y-124881752D01*
X177246282Y-124840449D01*
X177148739Y-124821047D01*
X177148735Y-124821047D01*
X177051191Y-124840449D01*
X176989375Y-124881753D01*
X176989372Y-124881755D01*
X176618406Y-125252721D01*
X141372247Y-125252721D01*
X145274433Y-121350535D01*
X145355212Y-121296562D01*
X145450500Y-121277608D01*
X145545788Y-121296562D01*
X145626570Y-121350538D01*
X145680546Y-121431320D01*
X145699500Y-121526608D01*
X145699500Y-123247865D01*
X145699500Y-123247868D01*
X145699501Y-123247872D01*
X145701423Y-123265750D01*
X145705908Y-123307480D01*
X145705909Y-123307484D01*
X145731545Y-123376217D01*
X145756204Y-123442331D01*
X145842454Y-123557546D01*
X145957669Y-123643796D01*
X146092517Y-123694091D01*
X146152127Y-123700500D01*
X149247872Y-123700499D01*
X149307483Y-123694091D01*
X149442331Y-123643796D01*
X149557546Y-123557546D01*
X149643796Y-123442331D01*
X149694091Y-123307483D01*
X149700500Y-123247873D01*
X149700500Y-123247868D01*
X155099500Y-123247868D01*
X155099501Y-123247872D01*
X155101423Y-123265750D01*
X155105908Y-123307480D01*
X155105909Y-123307484D01*
X155131545Y-123376217D01*
X155156204Y-123442331D01*
X155242454Y-123557546D01*
X155357669Y-123643796D01*
X155492517Y-123694091D01*
X155552127Y-123700500D01*
X158647872Y-123700499D01*
X158707483Y-123694091D01*
X158842331Y-123643796D01*
X158957546Y-123557546D01*
X159043796Y-123442331D01*
X159094091Y-123307483D01*
X159100500Y-123247873D01*
X159100499Y-119952128D01*
X159094091Y-119892517D01*
X159043796Y-119757669D01*
X158957546Y-119642454D01*
X158842331Y-119556204D01*
X158747531Y-119520846D01*
X158707481Y-119505908D01*
X158647873Y-119499500D01*
X155552134Y-119499500D01*
X155552130Y-119499500D01*
X155552128Y-119499501D01*
X155539314Y-119500878D01*
X155492519Y-119505908D01*
X155492515Y-119505909D01*
X155357670Y-119556203D01*
X155242455Y-119642453D01*
X155242453Y-119642455D01*
X155156204Y-119757669D01*
X155105908Y-119892518D01*
X155099500Y-119952123D01*
X155099500Y-123247865D01*
X155099500Y-123247868D01*
X149700500Y-123247868D01*
X149700499Y-119952128D01*
X149694091Y-119892517D01*
X149643796Y-119757669D01*
X149557546Y-119642454D01*
X149442331Y-119556204D01*
X149347531Y-119520846D01*
X149307481Y-119505908D01*
X149247876Y-119499500D01*
X149247873Y-119499500D01*
X147726609Y-119499500D01*
X147631321Y-119480546D01*
X147550539Y-119426570D01*
X147496563Y-119345788D01*
X147477609Y-119250500D01*
X147496563Y-119155212D01*
X147550539Y-119074430D01*
X147624969Y-119000000D01*
X161454308Y-119000000D01*
X161494150Y-119135690D01*
X161590408Y-119322406D01*
X161590410Y-119322408D01*
X161720272Y-119487541D01*
X161879036Y-119625110D01*
X162060963Y-119730145D01*
X162060965Y-119730146D01*
X162120000Y-119750578D01*
X162120000Y-119000001D01*
X162119999Y-119000000D01*
X161454308Y-119000000D01*
X147624969Y-119000000D01*
X148093265Y-118531705D01*
X148424970Y-118200000D01*
X161452757Y-118200000D01*
X162119999Y-118200000D01*
X162120000Y-118199999D01*
X162120000Y-117448392D01*
X162119999Y-117448392D01*
X161967501Y-117518035D01*
X161796376Y-117639894D01*
X161796369Y-117639900D01*
X161651412Y-117791927D01*
X161651408Y-117791932D01*
X161537833Y-117968656D01*
X161459756Y-118163685D01*
X161452757Y-118200000D01*
X148424970Y-118200000D01*
X148911540Y-117713430D01*
X148992322Y-117659454D01*
X149087610Y-117640500D01*
X156300192Y-117640500D01*
X156300194Y-117640500D01*
X156337487Y-117631987D01*
X156351242Y-117629650D01*
X156389255Y-117625368D01*
X156425354Y-117612736D01*
X156438756Y-117608874D01*
X156476061Y-117600360D01*
X156510525Y-117583762D01*
X156523418Y-117578421D01*
X156559522Y-117565789D01*
X156591913Y-117545435D01*
X156604116Y-117538690D01*
X156638587Y-117522091D01*
X156668502Y-117498233D01*
X156679874Y-117490166D01*
X156680323Y-117489883D01*
X156712262Y-117469816D01*
X156795219Y-117386859D01*
X156839817Y-117342262D01*
X157744958Y-116437120D01*
X158062616Y-116119461D01*
X158143395Y-116065488D01*
X158238683Y-116046534D01*
X158333971Y-116065488D01*
X158414753Y-116119464D01*
X158468729Y-116200246D01*
X158486319Y-116269506D01*
X158499326Y-116393256D01*
X158557821Y-116573284D01*
X158652467Y-116737216D01*
X158652469Y-116737219D01*
X158779126Y-116877885D01*
X158779129Y-116877888D01*
X158823061Y-116909806D01*
X158932271Y-116989152D01*
X159105189Y-117066141D01*
X159105192Y-117066142D01*
X159105197Y-117066144D01*
X159290354Y-117105500D01*
X159479645Y-117105500D01*
X159479646Y-117105500D01*
X159664803Y-117066144D01*
X159837730Y-116989151D01*
X159990871Y-116877888D01*
X160117533Y-116737216D01*
X160212179Y-116573284D01*
X160224212Y-116536248D01*
X160271682Y-116451481D01*
X160284943Y-116437133D01*
X165358648Y-111363430D01*
X165439430Y-111309454D01*
X165534718Y-111290500D01*
X166098175Y-111290500D01*
X166193463Y-111309454D01*
X166274241Y-111363427D01*
X166400861Y-111490047D01*
X166400864Y-111490049D01*
X166400865Y-111490050D01*
X166587258Y-111620563D01*
X166587262Y-111620565D01*
X166587266Y-111620568D01*
X166587270Y-111620569D01*
X166587272Y-111620571D01*
X166680481Y-111664035D01*
X166793504Y-111716739D01*
X167013308Y-111775635D01*
X167183216Y-111790500D01*
X168096784Y-111790500D01*
X168266692Y-111775635D01*
X168486496Y-111716739D01*
X168692734Y-111620568D01*
X168879139Y-111490047D01*
X168954433Y-111414752D01*
X169035212Y-111360779D01*
X169130500Y-111341825D01*
X169225788Y-111360779D01*
X169306570Y-111414755D01*
X169360546Y-111495537D01*
X169379500Y-111590825D01*
X169379500Y-113865282D01*
X169360546Y-113960570D01*
X169306570Y-114041352D01*
X167017738Y-116330183D01*
X166890185Y-116457736D01*
X166890181Y-116457741D01*
X166869834Y-116490122D01*
X166861754Y-116501509D01*
X166837907Y-116531415D01*
X166837906Y-116531416D01*
X166821318Y-116565861D01*
X166814563Y-116578085D01*
X166794212Y-116610474D01*
X166794210Y-116610478D01*
X166781579Y-116646574D01*
X166776235Y-116659475D01*
X166759640Y-116693938D01*
X166759638Y-116693944D01*
X166751128Y-116731227D01*
X166747262Y-116744644D01*
X166734631Y-116780745D01*
X166730347Y-116818756D01*
X166728009Y-116832520D01*
X166720438Y-116865699D01*
X166719500Y-116869808D01*
X166719500Y-117262465D01*
X166700546Y-117357753D01*
X166646572Y-117438531D01*
X166563014Y-117522090D01*
X166481502Y-117603602D01*
X166473967Y-117614364D01*
X166403785Y-117681547D01*
X166313236Y-117716759D01*
X166216104Y-117714638D01*
X166127177Y-117675508D01*
X166066033Y-117614364D01*
X166058497Y-117603602D01*
X166058495Y-117603599D01*
X165891401Y-117436505D01*
X165801393Y-117373481D01*
X165697830Y-117300965D01*
X165697821Y-117300961D01*
X165483663Y-117201097D01*
X165483660Y-117201096D01*
X165255401Y-117139935D01*
X165020005Y-117119341D01*
X165019995Y-117119341D01*
X164784598Y-117139935D01*
X164556335Y-117201097D01*
X164556333Y-117201098D01*
X164342177Y-117300961D01*
X164342169Y-117300965D01*
X164148600Y-117436504D01*
X163981504Y-117603600D01*
X163845965Y-117797169D01*
X163840532Y-117806582D01*
X163839491Y-117805981D01*
X163788533Y-117875473D01*
X163705472Y-117925871D01*
X163609447Y-117940645D01*
X163515077Y-117917548D01*
X163436730Y-117860096D01*
X163424593Y-117845805D01*
X163319727Y-117712458D01*
X163160965Y-117574890D01*
X162979030Y-117469850D01*
X162920000Y-117449419D01*
X162920000Y-118343824D01*
X162882673Y-118285742D01*
X162779445Y-118196295D01*
X162655199Y-118139554D01*
X162553975Y-118125000D01*
X162486025Y-118125000D01*
X162384801Y-118139554D01*
X162260555Y-118196295D01*
X162157327Y-118285742D01*
X162083481Y-118400649D01*
X162045000Y-118531705D01*
X162045000Y-118668295D01*
X162083481Y-118799351D01*
X162157327Y-118914258D01*
X162260555Y-119003705D01*
X162384801Y-119060446D01*
X162486025Y-119075000D01*
X162553975Y-119075000D01*
X162655199Y-119060446D01*
X162779445Y-119003705D01*
X162882673Y-118914258D01*
X162920000Y-118856175D01*
X162920000Y-119751606D01*
X163072503Y-119681960D01*
X163243623Y-119560106D01*
X163243630Y-119560099D01*
X163388587Y-119408072D01*
X163388593Y-119408065D01*
X163410829Y-119373465D01*
X163478289Y-119303550D01*
X163567370Y-119264772D01*
X163664510Y-119263037D01*
X163754919Y-119298607D01*
X163824834Y-119366067D01*
X163845723Y-119402410D01*
X163845965Y-119402830D01*
X163898457Y-119477796D01*
X163981505Y-119596401D01*
X164146572Y-119761468D01*
X164200546Y-119842247D01*
X164219500Y-119937535D01*
X164219500Y-120025194D01*
X164228009Y-120062478D01*
X164230349Y-120076247D01*
X164234632Y-120114255D01*
X164247262Y-120150350D01*
X164251129Y-120163775D01*
X164259639Y-120201061D01*
X164276232Y-120235515D01*
X164281577Y-120248421D01*
X164294209Y-120284519D01*
X164314558Y-120316906D01*
X164321316Y-120329132D01*
X164337908Y-120363585D01*
X164337910Y-120363588D01*
X164361752Y-120393485D01*
X164369836Y-120404879D01*
X164390184Y-120437262D01*
X164422174Y-120469252D01*
X165105182Y-121152259D01*
X165105184Y-121152262D01*
X165232738Y-121279816D01*
X165265124Y-121300166D01*
X165276507Y-121308242D01*
X165306414Y-121332092D01*
X165340876Y-121348688D01*
X165353085Y-121355435D01*
X165385478Y-121375789D01*
X165421585Y-121388423D01*
X165434474Y-121393763D01*
X165468939Y-121410360D01*
X165506242Y-121418874D01*
X165519627Y-121422729D01*
X165555745Y-121435368D01*
X165593759Y-121439651D01*
X165607505Y-121441986D01*
X165644806Y-121450500D01*
X165644809Y-121450500D01*
X174715192Y-121450500D01*
X174715194Y-121450500D01*
X174752487Y-121441987D01*
X174766242Y-121439650D01*
X174804255Y-121435368D01*
X174840354Y-121422736D01*
X174853756Y-121418874D01*
X174891061Y-121410360D01*
X174925525Y-121393762D01*
X174938418Y-121388421D01*
X174974522Y-121375789D01*
X175006913Y-121355435D01*
X175019116Y-121348690D01*
X175053587Y-121332091D01*
X175083502Y-121308233D01*
X175094874Y-121300166D01*
X175106702Y-121292734D01*
X175127262Y-121279816D01*
X175207963Y-121199115D01*
X175254817Y-121152262D01*
X176047093Y-120359986D01*
X181386508Y-120359986D01*
X181406339Y-120586660D01*
X181406341Y-120586675D01*
X181465237Y-120806477D01*
X181465238Y-120806480D01*
X181561404Y-121012708D01*
X181561412Y-121012722D01*
X181691925Y-121199115D01*
X181691929Y-121199120D01*
X181852837Y-121360028D01*
X181852840Y-121360030D01*
X181852841Y-121360031D01*
X182039234Y-121490544D01*
X182039238Y-121490546D01*
X182039242Y-121490549D01*
X182245480Y-121586720D01*
X182465284Y-121645616D01*
X182484960Y-121647337D01*
X182691970Y-121665449D01*
X182691976Y-121665449D01*
X182691982Y-121665449D01*
X182871644Y-121649730D01*
X182918668Y-121645616D01*
X183138472Y-121586720D01*
X183344710Y-121490549D01*
X183531115Y-121360028D01*
X183692023Y-121199120D01*
X183822544Y-121012715D01*
X183918715Y-120806477D01*
X183977611Y-120586673D01*
X183990683Y-120437261D01*
X183997444Y-120359986D01*
X183997444Y-120359975D01*
X183977612Y-120133301D01*
X183977611Y-120133289D01*
X183918715Y-119913485D01*
X183880040Y-119830546D01*
X183822547Y-119707253D01*
X183822539Y-119707239D01*
X183692026Y-119520846D01*
X183692025Y-119520845D01*
X183692023Y-119520842D01*
X183531115Y-119359934D01*
X183531111Y-119359931D01*
X183531110Y-119359930D01*
X183344717Y-119229417D01*
X183344703Y-119229409D01*
X183138475Y-119133243D01*
X183138472Y-119133242D01*
X182918670Y-119074346D01*
X182918655Y-119074344D01*
X182691982Y-119054513D01*
X182691970Y-119054513D01*
X182465296Y-119074344D01*
X182465281Y-119074346D01*
X182245479Y-119133242D01*
X182245476Y-119133243D01*
X182039248Y-119229409D01*
X182039234Y-119229417D01*
X181852841Y-119359930D01*
X181691925Y-119520846D01*
X181561412Y-119707239D01*
X181561404Y-119707253D01*
X181465238Y-119913481D01*
X181465237Y-119913484D01*
X181406341Y-120133286D01*
X181406339Y-120133301D01*
X181386508Y-120359975D01*
X181386508Y-120359986D01*
X176047093Y-120359986D01*
X177889826Y-118517252D01*
X177889827Y-118517251D01*
X177921816Y-118485262D01*
X177942161Y-118452880D01*
X177950241Y-118441491D01*
X177974092Y-118411586D01*
X177990689Y-118377121D01*
X177997439Y-118364907D01*
X178017789Y-118332522D01*
X178030425Y-118296408D01*
X178035762Y-118283526D01*
X178052360Y-118249061D01*
X178060871Y-118211768D01*
X178064731Y-118198365D01*
X178077368Y-118162255D01*
X178081650Y-118124242D01*
X178083989Y-118110481D01*
X178092500Y-118073194D01*
X178092500Y-117892805D01*
X178092500Y-113320024D01*
X184302556Y-113320024D01*
X184322387Y-113546698D01*
X184322389Y-113546713D01*
X184381285Y-113766515D01*
X184381286Y-113766518D01*
X184477452Y-113972746D01*
X184477460Y-113972760D01*
X184601962Y-114150568D01*
X184607977Y-114159158D01*
X184768885Y-114320066D01*
X184768888Y-114320068D01*
X184768889Y-114320069D01*
X184955282Y-114450582D01*
X184955286Y-114450584D01*
X184955290Y-114450587D01*
X185161528Y-114546758D01*
X185381332Y-114605654D01*
X185401008Y-114607375D01*
X185608018Y-114625487D01*
X185608024Y-114625487D01*
X185608030Y-114625487D01*
X185787692Y-114609768D01*
X185834716Y-114605654D01*
X186054520Y-114546758D01*
X186260758Y-114450587D01*
X186447163Y-114320066D01*
X186608071Y-114159158D01*
X186738592Y-113972753D01*
X186834763Y-113766515D01*
X186893659Y-113546711D01*
X186913492Y-113320019D01*
X186913492Y-113320013D01*
X186893660Y-113093339D01*
X186893659Y-113093327D01*
X186834763Y-112873523D01*
X186783367Y-112763305D01*
X186738595Y-112667291D01*
X186738587Y-112667277D01*
X186608074Y-112480884D01*
X186608073Y-112480883D01*
X186608071Y-112480880D01*
X186447163Y-112319972D01*
X186447159Y-112319969D01*
X186447158Y-112319968D01*
X186260765Y-112189455D01*
X186260751Y-112189447D01*
X186054523Y-112093281D01*
X186054520Y-112093280D01*
X185834718Y-112034384D01*
X185834703Y-112034382D01*
X185608030Y-112014551D01*
X185608018Y-112014551D01*
X185381344Y-112034382D01*
X185381329Y-112034384D01*
X185161527Y-112093280D01*
X185161524Y-112093281D01*
X184955296Y-112189447D01*
X184955282Y-112189455D01*
X184768889Y-112319968D01*
X184607973Y-112480884D01*
X184477460Y-112667277D01*
X184477452Y-112667291D01*
X184381286Y-112873519D01*
X184381285Y-112873522D01*
X184322389Y-113093324D01*
X184322387Y-113093339D01*
X184302556Y-113320013D01*
X184302556Y-113320024D01*
X178092500Y-113320024D01*
X178092500Y-109100005D01*
X181044341Y-109100005D01*
X181064935Y-109335401D01*
X181126097Y-109563664D01*
X181126098Y-109563666D01*
X181225961Y-109777822D01*
X181225965Y-109777830D01*
X181266777Y-109836115D01*
X181361505Y-109971401D01*
X181528599Y-110138495D01*
X181635461Y-110213320D01*
X181722169Y-110274034D01*
X181722177Y-110274038D01*
X181791805Y-110306506D01*
X181936337Y-110373903D01*
X182164592Y-110435063D01*
X182164595Y-110435063D01*
X182164598Y-110435064D01*
X182341033Y-110450500D01*
X182341034Y-110450500D01*
X182458967Y-110450500D01*
X182635401Y-110435064D01*
X182635403Y-110435063D01*
X182635408Y-110435063D01*
X182863663Y-110373903D01*
X183077829Y-110274035D01*
X183271401Y-110138495D01*
X183438495Y-109971401D01*
X183574035Y-109777830D01*
X183673903Y-109563663D01*
X183735063Y-109335408D01*
X183736764Y-109315965D01*
X183755659Y-109100005D01*
X183755659Y-109099994D01*
X183735064Y-108864598D01*
X183735063Y-108864595D01*
X183735063Y-108864592D01*
X183673903Y-108636337D01*
X183574035Y-108422171D01*
X183556059Y-108396499D01*
X183501125Y-108318044D01*
X183438495Y-108228599D01*
X183271401Y-108061505D01*
X183169281Y-107990000D01*
X183077830Y-107925965D01*
X183077822Y-107925961D01*
X182863666Y-107826098D01*
X182863664Y-107826097D01*
X182635401Y-107764935D01*
X182458967Y-107749500D01*
X182458966Y-107749500D01*
X182341034Y-107749500D01*
X182341033Y-107749500D01*
X182164598Y-107764935D01*
X181936335Y-107826097D01*
X181936333Y-107826098D01*
X181722177Y-107925961D01*
X181722169Y-107925965D01*
X181528600Y-108061504D01*
X181361502Y-108228602D01*
X181225965Y-108422169D01*
X181126096Y-108636339D01*
X181064935Y-108864598D01*
X181044341Y-109099994D01*
X181044341Y-109100005D01*
X178092500Y-109100005D01*
X178092500Y-104140000D01*
X185994700Y-104140000D01*
X186013866Y-104371308D01*
X186013868Y-104371315D01*
X186068670Y-104587719D01*
X186070843Y-104596300D01*
X186096533Y-104654868D01*
X186164074Y-104808846D01*
X186291019Y-105003151D01*
X186291022Y-105003155D01*
X186448214Y-105173911D01*
X186448216Y-105173913D01*
X186631374Y-105316470D01*
X186728863Y-105369228D01*
X186835487Y-105426931D01*
X186835489Y-105426931D01*
X186835497Y-105426936D01*
X187055019Y-105502298D01*
X187283951Y-105540500D01*
X187516049Y-105540500D01*
X187744981Y-105502298D01*
X187964503Y-105426936D01*
X188168626Y-105316470D01*
X188351784Y-105173913D01*
X188508979Y-105003153D01*
X188635924Y-104808849D01*
X188729157Y-104596300D01*
X188786134Y-104371305D01*
X188805300Y-104140000D01*
X188786134Y-103908695D01*
X188729157Y-103683700D01*
X188635924Y-103471151D01*
X188534883Y-103316496D01*
X188508980Y-103276848D01*
X188508977Y-103276844D01*
X188361948Y-103117128D01*
X188355026Y-103109609D01*
X188304435Y-103026667D01*
X188289435Y-102930677D01*
X188312310Y-102836254D01*
X188369579Y-102757772D01*
X188399885Y-102733931D01*
X188480237Y-102680241D01*
X188480241Y-102680237D01*
X188535495Y-102597544D01*
X188535495Y-102597543D01*
X188549999Y-102524628D01*
X188550000Y-102524623D01*
X188550000Y-102000001D01*
X188549999Y-102000000D01*
X187606535Y-102000000D01*
X187656357Y-101976007D01*
X187755798Y-101883740D01*
X187823625Y-101766260D01*
X187853810Y-101634008D01*
X187843673Y-101498735D01*
X187794113Y-101372459D01*
X187709535Y-101266401D01*
X187612142Y-101199999D01*
X187800000Y-101199999D01*
X187800001Y-101200000D01*
X188549999Y-101200000D01*
X188550000Y-101199999D01*
X188550000Y-100675376D01*
X188549999Y-100675371D01*
X188535495Y-100602456D01*
X188535495Y-100602455D01*
X188480241Y-100519762D01*
X188480237Y-100519758D01*
X188397544Y-100464504D01*
X188324628Y-100450000D01*
X187800001Y-100450000D01*
X187800000Y-100450001D01*
X187800000Y-101199999D01*
X187612142Y-101199999D01*
X187597453Y-101189984D01*
X187467827Y-101150000D01*
X187366276Y-101150000D01*
X187265862Y-101165135D01*
X187143643Y-101223993D01*
X187044202Y-101316260D01*
X186976375Y-101433740D01*
X186946190Y-101565992D01*
X186956327Y-101701265D01*
X187005887Y-101827541D01*
X187090465Y-101933599D01*
X187187856Y-102000000D01*
X186250001Y-102000000D01*
X186250000Y-102000001D01*
X186250000Y-102524628D01*
X186264504Y-102597543D01*
X186264504Y-102597544D01*
X186319758Y-102680237D01*
X186319762Y-102680241D01*
X186400114Y-102733931D01*
X186468813Y-102802630D01*
X186505993Y-102892390D01*
X186505992Y-102989545D01*
X186468813Y-103079304D01*
X186444973Y-103109610D01*
X186291018Y-103276849D01*
X186164074Y-103471153D01*
X186070842Y-103683702D01*
X186070841Y-103683706D01*
X186013868Y-103908684D01*
X186013866Y-103908691D01*
X185994700Y-104140000D01*
X178092500Y-104140000D01*
X178092500Y-101199999D01*
X186250000Y-101199999D01*
X186250001Y-101200000D01*
X186999999Y-101200000D01*
X187000000Y-101199999D01*
X187000000Y-100450001D01*
X186999999Y-100450000D01*
X186475371Y-100450000D01*
X186402456Y-100464504D01*
X186402455Y-100464504D01*
X186319762Y-100519758D01*
X186319758Y-100519762D01*
X186264504Y-100602455D01*
X186264504Y-100602456D01*
X186250000Y-100675371D01*
X186250000Y-101199999D01*
X178092500Y-101199999D01*
X178092500Y-96520005D01*
X181044341Y-96520005D01*
X181064935Y-96755401D01*
X181126097Y-96983664D01*
X181126098Y-96983666D01*
X181225961Y-97197822D01*
X181225965Y-97197830D01*
X181268634Y-97258767D01*
X181361505Y-97391401D01*
X181528599Y-97558495D01*
X181646212Y-97640848D01*
X181722169Y-97694034D01*
X181722177Y-97694038D01*
X181846717Y-97752112D01*
X181936337Y-97793903D01*
X182164592Y-97855063D01*
X182164595Y-97855063D01*
X182164598Y-97855064D01*
X182341033Y-97870500D01*
X182341034Y-97870500D01*
X182458967Y-97870500D01*
X182635401Y-97855064D01*
X182635403Y-97855063D01*
X182635408Y-97855063D01*
X182863663Y-97793903D01*
X183077829Y-97694035D01*
X183271401Y-97558495D01*
X183438495Y-97391401D01*
X183574035Y-97197830D01*
X183673903Y-96983663D01*
X183735063Y-96755408D01*
X183737814Y-96723969D01*
X183755659Y-96520005D01*
X183755659Y-96519994D01*
X183735064Y-96284598D01*
X183735063Y-96284595D01*
X183735063Y-96284592D01*
X183673903Y-96056337D01*
X183616004Y-95932174D01*
X183574038Y-95842177D01*
X183574034Y-95842169D01*
X183502737Y-95740347D01*
X183438495Y-95648599D01*
X183271401Y-95481505D01*
X183146129Y-95393789D01*
X183077830Y-95345965D01*
X183077822Y-95345961D01*
X182863666Y-95246098D01*
X182863664Y-95246097D01*
X182635401Y-95184935D01*
X182458967Y-95169500D01*
X182458966Y-95169500D01*
X182341034Y-95169500D01*
X182341033Y-95169500D01*
X182164598Y-95184935D01*
X181936335Y-95246097D01*
X181936333Y-95246098D01*
X181722177Y-95345961D01*
X181722169Y-95345965D01*
X181528600Y-95481504D01*
X181361502Y-95648602D01*
X181225965Y-95842169D01*
X181126096Y-96056339D01*
X181064935Y-96284598D01*
X181044341Y-96519994D01*
X181044341Y-96520005D01*
X178092500Y-96520005D01*
X178092500Y-93399967D01*
X185760580Y-93399967D01*
X185780411Y-93626641D01*
X185780413Y-93626656D01*
X185839309Y-93846458D01*
X185839310Y-93846461D01*
X185935476Y-94052689D01*
X185935484Y-94052703D01*
X186065997Y-94239096D01*
X186066001Y-94239101D01*
X186226909Y-94400009D01*
X186226912Y-94400011D01*
X186226913Y-94400012D01*
X186413306Y-94530525D01*
X186413310Y-94530527D01*
X186413314Y-94530530D01*
X186413318Y-94530531D01*
X186413320Y-94530533D01*
X186493469Y-94567907D01*
X186619552Y-94626701D01*
X186839356Y-94685597D01*
X186859032Y-94687318D01*
X187066042Y-94705430D01*
X187066048Y-94705430D01*
X187066054Y-94705430D01*
X187245716Y-94689711D01*
X187292740Y-94685597D01*
X187512544Y-94626701D01*
X187718782Y-94530530D01*
X187905187Y-94400009D01*
X188066095Y-94239101D01*
X188196616Y-94052696D01*
X188292787Y-93846458D01*
X188351683Y-93626654D01*
X188371516Y-93399962D01*
X188371516Y-93399956D01*
X188351684Y-93173282D01*
X188351683Y-93173270D01*
X188292787Y-92953466D01*
X188241667Y-92843839D01*
X188196619Y-92747234D01*
X188196611Y-92747220D01*
X188066098Y-92560827D01*
X188066097Y-92560826D01*
X188066095Y-92560823D01*
X187905187Y-92399915D01*
X187905183Y-92399912D01*
X187905182Y-92399911D01*
X187718789Y-92269398D01*
X187718775Y-92269390D01*
X187512547Y-92173224D01*
X187512544Y-92173223D01*
X187292742Y-92114327D01*
X187292727Y-92114325D01*
X187066054Y-92094494D01*
X187066042Y-92094494D01*
X186839368Y-92114325D01*
X186839353Y-92114327D01*
X186619551Y-92173223D01*
X186619548Y-92173224D01*
X186413320Y-92269390D01*
X186413306Y-92269398D01*
X186226913Y-92399911D01*
X186065997Y-92560827D01*
X185935484Y-92747220D01*
X185935476Y-92747234D01*
X185839310Y-92953462D01*
X185839309Y-92953465D01*
X185780413Y-93173267D01*
X185780411Y-93173282D01*
X185760580Y-93399956D01*
X185760580Y-93399967D01*
X178092500Y-93399967D01*
X178092500Y-92792046D01*
X178092500Y-92746806D01*
X178083986Y-92709505D01*
X178081651Y-92695759D01*
X178077368Y-92657745D01*
X178064729Y-92621627D01*
X178060874Y-92608242D01*
X178052360Y-92570939D01*
X178035763Y-92536474D01*
X178030423Y-92523585D01*
X178017789Y-92487478D01*
X177997435Y-92455085D01*
X177990688Y-92442876D01*
X177974092Y-92408414D01*
X177950240Y-92378505D01*
X177942169Y-92367130D01*
X177921816Y-92334738D01*
X177867622Y-92280544D01*
X177794262Y-92207183D01*
X177520647Y-91933569D01*
X177466671Y-91852787D01*
X177447717Y-91757499D01*
X177466671Y-91662211D01*
X177520643Y-91581434D01*
X179417306Y-89684770D01*
X179498085Y-89630797D01*
X179593373Y-89611843D01*
X179615068Y-89612790D01*
X179676780Y-89618189D01*
X179704998Y-89620659D01*
X179705000Y-89620659D01*
X179705005Y-89620659D01*
X179940401Y-89600064D01*
X179940403Y-89600063D01*
X179940408Y-89600063D01*
X180168663Y-89538903D01*
X180382830Y-89439035D01*
X180576401Y-89303495D01*
X180743495Y-89136401D01*
X180879035Y-88942830D01*
X180978903Y-88728663D01*
X181040063Y-88500408D01*
X181040099Y-88500000D01*
X181060659Y-88265005D01*
X181060659Y-88264994D01*
X181040064Y-88029598D01*
X181040063Y-88029595D01*
X181040063Y-88029592D01*
X180978903Y-87801337D01*
X180906298Y-87645636D01*
X180879038Y-87587177D01*
X180879034Y-87587169D01*
X180811393Y-87490568D01*
X180743495Y-87393599D01*
X180576401Y-87226505D01*
X180537318Y-87199139D01*
X180382830Y-87090965D01*
X180228964Y-87019216D01*
X180168663Y-86991097D01*
X180168660Y-86991096D01*
X179940401Y-86929935D01*
X179705005Y-86909341D01*
X179705004Y-86909341D01*
X179705001Y-86909341D01*
X179705000Y-86909341D01*
X179641014Y-86914939D01*
X179594471Y-86919011D01*
X179497893Y-86908433D01*
X179412715Y-86861702D01*
X179351904Y-86785933D01*
X179324717Y-86692659D01*
X179335295Y-86596081D01*
X179342724Y-86575670D01*
X179346525Y-86566491D01*
X179365928Y-86468950D01*
X179365928Y-86468947D01*
X179346525Y-86371403D01*
X179338909Y-86360005D01*
X182844532Y-86360005D01*
X182864363Y-86586679D01*
X182864365Y-86586694D01*
X182923261Y-86806496D01*
X182923262Y-86806499D01*
X183019428Y-87012727D01*
X183019436Y-87012741D01*
X183135280Y-87178184D01*
X183149953Y-87199139D01*
X183310861Y-87360047D01*
X183310864Y-87360049D01*
X183310865Y-87360050D01*
X183497258Y-87490563D01*
X183497262Y-87490565D01*
X183497266Y-87490568D01*
X183703504Y-87586739D01*
X183923308Y-87645635D01*
X183942984Y-87647356D01*
X184149994Y-87665468D01*
X184150000Y-87665468D01*
X184150006Y-87665468D01*
X184329668Y-87649749D01*
X184376692Y-87645635D01*
X184596496Y-87586739D01*
X184802734Y-87490568D01*
X184989139Y-87360047D01*
X185150047Y-87199139D01*
X185280568Y-87012734D01*
X185376739Y-86806496D01*
X185435635Y-86586692D01*
X185445936Y-86468949D01*
X185455468Y-86360005D01*
X185455468Y-86359994D01*
X185435636Y-86133320D01*
X185435635Y-86133308D01*
X185376739Y-85913504D01*
X185303840Y-85757173D01*
X185280571Y-85707272D01*
X185280563Y-85707258D01*
X185150050Y-85520865D01*
X185150049Y-85520864D01*
X185150047Y-85520861D01*
X184989139Y-85359953D01*
X184989135Y-85359950D01*
X184989134Y-85359949D01*
X184802741Y-85229436D01*
X184802727Y-85229428D01*
X184596499Y-85133262D01*
X184596496Y-85133261D01*
X184376694Y-85074365D01*
X184376679Y-85074363D01*
X184150006Y-85054532D01*
X184149994Y-85054532D01*
X183923320Y-85074363D01*
X183923305Y-85074365D01*
X183703503Y-85133261D01*
X183703500Y-85133262D01*
X183497272Y-85229428D01*
X183497258Y-85229436D01*
X183310865Y-85359949D01*
X183149949Y-85520865D01*
X183019436Y-85707258D01*
X183019428Y-85707272D01*
X182923262Y-85913500D01*
X182923261Y-85913503D01*
X182864365Y-86133305D01*
X182864363Y-86133320D01*
X182844532Y-86359994D01*
X182844532Y-86360005D01*
X179338909Y-86360005D01*
X179305222Y-86309588D01*
X178969608Y-85973974D01*
X178408949Y-86534633D01*
X178408949Y-86397060D01*
X178368442Y-86259105D01*
X178290710Y-86138151D01*
X178182049Y-86043997D01*
X178051264Y-85984269D01*
X177944712Y-85968949D01*
X177873186Y-85968949D01*
X177766634Y-85984269D01*
X177635849Y-86043997D01*
X177527188Y-86138151D01*
X177449456Y-86259105D01*
X177408949Y-86397060D01*
X177408949Y-86540838D01*
X177449456Y-86678793D01*
X177527188Y-86799747D01*
X177635849Y-86893901D01*
X177766634Y-86953629D01*
X177873186Y-86968949D01*
X177944712Y-86968949D01*
X177979658Y-86963924D01*
X177908949Y-87034634D01*
X177413974Y-87529608D01*
X177749588Y-87865222D01*
X177811403Y-87906525D01*
X177908947Y-87925928D01*
X177908951Y-87925928D01*
X178006491Y-87906525D01*
X178015670Y-87902724D01*
X178110958Y-87883770D01*
X178206247Y-87902724D01*
X178287028Y-87956701D01*
X178341004Y-88037482D01*
X178359958Y-88132770D01*
X178359011Y-88154471D01*
X178350019Y-88257258D01*
X178349341Y-88265004D01*
X178357208Y-88354923D01*
X178346632Y-88451500D01*
X178299901Y-88536679D01*
X178285226Y-88552695D01*
X176388569Y-90449351D01*
X176307787Y-90503327D01*
X176212499Y-90522281D01*
X176117211Y-90503327D01*
X176036429Y-90449351D01*
X172056028Y-86468950D01*
X176451970Y-86468950D01*
X176471372Y-86566494D01*
X176512675Y-86628309D01*
X176848289Y-86963923D01*
X177343263Y-86468949D01*
X176848289Y-85973975D01*
X176512675Y-86309588D01*
X176471372Y-86371403D01*
X176451970Y-86468947D01*
X176451970Y-86468950D01*
X172056028Y-86468950D01*
X171312261Y-85725183D01*
X171279880Y-85704837D01*
X171268485Y-85696752D01*
X171262797Y-85692216D01*
X171238587Y-85672909D01*
X171204130Y-85656315D01*
X171191906Y-85649558D01*
X171159519Y-85629209D01*
X171123421Y-85616577D01*
X171110515Y-85611232D01*
X171076061Y-85594640D01*
X171048050Y-85588246D01*
X170959371Y-85548564D01*
X170892626Y-85477965D01*
X170866030Y-85408289D01*
X177413975Y-85408289D01*
X177908949Y-85903263D01*
X178403923Y-85408289D01*
X178068309Y-85072675D01*
X178006494Y-85031372D01*
X177908951Y-85011970D01*
X177908947Y-85011970D01*
X177811403Y-85031372D01*
X177749588Y-85072675D01*
X177413975Y-85408289D01*
X170866030Y-85408289D01*
X170857979Y-85387198D01*
X170860704Y-85290081D01*
X170878089Y-85242486D01*
X170877758Y-85242354D01*
X170882095Y-85231519D01*
X170882145Y-85231384D01*
X170882166Y-85231342D01*
X170960243Y-85036314D01*
X170967243Y-85000000D01*
X170163721Y-85000000D01*
X170262673Y-84914258D01*
X170336519Y-84799351D01*
X170375000Y-84668295D01*
X170375000Y-84531705D01*
X170336519Y-84400649D01*
X170262673Y-84285742D01*
X170159445Y-84196295D01*
X170035199Y-84139554D01*
X169933975Y-84125000D01*
X169866025Y-84125000D01*
X169764801Y-84139554D01*
X169640555Y-84196295D01*
X169537327Y-84285742D01*
X169500000Y-84343824D01*
X169500000Y-83449419D01*
X170300000Y-83449419D01*
X170300000Y-84199999D01*
X170300001Y-84200000D01*
X170965691Y-84200000D01*
X170925849Y-84064309D01*
X170829591Y-83877593D01*
X170829589Y-83877591D01*
X170699727Y-83712458D01*
X170540965Y-83574890D01*
X170359030Y-83469850D01*
X170300000Y-83449419D01*
X169500000Y-83449419D01*
X169500000Y-83448392D01*
X169499999Y-83448392D01*
X169347501Y-83518035D01*
X169176376Y-83639894D01*
X169176369Y-83639900D01*
X169031412Y-83791927D01*
X169031409Y-83791931D01*
X169009167Y-83826540D01*
X168941704Y-83896453D01*
X168852622Y-83935228D01*
X168755483Y-83936961D01*
X168665074Y-83901389D01*
X168595161Y-83833926D01*
X168574563Y-83798087D01*
X168574034Y-83797169D01*
X168521542Y-83722203D01*
X168438495Y-83603599D01*
X168271401Y-83436505D01*
X168077830Y-83300965D01*
X167863663Y-83201097D01*
X167863660Y-83201096D01*
X167635401Y-83139935D01*
X167400005Y-83119341D01*
X167399995Y-83119341D01*
X167164598Y-83139935D01*
X166936335Y-83201097D01*
X166936333Y-83201098D01*
X166722177Y-83300961D01*
X166722169Y-83300965D01*
X166528600Y-83436504D01*
X166361502Y-83603602D01*
X166353967Y-83614364D01*
X166283785Y-83681547D01*
X166193236Y-83716759D01*
X166096104Y-83714638D01*
X166007177Y-83675508D01*
X165946033Y-83614364D01*
X165938497Y-83603602D01*
X165938495Y-83603599D01*
X165773427Y-83438531D01*
X165719454Y-83357753D01*
X165700500Y-83262465D01*
X165700500Y-82894808D01*
X165700500Y-82894806D01*
X165691986Y-82857505D01*
X165689651Y-82843759D01*
X165685368Y-82805745D01*
X165672729Y-82769627D01*
X165668874Y-82756242D01*
X165660360Y-82718939D01*
X165643763Y-82684476D01*
X165638425Y-82671591D01*
X165625789Y-82635478D01*
X165605433Y-82603082D01*
X165598686Y-82590874D01*
X165582091Y-82556413D01*
X165578023Y-82551313D01*
X165558245Y-82526510D01*
X165550164Y-82515122D01*
X165529816Y-82482738D01*
X165402262Y-82355184D01*
X160994355Y-77947277D01*
X176618407Y-77947277D01*
X176989376Y-78318246D01*
X177051191Y-78359549D01*
X177148735Y-78378952D01*
X177148738Y-78378952D01*
X177244638Y-78359876D01*
X177341793Y-78359875D01*
X177431552Y-78397055D01*
X177500251Y-78465753D01*
X177537431Y-78555513D01*
X177541366Y-78624652D01*
X177539488Y-78647312D01*
X177558654Y-78878621D01*
X177558656Y-78878628D01*
X177615629Y-79103606D01*
X177615630Y-79103610D01*
X177708862Y-79316159D01*
X177835807Y-79510464D01*
X177835810Y-79510468D01*
X177993002Y-79681224D01*
X177993004Y-79681226D01*
X178029315Y-79709488D01*
X178091219Y-79757670D01*
X178176162Y-79823783D01*
X178189027Y-79830745D01*
X178380275Y-79934244D01*
X178380277Y-79934244D01*
X178380285Y-79934249D01*
X178599807Y-80009611D01*
X178828739Y-80047813D01*
X179060837Y-80047813D01*
X179289769Y-80009611D01*
X179509291Y-79934249D01*
X179713414Y-79823783D01*
X179896572Y-79681226D01*
X180053767Y-79510466D01*
X180180712Y-79316162D01*
X180273945Y-79103613D01*
X180330922Y-78878618D01*
X180350088Y-78647313D01*
X180330922Y-78416008D01*
X180273945Y-78191013D01*
X180180712Y-77978464D01*
X180053767Y-77784160D01*
X180053765Y-77784157D01*
X179896573Y-77613401D01*
X179896567Y-77613396D01*
X179713416Y-77470844D01*
X179509300Y-77360381D01*
X179509295Y-77360379D01*
X179509291Y-77360377D01*
X179289769Y-77285015D01*
X179289766Y-77285014D01*
X179289762Y-77285013D01*
X179060837Y-77246813D01*
X178901154Y-77246813D01*
X178805866Y-77227859D01*
X178725084Y-77173883D01*
X178671108Y-77093101D01*
X178652154Y-76997813D01*
X178656939Y-76949235D01*
X178676427Y-76851263D01*
X178676427Y-76851260D01*
X178657024Y-76753716D01*
X178615721Y-76691901D01*
X178244752Y-76320932D01*
X177579518Y-76986165D01*
X177602547Y-76885270D01*
X177592410Y-76749997D01*
X177542850Y-76623721D01*
X177458272Y-76517663D01*
X177346190Y-76441246D01*
X177216564Y-76401262D01*
X177115013Y-76401262D01*
X177014599Y-76416397D01*
X176892380Y-76475255D01*
X176792939Y-76567522D01*
X176725112Y-76685002D01*
X176694927Y-76817254D01*
X176705064Y-76952527D01*
X176754624Y-77078803D01*
X176839202Y-77184861D01*
X176951284Y-77261278D01*
X177080910Y-77301262D01*
X177182461Y-77301262D01*
X177278968Y-77286715D01*
X176618407Y-77947277D01*
X160994355Y-77947277D01*
X159898341Y-76851263D01*
X175621047Y-76851263D01*
X175640449Y-76948807D01*
X175681752Y-77010622D01*
X176052721Y-77381591D01*
X176583050Y-76851261D01*
X176052721Y-76320931D01*
X175681755Y-76691897D01*
X175681753Y-76691900D01*
X175640449Y-76753716D01*
X175621047Y-76851260D01*
X175621047Y-76851263D01*
X159898341Y-76851263D01*
X158802324Y-75755246D01*
X176618406Y-75755246D01*
X177148736Y-76285575D01*
X177679066Y-75755246D01*
X177308097Y-75384277D01*
X177246282Y-75342974D01*
X177148739Y-75323572D01*
X177148735Y-75323572D01*
X177051191Y-75342974D01*
X176989375Y-75384278D01*
X176989372Y-75384280D01*
X176618406Y-75755246D01*
X158802324Y-75755246D01*
X158649252Y-75602174D01*
X158617262Y-75570184D01*
X158617261Y-75570183D01*
X158584880Y-75549837D01*
X158573485Y-75541752D01*
X158543588Y-75517910D01*
X158543587Y-75517909D01*
X158509130Y-75501315D01*
X158496906Y-75494558D01*
X158464519Y-75474209D01*
X158428421Y-75461577D01*
X158415515Y-75456232D01*
X158381061Y-75439639D01*
X158343775Y-75431129D01*
X158330356Y-75427263D01*
X158294255Y-75414632D01*
X158294256Y-75414632D01*
X158277259Y-75412716D01*
X158256244Y-75410348D01*
X158242478Y-75408009D01*
X158205194Y-75399500D01*
X158159954Y-75399500D01*
X137758194Y-75399500D01*
X137577806Y-75399500D01*
X137552567Y-75405259D01*
X137540520Y-75408009D01*
X137526756Y-75410347D01*
X137488745Y-75414631D01*
X137452644Y-75427262D01*
X137439227Y-75431128D01*
X137401944Y-75439638D01*
X137401938Y-75439640D01*
X137367475Y-75456235D01*
X137354574Y-75461579D01*
X137318478Y-75474210D01*
X137318474Y-75474212D01*
X137286085Y-75494563D01*
X137273861Y-75501318D01*
X137239416Y-75517906D01*
X137239415Y-75517907D01*
X137209509Y-75541754D01*
X137198122Y-75549834D01*
X137165741Y-75570181D01*
X137133747Y-75602175D01*
X123449738Y-89286183D01*
X123322185Y-89413736D01*
X123322181Y-89413741D01*
X123301834Y-89446122D01*
X123293754Y-89457509D01*
X123269907Y-89487415D01*
X123269906Y-89487416D01*
X123253318Y-89521861D01*
X123246563Y-89534085D01*
X123226212Y-89566474D01*
X123226210Y-89566478D01*
X123213579Y-89602574D01*
X123208235Y-89615475D01*
X123191640Y-89649938D01*
X123191638Y-89649944D01*
X123183128Y-89687227D01*
X123179262Y-89700644D01*
X123166631Y-89736745D01*
X123162347Y-89774756D01*
X123160009Y-89788520D01*
X123151500Y-89825808D01*
X123151500Y-101118866D01*
X123132546Y-101214154D01*
X123129974Y-101220142D01*
X123124819Y-101231718D01*
X123066326Y-101411741D01*
X123066326Y-101411743D01*
X123046540Y-101600000D01*
X123066325Y-101788255D01*
X123083640Y-101841542D01*
X123124821Y-101968284D01*
X123179243Y-102062545D01*
X123219469Y-102132219D01*
X123346126Y-102272885D01*
X123346129Y-102272888D01*
X123460984Y-102356335D01*
X123499271Y-102384152D01*
X123672189Y-102461141D01*
X123672192Y-102461142D01*
X123672197Y-102461144D01*
X123857354Y-102500500D01*
X124046645Y-102500500D01*
X124046646Y-102500500D01*
X124231803Y-102461144D01*
X124281227Y-102439139D01*
X124404728Y-102384152D01*
X124404728Y-102384151D01*
X124404730Y-102384151D01*
X124557871Y-102272888D01*
X124684533Y-102132216D01*
X124779179Y-101968284D01*
X124837674Y-101788256D01*
X124857460Y-101600000D01*
X124837674Y-101411744D01*
X124831962Y-101394163D01*
X124779180Y-101231718D01*
X124774026Y-101220142D01*
X124752585Y-101125382D01*
X124752500Y-101118866D01*
X124752500Y-95885005D01*
X126279341Y-95885005D01*
X126299935Y-96120401D01*
X126348947Y-96303320D01*
X126361097Y-96348663D01*
X126440990Y-96519994D01*
X126460965Y-96562830D01*
X126595809Y-96755408D01*
X126596505Y-96756401D01*
X126763599Y-96923495D01*
X126957170Y-97059035D01*
X127171337Y-97158903D01*
X127399592Y-97220063D01*
X127399595Y-97220063D01*
X127399598Y-97220064D01*
X127634995Y-97240659D01*
X127635000Y-97240659D01*
X127635005Y-97240659D01*
X127870401Y-97220064D01*
X127870403Y-97220063D01*
X127870408Y-97220063D01*
X128098663Y-97158903D01*
X128312830Y-97059035D01*
X128506401Y-96923495D01*
X128673495Y-96756401D01*
X128809035Y-96562830D01*
X128908903Y-96348663D01*
X128970063Y-96120408D01*
X128972799Y-96089139D01*
X128990659Y-95885005D01*
X128990659Y-95884994D01*
X128970064Y-95649598D01*
X128970063Y-95649595D01*
X128970063Y-95649592D01*
X128908903Y-95421337D01*
X128836298Y-95265636D01*
X128809038Y-95207177D01*
X128809034Y-95207169D01*
X128748395Y-95120568D01*
X128673495Y-95013599D01*
X128506401Y-94846505D01*
X128467074Y-94818967D01*
X128399891Y-94748789D01*
X128364678Y-94658240D01*
X128366797Y-94561108D01*
X128405925Y-94472181D01*
X128467073Y-94411032D01*
X128506401Y-94383495D01*
X128673495Y-94216401D01*
X128809035Y-94022830D01*
X128829005Y-93980005D01*
X132044532Y-93980005D01*
X132064363Y-94206679D01*
X132064365Y-94206694D01*
X132123261Y-94426496D01*
X132123262Y-94426499D01*
X132219428Y-94632727D01*
X132219436Y-94632741D01*
X132349949Y-94819134D01*
X132349953Y-94819139D01*
X132510861Y-94980047D01*
X132510864Y-94980049D01*
X132510865Y-94980050D01*
X132697258Y-95110563D01*
X132697262Y-95110565D01*
X132697266Y-95110568D01*
X132697270Y-95110569D01*
X132697272Y-95110571D01*
X132730814Y-95126212D01*
X132903504Y-95206739D01*
X133123308Y-95265635D01*
X133142984Y-95267356D01*
X133349994Y-95285468D01*
X133350000Y-95285468D01*
X133350006Y-95285468D01*
X133529668Y-95269749D01*
X133576692Y-95265635D01*
X133796496Y-95206739D01*
X134002734Y-95110568D01*
X134189139Y-94980047D01*
X134350047Y-94819139D01*
X134480568Y-94632734D01*
X134576739Y-94426496D01*
X134635635Y-94206692D01*
X134646841Y-94078608D01*
X134655468Y-93980005D01*
X134655468Y-93979994D01*
X134635636Y-93753320D01*
X134635635Y-93753308D01*
X134576739Y-93533504D01*
X134514464Y-93399956D01*
X134480571Y-93327272D01*
X134480563Y-93327258D01*
X134350050Y-93140865D01*
X134350049Y-93140864D01*
X134350047Y-93140861D01*
X134189139Y-92979953D01*
X134189133Y-92979949D01*
X134066341Y-92893970D01*
X133999156Y-92823789D01*
X133963943Y-92733240D01*
X133966062Y-92636108D01*
X134005190Y-92547181D01*
X134066341Y-92486030D01*
X134189139Y-92400047D01*
X134350047Y-92239139D01*
X134480568Y-92052734D01*
X134576739Y-91846496D01*
X134635635Y-91626692D01*
X134648469Y-91479999D01*
X134655468Y-91400005D01*
X134655468Y-91399994D01*
X134635636Y-91173320D01*
X134635635Y-91173308D01*
X134576739Y-90953504D01*
X134480568Y-90747266D01*
X134480565Y-90747262D01*
X134480563Y-90747258D01*
X134350050Y-90560865D01*
X134350049Y-90560864D01*
X134350047Y-90560861D01*
X134189139Y-90399953D01*
X134189135Y-90399950D01*
X134189134Y-90399949D01*
X134002741Y-90269436D01*
X134002727Y-90269428D01*
X133796499Y-90173262D01*
X133796496Y-90173261D01*
X133576694Y-90114365D01*
X133576679Y-90114363D01*
X133350006Y-90094532D01*
X133349994Y-90094532D01*
X133123320Y-90114363D01*
X133123305Y-90114365D01*
X132903503Y-90173261D01*
X132903500Y-90173262D01*
X132697272Y-90269428D01*
X132697258Y-90269436D01*
X132510865Y-90399949D01*
X132349949Y-90560865D01*
X132219436Y-90747258D01*
X132219428Y-90747272D01*
X132123262Y-90953500D01*
X132123261Y-90953503D01*
X132064365Y-91173305D01*
X132064363Y-91173320D01*
X132044532Y-91399994D01*
X132044532Y-91400005D01*
X132064363Y-91626679D01*
X132064365Y-91626694D01*
X132123261Y-91846496D01*
X132123262Y-91846499D01*
X132219428Y-92052727D01*
X132219436Y-92052741D01*
X132327577Y-92207183D01*
X132349953Y-92239139D01*
X132510861Y-92400047D01*
X132510864Y-92400049D01*
X132510865Y-92400050D01*
X132633659Y-92486031D01*
X132700843Y-92556212D01*
X132736056Y-92646761D01*
X132733937Y-92743893D01*
X132694808Y-92832820D01*
X132633659Y-92893969D01*
X132510865Y-92979949D01*
X132349949Y-93140865D01*
X132219436Y-93327258D01*
X132219428Y-93327272D01*
X132123262Y-93533500D01*
X132123261Y-93533503D01*
X132064365Y-93753305D01*
X132064363Y-93753320D01*
X132044532Y-93979994D01*
X132044532Y-93980005D01*
X128829005Y-93980005D01*
X128908903Y-93808663D01*
X128970063Y-93580408D01*
X128972799Y-93549139D01*
X128990659Y-93345005D01*
X128990659Y-93344994D01*
X128970064Y-93109598D01*
X128970063Y-93109595D01*
X128970063Y-93109592D01*
X128908903Y-92881337D01*
X128846369Y-92747234D01*
X128809038Y-92667177D01*
X128809034Y-92667169D01*
X128748395Y-92580568D01*
X128673495Y-92473599D01*
X128673492Y-92473596D01*
X128670151Y-92469614D01*
X128668150Y-92465966D01*
X128667259Y-92464694D01*
X128667398Y-92464596D01*
X128623423Y-92384434D01*
X128612848Y-92287857D01*
X128640037Y-92194584D01*
X128700850Y-92118815D01*
X128713571Y-92110135D01*
X128713073Y-92109469D01*
X128727329Y-92098796D01*
X128727331Y-92098796D01*
X128842546Y-92012546D01*
X128928796Y-91897331D01*
X128979091Y-91762483D01*
X128985500Y-91702873D01*
X128985499Y-89907128D01*
X128979091Y-89847517D01*
X128928796Y-89712669D01*
X128842546Y-89597454D01*
X128727331Y-89511204D01*
X128622362Y-89472053D01*
X128592481Y-89460908D01*
X128532873Y-89454500D01*
X126737134Y-89454500D01*
X126737130Y-89454500D01*
X126737128Y-89454501D01*
X126724314Y-89455878D01*
X126677519Y-89460908D01*
X126677515Y-89460909D01*
X126542670Y-89511203D01*
X126427455Y-89597453D01*
X126427453Y-89597455D01*
X126341204Y-89712669D01*
X126290908Y-89847518D01*
X126284500Y-89907123D01*
X126284500Y-91702865D01*
X126284500Y-91702868D01*
X126284501Y-91702872D01*
X126284883Y-91706422D01*
X126290908Y-91762480D01*
X126290909Y-91762484D01*
X126341203Y-91897329D01*
X126341204Y-91897331D01*
X126427454Y-92012546D01*
X126542669Y-92098796D01*
X126542670Y-92098796D01*
X126556927Y-92109469D01*
X126554454Y-92112771D01*
X126602965Y-92153305D01*
X126648006Y-92239389D01*
X126656675Y-92336156D01*
X126627653Y-92428875D01*
X126599855Y-92469605D01*
X126596513Y-92473587D01*
X126460965Y-92667169D01*
X126460961Y-92667177D01*
X126361098Y-92881333D01*
X126361097Y-92881335D01*
X126299935Y-93109598D01*
X126279341Y-93344994D01*
X126279341Y-93345005D01*
X126299935Y-93580401D01*
X126348947Y-93763320D01*
X126361097Y-93808663D01*
X126411840Y-93917481D01*
X126460965Y-94022830D01*
X126589706Y-94206692D01*
X126596505Y-94216401D01*
X126763599Y-94383495D01*
X126802925Y-94411031D01*
X126870107Y-94481209D01*
X126905321Y-94571758D01*
X126903202Y-94668890D01*
X126864074Y-94757818D01*
X126802928Y-94818965D01*
X126763603Y-94846501D01*
X126596504Y-95013600D01*
X126460965Y-95207169D01*
X126460961Y-95207177D01*
X126361098Y-95421333D01*
X126361097Y-95421335D01*
X126299935Y-95649598D01*
X126279341Y-95884994D01*
X126279341Y-95885005D01*
X124752500Y-95885005D01*
X124752500Y-90350718D01*
X124771454Y-90255430D01*
X124825430Y-90174648D01*
X126490079Y-88509999D01*
X136120000Y-88509999D01*
X136120001Y-88510000D01*
X136769999Y-88510000D01*
X136770000Y-88509999D01*
X137570000Y-88509999D01*
X137570001Y-88510000D01*
X138219999Y-88510000D01*
X138220000Y-88509999D01*
X138220000Y-88085376D01*
X138219999Y-88085371D01*
X138205495Y-88012456D01*
X138205495Y-88012455D01*
X138150241Y-87929762D01*
X138150237Y-87929758D01*
X138067544Y-87874504D01*
X137994628Y-87860000D01*
X137570001Y-87860000D01*
X137570000Y-87860001D01*
X137570000Y-88509999D01*
X136770000Y-88509999D01*
X136770000Y-87860001D01*
X136769999Y-87860000D01*
X136345371Y-87860000D01*
X136272456Y-87874504D01*
X136272455Y-87874504D01*
X136189762Y-87929758D01*
X136189758Y-87929762D01*
X136134504Y-88012455D01*
X136134504Y-88012456D01*
X136120000Y-88085371D01*
X136120000Y-88509999D01*
X126490079Y-88509999D01*
X127627165Y-87372913D01*
X132942769Y-87372913D01*
X132946232Y-87374765D01*
X132946244Y-87374770D01*
X133144163Y-87434808D01*
X133349999Y-87455081D01*
X133350001Y-87455081D01*
X133555837Y-87434807D01*
X133753754Y-87374770D01*
X133753766Y-87374766D01*
X133757228Y-87372914D01*
X133349999Y-86965685D01*
X132942769Y-87372913D01*
X127627165Y-87372913D01*
X128600078Y-86400000D01*
X132294919Y-86400000D01*
X132315192Y-86605837D01*
X132375229Y-86803756D01*
X132377085Y-86807228D01*
X132784314Y-86400000D01*
X132945014Y-86400000D01*
X132964835Y-86525148D01*
X133022359Y-86638045D01*
X133111955Y-86727641D01*
X133224852Y-86785165D01*
X133318519Y-86800000D01*
X133381481Y-86800000D01*
X133475148Y-86785165D01*
X133588045Y-86727641D01*
X133677641Y-86638045D01*
X133735165Y-86525148D01*
X133754986Y-86400000D01*
X133754986Y-86399999D01*
X133915685Y-86399999D01*
X134322914Y-86807228D01*
X134324766Y-86803766D01*
X134324770Y-86803754D01*
X134384807Y-86605837D01*
X134405081Y-86400000D01*
X134405081Y-86399999D01*
X134384808Y-86194163D01*
X134344994Y-86062913D01*
X138102769Y-86062913D01*
X138106232Y-86064765D01*
X138106244Y-86064770D01*
X138304163Y-86124808D01*
X138509999Y-86145081D01*
X138510001Y-86145081D01*
X138715837Y-86124807D01*
X138913754Y-86064770D01*
X138913766Y-86064766D01*
X138917228Y-86062914D01*
X138509999Y-85655685D01*
X138102769Y-86062913D01*
X134344994Y-86062913D01*
X134324770Y-85996244D01*
X134324765Y-85996232D01*
X134322913Y-85992769D01*
X133915685Y-86399999D01*
X133754986Y-86399999D01*
X133735165Y-86274852D01*
X133677641Y-86161955D01*
X133588045Y-86072359D01*
X133475148Y-86014835D01*
X133381481Y-86000000D01*
X133318519Y-86000000D01*
X133224852Y-86014835D01*
X133111955Y-86072359D01*
X133022359Y-86161955D01*
X132964835Y-86274852D01*
X132945014Y-86400000D01*
X132784314Y-86400000D01*
X132377084Y-85992770D01*
X132375235Y-85996231D01*
X132375231Y-85996239D01*
X132315191Y-86194164D01*
X132294919Y-86399999D01*
X132294919Y-86400000D01*
X128600078Y-86400000D01*
X129572994Y-85427084D01*
X132942770Y-85427084D01*
X133350000Y-85834314D01*
X133757228Y-85427085D01*
X133753756Y-85425229D01*
X133555837Y-85365192D01*
X133350001Y-85344919D01*
X133349999Y-85344919D01*
X133144164Y-85365191D01*
X132946239Y-85425231D01*
X132946231Y-85425235D01*
X132942770Y-85427084D01*
X129572994Y-85427084D01*
X129910078Y-85090000D01*
X137454919Y-85090000D01*
X137475192Y-85295837D01*
X137535229Y-85493756D01*
X137537085Y-85497228D01*
X137944314Y-85090000D01*
X138105014Y-85090000D01*
X138124835Y-85215148D01*
X138182359Y-85328045D01*
X138271955Y-85417641D01*
X138384852Y-85475165D01*
X138478519Y-85490000D01*
X138541481Y-85490000D01*
X138635148Y-85475165D01*
X138748045Y-85417641D01*
X138837641Y-85328045D01*
X138895165Y-85215148D01*
X138914986Y-85090000D01*
X138914986Y-85089999D01*
X139075685Y-85089999D01*
X139482914Y-85497228D01*
X139484766Y-85493766D01*
X139484770Y-85493754D01*
X139544807Y-85295837D01*
X139565081Y-85090005D01*
X142204532Y-85090005D01*
X142224363Y-85316679D01*
X142224365Y-85316694D01*
X142283261Y-85536496D01*
X142283262Y-85536499D01*
X142379428Y-85742727D01*
X142379436Y-85742741D01*
X142509949Y-85929134D01*
X142509953Y-85929139D01*
X142670861Y-86090047D01*
X142670864Y-86090049D01*
X142670865Y-86090050D01*
X142857258Y-86220563D01*
X142857262Y-86220565D01*
X142857266Y-86220568D01*
X142857270Y-86220569D01*
X142857272Y-86220571D01*
X142939908Y-86259105D01*
X143063504Y-86316739D01*
X143283308Y-86375635D01*
X143302984Y-86377356D01*
X143509994Y-86395468D01*
X143510000Y-86395468D01*
X143510006Y-86395468D01*
X143689668Y-86379749D01*
X143736692Y-86375635D01*
X143956496Y-86316739D01*
X144162734Y-86220568D01*
X144349139Y-86090047D01*
X144510047Y-85929139D01*
X144640568Y-85742734D01*
X144736739Y-85536496D01*
X144795635Y-85316692D01*
X144803087Y-85231519D01*
X144815468Y-85090005D01*
X144815468Y-85089994D01*
X144795636Y-84863320D01*
X144795635Y-84863308D01*
X144736739Y-84643504D01*
X144640568Y-84437266D01*
X144640565Y-84437262D01*
X144640563Y-84437258D01*
X144510050Y-84250865D01*
X144510049Y-84250864D01*
X144510047Y-84250861D01*
X144349139Y-84089953D01*
X144349135Y-84089950D01*
X144349134Y-84089949D01*
X144162741Y-83959436D01*
X144162727Y-83959428D01*
X143956499Y-83863262D01*
X143956496Y-83863261D01*
X143736694Y-83804365D01*
X143736679Y-83804363D01*
X143510006Y-83784532D01*
X143509994Y-83784532D01*
X143283320Y-83804363D01*
X143283305Y-83804365D01*
X143063503Y-83863261D01*
X143063500Y-83863262D01*
X142857272Y-83959428D01*
X142857258Y-83959436D01*
X142670865Y-84089949D01*
X142509949Y-84250865D01*
X142379436Y-84437258D01*
X142379428Y-84437272D01*
X142283262Y-84643500D01*
X142283261Y-84643503D01*
X142224365Y-84863305D01*
X142224363Y-84863320D01*
X142204532Y-85089994D01*
X142204532Y-85090005D01*
X139565081Y-85090005D01*
X139565081Y-85090000D01*
X139565081Y-85089999D01*
X139544808Y-84884163D01*
X139484770Y-84686244D01*
X139484765Y-84686232D01*
X139482913Y-84682769D01*
X139075685Y-85089999D01*
X138914986Y-85089999D01*
X138895165Y-84964852D01*
X138837641Y-84851955D01*
X138748045Y-84762359D01*
X138635148Y-84704835D01*
X138541481Y-84690000D01*
X138478519Y-84690000D01*
X138384852Y-84704835D01*
X138271955Y-84762359D01*
X138182359Y-84851955D01*
X138124835Y-84964852D01*
X138105014Y-85090000D01*
X137944314Y-85090000D01*
X137537084Y-84682770D01*
X137535235Y-84686231D01*
X137535231Y-84686239D01*
X137475191Y-84884164D01*
X137454919Y-85089999D01*
X137454919Y-85090000D01*
X129910078Y-85090000D01*
X130882994Y-84117084D01*
X138102770Y-84117084D01*
X138510000Y-84524314D01*
X138917228Y-84117085D01*
X138913756Y-84115229D01*
X138715837Y-84055192D01*
X138510001Y-84034919D01*
X138509999Y-84034919D01*
X138304164Y-84055191D01*
X138106239Y-84115231D01*
X138106231Y-84115235D01*
X138102770Y-84117084D01*
X130882994Y-84117084D01*
X131752210Y-83247868D01*
X145699500Y-83247868D01*
X145699501Y-83247872D01*
X145701070Y-83262465D01*
X145705908Y-83307480D01*
X145705909Y-83307484D01*
X145754031Y-83436505D01*
X145756204Y-83442331D01*
X145842454Y-83557546D01*
X145957669Y-83643796D01*
X146092517Y-83694091D01*
X146152127Y-83700500D01*
X149247872Y-83700499D01*
X149307483Y-83694091D01*
X149442331Y-83643796D01*
X149557546Y-83557546D01*
X149643796Y-83442331D01*
X149694091Y-83307483D01*
X149700500Y-83247873D01*
X149700499Y-79952128D01*
X149694091Y-79892517D01*
X149643796Y-79757669D01*
X149557546Y-79642454D01*
X149442331Y-79556204D01*
X149362117Y-79526286D01*
X149307481Y-79505908D01*
X149247873Y-79499500D01*
X146152134Y-79499500D01*
X146152130Y-79499500D01*
X146152128Y-79499501D01*
X146139314Y-79500878D01*
X146092519Y-79505908D01*
X146092515Y-79505909D01*
X145957670Y-79556203D01*
X145842455Y-79642453D01*
X145842453Y-79642455D01*
X145756204Y-79757669D01*
X145705908Y-79892518D01*
X145699500Y-79952123D01*
X145699500Y-83247865D01*
X145699500Y-83247868D01*
X131752210Y-83247868D01*
X137926648Y-77073430D01*
X138007430Y-77019454D01*
X138102718Y-77000500D01*
X148727343Y-77000500D01*
X148822631Y-77019454D01*
X148903413Y-77073430D01*
X148957389Y-77154212D01*
X148976343Y-77249500D01*
X148974979Y-77275526D01*
X148954540Y-77469998D01*
X148954540Y-77469999D01*
X148974325Y-77658255D01*
X149003573Y-77748270D01*
X149032821Y-77838284D01*
X149095748Y-77947277D01*
X149127469Y-78002219D01*
X149254126Y-78142885D01*
X149254129Y-78142888D01*
X149407270Y-78254151D01*
X149554026Y-78319491D01*
X149628814Y-78370892D01*
X151526570Y-80268648D01*
X151580546Y-80349430D01*
X151599500Y-80444718D01*
X151599500Y-83402194D01*
X151608009Y-83439478D01*
X151610348Y-83453244D01*
X151614632Y-83491255D01*
X151624002Y-83518035D01*
X151627262Y-83527350D01*
X151631129Y-83540775D01*
X151639639Y-83578061D01*
X151656232Y-83612515D01*
X151661577Y-83625421D01*
X151674209Y-83661519D01*
X151694558Y-83693906D01*
X151701316Y-83706132D01*
X151717908Y-83740585D01*
X151717910Y-83740588D01*
X151741752Y-83770485D01*
X151749837Y-83781880D01*
X151770183Y-83814261D01*
X154781966Y-86826044D01*
X154835942Y-86906826D01*
X154854896Y-87002114D01*
X154835942Y-87097402D01*
X154781966Y-87178184D01*
X154701184Y-87232160D01*
X154646882Y-87247718D01*
X154561176Y-87262020D01*
X154345572Y-87336037D01*
X154145097Y-87444529D01*
X154145094Y-87444530D01*
X154145094Y-87444531D01*
X154035788Y-87529608D01*
X153965210Y-87584541D01*
X153965198Y-87584551D01*
X153833195Y-87727946D01*
X153754713Y-87785215D01*
X153660290Y-87808090D01*
X153564300Y-87793090D01*
X153481357Y-87742498D01*
X153466805Y-87727946D01*
X153334801Y-87584551D01*
X153334798Y-87584549D01*
X153334794Y-87584544D01*
X153154906Y-87444531D01*
X153108128Y-87419216D01*
X152954427Y-87336037D01*
X152738822Y-87262019D01*
X152513977Y-87224500D01*
X152286023Y-87224500D01*
X152061177Y-87262019D01*
X151845572Y-87336037D01*
X151645097Y-87444529D01*
X151645094Y-87444530D01*
X151645094Y-87444531D01*
X151535788Y-87529608D01*
X151465210Y-87584541D01*
X151465198Y-87584551D01*
X151333195Y-87727946D01*
X151254713Y-87785215D01*
X151160290Y-87808090D01*
X151064300Y-87793090D01*
X150981357Y-87742498D01*
X150966805Y-87727946D01*
X150834801Y-87584551D01*
X150834798Y-87584549D01*
X150834794Y-87584544D01*
X150654906Y-87444531D01*
X150608128Y-87419216D01*
X150454427Y-87336037D01*
X150238822Y-87262019D01*
X150013977Y-87224500D01*
X149786023Y-87224500D01*
X149561177Y-87262019D01*
X149345572Y-87336037D01*
X149145097Y-87444529D01*
X149145094Y-87444530D01*
X149145094Y-87444531D01*
X149035788Y-87529608D01*
X148965210Y-87584541D01*
X148965198Y-87584551D01*
X148810817Y-87752254D01*
X148810811Y-87752261D01*
X148686139Y-87943089D01*
X148686136Y-87943094D01*
X148594569Y-88151847D01*
X148594568Y-88151851D01*
X148538612Y-88372813D01*
X148538610Y-88372820D01*
X148519786Y-88600000D01*
X148538610Y-88827179D01*
X148538612Y-88827186D01*
X148588744Y-89025148D01*
X148594570Y-89048155D01*
X148632896Y-89135529D01*
X148686136Y-89256905D01*
X148686139Y-89256910D01*
X148810811Y-89447738D01*
X148810817Y-89447745D01*
X148965198Y-89615448D01*
X148965206Y-89615456D01*
X149003438Y-89645213D01*
X149066992Y-89718697D01*
X149097588Y-89810909D01*
X149099500Y-89841710D01*
X149099500Y-90202187D01*
X149080546Y-90297475D01*
X149026570Y-90378257D01*
X148945788Y-90432233D01*
X148850500Y-90451187D01*
X148801924Y-90446403D01*
X148795835Y-90445191D01*
X148590001Y-90424919D01*
X148589999Y-90424919D01*
X148384164Y-90445191D01*
X148186239Y-90505231D01*
X148186231Y-90505235D01*
X148182770Y-90507084D01*
X148182769Y-90507085D01*
X148590000Y-90914316D01*
X148828042Y-91152357D01*
X148715148Y-91094835D01*
X148621481Y-91080000D01*
X148558519Y-91080000D01*
X148464852Y-91094835D01*
X148351955Y-91152359D01*
X148262359Y-91241955D01*
X148204835Y-91354852D01*
X148185014Y-91480000D01*
X148204835Y-91605148D01*
X148262359Y-91718045D01*
X148351955Y-91807641D01*
X148464852Y-91865165D01*
X148558519Y-91880000D01*
X148621481Y-91880000D01*
X148715148Y-91865165D01*
X148828040Y-91807643D01*
X148182769Y-92452913D01*
X148186232Y-92454765D01*
X148186244Y-92454770D01*
X148384163Y-92514808D01*
X148589999Y-92535081D01*
X148590001Y-92535081D01*
X148795832Y-92514808D01*
X148801911Y-92513599D01*
X148899066Y-92513594D01*
X148988827Y-92550770D01*
X149057530Y-92619465D01*
X149094713Y-92709223D01*
X149099500Y-92757812D01*
X149099500Y-94947485D01*
X149080546Y-95042773D01*
X149026570Y-95123555D01*
X148945788Y-95177531D01*
X148850500Y-95196485D01*
X148827594Y-95194481D01*
X148827522Y-95195312D01*
X148590006Y-95174532D01*
X148589994Y-95174532D01*
X148363320Y-95194363D01*
X148363305Y-95194365D01*
X148143503Y-95253261D01*
X148143500Y-95253262D01*
X147937272Y-95349428D01*
X147937258Y-95349436D01*
X147750865Y-95479949D01*
X147589949Y-95640865D01*
X147459436Y-95827258D01*
X147459428Y-95827272D01*
X147363262Y-96033500D01*
X147363261Y-96033503D01*
X147304365Y-96253305D01*
X147304363Y-96253320D01*
X147284532Y-96479994D01*
X147284532Y-96480005D01*
X147304363Y-96706679D01*
X147304365Y-96706694D01*
X147363261Y-96926496D01*
X147363262Y-96926499D01*
X147459428Y-97132727D01*
X147459436Y-97132741D01*
X147589949Y-97319134D01*
X147589953Y-97319139D01*
X147750861Y-97480047D01*
X147750864Y-97480049D01*
X147750865Y-97480050D01*
X147937258Y-97610563D01*
X147937262Y-97610565D01*
X147937266Y-97610568D01*
X148143504Y-97706739D01*
X148363308Y-97765635D01*
X148363310Y-97765635D01*
X148373808Y-97768448D01*
X148373397Y-97769981D01*
X148451865Y-97800498D01*
X148522045Y-97867684D01*
X148561172Y-97956612D01*
X148563289Y-98053744D01*
X148528075Y-98144292D01*
X148460889Y-98214472D01*
X148371961Y-98253599D01*
X148318073Y-98259500D01*
X145251509Y-98259500D01*
X145156221Y-98240546D01*
X145075439Y-98186570D01*
X145021463Y-98105788D01*
X145002509Y-98010500D01*
X145021463Y-97915212D01*
X145075439Y-97834430D01*
X145156221Y-97780454D01*
X145187061Y-97769984D01*
X145236496Y-97756739D01*
X145442734Y-97660568D01*
X145629139Y-97530047D01*
X145790047Y-97369139D01*
X145920568Y-97182734D01*
X146016739Y-96976496D01*
X146075635Y-96756692D01*
X146083120Y-96671139D01*
X146095468Y-96530005D01*
X146095468Y-96529994D01*
X146075636Y-96303320D01*
X146075635Y-96303308D01*
X146016739Y-96083504D01*
X145960856Y-95963663D01*
X145920571Y-95877272D01*
X145920563Y-95877258D01*
X145790050Y-95690865D01*
X145790049Y-95690864D01*
X145790047Y-95690861D01*
X145629139Y-95529953D01*
X145629133Y-95529949D01*
X145557725Y-95479949D01*
X145534902Y-95463968D01*
X145467719Y-95393789D01*
X145432506Y-95303240D01*
X145434625Y-95206108D01*
X145473753Y-95117181D01*
X145534902Y-95056031D01*
X145629139Y-94990047D01*
X145790047Y-94829139D01*
X145920568Y-94642734D01*
X146016739Y-94436496D01*
X146075635Y-94216692D01*
X146089983Y-94052696D01*
X146095468Y-93990005D01*
X146095468Y-93989994D01*
X146075636Y-93763320D01*
X146075635Y-93763308D01*
X146016739Y-93543504D01*
X145924177Y-93345005D01*
X145920571Y-93337272D01*
X145920563Y-93337258D01*
X145790050Y-93150865D01*
X145790049Y-93150864D01*
X145790047Y-93150861D01*
X145629139Y-92989953D01*
X145629133Y-92989949D01*
X145600561Y-92969942D01*
X145534902Y-92923968D01*
X145467719Y-92853789D01*
X145432506Y-92763240D01*
X145434625Y-92666108D01*
X145473753Y-92577181D01*
X145534902Y-92516031D01*
X145629139Y-92450047D01*
X145790047Y-92289139D01*
X145920568Y-92102734D01*
X146016739Y-91896496D01*
X146075635Y-91676692D01*
X146082653Y-91596477D01*
X146092844Y-91480000D01*
X147534919Y-91480000D01*
X147555192Y-91685837D01*
X147615229Y-91883756D01*
X147617085Y-91887228D01*
X148024314Y-91480000D01*
X147617084Y-91072770D01*
X147615235Y-91076231D01*
X147615231Y-91076239D01*
X147555191Y-91274164D01*
X147534919Y-91479999D01*
X147534919Y-91480000D01*
X146092844Y-91480000D01*
X146095468Y-91450005D01*
X146095468Y-91449994D01*
X146075636Y-91223320D01*
X146075635Y-91223308D01*
X146016739Y-91003504D01*
X145923948Y-90804515D01*
X145920571Y-90797272D01*
X145920563Y-90797258D01*
X145790050Y-90610865D01*
X145790049Y-90610864D01*
X145790047Y-90610861D01*
X145629139Y-90449953D01*
X145629133Y-90449949D01*
X145558622Y-90400577D01*
X145534902Y-90383968D01*
X145467719Y-90313789D01*
X145432506Y-90223240D01*
X145434625Y-90126108D01*
X145473753Y-90037181D01*
X145534902Y-89976031D01*
X145629139Y-89910047D01*
X145790047Y-89749139D01*
X145920568Y-89562734D01*
X146016739Y-89356496D01*
X146075635Y-89136692D01*
X146086970Y-89007129D01*
X146095468Y-88910005D01*
X146095468Y-88909994D01*
X146075636Y-88683320D01*
X146075635Y-88683308D01*
X146016739Y-88463504D01*
X145924177Y-88265005D01*
X145920571Y-88257272D01*
X145920563Y-88257258D01*
X145790050Y-88070865D01*
X145790049Y-88070864D01*
X145790047Y-88070861D01*
X145629139Y-87909953D01*
X145629135Y-87909950D01*
X145629134Y-87909949D01*
X145442741Y-87779436D01*
X145442727Y-87779428D01*
X145236499Y-87683262D01*
X145236496Y-87683261D01*
X145016694Y-87624365D01*
X145016679Y-87624363D01*
X144790006Y-87604532D01*
X144789994Y-87604532D01*
X144563320Y-87624363D01*
X144563305Y-87624365D01*
X144343503Y-87683261D01*
X144343500Y-87683262D01*
X144137272Y-87779428D01*
X144137258Y-87779436D01*
X143950865Y-87909949D01*
X143789949Y-88070865D01*
X143659436Y-88257258D01*
X143659428Y-88257272D01*
X143563262Y-88463500D01*
X143563261Y-88463503D01*
X143504365Y-88683305D01*
X143504363Y-88683320D01*
X143484532Y-88909994D01*
X143484532Y-88910000D01*
X143488361Y-88953775D01*
X143477782Y-89050352D01*
X143431050Y-89135529D01*
X143416378Y-89151542D01*
X138834344Y-93733576D01*
X138753562Y-93787552D01*
X138658274Y-93806506D01*
X138562986Y-93787552D01*
X138482204Y-93733576D01*
X138428228Y-93652794D01*
X138417758Y-93621950D01*
X138416561Y-93617483D01*
X138396739Y-93543504D01*
X138304177Y-93345005D01*
X138300571Y-93337272D01*
X138300563Y-93337258D01*
X138170050Y-93150865D01*
X138170049Y-93150864D01*
X138170047Y-93150861D01*
X138009139Y-92989953D01*
X138009133Y-92989949D01*
X137980561Y-92969942D01*
X137914902Y-92923968D01*
X137847719Y-92853789D01*
X137812506Y-92763240D01*
X137814625Y-92666108D01*
X137853753Y-92577181D01*
X137914902Y-92516031D01*
X138009139Y-92450047D01*
X138170047Y-92289139D01*
X138300568Y-92102734D01*
X138396739Y-91896496D01*
X138455635Y-91676692D01*
X138462653Y-91596477D01*
X138475468Y-91450005D01*
X138475468Y-91449994D01*
X138455636Y-91223320D01*
X138455635Y-91223308D01*
X138396739Y-91003504D01*
X138303948Y-90804515D01*
X138300571Y-90797272D01*
X138300563Y-90797258D01*
X138170050Y-90610865D01*
X138170049Y-90610864D01*
X138170047Y-90610861D01*
X138009139Y-90449953D01*
X138009135Y-90449950D01*
X138009134Y-90449949D01*
X137938623Y-90400577D01*
X137871439Y-90330396D01*
X137836226Y-90239847D01*
X137838345Y-90142715D01*
X137877474Y-90053788D01*
X137947655Y-89986604D01*
X138032868Y-89952392D01*
X138067545Y-89945494D01*
X138150237Y-89890241D01*
X138150241Y-89890237D01*
X138205495Y-89807544D01*
X138205495Y-89807543D01*
X138219999Y-89734628D01*
X138220000Y-89734623D01*
X138220000Y-89310001D01*
X138219999Y-89310000D01*
X137201481Y-89310000D01*
X137295148Y-89295165D01*
X137408045Y-89237641D01*
X137497641Y-89148045D01*
X137555165Y-89035148D01*
X137574986Y-88910000D01*
X137555165Y-88784852D01*
X137497641Y-88671955D01*
X137408045Y-88582359D01*
X137295148Y-88524835D01*
X137201481Y-88510000D01*
X137138519Y-88510000D01*
X137044852Y-88524835D01*
X136931955Y-88582359D01*
X136842359Y-88671955D01*
X136784835Y-88784852D01*
X136765014Y-88910000D01*
X136784835Y-89035148D01*
X136842359Y-89148045D01*
X136931955Y-89237641D01*
X137044852Y-89295165D01*
X137138519Y-89310000D01*
X136120001Y-89310000D01*
X136120000Y-89310001D01*
X136120000Y-89734628D01*
X136134504Y-89807543D01*
X136134504Y-89807544D01*
X136189758Y-89890237D01*
X136189762Y-89890241D01*
X136272454Y-89945494D01*
X136307131Y-89952392D01*
X136396891Y-89989571D01*
X136465591Y-90058269D01*
X136502771Y-90148028D01*
X136502772Y-90245183D01*
X136465593Y-90334943D01*
X136401377Y-90400576D01*
X136330866Y-90449948D01*
X136169949Y-90610865D01*
X136039436Y-90797258D01*
X136039428Y-90797272D01*
X135943262Y-91003500D01*
X135943261Y-91003503D01*
X135884365Y-91223305D01*
X135884363Y-91223320D01*
X135864532Y-91449994D01*
X135864532Y-91450005D01*
X135884363Y-91676679D01*
X135884365Y-91676694D01*
X135943261Y-91896496D01*
X135943262Y-91896499D01*
X136039428Y-92102727D01*
X136039436Y-92102741D01*
X136169055Y-92287857D01*
X136169953Y-92289139D01*
X136330861Y-92450047D01*
X136330864Y-92450049D01*
X136330865Y-92450050D01*
X136425096Y-92516031D01*
X136492280Y-92586212D01*
X136527493Y-92676761D01*
X136525374Y-92773893D01*
X136486245Y-92862820D01*
X136425096Y-92923969D01*
X136330865Y-92989949D01*
X136169949Y-93150865D01*
X136039436Y-93337258D01*
X136039428Y-93337272D01*
X135943262Y-93543500D01*
X135943261Y-93543503D01*
X135884365Y-93763305D01*
X135884363Y-93763320D01*
X135864532Y-93989994D01*
X135864532Y-93990005D01*
X135884363Y-94216679D01*
X135884365Y-94216694D01*
X135943261Y-94436496D01*
X135943262Y-94436499D01*
X136039428Y-94642727D01*
X136039436Y-94642741D01*
X136165078Y-94822177D01*
X136169953Y-94829139D01*
X136330861Y-94990047D01*
X136330864Y-94990049D01*
X136330865Y-94990050D01*
X136425096Y-95056031D01*
X136492280Y-95126212D01*
X136527493Y-95216761D01*
X136525374Y-95313893D01*
X136486245Y-95402820D01*
X136425096Y-95463969D01*
X136330865Y-95529949D01*
X136330861Y-95529952D01*
X136330861Y-95529953D01*
X136204241Y-95656572D01*
X136123463Y-95710546D01*
X136028175Y-95729500D01*
X135716194Y-95729500D01*
X135535806Y-95729500D01*
X135510567Y-95735259D01*
X135498520Y-95738009D01*
X135484756Y-95740347D01*
X135446745Y-95744631D01*
X135410644Y-95757262D01*
X135397227Y-95761128D01*
X135359944Y-95769638D01*
X135359938Y-95769640D01*
X135325475Y-95786235D01*
X135312574Y-95791579D01*
X135276478Y-95804210D01*
X135276474Y-95804212D01*
X135244085Y-95824563D01*
X135231861Y-95831318D01*
X135197416Y-95847906D01*
X135197415Y-95847907D01*
X135167509Y-95871754D01*
X135156122Y-95879834D01*
X135123741Y-95900181D01*
X135091747Y-95932175D01*
X130815738Y-100208183D01*
X130688185Y-100335736D01*
X130688181Y-100335741D01*
X130667834Y-100368122D01*
X130659754Y-100379509D01*
X130635907Y-100409415D01*
X130635906Y-100409416D01*
X130619318Y-100443861D01*
X130612563Y-100456085D01*
X130592212Y-100488474D01*
X130592210Y-100488478D01*
X130579579Y-100524574D01*
X130574235Y-100537475D01*
X130557640Y-100571938D01*
X130557638Y-100571944D01*
X130549128Y-100609227D01*
X130545262Y-100622644D01*
X130532631Y-100658745D01*
X130528347Y-100696756D01*
X130526009Y-100710520D01*
X130517500Y-100747808D01*
X130517500Y-102836500D01*
X130498546Y-102931788D01*
X130444570Y-103012570D01*
X130363788Y-103066546D01*
X130268500Y-103085500D01*
X124725800Y-103085500D01*
X124688506Y-103094011D01*
X124674736Y-103096350D01*
X124636745Y-103100630D01*
X124636738Y-103100632D01*
X124600645Y-103113261D01*
X124587223Y-103117128D01*
X124549936Y-103125638D01*
X124549932Y-103125640D01*
X124515468Y-103142236D01*
X124502568Y-103147579D01*
X124466475Y-103160209D01*
X124466474Y-103160210D01*
X124434088Y-103180558D01*
X124421868Y-103187311D01*
X124387411Y-103203906D01*
X124357495Y-103227761D01*
X124346108Y-103235841D01*
X124313735Y-103256183D01*
X124313734Y-103256184D01*
X124281747Y-103288170D01*
X124281743Y-103288174D01*
X124094046Y-103475872D01*
X123976746Y-103593171D01*
X118163518Y-109406397D01*
X118082736Y-109460373D01*
X117987448Y-109479327D01*
X117965751Y-109478380D01*
X117921976Y-109474551D01*
X117921970Y-109474551D01*
X117695296Y-109494382D01*
X117695281Y-109494384D01*
X117475479Y-109553280D01*
X117475476Y-109553281D01*
X117269248Y-109649447D01*
X117269234Y-109649455D01*
X117082841Y-109779968D01*
X116921925Y-109940884D01*
X116791412Y-110127277D01*
X116791404Y-110127291D01*
X116695238Y-110333519D01*
X116695237Y-110333522D01*
X116636341Y-110553324D01*
X116636339Y-110553339D01*
X116616508Y-110780013D01*
X116616508Y-110780024D01*
X113328949Y-110780024D01*
X113227189Y-110356161D01*
X112971481Y-109121392D01*
X112754684Y-107879201D01*
X112577012Y-106630813D01*
X112438641Y-105377461D01*
X112339706Y-104120380D01*
X112280306Y-102860812D01*
X112275025Y-102524628D01*
X116250000Y-102524628D01*
X116264504Y-102597543D01*
X116264504Y-102597544D01*
X116319758Y-102680237D01*
X116319762Y-102680241D01*
X116402455Y-102735495D01*
X116475371Y-102749999D01*
X116475376Y-102750000D01*
X116999999Y-102750000D01*
X117000000Y-102749999D01*
X117800000Y-102749999D01*
X117800001Y-102750000D01*
X118324624Y-102750000D01*
X118324628Y-102749999D01*
X118397543Y-102735495D01*
X118397544Y-102735495D01*
X118480237Y-102680241D01*
X118480241Y-102680237D01*
X118535495Y-102597544D01*
X118535495Y-102597543D01*
X118549999Y-102524628D01*
X118550000Y-102524623D01*
X118550000Y-102000001D01*
X118549999Y-102000000D01*
X117800001Y-102000000D01*
X117800000Y-102000001D01*
X117800000Y-102749999D01*
X117000000Y-102749999D01*
X117000000Y-102000001D01*
X116999999Y-102000000D01*
X116250001Y-102000000D01*
X116250000Y-102000001D01*
X116250000Y-102524628D01*
X112275025Y-102524628D01*
X112260500Y-101600000D01*
X112280306Y-100339188D01*
X112339706Y-99079620D01*
X112341250Y-99060000D01*
X115994700Y-99060000D01*
X116013866Y-99291308D01*
X116013868Y-99291315D01*
X116070841Y-99516293D01*
X116070842Y-99516297D01*
X116164074Y-99728846D01*
X116291019Y-99923151D01*
X116291022Y-99923155D01*
X116444972Y-100090389D01*
X116495564Y-100173332D01*
X116510564Y-100269322D01*
X116487689Y-100363745D01*
X116430420Y-100442227D01*
X116400116Y-100466067D01*
X116319762Y-100519758D01*
X116319758Y-100519762D01*
X116264504Y-100602455D01*
X116264504Y-100602456D01*
X116250000Y-100675371D01*
X116250000Y-101199999D01*
X116250001Y-101200000D01*
X117193465Y-101200000D01*
X117143643Y-101223993D01*
X117044202Y-101316260D01*
X116976375Y-101433740D01*
X116946190Y-101565992D01*
X116956327Y-101701265D01*
X117005887Y-101827541D01*
X117090465Y-101933599D01*
X117202547Y-102010016D01*
X117332173Y-102050000D01*
X117433724Y-102050000D01*
X117534138Y-102034865D01*
X117656357Y-101976007D01*
X117755798Y-101883740D01*
X117823625Y-101766260D01*
X117853810Y-101634008D01*
X117843673Y-101498735D01*
X117794113Y-101372459D01*
X117709535Y-101266401D01*
X117612144Y-101200000D01*
X118549999Y-101200000D01*
X118550000Y-101199999D01*
X118550000Y-100675376D01*
X118549999Y-100675371D01*
X118535495Y-100602456D01*
X118535495Y-100602455D01*
X118480241Y-100519762D01*
X118480236Y-100519757D01*
X118399884Y-100466067D01*
X118331185Y-100397368D01*
X118294006Y-100307608D01*
X118294007Y-100210453D01*
X118331187Y-100120694D01*
X118355015Y-100090402D01*
X118508979Y-99923153D01*
X118635924Y-99728849D01*
X118729157Y-99516300D01*
X118786134Y-99291305D01*
X118805300Y-99060000D01*
X118786134Y-98828695D01*
X118729157Y-98603700D01*
X118635924Y-98391151D01*
X118560162Y-98275189D01*
X118508980Y-98196848D01*
X118508977Y-98196844D01*
X118351785Y-98026088D01*
X118351779Y-98026083D01*
X118168628Y-97883531D01*
X117964512Y-97773068D01*
X117964507Y-97773066D01*
X117964503Y-97773064D01*
X117744981Y-97697702D01*
X117744978Y-97697701D01*
X117744974Y-97697700D01*
X117516049Y-97659500D01*
X117283951Y-97659500D01*
X117055025Y-97697700D01*
X117055019Y-97697701D01*
X117055019Y-97697702D01*
X116835497Y-97773064D01*
X116835494Y-97773065D01*
X116835487Y-97773068D01*
X116631371Y-97883531D01*
X116448220Y-98026083D01*
X116448214Y-98026088D01*
X116291022Y-98196844D01*
X116291019Y-98196848D01*
X116164074Y-98391153D01*
X116070842Y-98603702D01*
X116070841Y-98603706D01*
X116013868Y-98828684D01*
X116013866Y-98828691D01*
X115994700Y-99060000D01*
X112341250Y-99060000D01*
X112438641Y-97822539D01*
X112577012Y-96569187D01*
X112754684Y-95320799D01*
X112971481Y-94078608D01*
X113227189Y-92843839D01*
X113521556Y-91617712D01*
X113649512Y-91149986D01*
X117886508Y-91149986D01*
X117906339Y-91376660D01*
X117906341Y-91376675D01*
X117965237Y-91596477D01*
X117965238Y-91596480D01*
X118061404Y-91802708D01*
X118061412Y-91802722D01*
X118127658Y-91897331D01*
X118191929Y-91989120D01*
X118352837Y-92150028D01*
X118352840Y-92150030D01*
X118352841Y-92150031D01*
X118539234Y-92280544D01*
X118539238Y-92280546D01*
X118539242Y-92280549D01*
X118539246Y-92280550D01*
X118539248Y-92280552D01*
X118563273Y-92291755D01*
X118745480Y-92376720D01*
X118965284Y-92435616D01*
X118984960Y-92437337D01*
X119191970Y-92455449D01*
X119191976Y-92455449D01*
X119191982Y-92455449D01*
X119371644Y-92439730D01*
X119418668Y-92435616D01*
X119638472Y-92376720D01*
X119844710Y-92280549D01*
X120031115Y-92150028D01*
X120192023Y-91989120D01*
X120322544Y-91802715D01*
X120418715Y-91596477D01*
X120477611Y-91376673D01*
X120483975Y-91303930D01*
X120497444Y-91149986D01*
X120497444Y-91149975D01*
X120477612Y-90923301D01*
X120477611Y-90923289D01*
X120418715Y-90703485D01*
X120322544Y-90497247D01*
X120322541Y-90497243D01*
X120322539Y-90497239D01*
X120192026Y-90310846D01*
X120192025Y-90310845D01*
X120192023Y-90310842D01*
X120031115Y-90149934D01*
X120031111Y-90149931D01*
X120031110Y-90149930D01*
X119844717Y-90019417D01*
X119844703Y-90019409D01*
X119638475Y-89923243D01*
X119638472Y-89923242D01*
X119418670Y-89864346D01*
X119418655Y-89864344D01*
X119191982Y-89844513D01*
X119191970Y-89844513D01*
X118965296Y-89864344D01*
X118965281Y-89864346D01*
X118745479Y-89923242D01*
X118745476Y-89923243D01*
X118539248Y-90019409D01*
X118539234Y-90019417D01*
X118352841Y-90149930D01*
X118191925Y-90310846D01*
X118061412Y-90497239D01*
X118061404Y-90497253D01*
X117965238Y-90703481D01*
X117965237Y-90703484D01*
X117906341Y-90923286D01*
X117906339Y-90923301D01*
X117886508Y-91149975D01*
X117886508Y-91149986D01*
X113649512Y-91149986D01*
X113854292Y-90401436D01*
X114225067Y-89196212D01*
X114633516Y-88003229D01*
X115079237Y-86823665D01*
X115561788Y-85658682D01*
X116080695Y-84509432D01*
X116165310Y-84336711D01*
X116276363Y-84110024D01*
X120802556Y-84110024D01*
X120822387Y-84336698D01*
X120822389Y-84336713D01*
X120881285Y-84556515D01*
X120881286Y-84556518D01*
X120977452Y-84762746D01*
X120977460Y-84762760D01*
X121107973Y-84949153D01*
X121107977Y-84949158D01*
X121268885Y-85110066D01*
X121268888Y-85110068D01*
X121268889Y-85110069D01*
X121455282Y-85240582D01*
X121455286Y-85240584D01*
X121455290Y-85240587D01*
X121455294Y-85240588D01*
X121455296Y-85240590D01*
X121573773Y-85295837D01*
X121661528Y-85336758D01*
X121881332Y-85395654D01*
X121901008Y-85397375D01*
X122108018Y-85415487D01*
X122108024Y-85415487D01*
X122108030Y-85415487D01*
X122287692Y-85399768D01*
X122334716Y-85395654D01*
X122554520Y-85336758D01*
X122760758Y-85240587D01*
X122947163Y-85110066D01*
X123108071Y-84949158D01*
X123238592Y-84762753D01*
X123334763Y-84556515D01*
X123393659Y-84336711D01*
X123410908Y-84139554D01*
X123413492Y-84110024D01*
X123413492Y-84110013D01*
X123393660Y-83883339D01*
X123393659Y-83883327D01*
X123334763Y-83663523D01*
X123238592Y-83457285D01*
X123238589Y-83457281D01*
X123238587Y-83457277D01*
X123108074Y-83270884D01*
X123108073Y-83270883D01*
X123108071Y-83270880D01*
X122947163Y-83109972D01*
X122947159Y-83109969D01*
X122947158Y-83109968D01*
X122760765Y-82979455D01*
X122760751Y-82979447D01*
X122554523Y-82883281D01*
X122554520Y-82883280D01*
X122334718Y-82824384D01*
X122334703Y-82824382D01*
X122108030Y-82804551D01*
X122108018Y-82804551D01*
X121881344Y-82824382D01*
X121881329Y-82824384D01*
X121661527Y-82883280D01*
X121661524Y-82883281D01*
X121455296Y-82979447D01*
X121455282Y-82979455D01*
X121268889Y-83109968D01*
X121107973Y-83270884D01*
X120977460Y-83457277D01*
X120977452Y-83457291D01*
X120881286Y-83663519D01*
X120881285Y-83663522D01*
X120822389Y-83883324D01*
X120822387Y-83883339D01*
X120802556Y-84110013D01*
X120802556Y-84110024D01*
X116276363Y-84110024D01*
X116635444Y-83377049D01*
X117225488Y-82262648D01*
X117850245Y-81167332D01*
X118509099Y-80092180D01*
X119201399Y-79038254D01*
X119926462Y-78006594D01*
X119970999Y-77947276D01*
X127120931Y-77947276D01*
X127491901Y-78318246D01*
X127553716Y-78359549D01*
X127651260Y-78378952D01*
X127651264Y-78378952D01*
X127748807Y-78359549D01*
X127810626Y-78318243D01*
X127810629Y-78318241D01*
X128181591Y-77947277D01*
X127651261Y-77416947D01*
X127120931Y-77947276D01*
X119970999Y-77947276D01*
X120683573Y-76998217D01*
X120801305Y-76851263D01*
X126123572Y-76851263D01*
X126142974Y-76948807D01*
X126184277Y-77010622D01*
X126555246Y-77381591D01*
X127085576Y-76851261D01*
X126555246Y-76320931D01*
X126184280Y-76691897D01*
X126184278Y-76691900D01*
X126142974Y-76753716D01*
X126123572Y-76851260D01*
X126123572Y-76851263D01*
X120801305Y-76851263D01*
X121471984Y-76014120D01*
X121693083Y-75755246D01*
X127120931Y-75755246D01*
X127658333Y-76292648D01*
X127788293Y-76422608D01*
X127719089Y-76401262D01*
X127617538Y-76401262D01*
X127517124Y-76416397D01*
X127394905Y-76475255D01*
X127295464Y-76567522D01*
X127227637Y-76685002D01*
X127197452Y-76817254D01*
X127207589Y-76952527D01*
X127257149Y-77078803D01*
X127341727Y-77184861D01*
X127453809Y-77261278D01*
X127583435Y-77301262D01*
X127684986Y-77301262D01*
X127785400Y-77286127D01*
X127907619Y-77227269D01*
X128007060Y-77135002D01*
X128074887Y-77017522D01*
X128105072Y-76885270D01*
X128094935Y-76749997D01*
X128081531Y-76715846D01*
X128747277Y-77381591D01*
X129118241Y-77010629D01*
X129118243Y-77010626D01*
X129159549Y-76948807D01*
X129178952Y-76851263D01*
X129178952Y-76851260D01*
X129159464Y-76753289D01*
X129159463Y-76656134D01*
X129196643Y-76566375D01*
X129265341Y-76497675D01*
X129355101Y-76460496D01*
X129403679Y-76455711D01*
X129563362Y-76455711D01*
X129792294Y-76417509D01*
X130011816Y-76342147D01*
X130215939Y-76231681D01*
X130399097Y-76089124D01*
X130556292Y-75918364D01*
X130683237Y-75724060D01*
X130776470Y-75511511D01*
X130833447Y-75286516D01*
X130852613Y-75055211D01*
X130833447Y-74823906D01*
X130776470Y-74598911D01*
X130683237Y-74386362D01*
X130556292Y-74192058D01*
X130556290Y-74192055D01*
X130399098Y-74021299D01*
X130399092Y-74021294D01*
X130215941Y-73878742D01*
X130011825Y-73768279D01*
X130011820Y-73768277D01*
X130011816Y-73768275D01*
X129792294Y-73692913D01*
X129792291Y-73692912D01*
X129792287Y-73692911D01*
X129563362Y-73654711D01*
X129331264Y-73654711D01*
X129102338Y-73692911D01*
X129102332Y-73692912D01*
X129102332Y-73692913D01*
X128882810Y-73768275D01*
X128882807Y-73768276D01*
X128882800Y-73768279D01*
X128678684Y-73878742D01*
X128495533Y-74021294D01*
X128495527Y-74021299D01*
X128338335Y-74192055D01*
X128338332Y-74192059D01*
X128211387Y-74386364D01*
X128118155Y-74598913D01*
X128118154Y-74598917D01*
X128061181Y-74823895D01*
X128061179Y-74823902D01*
X128042013Y-75055211D01*
X128043891Y-75077870D01*
X128032870Y-75174398D01*
X127985749Y-75259361D01*
X127909700Y-75319824D01*
X127816303Y-75346582D01*
X127747165Y-75342648D01*
X127651261Y-75323572D01*
X127651260Y-75323572D01*
X127553716Y-75342974D01*
X127491900Y-75384278D01*
X127491897Y-75384280D01*
X127120931Y-75755246D01*
X121693083Y-75755246D01*
X122290917Y-75055272D01*
X123139564Y-74122621D01*
X124017087Y-73217087D01*
X124922621Y-72339564D01*
X125855272Y-71490917D01*
X126814120Y-70671984D01*
X127605425Y-70038029D01*
X134874551Y-70038029D01*
X134894382Y-70264703D01*
X134894384Y-70264718D01*
X134953280Y-70484520D01*
X134953281Y-70484523D01*
X135049447Y-70690751D01*
X135049455Y-70690765D01*
X135169024Y-70861528D01*
X135179972Y-70877163D01*
X135340880Y-71038071D01*
X135340883Y-71038073D01*
X135340884Y-71038074D01*
X135527277Y-71168587D01*
X135527281Y-71168589D01*
X135527285Y-71168592D01*
X135733523Y-71264763D01*
X135953327Y-71323659D01*
X135973003Y-71325380D01*
X136180013Y-71343492D01*
X136180019Y-71343492D01*
X136180025Y-71343492D01*
X136359687Y-71327773D01*
X136406711Y-71323659D01*
X136465043Y-71308029D01*
X169854513Y-71308029D01*
X169874344Y-71534703D01*
X169874346Y-71534718D01*
X169933242Y-71754520D01*
X169933243Y-71754523D01*
X170029409Y-71960751D01*
X170029417Y-71960765D01*
X170159930Y-72147158D01*
X170159934Y-72147163D01*
X170320842Y-72308071D01*
X170320845Y-72308073D01*
X170320846Y-72308074D01*
X170507239Y-72438587D01*
X170507243Y-72438589D01*
X170507247Y-72438592D01*
X170713485Y-72534763D01*
X170933289Y-72593659D01*
X170952965Y-72595380D01*
X171159975Y-72613492D01*
X171159981Y-72613492D01*
X171159987Y-72613492D01*
X171339649Y-72597773D01*
X171386673Y-72593659D01*
X171606477Y-72534763D01*
X171812715Y-72438592D01*
X171999120Y-72308071D01*
X172160028Y-72147163D01*
X172290549Y-71960758D01*
X172386720Y-71754520D01*
X172445616Y-71534716D01*
X172464081Y-71323660D01*
X172465449Y-71308029D01*
X172465449Y-71308018D01*
X172445617Y-71081344D01*
X172445616Y-71081332D01*
X172386720Y-70861528D01*
X172348251Y-70779032D01*
X172290552Y-70655296D01*
X172290544Y-70655282D01*
X172160031Y-70468889D01*
X172160030Y-70468888D01*
X172160028Y-70468885D01*
X171999120Y-70307977D01*
X171999116Y-70307974D01*
X171999115Y-70307973D01*
X171812722Y-70177460D01*
X171812708Y-70177452D01*
X171606480Y-70081286D01*
X171606477Y-70081285D01*
X171386675Y-70022389D01*
X171386660Y-70022387D01*
X171159987Y-70002556D01*
X171159975Y-70002556D01*
X170933301Y-70022387D01*
X170933286Y-70022389D01*
X170713484Y-70081285D01*
X170713481Y-70081286D01*
X170507253Y-70177452D01*
X170507239Y-70177460D01*
X170320846Y-70307973D01*
X170159930Y-70468889D01*
X170029417Y-70655282D01*
X170029409Y-70655296D01*
X169933243Y-70861524D01*
X169933242Y-70861527D01*
X169874346Y-71081329D01*
X169874344Y-71081344D01*
X169854513Y-71308018D01*
X169854513Y-71308029D01*
X136465043Y-71308029D01*
X136626515Y-71264763D01*
X136832753Y-71168592D01*
X137019158Y-71038071D01*
X137180066Y-70877163D01*
X137310587Y-70690758D01*
X137406758Y-70484520D01*
X137465654Y-70264716D01*
X137473289Y-70177452D01*
X137485487Y-70038029D01*
X137485487Y-70038018D01*
X137465655Y-69811344D01*
X137465654Y-69811332D01*
X137406758Y-69591528D01*
X137310587Y-69385290D01*
X137310584Y-69385286D01*
X137310582Y-69385282D01*
X137180069Y-69198889D01*
X137180068Y-69198888D01*
X137180066Y-69198885D01*
X137019158Y-69037977D01*
X137019154Y-69037974D01*
X137019153Y-69037973D01*
X136832760Y-68907460D01*
X136832746Y-68907452D01*
X136626518Y-68811286D01*
X136626515Y-68811285D01*
X136406713Y-68752389D01*
X136406698Y-68752387D01*
X136180025Y-68732556D01*
X136180013Y-68732556D01*
X135953339Y-68752387D01*
X135953324Y-68752389D01*
X135733522Y-68811285D01*
X135733519Y-68811286D01*
X135527291Y-68907452D01*
X135527277Y-68907460D01*
X135340884Y-69037973D01*
X135179968Y-69198889D01*
X135049455Y-69385282D01*
X135049447Y-69385296D01*
X134953281Y-69591524D01*
X134953280Y-69591527D01*
X134894384Y-69811329D01*
X134894382Y-69811344D01*
X134874551Y-70038018D01*
X134874551Y-70038029D01*
X127605425Y-70038029D01*
X127798217Y-69883573D01*
X128806594Y-69126462D01*
X129838254Y-68401399D01*
X130892180Y-67709099D01*
X131850269Y-67121981D01*
X141914513Y-67121981D01*
X141934344Y-67348655D01*
X141934346Y-67348670D01*
X141993242Y-67568472D01*
X141993243Y-67568475D01*
X142089409Y-67774703D01*
X142089417Y-67774717D01*
X142208986Y-67945480D01*
X142219934Y-67961115D01*
X142380842Y-68122023D01*
X142380845Y-68122025D01*
X142380846Y-68122026D01*
X142567239Y-68252539D01*
X142567243Y-68252541D01*
X142567247Y-68252544D01*
X142773485Y-68348715D01*
X142993289Y-68407611D01*
X143012965Y-68409332D01*
X143219975Y-68427444D01*
X143219981Y-68427444D01*
X143219987Y-68427444D01*
X143399649Y-68411725D01*
X143446673Y-68407611D01*
X143505005Y-68391981D01*
X162814551Y-68391981D01*
X162834382Y-68618655D01*
X162834384Y-68618670D01*
X162893280Y-68838472D01*
X162893281Y-68838475D01*
X162989447Y-69044703D01*
X162989455Y-69044717D01*
X163097407Y-69198889D01*
X163119972Y-69231115D01*
X163280880Y-69392023D01*
X163280883Y-69392025D01*
X163280884Y-69392026D01*
X163467277Y-69522539D01*
X163467281Y-69522541D01*
X163467285Y-69522544D01*
X163673523Y-69618715D01*
X163893327Y-69677611D01*
X163913003Y-69679332D01*
X164120013Y-69697444D01*
X164120019Y-69697444D01*
X164120025Y-69697444D01*
X164299687Y-69681725D01*
X164346711Y-69677611D01*
X164566515Y-69618715D01*
X164772753Y-69522544D01*
X164959158Y-69392023D01*
X165120066Y-69231115D01*
X165250587Y-69044710D01*
X165346758Y-68838472D01*
X165405654Y-68618668D01*
X165424119Y-68407612D01*
X165425487Y-68391981D01*
X165425487Y-68391970D01*
X165405655Y-68165296D01*
X165405654Y-68165284D01*
X165346758Y-67945480D01*
X165267946Y-67776468D01*
X165250590Y-67739248D01*
X165250582Y-67739234D01*
X165120069Y-67552841D01*
X165120068Y-67552840D01*
X165120066Y-67552837D01*
X164959158Y-67391929D01*
X164959154Y-67391926D01*
X164959153Y-67391925D01*
X164772760Y-67261412D01*
X164772746Y-67261404D01*
X164566518Y-67165238D01*
X164566515Y-67165237D01*
X164346713Y-67106341D01*
X164346698Y-67106339D01*
X164120025Y-67086508D01*
X164120013Y-67086508D01*
X163893339Y-67106339D01*
X163893324Y-67106341D01*
X163673522Y-67165237D01*
X163673519Y-67165238D01*
X163467291Y-67261404D01*
X163467277Y-67261412D01*
X163280884Y-67391925D01*
X163119968Y-67552841D01*
X162989455Y-67739234D01*
X162989447Y-67739248D01*
X162893281Y-67945476D01*
X162893280Y-67945479D01*
X162834384Y-68165281D01*
X162834382Y-68165296D01*
X162814551Y-68391970D01*
X162814551Y-68391981D01*
X143505005Y-68391981D01*
X143666477Y-68348715D01*
X143872715Y-68252544D01*
X144059120Y-68122023D01*
X144220028Y-67961115D01*
X144350549Y-67774710D01*
X144446720Y-67568472D01*
X144458468Y-67524628D01*
X151250000Y-67524628D01*
X151264504Y-67597543D01*
X151264504Y-67597544D01*
X151319758Y-67680237D01*
X151319762Y-67680241D01*
X151402455Y-67735495D01*
X151475371Y-67749999D01*
X151475376Y-67750000D01*
X151999999Y-67750000D01*
X152000000Y-67749999D01*
X152000000Y-67000001D01*
X151999999Y-67000000D01*
X151250001Y-67000000D01*
X151250000Y-67000001D01*
X151250000Y-67524628D01*
X144458468Y-67524628D01*
X144505616Y-67348668D01*
X144525449Y-67121976D01*
X144525449Y-67121970D01*
X144505617Y-66895296D01*
X144505616Y-66895284D01*
X144446720Y-66675480D01*
X144395665Y-66565992D01*
X151946190Y-66565992D01*
X151956327Y-66701265D01*
X152005887Y-66827541D01*
X152090465Y-66933599D01*
X152202547Y-67010016D01*
X152332173Y-67050000D01*
X152433724Y-67050000D01*
X152534138Y-67034865D01*
X152656357Y-66976007D01*
X152755798Y-66883740D01*
X152800000Y-66807179D01*
X152800000Y-67749999D01*
X152800001Y-67750000D01*
X153324624Y-67750000D01*
X153324628Y-67749999D01*
X153397543Y-67735495D01*
X153397544Y-67735495D01*
X153480237Y-67680241D01*
X153480243Y-67680235D01*
X153535962Y-67596846D01*
X153604660Y-67528147D01*
X153694420Y-67490967D01*
X153791575Y-67490966D01*
X153881334Y-67528146D01*
X153926192Y-67566538D01*
X153988213Y-67633910D01*
X153988220Y-67633916D01*
X154169121Y-67774717D01*
X154171374Y-67776470D01*
X154203691Y-67793959D01*
X154375487Y-67886931D01*
X154375489Y-67886931D01*
X154375497Y-67886936D01*
X154595019Y-67962298D01*
X154823951Y-68000500D01*
X155056049Y-68000500D01*
X155284981Y-67962298D01*
X155504503Y-67886936D01*
X155708626Y-67776470D01*
X155891784Y-67633913D01*
X156048979Y-67463153D01*
X156175924Y-67268849D01*
X156269157Y-67056300D01*
X156326134Y-66831305D01*
X156345300Y-66600000D01*
X156326134Y-66368695D01*
X156269157Y-66143700D01*
X156175924Y-65931151D01*
X156101024Y-65816508D01*
X156048980Y-65736848D01*
X156048977Y-65736844D01*
X155891785Y-65566088D01*
X155891779Y-65566083D01*
X155708628Y-65423531D01*
X155504512Y-65313068D01*
X155504507Y-65313066D01*
X155504503Y-65313064D01*
X155284981Y-65237702D01*
X155284978Y-65237701D01*
X155284974Y-65237700D01*
X155056049Y-65199500D01*
X154823951Y-65199500D01*
X154595025Y-65237700D01*
X154595019Y-65237701D01*
X154595019Y-65237702D01*
X154375497Y-65313064D01*
X154375494Y-65313065D01*
X154375487Y-65313068D01*
X154171371Y-65423531D01*
X153988220Y-65566083D01*
X153988212Y-65566090D01*
X153926191Y-65633462D01*
X153847709Y-65690730D01*
X153753285Y-65713604D01*
X153657295Y-65698603D01*
X153574353Y-65648010D01*
X153535962Y-65603154D01*
X153480241Y-65519762D01*
X153480237Y-65519758D01*
X153397544Y-65464504D01*
X153324628Y-65450000D01*
X152800001Y-65450000D01*
X152800000Y-65450001D01*
X152800000Y-66387458D01*
X152794113Y-66372459D01*
X152709535Y-66266401D01*
X152597453Y-66189984D01*
X152467827Y-66150000D01*
X152366276Y-66150000D01*
X152265862Y-66165135D01*
X152143643Y-66223993D01*
X152044202Y-66316260D01*
X151976375Y-66433740D01*
X151946190Y-66565992D01*
X144395665Y-66565992D01*
X144350549Y-66469242D01*
X144350546Y-66469238D01*
X144350544Y-66469234D01*
X144220031Y-66282841D01*
X144220030Y-66282840D01*
X144220028Y-66282837D01*
X144137190Y-66199999D01*
X151250000Y-66199999D01*
X151250001Y-66200000D01*
X151999999Y-66200000D01*
X152000000Y-66199999D01*
X152000000Y-65450001D01*
X151999999Y-65450000D01*
X151475371Y-65450000D01*
X151402456Y-65464504D01*
X151402455Y-65464504D01*
X151319762Y-65519758D01*
X151319758Y-65519762D01*
X151264504Y-65602455D01*
X151264504Y-65602456D01*
X151250000Y-65675371D01*
X151250000Y-66199999D01*
X144137190Y-66199999D01*
X144059120Y-66121929D01*
X144059116Y-66121926D01*
X144059115Y-66121925D01*
X143872722Y-65991412D01*
X143872708Y-65991404D01*
X143666480Y-65895238D01*
X143666477Y-65895237D01*
X143446675Y-65836341D01*
X143446660Y-65836339D01*
X143219987Y-65816508D01*
X143219975Y-65816508D01*
X142993301Y-65836339D01*
X142993286Y-65836341D01*
X142773484Y-65895237D01*
X142773481Y-65895238D01*
X142567253Y-65991404D01*
X142567239Y-65991412D01*
X142380846Y-66121925D01*
X142219930Y-66282841D01*
X142089417Y-66469234D01*
X142089409Y-66469248D01*
X141993243Y-66675476D01*
X141993242Y-66675479D01*
X141934346Y-66895281D01*
X141934344Y-66895296D01*
X141914513Y-67121970D01*
X141914513Y-67121981D01*
X131850269Y-67121981D01*
X131967332Y-67050245D01*
X133062648Y-66425488D01*
X134177049Y-65835444D01*
X135309432Y-65280695D01*
X136458682Y-64761788D01*
X137623665Y-64279237D01*
X138803229Y-63833516D01*
X139996212Y-63425067D01*
X141201436Y-63054292D01*
X142417712Y-62721556D01*
X143643839Y-62427189D01*
X144878608Y-62171481D01*
X146120799Y-61954684D01*
X147369187Y-61777012D01*
X148622539Y-61638641D01*
X149879620Y-61539706D01*
X151139188Y-61480306D01*
X152400000Y-61460500D01*
X153660812Y-61480306D01*
G37*
G04 #@! TD.AperFunction*
M02*
