M48
; DRILL file {KiCad 7.0.9} date Fri Dec  1 15:39:25 2023
; FORMAT={-:-/ absolute / metric / decimal}
; #@! TF.CreationDate,2023-12-01T15:39:25+01:00
; #@! TF.GenerationSoftware,Kicad,Pcbnew,7.0.9
; #@! TF.FileFunction,Plated,1,2,PTH
FMAT,2
METRIC
; #@! TA.AperFunction,Plated,PTH,ViaDrill
T1C0.400
; #@! TA.AperFunction,Plated,PTH,ComponentDrill
T2C0.800
; #@! TA.AperFunction,Plated,PTH,ComponentDrill
T3C0.900
; #@! TA.AperFunction,Plated,PTH,ComponentDrill
T4C0.950
; #@! TA.AperFunction,Plated,PTH,ComponentDrill
T5C1.000
; #@! TA.AperFunction,Plated,PTH,ComponentDrill
T6C1.100
; #@! TA.AperFunction,Plated,PTH,ComponentDrill
T7C2.000
%
G90
G05
T1
X133.985Y-93.345
X143.504Y-83.826
X143.51Y-120.65
X144.779Y-94.614
X149.225Y-104.775
X155.472Y-100.113
X162.56Y-95.885
X163.83Y-120.015
X170.815Y-89.535
X172.085Y-93.345
X173.355Y-90.805
X173.355Y-97.79
T2
X117.922Y-91.15
X117.922Y-112.05
X120.838Y-84.11
X120.838Y-119.09
X134.62Y-114.975
X134.62Y-119.975
X134.91Y-70.038
X134.91Y-133.162
X138.43Y-125.095
X138.44Y-113.675
X138.44Y-116.215
X138.44Y-118.755
X138.44Y-121.295
X141.95Y-67.122
X141.95Y-136.078
X146.05Y-125.095
X146.06Y-113.675
X146.06Y-116.215
X146.06Y-118.755
X146.06Y-121.295
X148.59Y-76.835
X148.59Y-79.375
X148.59Y-81.915
X148.59Y-84.455
X148.59Y-86.995
X148.59Y-89.535
X148.59Y-92.075
X148.59Y-94.615
X149.86Y-112.435
X149.86Y-117.435
X149.86Y-120.055
X149.86Y-125.055
X149.945Y-73.04
X154.945Y-73.04
X155.575Y-114.975
X155.575Y-119.975
X156.21Y-76.835
X156.21Y-79.375
X156.21Y-81.915
X156.21Y-84.455
X156.21Y-86.995
X156.21Y-89.535
X156.21Y-92.075
X156.21Y-94.615
X159.385Y-125.095
X159.395Y-113.675
X159.395Y-116.215
X159.395Y-118.755
X159.395Y-121.295
X162.85Y-67.122
X162.85Y-135.89
X167.005Y-125.095
X167.015Y-113.675
X167.015Y-116.215
X167.015Y-118.755
X167.015Y-121.295
X169.89Y-70.038
X169.89Y-132.974
X170.815Y-112.435
X170.815Y-117.435
X170.815Y-120.055
X170.815Y-125.055
X183.962Y-119.09
X184.15Y-84.11
X186.878Y-112.05
X187.066Y-91.15
T3
X117.4Y-100.33
X117.4Y-102.87
X126.712Y-125.521
X126.838Y-77.574
X128.508Y-127.317
X128.634Y-75.778
X151.13Y-66.6
X151.13Y-136.6
X153.67Y-66.6
X153.67Y-136.6
X176.094Y-76.049
X176.5Y-127.398
X177.89Y-77.845
X178.297Y-125.602
X187.4Y-100.33
X187.4Y-102.87
T4
X138.43Y-83.98
X138.43Y-86.48
X138.43Y-88.98
X138.43Y-91.48
X166.37Y-83.98
X166.37Y-86.48
X166.37Y-88.98
X166.37Y-91.48
T5
X125.73Y-115.57
X128.27Y-115.57
X131.23Y-108.585
X133.73Y-108.585
X136.23Y-108.585
X142.24Y-130.175
X144.78Y-99.06
X144.78Y-101.6
X144.78Y-104.14
X144.78Y-130.175
X147.32Y-130.175
X152.4Y-99.06
X152.4Y-101.6
X152.4Y-104.14
X160.02Y-99.06
X160.02Y-101.6
X160.02Y-104.14
X168.57Y-108.6
X171.07Y-108.6
X173.57Y-108.6
T6
X152.4Y-130.175
X162.56Y-130.175
T7
X129.03Y-101.485G85X129.03Y-101.685
G05
X138.43Y-101.485G85X138.43Y-101.685
G05
X166.37Y-101.5G85X166.37Y-101.7
G05
X175.77Y-101.5G85X175.77Y-101.7
G05
T0
M30
