G04 #@! TF.GenerationSoftware,KiCad,Pcbnew,7.0.8*
G04 #@! TF.CreationDate,2023-11-13T16:00:45+01:00*
G04 #@! TF.ProjectId,christmas,63687269-7374-46d6-9173-2e6b69636164,rev?*
G04 #@! TF.SameCoordinates,Original*
G04 #@! TF.FileFunction,Legend,Bot*
G04 #@! TF.FilePolarity,Positive*
%FSLAX46Y46*%
G04 Gerber Fmt 4.6, Leading zero omitted, Abs format (unit mm)*
G04 Created by KiCad (PCBNEW 7.0.8) date 2023-11-13 16:00:45*
%MOMM*%
%LPD*%
G01*
G04 APERTURE LIST*
G04 Aperture macros list*
%AMRoundRect*
0 Rectangle with rounded corners*
0 $1 Rounding radius*
0 $2 $3 $4 $5 $6 $7 $8 $9 X,Y pos of 4 corners*
0 Add a 4 corners polygon primitive as box body*
4,1,4,$2,$3,$4,$5,$6,$7,$8,$9,$2,$3,0*
0 Add four circle primitives for the rounded corners*
1,1,$1+$1,$2,$3*
1,1,$1+$1,$4,$5*
1,1,$1+$1,$6,$7*
1,1,$1+$1,$8,$9*
0 Add four rect primitives between the rounded corners*
20,1,$1+$1,$2,$3,$4,$5,0*
20,1,$1+$1,$4,$5,$6,$7,0*
20,1,$1+$1,$6,$7,$8,$9,0*
20,1,$1+$1,$8,$9,$2,$3,0*%
%AMHorizOval*
0 Thick line with rounded ends*
0 $1 width*
0 $2 $3 position (X,Y) of the first rounded end (center of the circle)*
0 $4 $5 position (X,Y) of the second rounded end (center of the circle)*
0 Add line between two ends*
20,1,$1,$2,$3,$4,$5,0*
0 Add two circle primitives to create the rounded ends*
1,1,$1,$2,$3*
1,1,$1,$4,$5*%
%AMRotRect*
0 Rectangle, with rotation*
0 The origin of the aperture is its center*
0 $1 length*
0 $2 width*
0 $3 Rotation angle, in degrees counterclockwise*
0 Add horizontal line*
21,1,$1,$2,0,0,$3*%
G04 Aperture macros list end*
%ADD10C,0.150000*%
%ADD11C,0.120000*%
%ADD12R,3.000000X3.200000*%
%ADD13C,1.750000*%
%ADD14R,1.800000X1.800000*%
%ADD15C,1.800000*%
%ADD16R,2.400000X1.600000*%
%ADD17O,2.400000X1.600000*%
%ADD18C,1.600000*%
%ADD19O,1.600000X1.600000*%
%ADD20HorizOval,1.600000X0.000000X0.000000X0.000000X0.000000X0*%
%ADD21HorizOval,1.600000X0.000000X0.000000X0.000000X0.000000X0*%
%ADD22HorizOval,1.600000X0.000000X0.000000X0.000000X0.000000X0*%
%ADD23HorizOval,1.600000X0.000000X0.000000X0.000000X0.000000X0*%
%ADD24C,2.200000*%
%ADD25HorizOval,1.600000X0.000000X0.000000X0.000000X0.000000X0*%
%ADD26RotRect,1.700000X1.700000X45.000000*%
%ADD27HorizOval,1.700000X0.000000X0.000000X0.000000X0.000000X0*%
%ADD28HorizOval,1.600000X0.000000X0.000000X0.000000X0.000000X0*%
%ADD29R,1.700000X1.700000*%
%ADD30O,1.700000X1.700000*%
%ADD31RotRect,1.800000X1.800000X315.000000*%
%ADD32HorizOval,1.600000X0.000000X0.000000X0.000000X0.000000X0*%
%ADD33RotRect,1.800000X1.800000X135.000000*%
%ADD34R,1.600000X1.600000*%
%ADD35RotRect,1.800000X1.800000X225.000000*%
%ADD36RotRect,1.800000X1.800000X45.000000*%
%ADD37HorizOval,1.600000X0.000000X0.000000X0.000000X0.000000X0*%
%ADD38RoundRect,0.250000X-0.600000X-0.725000X0.600000X-0.725000X0.600000X0.725000X-0.600000X0.725000X0*%
%ADD39O,1.700000X1.950000*%
%ADD40RoundRect,0.250000X0.600000X0.725000X-0.600000X0.725000X-0.600000X-0.725000X0.600000X-0.725000X0*%
G04 APERTURE END LIST*
D10*
X167719333Y-86576819D02*
X167719333Y-87291104D01*
X167719333Y-87291104D02*
X167766952Y-87433961D01*
X167766952Y-87433961D02*
X167862190Y-87529200D01*
X167862190Y-87529200D02*
X168005047Y-87576819D01*
X168005047Y-87576819D02*
X168100285Y-87576819D01*
X166719333Y-87576819D02*
X167290761Y-87576819D01*
X167005047Y-87576819D02*
X167005047Y-86576819D01*
X167005047Y-86576819D02*
X167100285Y-86719676D01*
X167100285Y-86719676D02*
X167195523Y-86814914D01*
X167195523Y-86814914D02*
X167290761Y-86862533D01*
X166603333Y-112954819D02*
X166603333Y-113669104D01*
X166603333Y-113669104D02*
X166650952Y-113811961D01*
X166650952Y-113811961D02*
X166746190Y-113907200D01*
X166746190Y-113907200D02*
X166889047Y-113954819D01*
X166889047Y-113954819D02*
X166984285Y-113954819D01*
X166174761Y-113050057D02*
X166127142Y-113002438D01*
X166127142Y-113002438D02*
X166031904Y-112954819D01*
X166031904Y-112954819D02*
X165793809Y-112954819D01*
X165793809Y-112954819D02*
X165698571Y-113002438D01*
X165698571Y-113002438D02*
X165650952Y-113050057D01*
X165650952Y-113050057D02*
X165603333Y-113145295D01*
X165603333Y-113145295D02*
X165603333Y-113240533D01*
X165603333Y-113240533D02*
X165650952Y-113383390D01*
X165650952Y-113383390D02*
X166222380Y-113954819D01*
X166222380Y-113954819D02*
X165603333Y-113954819D01*
D11*
X159840000Y-75290000D02*
X159840000Y-87010000D01*
X159840000Y-87010000D02*
X161260000Y-87010000D01*
X161260000Y-82510000D02*
X166150000Y-82510000D01*
X161260000Y-87010000D02*
X161260000Y-82510000D01*
X162100000Y-86700000D02*
X162700000Y-86700000D01*
X162150000Y-75900000D02*
X162650000Y-75900000D01*
X162150000Y-81400000D02*
X162150000Y-75900000D01*
X162400000Y-86100000D02*
X162100000Y-86700000D01*
X162650000Y-75900000D02*
X162650000Y-81400000D01*
X162650000Y-81400000D02*
X162150000Y-81400000D01*
X162700000Y-86700000D02*
X162400000Y-86100000D01*
X164650000Y-75900000D02*
X165150000Y-75900000D01*
X164650000Y-81400000D02*
X164650000Y-75900000D01*
X165150000Y-75900000D02*
X165150000Y-81400000D01*
X165150000Y-81400000D02*
X164650000Y-81400000D01*
X166150000Y-75290000D02*
X159840000Y-75290000D01*
X166150000Y-75290000D02*
X172460000Y-75290000D01*
X167150000Y-75900000D02*
X167650000Y-75900000D01*
X167150000Y-81400000D02*
X167150000Y-75900000D01*
X167650000Y-75900000D02*
X167650000Y-81400000D01*
X167650000Y-81400000D02*
X167150000Y-81400000D01*
X169650000Y-75900000D02*
X170150000Y-75900000D01*
X169650000Y-81400000D02*
X169650000Y-75900000D01*
X170150000Y-75900000D02*
X170150000Y-81400000D01*
X170150000Y-81400000D02*
X169650000Y-81400000D01*
X171040000Y-82510000D02*
X166150000Y-82510000D01*
X171040000Y-87010000D02*
X171040000Y-82510000D01*
X172460000Y-75290000D02*
X172460000Y-87010000D01*
X172460000Y-87010000D02*
X171040000Y-87010000D01*
X172580000Y-126310000D02*
X172580000Y-114590000D01*
X172580000Y-114590000D02*
X171160000Y-114590000D01*
X171160000Y-114590000D02*
X171160000Y-119090000D01*
X170320000Y-116500000D02*
X169720000Y-116500000D01*
X170270000Y-125700000D02*
X169770000Y-125700000D01*
X170270000Y-120200000D02*
X170270000Y-125700000D01*
X170020000Y-117100000D02*
X170320000Y-116500000D01*
X169770000Y-125700000D02*
X169770000Y-120200000D01*
X169770000Y-120200000D02*
X170270000Y-120200000D01*
X169720000Y-116500000D02*
X170020000Y-117100000D01*
X167770000Y-125700000D02*
X167270000Y-125700000D01*
X167770000Y-120200000D02*
X167770000Y-125700000D01*
X167270000Y-125700000D02*
X167270000Y-120200000D01*
X167270000Y-120200000D02*
X167770000Y-120200000D01*
X166270000Y-126310000D02*
X172580000Y-126310000D01*
X166270000Y-126310000D02*
X159960000Y-126310000D01*
X165270000Y-125700000D02*
X164770000Y-125700000D01*
X165270000Y-120200000D02*
X165270000Y-125700000D01*
X164770000Y-125700000D02*
X164770000Y-120200000D01*
X164770000Y-120200000D02*
X165270000Y-120200000D01*
X162770000Y-125700000D02*
X162270000Y-125700000D01*
X162770000Y-120200000D02*
X162770000Y-125700000D01*
X162270000Y-125700000D02*
X162270000Y-120200000D01*
X162270000Y-120200000D02*
X162770000Y-120200000D01*
X161380000Y-114590000D02*
X161380000Y-119090000D01*
X159960000Y-126310000D02*
X159960000Y-114590000D01*
X159960000Y-114590000D02*
X161380000Y-114590000D01*
%LPC*%
D12*
X147700000Y-121600000D03*
X157100000Y-121600000D03*
D13*
X149900000Y-128600000D03*
X152400000Y-128600000D03*
X154900000Y-128600000D03*
D12*
X147700000Y-81600000D03*
X157100000Y-81600000D03*
D13*
X149900000Y-88600000D03*
X152400000Y-88600000D03*
X154900000Y-88600000D03*
D14*
X187400000Y-101600000D03*
D15*
X187400000Y-104140000D03*
D16*
X157480000Y-92710000D03*
D17*
X157480000Y-95250000D03*
X157480000Y-97790000D03*
X157480000Y-100330000D03*
X157480000Y-102870000D03*
X157480000Y-105410000D03*
X157480000Y-107950000D03*
X157480000Y-110490000D03*
X167640000Y-110490000D03*
X167640000Y-107950000D03*
X167640000Y-105410000D03*
X167640000Y-102870000D03*
X167640000Y-100330000D03*
X167640000Y-97790000D03*
X167640000Y-95250000D03*
X167640000Y-92710000D03*
D18*
X133340000Y-120640000D03*
D19*
X133340000Y-113020000D03*
D18*
X161925000Y-135890000D03*
D20*
X168964962Y-132973952D03*
D18*
X133340000Y-105440000D03*
X133340000Y-110440000D03*
X171159981Y-71308024D03*
D21*
X164120019Y-68391976D03*
D18*
X187066048Y-93399962D03*
D22*
X184150000Y-86360000D03*
D18*
X138510000Y-85090000D03*
X143510000Y-85090000D03*
D14*
X152400000Y-136600000D03*
D15*
X149860000Y-136600000D03*
D18*
X182691976Y-120359981D03*
D23*
X185608024Y-113320019D03*
D24*
X182400000Y-96520000D03*
D14*
X152400000Y-66600000D03*
D15*
X154940000Y-66600000D03*
D18*
X133350000Y-101600000D03*
D19*
X133350000Y-93980000D03*
D18*
X122108024Y-84110019D03*
D25*
X119191976Y-91149981D03*
D26*
X177908949Y-86468949D03*
D27*
X179705000Y-88265000D03*
D24*
X182400000Y-109100000D03*
D18*
X134910019Y-131891976D03*
D28*
X141949981Y-134808024D03*
D29*
X127635000Y-107950000D03*
D30*
X127635000Y-110490000D03*
X127635000Y-113030000D03*
D31*
X177148737Y-76851262D03*
D15*
X178944788Y-78647313D03*
D14*
X117400000Y-101600000D03*
D15*
X117400000Y-99060000D03*
D18*
X117921976Y-110780019D03*
D32*
X120838024Y-117819981D03*
D18*
X160060000Y-88900000D03*
X165060000Y-88900000D03*
X138470000Y-101600000D03*
X143470000Y-101600000D03*
D33*
X127651262Y-126348737D03*
D15*
X125855211Y-124552686D03*
D34*
X137160000Y-105410000D03*
D19*
X137160000Y-107950000D03*
X137160000Y-110490000D03*
X137160000Y-113030000D03*
X144780000Y-113030000D03*
X144780000Y-110490000D03*
X144780000Y-107950000D03*
X144780000Y-105410000D03*
D35*
X177148737Y-126348737D03*
D15*
X175352686Y-128144788D03*
D29*
X171980000Y-92960000D03*
D30*
X171980000Y-95500000D03*
X171980000Y-98040000D03*
D36*
X127651262Y-76851262D03*
D15*
X129447313Y-75055211D03*
D34*
X137170000Y-88910000D03*
D19*
X137170000Y-91450000D03*
X137170000Y-93990000D03*
X137170000Y-96530000D03*
X144790000Y-96530000D03*
X144790000Y-93990000D03*
X144790000Y-91450000D03*
X144790000Y-88910000D03*
D29*
X127635000Y-90805000D03*
D30*
X127635000Y-93345000D03*
X127635000Y-95885000D03*
D18*
X143219981Y-67121976D03*
D37*
X136180019Y-70038024D03*
D18*
X148590000Y-107990000D03*
X148590000Y-112990000D03*
X133350000Y-86400000D03*
X133350000Y-91400000D03*
X148590000Y-91480000D03*
X148590000Y-96480000D03*
D38*
X162400000Y-84600000D03*
D39*
X164900000Y-84600000D03*
X167400000Y-84600000D03*
X169900000Y-84600000D03*
D40*
X170020000Y-118600000D03*
D39*
X167520000Y-118600000D03*
X165020000Y-118600000D03*
X162520000Y-118600000D03*
%LPD*%
M02*
