%TF.GenerationSoftware,KiCad,Pcbnew,7.0.9*%
%TF.CreationDate,2023-12-01T15:39:26+01:00*%
%TF.ProjectId,christmas,63687269-7374-46d6-9173-2e6b69636164,rev?*%
%TF.SameCoordinates,Original*%
%TF.FileFunction,Drillmap*%
%TF.FilePolarity,Positive*%
%FSLAX45Y45*%
G04 Gerber Fmt 4.5, Leading zero omitted, Abs format (unit mm)*
G04 Created by KiCad (PCBNEW 7.0.9) date 2023-12-01 15:39:26*
%MOMM*%
%LPD*%
G01*
G04 APERTURE LIST*
%ADD10C,0.100000*%
%ADD11C,0.200000*%
%ADD12C,0.110000*%
G04 APERTURE END LIST*
D10*
X17766500Y-10414000D02*
G75*
G03*
X17716500Y-10464000I0J-50000D01*
G01*
X18301500Y-10668000D02*
G75*
G03*
X18351500Y-10618000I0J50000D01*
G01*
X18047500Y-10414000D02*
G75*
G03*
X18097500Y-10364000I0J50000D01*
G01*
X12713500Y-10668000D02*
X12178500Y-10668000D01*
X18351500Y-9702000D02*
G75*
G03*
X18301500Y-9652000I-50000J0D01*
G01*
X17766500Y-9652000D02*
X18301500Y-9652000D01*
X12128500Y-10618000D02*
X12128500Y-9702000D01*
X18047500Y-9906000D02*
X17766500Y-9906000D01*
X12432500Y-9906000D02*
G75*
G03*
X12382500Y-9956000I0J-50000D01*
G01*
X17716500Y-10618000D02*
G75*
G03*
X17766500Y-10668000I50000J0D01*
G01*
X18097500Y-9956000D02*
G75*
G03*
X18047500Y-9906000I-50000J0D01*
G01*
X12763500Y-9702000D02*
G75*
G03*
X12713500Y-9652000I-50000J0D01*
G01*
X12178500Y-9652000D02*
X12713500Y-9652000D01*
X17716500Y-9856000D02*
G75*
G03*
X17766500Y-9906000I50000J0D01*
G01*
X12763500Y-10464000D02*
X12763500Y-10618000D01*
X18351500Y-9702000D02*
X18351500Y-10618000D01*
X12382500Y-9956000D02*
X12382500Y-10364000D01*
X17716500Y-9856000D02*
X17716500Y-9702000D01*
X18097500Y-10364000D02*
X18097500Y-9956000D01*
X12763500Y-10464000D02*
G75*
G03*
X12713500Y-10414000I-50000J0D01*
G01*
X12713500Y-9906000D02*
G75*
G03*
X12763500Y-9856000I0J50000D01*
G01*
X12382500Y-10364000D02*
G75*
G03*
X12432500Y-10414000I50000J0D01*
G01*
X19304000Y-10160000D02*
G75*
G03*
X19304000Y-10160000I-4064000J0D01*
G01*
X12178500Y-9652000D02*
G75*
G03*
X12128500Y-9702000I0J-50000D01*
G01*
X17716500Y-10618000D02*
X17716500Y-10464000D01*
X12713500Y-9906000D02*
X12432500Y-9906000D01*
X12432500Y-10414000D02*
X12713500Y-10414000D01*
X12713500Y-10668000D02*
G75*
G03*
X12763500Y-10618000I0J50000D01*
G01*
X12128500Y-10618000D02*
G75*
G03*
X12178500Y-10668000I50000J0D01*
G01*
X12763500Y-9702000D02*
X12763500Y-9856000D01*
X18301500Y-10668000D02*
X17766500Y-10668000D01*
X17766500Y-10414000D02*
X18047500Y-10414000D01*
X17766500Y-9652000D02*
G75*
G03*
X17716500Y-9702000I0J-50000D01*
G01*
D11*
D10*
X13378500Y-9314500D02*
X13418500Y-9354500D01*
X13418500Y-9314500D02*
X13378500Y-9354500D01*
X14330396Y-8362604D02*
X14370396Y-8402604D01*
X14370396Y-8362604D02*
X14330396Y-8402604D01*
X14331000Y-12045000D02*
X14371000Y-12085000D01*
X14371000Y-12045000D02*
X14331000Y-12085000D01*
X14457896Y-9441396D02*
X14497896Y-9481396D01*
X14497896Y-9441396D02*
X14457896Y-9481396D01*
X14902500Y-10457500D02*
X14942500Y-10497500D01*
X14942500Y-10457500D02*
X14902500Y-10497500D01*
X15527202Y-9991261D02*
X15567202Y-10031261D01*
X15567202Y-9991261D02*
X15527202Y-10031261D01*
X16236000Y-9568500D02*
X16276000Y-9608500D01*
X16276000Y-9568500D02*
X16236000Y-9608500D01*
X16363000Y-11981500D02*
X16403000Y-12021500D01*
X16403000Y-11981500D02*
X16363000Y-12021500D01*
X17061500Y-8933500D02*
X17101500Y-8973500D01*
X17101500Y-8933500D02*
X17061500Y-8973500D01*
X17188500Y-9314500D02*
X17228500Y-9354500D01*
X17228500Y-9314500D02*
X17188500Y-9354500D01*
X17315500Y-9060500D02*
X17355500Y-9100500D01*
X17355500Y-9060500D02*
X17315500Y-9100500D01*
X17315500Y-9759000D02*
X17355500Y-9799000D01*
X17355500Y-9759000D02*
X17315500Y-9799000D01*
X11832198Y-9114998D02*
G75*
G03*
X11832198Y-9114998I-40000J0D01*
G01*
X11832198Y-11205002D02*
G75*
G03*
X11832198Y-11205002I-40000J0D01*
G01*
X12123802Y-8411002D02*
G75*
G03*
X12123802Y-8411002I-40000J0D01*
G01*
X12123802Y-11908998D02*
G75*
G03*
X12123802Y-11908998I-40000J0D01*
G01*
X13502000Y-11497500D02*
G75*
G03*
X13502000Y-11497500I-40000J0D01*
G01*
X13502000Y-11997500D02*
G75*
G03*
X13502000Y-11997500I-40000J0D01*
G01*
X13531002Y-7003802D02*
G75*
G03*
X13531002Y-7003802I-40000J0D01*
G01*
X13531002Y-13316198D02*
G75*
G03*
X13531002Y-13316198I-40000J0D01*
G01*
X13883000Y-12509500D02*
G75*
G03*
X13883000Y-12509500I-40000J0D01*
G01*
X13884000Y-11367500D02*
G75*
G03*
X13884000Y-11367500I-40000J0D01*
G01*
X13884000Y-11621500D02*
G75*
G03*
X13884000Y-11621500I-40000J0D01*
G01*
X13884000Y-11875500D02*
G75*
G03*
X13884000Y-11875500I-40000J0D01*
G01*
X13884000Y-12129500D02*
G75*
G03*
X13884000Y-12129500I-40000J0D01*
G01*
X14234998Y-6712198D02*
G75*
G03*
X14234998Y-6712198I-40000J0D01*
G01*
X14234998Y-13607802D02*
G75*
G03*
X14234998Y-13607802I-40000J0D01*
G01*
X14645000Y-12509500D02*
G75*
G03*
X14645000Y-12509500I-40000J0D01*
G01*
X14646000Y-11367500D02*
G75*
G03*
X14646000Y-11367500I-40000J0D01*
G01*
X14646000Y-11621500D02*
G75*
G03*
X14646000Y-11621500I-40000J0D01*
G01*
X14646000Y-11875500D02*
G75*
G03*
X14646000Y-11875500I-40000J0D01*
G01*
X14646000Y-12129500D02*
G75*
G03*
X14646000Y-12129500I-40000J0D01*
G01*
X14899000Y-7683500D02*
G75*
G03*
X14899000Y-7683500I-40000J0D01*
G01*
X14899000Y-7937500D02*
G75*
G03*
X14899000Y-7937500I-40000J0D01*
G01*
X14899000Y-8191500D02*
G75*
G03*
X14899000Y-8191500I-40000J0D01*
G01*
X14899000Y-8445500D02*
G75*
G03*
X14899000Y-8445500I-40000J0D01*
G01*
X14899000Y-8699500D02*
G75*
G03*
X14899000Y-8699500I-40000J0D01*
G01*
X14899000Y-8953500D02*
G75*
G03*
X14899000Y-8953500I-40000J0D01*
G01*
X14899000Y-9207500D02*
G75*
G03*
X14899000Y-9207500I-40000J0D01*
G01*
X14899000Y-9461500D02*
G75*
G03*
X14899000Y-9461500I-40000J0D01*
G01*
X15026000Y-11243500D02*
G75*
G03*
X15026000Y-11243500I-40000J0D01*
G01*
X15026000Y-11743500D02*
G75*
G03*
X15026000Y-11743500I-40000J0D01*
G01*
X15026000Y-12005500D02*
G75*
G03*
X15026000Y-12005500I-40000J0D01*
G01*
X15026000Y-12505500D02*
G75*
G03*
X15026000Y-12505500I-40000J0D01*
G01*
X15034500Y-7304000D02*
G75*
G03*
X15034500Y-7304000I-40000J0D01*
G01*
X15534500Y-7304000D02*
G75*
G03*
X15534500Y-7304000I-40000J0D01*
G01*
X15597500Y-11497500D02*
G75*
G03*
X15597500Y-11497500I-40000J0D01*
G01*
X15597500Y-11997500D02*
G75*
G03*
X15597500Y-11997500I-40000J0D01*
G01*
X15661000Y-7683500D02*
G75*
G03*
X15661000Y-7683500I-40000J0D01*
G01*
X15661000Y-7937500D02*
G75*
G03*
X15661000Y-7937500I-40000J0D01*
G01*
X15661000Y-8191500D02*
G75*
G03*
X15661000Y-8191500I-40000J0D01*
G01*
X15661000Y-8445500D02*
G75*
G03*
X15661000Y-8445500I-40000J0D01*
G01*
X15661000Y-8699500D02*
G75*
G03*
X15661000Y-8699500I-40000J0D01*
G01*
X15661000Y-8953500D02*
G75*
G03*
X15661000Y-8953500I-40000J0D01*
G01*
X15661000Y-9207500D02*
G75*
G03*
X15661000Y-9207500I-40000J0D01*
G01*
X15661000Y-9461500D02*
G75*
G03*
X15661000Y-9461500I-40000J0D01*
G01*
X15978500Y-12509500D02*
G75*
G03*
X15978500Y-12509500I-40000J0D01*
G01*
X15979500Y-11367500D02*
G75*
G03*
X15979500Y-11367500I-40000J0D01*
G01*
X15979500Y-11621500D02*
G75*
G03*
X15979500Y-11621500I-40000J0D01*
G01*
X15979500Y-11875500D02*
G75*
G03*
X15979500Y-11875500I-40000J0D01*
G01*
X15979500Y-12129500D02*
G75*
G03*
X15979500Y-12129500I-40000J0D01*
G01*
X16325002Y-6712198D02*
G75*
G03*
X16325002Y-6712198I-40000J0D01*
G01*
X16325002Y-13589000D02*
G75*
G03*
X16325002Y-13589000I-40000J0D01*
G01*
X16740500Y-12509500D02*
G75*
G03*
X16740500Y-12509500I-40000J0D01*
G01*
X16741500Y-11367500D02*
G75*
G03*
X16741500Y-11367500I-40000J0D01*
G01*
X16741500Y-11621500D02*
G75*
G03*
X16741500Y-11621500I-40000J0D01*
G01*
X16741500Y-11875500D02*
G75*
G03*
X16741500Y-11875500I-40000J0D01*
G01*
X16741500Y-12129500D02*
G75*
G03*
X16741500Y-12129500I-40000J0D01*
G01*
X17028998Y-7003802D02*
G75*
G03*
X17028998Y-7003802I-40000J0D01*
G01*
X17028998Y-13297395D02*
G75*
G03*
X17028998Y-13297395I-40000J0D01*
G01*
X17121500Y-11243500D02*
G75*
G03*
X17121500Y-11243500I-40000J0D01*
G01*
X17121500Y-11743500D02*
G75*
G03*
X17121500Y-11743500I-40000J0D01*
G01*
X17121500Y-12005500D02*
G75*
G03*
X17121500Y-12005500I-40000J0D01*
G01*
X17121500Y-12505500D02*
G75*
G03*
X17121500Y-12505500I-40000J0D01*
G01*
X18436198Y-11908998D02*
G75*
G03*
X18436198Y-11908998I-40000J0D01*
G01*
X18455000Y-8411002D02*
G75*
G03*
X18455000Y-8411002I-40000J0D01*
G01*
X18727802Y-11205002D02*
G75*
G03*
X18727802Y-11205002I-40000J0D01*
G01*
X18746605Y-9114998D02*
G75*
G03*
X18746605Y-9114998I-40000J0D01*
G01*
X11740000Y-9988000D02*
X11740000Y-10078000D01*
X11695000Y-10033000D02*
X11785000Y-10033000D01*
X11740000Y-10242000D02*
X11740000Y-10332000D01*
X11695000Y-10287000D02*
X11785000Y-10287000D01*
X12671241Y-12507082D02*
X12671241Y-12597082D01*
X12626241Y-12552082D02*
X12716241Y-12552082D01*
X12683832Y-7712394D02*
X12683832Y-7802394D01*
X12638832Y-7757394D02*
X12728832Y-7757394D01*
X12850846Y-12686687D02*
X12850846Y-12776687D01*
X12805846Y-12731687D02*
X12895846Y-12731687D01*
X12863437Y-7532789D02*
X12863437Y-7622789D01*
X12818437Y-7577789D02*
X12908437Y-7577789D01*
X15113000Y-6615000D02*
X15113000Y-6705000D01*
X15068000Y-6660000D02*
X15158000Y-6660000D01*
X15113000Y-13615000D02*
X15113000Y-13705000D01*
X15068000Y-13660000D02*
X15158000Y-13660000D01*
X15367000Y-6615000D02*
X15367000Y-6705000D01*
X15322000Y-6660000D02*
X15412000Y-6660000D01*
X15367000Y-13615000D02*
X15367000Y-13705000D01*
X15322000Y-13660000D02*
X15412000Y-13660000D01*
X17609423Y-7559872D02*
X17609423Y-7649872D01*
X17564423Y-7604872D02*
X17654423Y-7604872D01*
X17650048Y-12694765D02*
X17650048Y-12784765D01*
X17605048Y-12739765D02*
X17695048Y-12739765D01*
X17789028Y-7739478D02*
X17789028Y-7829478D01*
X17744028Y-7784478D02*
X17834028Y-7784478D01*
X17829653Y-12515160D02*
X17829653Y-12605160D01*
X17784653Y-12560160D02*
X17874653Y-12560160D01*
X18740000Y-9988000D02*
X18740000Y-10078000D01*
X18695000Y-10033000D02*
X18785000Y-10033000D01*
X18740000Y-10242000D02*
X18740000Y-10332000D01*
X18695000Y-10287000D02*
X18785000Y-10287000D01*
X13876588Y-8431588D02*
X13876588Y-8364412D01*
X13809412Y-8364412D01*
X13809412Y-8431588D01*
X13876588Y-8431588D01*
X13876588Y-8681588D02*
X13876588Y-8614412D01*
X13809412Y-8614412D01*
X13809412Y-8681588D01*
X13876588Y-8681588D01*
X13876588Y-8931588D02*
X13876588Y-8864412D01*
X13809412Y-8864412D01*
X13809412Y-8931588D01*
X13876588Y-8931588D01*
X13876588Y-9181588D02*
X13876588Y-9114412D01*
X13809412Y-9114412D01*
X13809412Y-9181588D01*
X13876588Y-9181588D01*
X16670588Y-8431588D02*
X16670588Y-8364412D01*
X16603412Y-8364412D01*
X16603412Y-8431588D01*
X16670588Y-8431588D01*
X16670588Y-8681588D02*
X16670588Y-8614412D01*
X16603412Y-8614412D01*
X16603412Y-8681588D01*
X16670588Y-8681588D01*
X16670588Y-8931588D02*
X16670588Y-8864412D01*
X16603412Y-8864412D01*
X16603412Y-8931588D01*
X16670588Y-8931588D01*
X16670588Y-9181588D02*
X16670588Y-9114412D01*
X16603412Y-9114412D01*
X16603412Y-9181588D01*
X16670588Y-9181588D01*
X12573000Y-11607000D02*
X12623000Y-11557000D01*
X12573000Y-11507000D01*
X12523000Y-11557000D01*
X12573000Y-11607000D01*
X12827000Y-11607000D02*
X12877000Y-11557000D01*
X12827000Y-11507000D01*
X12777000Y-11557000D01*
X12827000Y-11607000D01*
X13123000Y-10908500D02*
X13173000Y-10858500D01*
X13123000Y-10808500D01*
X13073000Y-10858500D01*
X13123000Y-10908500D01*
X13373000Y-10908500D02*
X13423000Y-10858500D01*
X13373000Y-10808500D01*
X13323000Y-10858500D01*
X13373000Y-10908500D01*
X13623000Y-10908500D02*
X13673000Y-10858500D01*
X13623000Y-10808500D01*
X13573000Y-10858500D01*
X13623000Y-10908500D01*
X14224000Y-13067500D02*
X14274000Y-13017500D01*
X14224000Y-12967500D01*
X14174000Y-13017500D01*
X14224000Y-13067500D01*
X14478000Y-9956000D02*
X14528000Y-9906000D01*
X14478000Y-9856000D01*
X14428000Y-9906000D01*
X14478000Y-9956000D01*
X14478000Y-10210000D02*
X14528000Y-10160000D01*
X14478000Y-10110000D01*
X14428000Y-10160000D01*
X14478000Y-10210000D01*
X14478000Y-10464000D02*
X14528000Y-10414000D01*
X14478000Y-10364000D01*
X14428000Y-10414000D01*
X14478000Y-10464000D01*
X14478000Y-13067500D02*
X14528000Y-13017500D01*
X14478000Y-12967500D01*
X14428000Y-13017500D01*
X14478000Y-13067500D01*
X14732000Y-13067500D02*
X14782000Y-13017500D01*
X14732000Y-12967500D01*
X14682000Y-13017500D01*
X14732000Y-13067500D01*
X15240000Y-9956000D02*
X15290000Y-9906000D01*
X15240000Y-9856000D01*
X15190000Y-9906000D01*
X15240000Y-9956000D01*
X15240000Y-10210000D02*
X15290000Y-10160000D01*
X15240000Y-10110000D01*
X15190000Y-10160000D01*
X15240000Y-10210000D01*
X15240000Y-10464000D02*
X15290000Y-10414000D01*
X15240000Y-10364000D01*
X15190000Y-10414000D01*
X15240000Y-10464000D01*
X16002000Y-9956000D02*
X16052000Y-9906000D01*
X16002000Y-9856000D01*
X15952000Y-9906000D01*
X16002000Y-9956000D01*
X16002000Y-10210000D02*
X16052000Y-10160000D01*
X16002000Y-10110000D01*
X15952000Y-10160000D01*
X16002000Y-10210000D01*
X16002000Y-10464000D02*
X16052000Y-10414000D01*
X16002000Y-10364000D01*
X15952000Y-10414000D01*
X16002000Y-10464000D01*
X16857000Y-10910000D02*
X16907000Y-10860000D01*
X16857000Y-10810000D01*
X16807000Y-10860000D01*
X16857000Y-10910000D01*
X17107000Y-10910000D02*
X17157000Y-10860000D01*
X17107000Y-10810000D01*
X17057000Y-10860000D01*
X17107000Y-10910000D01*
X17357000Y-10910000D02*
X17407000Y-10860000D01*
X17357000Y-10810000D01*
X17307000Y-10860000D01*
X17357000Y-10910000D01*
D12*
X15185000Y-12962500D02*
X15295000Y-13072500D01*
X15295000Y-12962500D02*
X15185000Y-13072500D01*
X15295000Y-13017500D02*
G75*
G03*
X15295000Y-13017500I-55000J0D01*
G01*
X16201000Y-12962500D02*
X16311000Y-13072500D01*
X16311000Y-12962500D02*
X16201000Y-13072500D01*
X16311000Y-13017500D02*
G75*
G03*
X16311000Y-13017500I-55000J0D01*
G01*
D11*
X12803000Y-10058500D02*
X13003000Y-10258500D01*
X13003000Y-10058500D02*
X12803000Y-10258500D01*
X12903000Y-10058500D02*
X12903000Y-10258500D01*
X12803000Y-10158500D02*
X13003000Y-10158500D01*
D10*
X12803000Y-10148500D02*
X12803000Y-10168500D01*
X12803000Y-10168500D02*
G75*
G03*
X13003000Y-10168500I100000J0D01*
G01*
X13003000Y-10168500D02*
X13003000Y-10148500D01*
X13003000Y-10148500D02*
G75*
G03*
X12803000Y-10148500I-100000J0D01*
G01*
D11*
X13743000Y-10058500D02*
X13943000Y-10258500D01*
X13943000Y-10058500D02*
X13743000Y-10258500D01*
X13843000Y-10058500D02*
X13843000Y-10258500D01*
X13743000Y-10158500D02*
X13943000Y-10158500D01*
D10*
X13743000Y-10148500D02*
X13743000Y-10168500D01*
X13743000Y-10168500D02*
G75*
G03*
X13943000Y-10168500I100000J0D01*
G01*
X13943000Y-10168500D02*
X13943000Y-10148500D01*
X13943000Y-10148500D02*
G75*
G03*
X13743000Y-10148500I-100000J0D01*
G01*
D11*
X16537000Y-10060000D02*
X16737000Y-10260000D01*
X16737000Y-10060000D02*
X16537000Y-10260000D01*
X16637000Y-10060000D02*
X16637000Y-10260000D01*
X16537000Y-10160000D02*
X16737000Y-10160000D01*
D10*
X16537000Y-10150000D02*
X16537000Y-10170000D01*
X16537000Y-10170000D02*
G75*
G03*
X16737000Y-10170000I100000J0D01*
G01*
X16737000Y-10170000D02*
X16737000Y-10150000D01*
X16737000Y-10150000D02*
G75*
G03*
X16537000Y-10150000I-100000J0D01*
G01*
D11*
X17477000Y-10060000D02*
X17677000Y-10260000D01*
X17677000Y-10060000D02*
X17477000Y-10260000D01*
X17577000Y-10060000D02*
X17577000Y-10260000D01*
X17477000Y-10160000D02*
X17677000Y-10160000D01*
D10*
X17477000Y-10150000D02*
X17477000Y-10170000D01*
X17477000Y-10170000D02*
G75*
G03*
X17677000Y-10170000I100000J0D01*
G01*
X17677000Y-10170000D02*
X17677000Y-10150000D01*
X17677000Y-10150000D02*
G75*
G03*
X17477000Y-10150000I-100000J0D01*
G01*
D11*
X11431777Y-14540484D02*
X11431777Y-14340484D01*
X11431777Y-14340484D02*
X11479396Y-14340484D01*
X11479396Y-14340484D02*
X11507967Y-14350008D01*
X11507967Y-14350008D02*
X11527015Y-14369055D01*
X11527015Y-14369055D02*
X11536539Y-14388103D01*
X11536539Y-14388103D02*
X11546062Y-14426198D01*
X11546062Y-14426198D02*
X11546062Y-14454769D01*
X11546062Y-14454769D02*
X11536539Y-14492865D01*
X11536539Y-14492865D02*
X11527015Y-14511912D01*
X11527015Y-14511912D02*
X11507967Y-14530960D01*
X11507967Y-14530960D02*
X11479396Y-14540484D01*
X11479396Y-14540484D02*
X11431777Y-14540484D01*
X11631777Y-14540484D02*
X11631777Y-14407150D01*
X11631777Y-14445246D02*
X11641301Y-14426198D01*
X11641301Y-14426198D02*
X11650824Y-14416674D01*
X11650824Y-14416674D02*
X11669872Y-14407150D01*
X11669872Y-14407150D02*
X11688920Y-14407150D01*
X11755586Y-14540484D02*
X11755586Y-14407150D01*
X11755586Y-14340484D02*
X11746062Y-14350008D01*
X11746062Y-14350008D02*
X11755586Y-14359531D01*
X11755586Y-14359531D02*
X11765110Y-14350008D01*
X11765110Y-14350008D02*
X11755586Y-14340484D01*
X11755586Y-14340484D02*
X11755586Y-14359531D01*
X11879396Y-14540484D02*
X11860348Y-14530960D01*
X11860348Y-14530960D02*
X11850824Y-14511912D01*
X11850824Y-14511912D02*
X11850824Y-14340484D01*
X11984158Y-14540484D02*
X11965110Y-14530960D01*
X11965110Y-14530960D02*
X11955586Y-14511912D01*
X11955586Y-14511912D02*
X11955586Y-14340484D01*
X12212729Y-14540484D02*
X12212729Y-14340484D01*
X12212729Y-14340484D02*
X12279396Y-14483341D01*
X12279396Y-14483341D02*
X12346062Y-14340484D01*
X12346062Y-14340484D02*
X12346062Y-14540484D01*
X12527015Y-14540484D02*
X12527015Y-14435722D01*
X12527015Y-14435722D02*
X12517491Y-14416674D01*
X12517491Y-14416674D02*
X12498443Y-14407150D01*
X12498443Y-14407150D02*
X12460348Y-14407150D01*
X12460348Y-14407150D02*
X12441301Y-14416674D01*
X12527015Y-14530960D02*
X12507967Y-14540484D01*
X12507967Y-14540484D02*
X12460348Y-14540484D01*
X12460348Y-14540484D02*
X12441301Y-14530960D01*
X12441301Y-14530960D02*
X12431777Y-14511912D01*
X12431777Y-14511912D02*
X12431777Y-14492865D01*
X12431777Y-14492865D02*
X12441301Y-14473817D01*
X12441301Y-14473817D02*
X12460348Y-14464293D01*
X12460348Y-14464293D02*
X12507967Y-14464293D01*
X12507967Y-14464293D02*
X12527015Y-14454769D01*
X12622253Y-14407150D02*
X12622253Y-14607150D01*
X12622253Y-14416674D02*
X12641301Y-14407150D01*
X12641301Y-14407150D02*
X12679396Y-14407150D01*
X12679396Y-14407150D02*
X12698443Y-14416674D01*
X12698443Y-14416674D02*
X12707967Y-14426198D01*
X12707967Y-14426198D02*
X12717491Y-14445246D01*
X12717491Y-14445246D02*
X12717491Y-14502388D01*
X12717491Y-14502388D02*
X12707967Y-14521436D01*
X12707967Y-14521436D02*
X12698443Y-14530960D01*
X12698443Y-14530960D02*
X12679396Y-14540484D01*
X12679396Y-14540484D02*
X12641301Y-14540484D01*
X12641301Y-14540484D02*
X12622253Y-14530960D01*
X12803205Y-14521436D02*
X12812729Y-14530960D01*
X12812729Y-14530960D02*
X12803205Y-14540484D01*
X12803205Y-14540484D02*
X12793682Y-14530960D01*
X12793682Y-14530960D02*
X12803205Y-14521436D01*
X12803205Y-14521436D02*
X12803205Y-14540484D01*
X12803205Y-14416674D02*
X12812729Y-14426198D01*
X12812729Y-14426198D02*
X12803205Y-14435722D01*
X12803205Y-14435722D02*
X12793682Y-14426198D01*
X12793682Y-14426198D02*
X12803205Y-14416674D01*
X12803205Y-14416674D02*
X12803205Y-14435722D01*
D10*
X11131000Y-14849000D02*
X11171000Y-14889000D01*
X11171000Y-14849000D02*
X11131000Y-14889000D01*
D11*
X11469872Y-14760484D02*
X11488920Y-14760484D01*
X11488920Y-14760484D02*
X11507967Y-14770008D01*
X11507967Y-14770008D02*
X11517491Y-14779531D01*
X11517491Y-14779531D02*
X11527015Y-14798579D01*
X11527015Y-14798579D02*
X11536539Y-14836674D01*
X11536539Y-14836674D02*
X11536539Y-14884293D01*
X11536539Y-14884293D02*
X11527015Y-14922388D01*
X11527015Y-14922388D02*
X11517491Y-14941436D01*
X11517491Y-14941436D02*
X11507967Y-14950960D01*
X11507967Y-14950960D02*
X11488920Y-14960484D01*
X11488920Y-14960484D02*
X11469872Y-14960484D01*
X11469872Y-14960484D02*
X11450824Y-14950960D01*
X11450824Y-14950960D02*
X11441301Y-14941436D01*
X11441301Y-14941436D02*
X11431777Y-14922388D01*
X11431777Y-14922388D02*
X11422253Y-14884293D01*
X11422253Y-14884293D02*
X11422253Y-14836674D01*
X11422253Y-14836674D02*
X11431777Y-14798579D01*
X11431777Y-14798579D02*
X11441301Y-14779531D01*
X11441301Y-14779531D02*
X11450824Y-14770008D01*
X11450824Y-14770008D02*
X11469872Y-14760484D01*
X11622253Y-14941436D02*
X11631777Y-14950960D01*
X11631777Y-14950960D02*
X11622253Y-14960484D01*
X11622253Y-14960484D02*
X11612729Y-14950960D01*
X11612729Y-14950960D02*
X11622253Y-14941436D01*
X11622253Y-14941436D02*
X11622253Y-14960484D01*
X11803205Y-14827150D02*
X11803205Y-14960484D01*
X11755586Y-14750960D02*
X11707967Y-14893817D01*
X11707967Y-14893817D02*
X11831777Y-14893817D01*
X11946062Y-14760484D02*
X11965110Y-14760484D01*
X11965110Y-14760484D02*
X11984158Y-14770008D01*
X11984158Y-14770008D02*
X11993682Y-14779531D01*
X11993682Y-14779531D02*
X12003205Y-14798579D01*
X12003205Y-14798579D02*
X12012729Y-14836674D01*
X12012729Y-14836674D02*
X12012729Y-14884293D01*
X12012729Y-14884293D02*
X12003205Y-14922388D01*
X12003205Y-14922388D02*
X11993682Y-14941436D01*
X11993682Y-14941436D02*
X11984158Y-14950960D01*
X11984158Y-14950960D02*
X11965110Y-14960484D01*
X11965110Y-14960484D02*
X11946062Y-14960484D01*
X11946062Y-14960484D02*
X11927015Y-14950960D01*
X11927015Y-14950960D02*
X11917491Y-14941436D01*
X11917491Y-14941436D02*
X11907967Y-14922388D01*
X11907967Y-14922388D02*
X11898443Y-14884293D01*
X11898443Y-14884293D02*
X11898443Y-14836674D01*
X11898443Y-14836674D02*
X11907967Y-14798579D01*
X11907967Y-14798579D02*
X11917491Y-14779531D01*
X11917491Y-14779531D02*
X11927015Y-14770008D01*
X11927015Y-14770008D02*
X11946062Y-14760484D01*
X12136539Y-14760484D02*
X12155586Y-14760484D01*
X12155586Y-14760484D02*
X12174634Y-14770008D01*
X12174634Y-14770008D02*
X12184158Y-14779531D01*
X12184158Y-14779531D02*
X12193682Y-14798579D01*
X12193682Y-14798579D02*
X12203205Y-14836674D01*
X12203205Y-14836674D02*
X12203205Y-14884293D01*
X12203205Y-14884293D02*
X12193682Y-14922388D01*
X12193682Y-14922388D02*
X12184158Y-14941436D01*
X12184158Y-14941436D02*
X12174634Y-14950960D01*
X12174634Y-14950960D02*
X12155586Y-14960484D01*
X12155586Y-14960484D02*
X12136539Y-14960484D01*
X12136539Y-14960484D02*
X12117491Y-14950960D01*
X12117491Y-14950960D02*
X12107967Y-14941436D01*
X12107967Y-14941436D02*
X12098443Y-14922388D01*
X12098443Y-14922388D02*
X12088920Y-14884293D01*
X12088920Y-14884293D02*
X12088920Y-14836674D01*
X12088920Y-14836674D02*
X12098443Y-14798579D01*
X12098443Y-14798579D02*
X12107967Y-14779531D01*
X12107967Y-14779531D02*
X12117491Y-14770008D01*
X12117491Y-14770008D02*
X12136539Y-14760484D01*
X12288920Y-14960484D02*
X12288920Y-14827150D01*
X12288920Y-14846198D02*
X12298443Y-14836674D01*
X12298443Y-14836674D02*
X12317491Y-14827150D01*
X12317491Y-14827150D02*
X12346063Y-14827150D01*
X12346063Y-14827150D02*
X12365110Y-14836674D01*
X12365110Y-14836674D02*
X12374634Y-14855722D01*
X12374634Y-14855722D02*
X12374634Y-14960484D01*
X12374634Y-14855722D02*
X12384158Y-14836674D01*
X12384158Y-14836674D02*
X12403205Y-14827150D01*
X12403205Y-14827150D02*
X12431777Y-14827150D01*
X12431777Y-14827150D02*
X12450824Y-14836674D01*
X12450824Y-14836674D02*
X12460348Y-14855722D01*
X12460348Y-14855722D02*
X12460348Y-14960484D01*
X12555586Y-14960484D02*
X12555586Y-14827150D01*
X12555586Y-14846198D02*
X12565110Y-14836674D01*
X12565110Y-14836674D02*
X12584158Y-14827150D01*
X12584158Y-14827150D02*
X12612729Y-14827150D01*
X12612729Y-14827150D02*
X12631777Y-14836674D01*
X12631777Y-14836674D02*
X12641301Y-14855722D01*
X12641301Y-14855722D02*
X12641301Y-14960484D01*
X12641301Y-14855722D02*
X12650824Y-14836674D01*
X12650824Y-14836674D02*
X12669872Y-14827150D01*
X12669872Y-14827150D02*
X12698443Y-14827150D01*
X12698443Y-14827150D02*
X12717491Y-14836674D01*
X12717491Y-14836674D02*
X12727015Y-14855722D01*
X12727015Y-14855722D02*
X12727015Y-14960484D01*
X13117491Y-14750960D02*
X12946063Y-15008103D01*
X13374634Y-14760484D02*
X13393682Y-14760484D01*
X13393682Y-14760484D02*
X13412729Y-14770008D01*
X13412729Y-14770008D02*
X13422253Y-14779531D01*
X13422253Y-14779531D02*
X13431777Y-14798579D01*
X13431777Y-14798579D02*
X13441301Y-14836674D01*
X13441301Y-14836674D02*
X13441301Y-14884293D01*
X13441301Y-14884293D02*
X13431777Y-14922388D01*
X13431777Y-14922388D02*
X13422253Y-14941436D01*
X13422253Y-14941436D02*
X13412729Y-14950960D01*
X13412729Y-14950960D02*
X13393682Y-14960484D01*
X13393682Y-14960484D02*
X13374634Y-14960484D01*
X13374634Y-14960484D02*
X13355586Y-14950960D01*
X13355586Y-14950960D02*
X13346063Y-14941436D01*
X13346063Y-14941436D02*
X13336539Y-14922388D01*
X13336539Y-14922388D02*
X13327015Y-14884293D01*
X13327015Y-14884293D02*
X13327015Y-14836674D01*
X13327015Y-14836674D02*
X13336539Y-14798579D01*
X13336539Y-14798579D02*
X13346063Y-14779531D01*
X13346063Y-14779531D02*
X13355586Y-14770008D01*
X13355586Y-14770008D02*
X13374634Y-14760484D01*
X13527015Y-14941436D02*
X13536539Y-14950960D01*
X13536539Y-14950960D02*
X13527015Y-14960484D01*
X13527015Y-14960484D02*
X13517491Y-14950960D01*
X13517491Y-14950960D02*
X13527015Y-14941436D01*
X13527015Y-14941436D02*
X13527015Y-14960484D01*
X13660348Y-14760484D02*
X13679396Y-14760484D01*
X13679396Y-14760484D02*
X13698444Y-14770008D01*
X13698444Y-14770008D02*
X13707967Y-14779531D01*
X13707967Y-14779531D02*
X13717491Y-14798579D01*
X13717491Y-14798579D02*
X13727015Y-14836674D01*
X13727015Y-14836674D02*
X13727015Y-14884293D01*
X13727015Y-14884293D02*
X13717491Y-14922388D01*
X13717491Y-14922388D02*
X13707967Y-14941436D01*
X13707967Y-14941436D02*
X13698444Y-14950960D01*
X13698444Y-14950960D02*
X13679396Y-14960484D01*
X13679396Y-14960484D02*
X13660348Y-14960484D01*
X13660348Y-14960484D02*
X13641301Y-14950960D01*
X13641301Y-14950960D02*
X13631777Y-14941436D01*
X13631777Y-14941436D02*
X13622253Y-14922388D01*
X13622253Y-14922388D02*
X13612729Y-14884293D01*
X13612729Y-14884293D02*
X13612729Y-14836674D01*
X13612729Y-14836674D02*
X13622253Y-14798579D01*
X13622253Y-14798579D02*
X13631777Y-14779531D01*
X13631777Y-14779531D02*
X13641301Y-14770008D01*
X13641301Y-14770008D02*
X13660348Y-14760484D01*
X13917491Y-14960484D02*
X13803206Y-14960484D01*
X13860348Y-14960484D02*
X13860348Y-14760484D01*
X13860348Y-14760484D02*
X13841301Y-14789055D01*
X13841301Y-14789055D02*
X13822253Y-14808103D01*
X13822253Y-14808103D02*
X13803206Y-14817627D01*
X14098444Y-14760484D02*
X14003206Y-14760484D01*
X14003206Y-14760484D02*
X13993682Y-14855722D01*
X13993682Y-14855722D02*
X14003206Y-14846198D01*
X14003206Y-14846198D02*
X14022253Y-14836674D01*
X14022253Y-14836674D02*
X14069872Y-14836674D01*
X14069872Y-14836674D02*
X14088920Y-14846198D01*
X14088920Y-14846198D02*
X14098444Y-14855722D01*
X14098444Y-14855722D02*
X14107967Y-14874769D01*
X14107967Y-14874769D02*
X14107967Y-14922388D01*
X14107967Y-14922388D02*
X14098444Y-14941436D01*
X14098444Y-14941436D02*
X14088920Y-14950960D01*
X14088920Y-14950960D02*
X14069872Y-14960484D01*
X14069872Y-14960484D02*
X14022253Y-14960484D01*
X14022253Y-14960484D02*
X14003206Y-14950960D01*
X14003206Y-14950960D02*
X13993682Y-14941436D01*
X14174634Y-14760484D02*
X14307967Y-14760484D01*
X14307967Y-14760484D02*
X14222253Y-14960484D01*
X14374634Y-14760484D02*
X14374634Y-14798579D01*
X14450825Y-14760484D02*
X14450825Y-14798579D01*
X14746063Y-15036674D02*
X14736539Y-15027150D01*
X14736539Y-15027150D02*
X14717491Y-14998579D01*
X14717491Y-14998579D02*
X14707968Y-14979531D01*
X14707968Y-14979531D02*
X14698444Y-14950960D01*
X14698444Y-14950960D02*
X14688920Y-14903341D01*
X14688920Y-14903341D02*
X14688920Y-14865246D01*
X14688920Y-14865246D02*
X14698444Y-14817627D01*
X14698444Y-14817627D02*
X14707968Y-14789055D01*
X14707968Y-14789055D02*
X14717491Y-14770008D01*
X14717491Y-14770008D02*
X14736539Y-14741436D01*
X14736539Y-14741436D02*
X14746063Y-14731912D01*
X14927015Y-14960484D02*
X14812729Y-14960484D01*
X14869872Y-14960484D02*
X14869872Y-14760484D01*
X14869872Y-14760484D02*
X14850825Y-14789055D01*
X14850825Y-14789055D02*
X14831777Y-14808103D01*
X14831777Y-14808103D02*
X14812729Y-14817627D01*
X15003206Y-14779531D02*
X15012729Y-14770008D01*
X15012729Y-14770008D02*
X15031777Y-14760484D01*
X15031777Y-14760484D02*
X15079396Y-14760484D01*
X15079396Y-14760484D02*
X15098444Y-14770008D01*
X15098444Y-14770008D02*
X15107968Y-14779531D01*
X15107968Y-14779531D02*
X15117491Y-14798579D01*
X15117491Y-14798579D02*
X15117491Y-14817627D01*
X15117491Y-14817627D02*
X15107968Y-14846198D01*
X15107968Y-14846198D02*
X14993682Y-14960484D01*
X14993682Y-14960484D02*
X15117491Y-14960484D01*
X15355587Y-14960484D02*
X15355587Y-14760484D01*
X15441301Y-14960484D02*
X15441301Y-14855722D01*
X15441301Y-14855722D02*
X15431777Y-14836674D01*
X15431777Y-14836674D02*
X15412730Y-14827150D01*
X15412730Y-14827150D02*
X15384158Y-14827150D01*
X15384158Y-14827150D02*
X15365110Y-14836674D01*
X15365110Y-14836674D02*
X15355587Y-14846198D01*
X15565110Y-14960484D02*
X15546063Y-14950960D01*
X15546063Y-14950960D02*
X15536539Y-14941436D01*
X15536539Y-14941436D02*
X15527015Y-14922388D01*
X15527015Y-14922388D02*
X15527015Y-14865246D01*
X15527015Y-14865246D02*
X15536539Y-14846198D01*
X15536539Y-14846198D02*
X15546063Y-14836674D01*
X15546063Y-14836674D02*
X15565110Y-14827150D01*
X15565110Y-14827150D02*
X15593682Y-14827150D01*
X15593682Y-14827150D02*
X15612730Y-14836674D01*
X15612730Y-14836674D02*
X15622253Y-14846198D01*
X15622253Y-14846198D02*
X15631777Y-14865246D01*
X15631777Y-14865246D02*
X15631777Y-14922388D01*
X15631777Y-14922388D02*
X15622253Y-14941436D01*
X15622253Y-14941436D02*
X15612730Y-14950960D01*
X15612730Y-14950960D02*
X15593682Y-14960484D01*
X15593682Y-14960484D02*
X15565110Y-14960484D01*
X15746063Y-14960484D02*
X15727015Y-14950960D01*
X15727015Y-14950960D02*
X15717491Y-14931912D01*
X15717491Y-14931912D02*
X15717491Y-14760484D01*
X15898444Y-14950960D02*
X15879396Y-14960484D01*
X15879396Y-14960484D02*
X15841301Y-14960484D01*
X15841301Y-14960484D02*
X15822253Y-14950960D01*
X15822253Y-14950960D02*
X15812730Y-14931912D01*
X15812730Y-14931912D02*
X15812730Y-14855722D01*
X15812730Y-14855722D02*
X15822253Y-14836674D01*
X15822253Y-14836674D02*
X15841301Y-14827150D01*
X15841301Y-14827150D02*
X15879396Y-14827150D01*
X15879396Y-14827150D02*
X15898444Y-14836674D01*
X15898444Y-14836674D02*
X15907968Y-14855722D01*
X15907968Y-14855722D02*
X15907968Y-14874769D01*
X15907968Y-14874769D02*
X15812730Y-14893817D01*
X15984158Y-14950960D02*
X16003206Y-14960484D01*
X16003206Y-14960484D02*
X16041301Y-14960484D01*
X16041301Y-14960484D02*
X16060349Y-14950960D01*
X16060349Y-14950960D02*
X16069872Y-14931912D01*
X16069872Y-14931912D02*
X16069872Y-14922388D01*
X16069872Y-14922388D02*
X16060349Y-14903341D01*
X16060349Y-14903341D02*
X16041301Y-14893817D01*
X16041301Y-14893817D02*
X16012730Y-14893817D01*
X16012730Y-14893817D02*
X15993682Y-14884293D01*
X15993682Y-14884293D02*
X15984158Y-14865246D01*
X15984158Y-14865246D02*
X15984158Y-14855722D01*
X15984158Y-14855722D02*
X15993682Y-14836674D01*
X15993682Y-14836674D02*
X16012730Y-14827150D01*
X16012730Y-14827150D02*
X16041301Y-14827150D01*
X16041301Y-14827150D02*
X16060349Y-14836674D01*
X16136539Y-15036674D02*
X16146063Y-15027150D01*
X16146063Y-15027150D02*
X16165111Y-14998579D01*
X16165111Y-14998579D02*
X16174634Y-14979531D01*
X16174634Y-14979531D02*
X16184158Y-14950960D01*
X16184158Y-14950960D02*
X16193682Y-14903341D01*
X16193682Y-14903341D02*
X16193682Y-14865246D01*
X16193682Y-14865246D02*
X16184158Y-14817627D01*
X16184158Y-14817627D02*
X16174634Y-14789055D01*
X16174634Y-14789055D02*
X16165111Y-14770008D01*
X16165111Y-14770008D02*
X16146063Y-14741436D01*
X16146063Y-14741436D02*
X16136539Y-14731912D01*
D10*
X11171000Y-15133000D02*
G75*
G03*
X11171000Y-15133000I-40000J0D01*
G01*
D11*
X11469872Y-15024484D02*
X11488920Y-15024484D01*
X11488920Y-15024484D02*
X11507967Y-15034008D01*
X11507967Y-15034008D02*
X11517491Y-15043531D01*
X11517491Y-15043531D02*
X11527015Y-15062579D01*
X11527015Y-15062579D02*
X11536539Y-15100674D01*
X11536539Y-15100674D02*
X11536539Y-15148293D01*
X11536539Y-15148293D02*
X11527015Y-15186388D01*
X11527015Y-15186388D02*
X11517491Y-15205436D01*
X11517491Y-15205436D02*
X11507967Y-15214960D01*
X11507967Y-15214960D02*
X11488920Y-15224484D01*
X11488920Y-15224484D02*
X11469872Y-15224484D01*
X11469872Y-15224484D02*
X11450824Y-15214960D01*
X11450824Y-15214960D02*
X11441301Y-15205436D01*
X11441301Y-15205436D02*
X11431777Y-15186388D01*
X11431777Y-15186388D02*
X11422253Y-15148293D01*
X11422253Y-15148293D02*
X11422253Y-15100674D01*
X11422253Y-15100674D02*
X11431777Y-15062579D01*
X11431777Y-15062579D02*
X11441301Y-15043531D01*
X11441301Y-15043531D02*
X11450824Y-15034008D01*
X11450824Y-15034008D02*
X11469872Y-15024484D01*
X11622253Y-15205436D02*
X11631777Y-15214960D01*
X11631777Y-15214960D02*
X11622253Y-15224484D01*
X11622253Y-15224484D02*
X11612729Y-15214960D01*
X11612729Y-15214960D02*
X11622253Y-15205436D01*
X11622253Y-15205436D02*
X11622253Y-15224484D01*
X11746062Y-15110198D02*
X11727015Y-15100674D01*
X11727015Y-15100674D02*
X11717491Y-15091150D01*
X11717491Y-15091150D02*
X11707967Y-15072103D01*
X11707967Y-15072103D02*
X11707967Y-15062579D01*
X11707967Y-15062579D02*
X11717491Y-15043531D01*
X11717491Y-15043531D02*
X11727015Y-15034008D01*
X11727015Y-15034008D02*
X11746062Y-15024484D01*
X11746062Y-15024484D02*
X11784158Y-15024484D01*
X11784158Y-15024484D02*
X11803205Y-15034008D01*
X11803205Y-15034008D02*
X11812729Y-15043531D01*
X11812729Y-15043531D02*
X11822253Y-15062579D01*
X11822253Y-15062579D02*
X11822253Y-15072103D01*
X11822253Y-15072103D02*
X11812729Y-15091150D01*
X11812729Y-15091150D02*
X11803205Y-15100674D01*
X11803205Y-15100674D02*
X11784158Y-15110198D01*
X11784158Y-15110198D02*
X11746062Y-15110198D01*
X11746062Y-15110198D02*
X11727015Y-15119722D01*
X11727015Y-15119722D02*
X11717491Y-15129246D01*
X11717491Y-15129246D02*
X11707967Y-15148293D01*
X11707967Y-15148293D02*
X11707967Y-15186388D01*
X11707967Y-15186388D02*
X11717491Y-15205436D01*
X11717491Y-15205436D02*
X11727015Y-15214960D01*
X11727015Y-15214960D02*
X11746062Y-15224484D01*
X11746062Y-15224484D02*
X11784158Y-15224484D01*
X11784158Y-15224484D02*
X11803205Y-15214960D01*
X11803205Y-15214960D02*
X11812729Y-15205436D01*
X11812729Y-15205436D02*
X11822253Y-15186388D01*
X11822253Y-15186388D02*
X11822253Y-15148293D01*
X11822253Y-15148293D02*
X11812729Y-15129246D01*
X11812729Y-15129246D02*
X11803205Y-15119722D01*
X11803205Y-15119722D02*
X11784158Y-15110198D01*
X11946062Y-15024484D02*
X11965110Y-15024484D01*
X11965110Y-15024484D02*
X11984158Y-15034008D01*
X11984158Y-15034008D02*
X11993682Y-15043531D01*
X11993682Y-15043531D02*
X12003205Y-15062579D01*
X12003205Y-15062579D02*
X12012729Y-15100674D01*
X12012729Y-15100674D02*
X12012729Y-15148293D01*
X12012729Y-15148293D02*
X12003205Y-15186388D01*
X12003205Y-15186388D02*
X11993682Y-15205436D01*
X11993682Y-15205436D02*
X11984158Y-15214960D01*
X11984158Y-15214960D02*
X11965110Y-15224484D01*
X11965110Y-15224484D02*
X11946062Y-15224484D01*
X11946062Y-15224484D02*
X11927015Y-15214960D01*
X11927015Y-15214960D02*
X11917491Y-15205436D01*
X11917491Y-15205436D02*
X11907967Y-15186388D01*
X11907967Y-15186388D02*
X11898443Y-15148293D01*
X11898443Y-15148293D02*
X11898443Y-15100674D01*
X11898443Y-15100674D02*
X11907967Y-15062579D01*
X11907967Y-15062579D02*
X11917491Y-15043531D01*
X11917491Y-15043531D02*
X11927015Y-15034008D01*
X11927015Y-15034008D02*
X11946062Y-15024484D01*
X12136539Y-15024484D02*
X12155586Y-15024484D01*
X12155586Y-15024484D02*
X12174634Y-15034008D01*
X12174634Y-15034008D02*
X12184158Y-15043531D01*
X12184158Y-15043531D02*
X12193682Y-15062579D01*
X12193682Y-15062579D02*
X12203205Y-15100674D01*
X12203205Y-15100674D02*
X12203205Y-15148293D01*
X12203205Y-15148293D02*
X12193682Y-15186388D01*
X12193682Y-15186388D02*
X12184158Y-15205436D01*
X12184158Y-15205436D02*
X12174634Y-15214960D01*
X12174634Y-15214960D02*
X12155586Y-15224484D01*
X12155586Y-15224484D02*
X12136539Y-15224484D01*
X12136539Y-15224484D02*
X12117491Y-15214960D01*
X12117491Y-15214960D02*
X12107967Y-15205436D01*
X12107967Y-15205436D02*
X12098443Y-15186388D01*
X12098443Y-15186388D02*
X12088920Y-15148293D01*
X12088920Y-15148293D02*
X12088920Y-15100674D01*
X12088920Y-15100674D02*
X12098443Y-15062579D01*
X12098443Y-15062579D02*
X12107967Y-15043531D01*
X12107967Y-15043531D02*
X12117491Y-15034008D01*
X12117491Y-15034008D02*
X12136539Y-15024484D01*
X12288920Y-15224484D02*
X12288920Y-15091150D01*
X12288920Y-15110198D02*
X12298443Y-15100674D01*
X12298443Y-15100674D02*
X12317491Y-15091150D01*
X12317491Y-15091150D02*
X12346063Y-15091150D01*
X12346063Y-15091150D02*
X12365110Y-15100674D01*
X12365110Y-15100674D02*
X12374634Y-15119722D01*
X12374634Y-15119722D02*
X12374634Y-15224484D01*
X12374634Y-15119722D02*
X12384158Y-15100674D01*
X12384158Y-15100674D02*
X12403205Y-15091150D01*
X12403205Y-15091150D02*
X12431777Y-15091150D01*
X12431777Y-15091150D02*
X12450824Y-15100674D01*
X12450824Y-15100674D02*
X12460348Y-15119722D01*
X12460348Y-15119722D02*
X12460348Y-15224484D01*
X12555586Y-15224484D02*
X12555586Y-15091150D01*
X12555586Y-15110198D02*
X12565110Y-15100674D01*
X12565110Y-15100674D02*
X12584158Y-15091150D01*
X12584158Y-15091150D02*
X12612729Y-15091150D01*
X12612729Y-15091150D02*
X12631777Y-15100674D01*
X12631777Y-15100674D02*
X12641301Y-15119722D01*
X12641301Y-15119722D02*
X12641301Y-15224484D01*
X12641301Y-15119722D02*
X12650824Y-15100674D01*
X12650824Y-15100674D02*
X12669872Y-15091150D01*
X12669872Y-15091150D02*
X12698443Y-15091150D01*
X12698443Y-15091150D02*
X12717491Y-15100674D01*
X12717491Y-15100674D02*
X12727015Y-15119722D01*
X12727015Y-15119722D02*
X12727015Y-15224484D01*
X13117491Y-15014960D02*
X12946063Y-15272103D01*
X13374634Y-15024484D02*
X13393682Y-15024484D01*
X13393682Y-15024484D02*
X13412729Y-15034008D01*
X13412729Y-15034008D02*
X13422253Y-15043531D01*
X13422253Y-15043531D02*
X13431777Y-15062579D01*
X13431777Y-15062579D02*
X13441301Y-15100674D01*
X13441301Y-15100674D02*
X13441301Y-15148293D01*
X13441301Y-15148293D02*
X13431777Y-15186388D01*
X13431777Y-15186388D02*
X13422253Y-15205436D01*
X13422253Y-15205436D02*
X13412729Y-15214960D01*
X13412729Y-15214960D02*
X13393682Y-15224484D01*
X13393682Y-15224484D02*
X13374634Y-15224484D01*
X13374634Y-15224484D02*
X13355586Y-15214960D01*
X13355586Y-15214960D02*
X13346063Y-15205436D01*
X13346063Y-15205436D02*
X13336539Y-15186388D01*
X13336539Y-15186388D02*
X13327015Y-15148293D01*
X13327015Y-15148293D02*
X13327015Y-15100674D01*
X13327015Y-15100674D02*
X13336539Y-15062579D01*
X13336539Y-15062579D02*
X13346063Y-15043531D01*
X13346063Y-15043531D02*
X13355586Y-15034008D01*
X13355586Y-15034008D02*
X13374634Y-15024484D01*
X13527015Y-15205436D02*
X13536539Y-15214960D01*
X13536539Y-15214960D02*
X13527015Y-15224484D01*
X13527015Y-15224484D02*
X13517491Y-15214960D01*
X13517491Y-15214960D02*
X13527015Y-15205436D01*
X13527015Y-15205436D02*
X13527015Y-15224484D01*
X13660348Y-15024484D02*
X13679396Y-15024484D01*
X13679396Y-15024484D02*
X13698444Y-15034008D01*
X13698444Y-15034008D02*
X13707967Y-15043531D01*
X13707967Y-15043531D02*
X13717491Y-15062579D01*
X13717491Y-15062579D02*
X13727015Y-15100674D01*
X13727015Y-15100674D02*
X13727015Y-15148293D01*
X13727015Y-15148293D02*
X13717491Y-15186388D01*
X13717491Y-15186388D02*
X13707967Y-15205436D01*
X13707967Y-15205436D02*
X13698444Y-15214960D01*
X13698444Y-15214960D02*
X13679396Y-15224484D01*
X13679396Y-15224484D02*
X13660348Y-15224484D01*
X13660348Y-15224484D02*
X13641301Y-15214960D01*
X13641301Y-15214960D02*
X13631777Y-15205436D01*
X13631777Y-15205436D02*
X13622253Y-15186388D01*
X13622253Y-15186388D02*
X13612729Y-15148293D01*
X13612729Y-15148293D02*
X13612729Y-15100674D01*
X13612729Y-15100674D02*
X13622253Y-15062579D01*
X13622253Y-15062579D02*
X13631777Y-15043531D01*
X13631777Y-15043531D02*
X13641301Y-15034008D01*
X13641301Y-15034008D02*
X13660348Y-15024484D01*
X13793682Y-15024484D02*
X13917491Y-15024484D01*
X13917491Y-15024484D02*
X13850825Y-15100674D01*
X13850825Y-15100674D02*
X13879396Y-15100674D01*
X13879396Y-15100674D02*
X13898444Y-15110198D01*
X13898444Y-15110198D02*
X13907967Y-15119722D01*
X13907967Y-15119722D02*
X13917491Y-15138769D01*
X13917491Y-15138769D02*
X13917491Y-15186388D01*
X13917491Y-15186388D02*
X13907967Y-15205436D01*
X13907967Y-15205436D02*
X13898444Y-15214960D01*
X13898444Y-15214960D02*
X13879396Y-15224484D01*
X13879396Y-15224484D02*
X13822253Y-15224484D01*
X13822253Y-15224484D02*
X13803206Y-15214960D01*
X13803206Y-15214960D02*
X13793682Y-15205436D01*
X14107967Y-15224484D02*
X13993682Y-15224484D01*
X14050825Y-15224484D02*
X14050825Y-15024484D01*
X14050825Y-15024484D02*
X14031777Y-15053055D01*
X14031777Y-15053055D02*
X14012729Y-15072103D01*
X14012729Y-15072103D02*
X13993682Y-15081627D01*
X14288920Y-15024484D02*
X14193682Y-15024484D01*
X14193682Y-15024484D02*
X14184158Y-15119722D01*
X14184158Y-15119722D02*
X14193682Y-15110198D01*
X14193682Y-15110198D02*
X14212729Y-15100674D01*
X14212729Y-15100674D02*
X14260348Y-15100674D01*
X14260348Y-15100674D02*
X14279396Y-15110198D01*
X14279396Y-15110198D02*
X14288920Y-15119722D01*
X14288920Y-15119722D02*
X14298444Y-15138769D01*
X14298444Y-15138769D02*
X14298444Y-15186388D01*
X14298444Y-15186388D02*
X14288920Y-15205436D01*
X14288920Y-15205436D02*
X14279396Y-15214960D01*
X14279396Y-15214960D02*
X14260348Y-15224484D01*
X14260348Y-15224484D02*
X14212729Y-15224484D01*
X14212729Y-15224484D02*
X14193682Y-15214960D01*
X14193682Y-15214960D02*
X14184158Y-15205436D01*
X14374634Y-15024484D02*
X14374634Y-15062579D01*
X14450825Y-15024484D02*
X14450825Y-15062579D01*
X14746063Y-15300674D02*
X14736539Y-15291150D01*
X14736539Y-15291150D02*
X14717491Y-15262579D01*
X14717491Y-15262579D02*
X14707968Y-15243531D01*
X14707968Y-15243531D02*
X14698444Y-15214960D01*
X14698444Y-15214960D02*
X14688920Y-15167341D01*
X14688920Y-15167341D02*
X14688920Y-15129246D01*
X14688920Y-15129246D02*
X14698444Y-15081627D01*
X14698444Y-15081627D02*
X14707968Y-15053055D01*
X14707968Y-15053055D02*
X14717491Y-15034008D01*
X14717491Y-15034008D02*
X14736539Y-15005436D01*
X14736539Y-15005436D02*
X14746063Y-14995912D01*
X14907968Y-15024484D02*
X14869872Y-15024484D01*
X14869872Y-15024484D02*
X14850825Y-15034008D01*
X14850825Y-15034008D02*
X14841301Y-15043531D01*
X14841301Y-15043531D02*
X14822253Y-15072103D01*
X14822253Y-15072103D02*
X14812729Y-15110198D01*
X14812729Y-15110198D02*
X14812729Y-15186388D01*
X14812729Y-15186388D02*
X14822253Y-15205436D01*
X14822253Y-15205436D02*
X14831777Y-15214960D01*
X14831777Y-15214960D02*
X14850825Y-15224484D01*
X14850825Y-15224484D02*
X14888920Y-15224484D01*
X14888920Y-15224484D02*
X14907968Y-15214960D01*
X14907968Y-15214960D02*
X14917491Y-15205436D01*
X14917491Y-15205436D02*
X14927015Y-15186388D01*
X14927015Y-15186388D02*
X14927015Y-15138769D01*
X14927015Y-15138769D02*
X14917491Y-15119722D01*
X14917491Y-15119722D02*
X14907968Y-15110198D01*
X14907968Y-15110198D02*
X14888920Y-15100674D01*
X14888920Y-15100674D02*
X14850825Y-15100674D01*
X14850825Y-15100674D02*
X14831777Y-15110198D01*
X14831777Y-15110198D02*
X14822253Y-15119722D01*
X14822253Y-15119722D02*
X14812729Y-15138769D01*
X15098444Y-15024484D02*
X15060348Y-15024484D01*
X15060348Y-15024484D02*
X15041301Y-15034008D01*
X15041301Y-15034008D02*
X15031777Y-15043531D01*
X15031777Y-15043531D02*
X15012729Y-15072103D01*
X15012729Y-15072103D02*
X15003206Y-15110198D01*
X15003206Y-15110198D02*
X15003206Y-15186388D01*
X15003206Y-15186388D02*
X15012729Y-15205436D01*
X15012729Y-15205436D02*
X15022253Y-15214960D01*
X15022253Y-15214960D02*
X15041301Y-15224484D01*
X15041301Y-15224484D02*
X15079396Y-15224484D01*
X15079396Y-15224484D02*
X15098444Y-15214960D01*
X15098444Y-15214960D02*
X15107968Y-15205436D01*
X15107968Y-15205436D02*
X15117491Y-15186388D01*
X15117491Y-15186388D02*
X15117491Y-15138769D01*
X15117491Y-15138769D02*
X15107968Y-15119722D01*
X15107968Y-15119722D02*
X15098444Y-15110198D01*
X15098444Y-15110198D02*
X15079396Y-15100674D01*
X15079396Y-15100674D02*
X15041301Y-15100674D01*
X15041301Y-15100674D02*
X15022253Y-15110198D01*
X15022253Y-15110198D02*
X15012729Y-15119722D01*
X15012729Y-15119722D02*
X15003206Y-15138769D01*
X15355587Y-15224484D02*
X15355587Y-15024484D01*
X15441301Y-15224484D02*
X15441301Y-15119722D01*
X15441301Y-15119722D02*
X15431777Y-15100674D01*
X15431777Y-15100674D02*
X15412730Y-15091150D01*
X15412730Y-15091150D02*
X15384158Y-15091150D01*
X15384158Y-15091150D02*
X15365110Y-15100674D01*
X15365110Y-15100674D02*
X15355587Y-15110198D01*
X15565110Y-15224484D02*
X15546063Y-15214960D01*
X15546063Y-15214960D02*
X15536539Y-15205436D01*
X15536539Y-15205436D02*
X15527015Y-15186388D01*
X15527015Y-15186388D02*
X15527015Y-15129246D01*
X15527015Y-15129246D02*
X15536539Y-15110198D01*
X15536539Y-15110198D02*
X15546063Y-15100674D01*
X15546063Y-15100674D02*
X15565110Y-15091150D01*
X15565110Y-15091150D02*
X15593682Y-15091150D01*
X15593682Y-15091150D02*
X15612730Y-15100674D01*
X15612730Y-15100674D02*
X15622253Y-15110198D01*
X15622253Y-15110198D02*
X15631777Y-15129246D01*
X15631777Y-15129246D02*
X15631777Y-15186388D01*
X15631777Y-15186388D02*
X15622253Y-15205436D01*
X15622253Y-15205436D02*
X15612730Y-15214960D01*
X15612730Y-15214960D02*
X15593682Y-15224484D01*
X15593682Y-15224484D02*
X15565110Y-15224484D01*
X15746063Y-15224484D02*
X15727015Y-15214960D01*
X15727015Y-15214960D02*
X15717491Y-15195912D01*
X15717491Y-15195912D02*
X15717491Y-15024484D01*
X15898444Y-15214960D02*
X15879396Y-15224484D01*
X15879396Y-15224484D02*
X15841301Y-15224484D01*
X15841301Y-15224484D02*
X15822253Y-15214960D01*
X15822253Y-15214960D02*
X15812730Y-15195912D01*
X15812730Y-15195912D02*
X15812730Y-15119722D01*
X15812730Y-15119722D02*
X15822253Y-15100674D01*
X15822253Y-15100674D02*
X15841301Y-15091150D01*
X15841301Y-15091150D02*
X15879396Y-15091150D01*
X15879396Y-15091150D02*
X15898444Y-15100674D01*
X15898444Y-15100674D02*
X15907968Y-15119722D01*
X15907968Y-15119722D02*
X15907968Y-15138769D01*
X15907968Y-15138769D02*
X15812730Y-15157817D01*
X15984158Y-15214960D02*
X16003206Y-15224484D01*
X16003206Y-15224484D02*
X16041301Y-15224484D01*
X16041301Y-15224484D02*
X16060349Y-15214960D01*
X16060349Y-15214960D02*
X16069872Y-15195912D01*
X16069872Y-15195912D02*
X16069872Y-15186388D01*
X16069872Y-15186388D02*
X16060349Y-15167341D01*
X16060349Y-15167341D02*
X16041301Y-15157817D01*
X16041301Y-15157817D02*
X16012730Y-15157817D01*
X16012730Y-15157817D02*
X15993682Y-15148293D01*
X15993682Y-15148293D02*
X15984158Y-15129246D01*
X15984158Y-15129246D02*
X15984158Y-15119722D01*
X15984158Y-15119722D02*
X15993682Y-15100674D01*
X15993682Y-15100674D02*
X16012730Y-15091150D01*
X16012730Y-15091150D02*
X16041301Y-15091150D01*
X16041301Y-15091150D02*
X16060349Y-15100674D01*
X16136539Y-15300674D02*
X16146063Y-15291150D01*
X16146063Y-15291150D02*
X16165111Y-15262579D01*
X16165111Y-15262579D02*
X16174634Y-15243531D01*
X16174634Y-15243531D02*
X16184158Y-15214960D01*
X16184158Y-15214960D02*
X16193682Y-15167341D01*
X16193682Y-15167341D02*
X16193682Y-15129246D01*
X16193682Y-15129246D02*
X16184158Y-15081627D01*
X16184158Y-15081627D02*
X16174634Y-15053055D01*
X16174634Y-15053055D02*
X16165111Y-15034008D01*
X16165111Y-15034008D02*
X16146063Y-15005436D01*
X16146063Y-15005436D02*
X16136539Y-14995912D01*
D10*
X11126000Y-15352000D02*
X11126000Y-15442000D01*
X11081000Y-15397000D02*
X11171000Y-15397000D01*
D11*
X11469872Y-15288484D02*
X11488920Y-15288484D01*
X11488920Y-15288484D02*
X11507967Y-15298008D01*
X11507967Y-15298008D02*
X11517491Y-15307531D01*
X11517491Y-15307531D02*
X11527015Y-15326579D01*
X11527015Y-15326579D02*
X11536539Y-15364674D01*
X11536539Y-15364674D02*
X11536539Y-15412293D01*
X11536539Y-15412293D02*
X11527015Y-15450388D01*
X11527015Y-15450388D02*
X11517491Y-15469436D01*
X11517491Y-15469436D02*
X11507967Y-15478960D01*
X11507967Y-15478960D02*
X11488920Y-15488484D01*
X11488920Y-15488484D02*
X11469872Y-15488484D01*
X11469872Y-15488484D02*
X11450824Y-15478960D01*
X11450824Y-15478960D02*
X11441301Y-15469436D01*
X11441301Y-15469436D02*
X11431777Y-15450388D01*
X11431777Y-15450388D02*
X11422253Y-15412293D01*
X11422253Y-15412293D02*
X11422253Y-15364674D01*
X11422253Y-15364674D02*
X11431777Y-15326579D01*
X11431777Y-15326579D02*
X11441301Y-15307531D01*
X11441301Y-15307531D02*
X11450824Y-15298008D01*
X11450824Y-15298008D02*
X11469872Y-15288484D01*
X11622253Y-15469436D02*
X11631777Y-15478960D01*
X11631777Y-15478960D02*
X11622253Y-15488484D01*
X11622253Y-15488484D02*
X11612729Y-15478960D01*
X11612729Y-15478960D02*
X11622253Y-15469436D01*
X11622253Y-15469436D02*
X11622253Y-15488484D01*
X11727015Y-15488484D02*
X11765110Y-15488484D01*
X11765110Y-15488484D02*
X11784158Y-15478960D01*
X11784158Y-15478960D02*
X11793682Y-15469436D01*
X11793682Y-15469436D02*
X11812729Y-15440865D01*
X11812729Y-15440865D02*
X11822253Y-15402769D01*
X11822253Y-15402769D02*
X11822253Y-15326579D01*
X11822253Y-15326579D02*
X11812729Y-15307531D01*
X11812729Y-15307531D02*
X11803205Y-15298008D01*
X11803205Y-15298008D02*
X11784158Y-15288484D01*
X11784158Y-15288484D02*
X11746062Y-15288484D01*
X11746062Y-15288484D02*
X11727015Y-15298008D01*
X11727015Y-15298008D02*
X11717491Y-15307531D01*
X11717491Y-15307531D02*
X11707967Y-15326579D01*
X11707967Y-15326579D02*
X11707967Y-15374198D01*
X11707967Y-15374198D02*
X11717491Y-15393246D01*
X11717491Y-15393246D02*
X11727015Y-15402769D01*
X11727015Y-15402769D02*
X11746062Y-15412293D01*
X11746062Y-15412293D02*
X11784158Y-15412293D01*
X11784158Y-15412293D02*
X11803205Y-15402769D01*
X11803205Y-15402769D02*
X11812729Y-15393246D01*
X11812729Y-15393246D02*
X11822253Y-15374198D01*
X11946062Y-15288484D02*
X11965110Y-15288484D01*
X11965110Y-15288484D02*
X11984158Y-15298008D01*
X11984158Y-15298008D02*
X11993682Y-15307531D01*
X11993682Y-15307531D02*
X12003205Y-15326579D01*
X12003205Y-15326579D02*
X12012729Y-15364674D01*
X12012729Y-15364674D02*
X12012729Y-15412293D01*
X12012729Y-15412293D02*
X12003205Y-15450388D01*
X12003205Y-15450388D02*
X11993682Y-15469436D01*
X11993682Y-15469436D02*
X11984158Y-15478960D01*
X11984158Y-15478960D02*
X11965110Y-15488484D01*
X11965110Y-15488484D02*
X11946062Y-15488484D01*
X11946062Y-15488484D02*
X11927015Y-15478960D01*
X11927015Y-15478960D02*
X11917491Y-15469436D01*
X11917491Y-15469436D02*
X11907967Y-15450388D01*
X11907967Y-15450388D02*
X11898443Y-15412293D01*
X11898443Y-15412293D02*
X11898443Y-15364674D01*
X11898443Y-15364674D02*
X11907967Y-15326579D01*
X11907967Y-15326579D02*
X11917491Y-15307531D01*
X11917491Y-15307531D02*
X11927015Y-15298008D01*
X11927015Y-15298008D02*
X11946062Y-15288484D01*
X12136539Y-15288484D02*
X12155586Y-15288484D01*
X12155586Y-15288484D02*
X12174634Y-15298008D01*
X12174634Y-15298008D02*
X12184158Y-15307531D01*
X12184158Y-15307531D02*
X12193682Y-15326579D01*
X12193682Y-15326579D02*
X12203205Y-15364674D01*
X12203205Y-15364674D02*
X12203205Y-15412293D01*
X12203205Y-15412293D02*
X12193682Y-15450388D01*
X12193682Y-15450388D02*
X12184158Y-15469436D01*
X12184158Y-15469436D02*
X12174634Y-15478960D01*
X12174634Y-15478960D02*
X12155586Y-15488484D01*
X12155586Y-15488484D02*
X12136539Y-15488484D01*
X12136539Y-15488484D02*
X12117491Y-15478960D01*
X12117491Y-15478960D02*
X12107967Y-15469436D01*
X12107967Y-15469436D02*
X12098443Y-15450388D01*
X12098443Y-15450388D02*
X12088920Y-15412293D01*
X12088920Y-15412293D02*
X12088920Y-15364674D01*
X12088920Y-15364674D02*
X12098443Y-15326579D01*
X12098443Y-15326579D02*
X12107967Y-15307531D01*
X12107967Y-15307531D02*
X12117491Y-15298008D01*
X12117491Y-15298008D02*
X12136539Y-15288484D01*
X12288920Y-15488484D02*
X12288920Y-15355150D01*
X12288920Y-15374198D02*
X12298443Y-15364674D01*
X12298443Y-15364674D02*
X12317491Y-15355150D01*
X12317491Y-15355150D02*
X12346063Y-15355150D01*
X12346063Y-15355150D02*
X12365110Y-15364674D01*
X12365110Y-15364674D02*
X12374634Y-15383722D01*
X12374634Y-15383722D02*
X12374634Y-15488484D01*
X12374634Y-15383722D02*
X12384158Y-15364674D01*
X12384158Y-15364674D02*
X12403205Y-15355150D01*
X12403205Y-15355150D02*
X12431777Y-15355150D01*
X12431777Y-15355150D02*
X12450824Y-15364674D01*
X12450824Y-15364674D02*
X12460348Y-15383722D01*
X12460348Y-15383722D02*
X12460348Y-15488484D01*
X12555586Y-15488484D02*
X12555586Y-15355150D01*
X12555586Y-15374198D02*
X12565110Y-15364674D01*
X12565110Y-15364674D02*
X12584158Y-15355150D01*
X12584158Y-15355150D02*
X12612729Y-15355150D01*
X12612729Y-15355150D02*
X12631777Y-15364674D01*
X12631777Y-15364674D02*
X12641301Y-15383722D01*
X12641301Y-15383722D02*
X12641301Y-15488484D01*
X12641301Y-15383722D02*
X12650824Y-15364674D01*
X12650824Y-15364674D02*
X12669872Y-15355150D01*
X12669872Y-15355150D02*
X12698443Y-15355150D01*
X12698443Y-15355150D02*
X12717491Y-15364674D01*
X12717491Y-15364674D02*
X12727015Y-15383722D01*
X12727015Y-15383722D02*
X12727015Y-15488484D01*
X13117491Y-15278960D02*
X12946063Y-15536103D01*
X13374634Y-15288484D02*
X13393682Y-15288484D01*
X13393682Y-15288484D02*
X13412729Y-15298008D01*
X13412729Y-15298008D02*
X13422253Y-15307531D01*
X13422253Y-15307531D02*
X13431777Y-15326579D01*
X13431777Y-15326579D02*
X13441301Y-15364674D01*
X13441301Y-15364674D02*
X13441301Y-15412293D01*
X13441301Y-15412293D02*
X13431777Y-15450388D01*
X13431777Y-15450388D02*
X13422253Y-15469436D01*
X13422253Y-15469436D02*
X13412729Y-15478960D01*
X13412729Y-15478960D02*
X13393682Y-15488484D01*
X13393682Y-15488484D02*
X13374634Y-15488484D01*
X13374634Y-15488484D02*
X13355586Y-15478960D01*
X13355586Y-15478960D02*
X13346063Y-15469436D01*
X13346063Y-15469436D02*
X13336539Y-15450388D01*
X13336539Y-15450388D02*
X13327015Y-15412293D01*
X13327015Y-15412293D02*
X13327015Y-15364674D01*
X13327015Y-15364674D02*
X13336539Y-15326579D01*
X13336539Y-15326579D02*
X13346063Y-15307531D01*
X13346063Y-15307531D02*
X13355586Y-15298008D01*
X13355586Y-15298008D02*
X13374634Y-15288484D01*
X13527015Y-15469436D02*
X13536539Y-15478960D01*
X13536539Y-15478960D02*
X13527015Y-15488484D01*
X13527015Y-15488484D02*
X13517491Y-15478960D01*
X13517491Y-15478960D02*
X13527015Y-15469436D01*
X13527015Y-15469436D02*
X13527015Y-15488484D01*
X13660348Y-15288484D02*
X13679396Y-15288484D01*
X13679396Y-15288484D02*
X13698444Y-15298008D01*
X13698444Y-15298008D02*
X13707967Y-15307531D01*
X13707967Y-15307531D02*
X13717491Y-15326579D01*
X13717491Y-15326579D02*
X13727015Y-15364674D01*
X13727015Y-15364674D02*
X13727015Y-15412293D01*
X13727015Y-15412293D02*
X13717491Y-15450388D01*
X13717491Y-15450388D02*
X13707967Y-15469436D01*
X13707967Y-15469436D02*
X13698444Y-15478960D01*
X13698444Y-15478960D02*
X13679396Y-15488484D01*
X13679396Y-15488484D02*
X13660348Y-15488484D01*
X13660348Y-15488484D02*
X13641301Y-15478960D01*
X13641301Y-15478960D02*
X13631777Y-15469436D01*
X13631777Y-15469436D02*
X13622253Y-15450388D01*
X13622253Y-15450388D02*
X13612729Y-15412293D01*
X13612729Y-15412293D02*
X13612729Y-15364674D01*
X13612729Y-15364674D02*
X13622253Y-15326579D01*
X13622253Y-15326579D02*
X13631777Y-15307531D01*
X13631777Y-15307531D02*
X13641301Y-15298008D01*
X13641301Y-15298008D02*
X13660348Y-15288484D01*
X13793682Y-15288484D02*
X13917491Y-15288484D01*
X13917491Y-15288484D02*
X13850825Y-15364674D01*
X13850825Y-15364674D02*
X13879396Y-15364674D01*
X13879396Y-15364674D02*
X13898444Y-15374198D01*
X13898444Y-15374198D02*
X13907967Y-15383722D01*
X13907967Y-15383722D02*
X13917491Y-15402769D01*
X13917491Y-15402769D02*
X13917491Y-15450388D01*
X13917491Y-15450388D02*
X13907967Y-15469436D01*
X13907967Y-15469436D02*
X13898444Y-15478960D01*
X13898444Y-15478960D02*
X13879396Y-15488484D01*
X13879396Y-15488484D02*
X13822253Y-15488484D01*
X13822253Y-15488484D02*
X13803206Y-15478960D01*
X13803206Y-15478960D02*
X13793682Y-15469436D01*
X14098444Y-15288484D02*
X14003206Y-15288484D01*
X14003206Y-15288484D02*
X13993682Y-15383722D01*
X13993682Y-15383722D02*
X14003206Y-15374198D01*
X14003206Y-15374198D02*
X14022253Y-15364674D01*
X14022253Y-15364674D02*
X14069872Y-15364674D01*
X14069872Y-15364674D02*
X14088920Y-15374198D01*
X14088920Y-15374198D02*
X14098444Y-15383722D01*
X14098444Y-15383722D02*
X14107967Y-15402769D01*
X14107967Y-15402769D02*
X14107967Y-15450388D01*
X14107967Y-15450388D02*
X14098444Y-15469436D01*
X14098444Y-15469436D02*
X14088920Y-15478960D01*
X14088920Y-15478960D02*
X14069872Y-15488484D01*
X14069872Y-15488484D02*
X14022253Y-15488484D01*
X14022253Y-15488484D02*
X14003206Y-15478960D01*
X14003206Y-15478960D02*
X13993682Y-15469436D01*
X14279396Y-15355150D02*
X14279396Y-15488484D01*
X14231777Y-15278960D02*
X14184158Y-15421817D01*
X14184158Y-15421817D02*
X14307967Y-15421817D01*
X14374634Y-15288484D02*
X14374634Y-15326579D01*
X14450825Y-15288484D02*
X14450825Y-15326579D01*
X14746063Y-15564674D02*
X14736539Y-15555150D01*
X14736539Y-15555150D02*
X14717491Y-15526579D01*
X14717491Y-15526579D02*
X14707968Y-15507531D01*
X14707968Y-15507531D02*
X14698444Y-15478960D01*
X14698444Y-15478960D02*
X14688920Y-15431341D01*
X14688920Y-15431341D02*
X14688920Y-15393246D01*
X14688920Y-15393246D02*
X14698444Y-15345627D01*
X14698444Y-15345627D02*
X14707968Y-15317055D01*
X14707968Y-15317055D02*
X14717491Y-15298008D01*
X14717491Y-15298008D02*
X14736539Y-15269436D01*
X14736539Y-15269436D02*
X14746063Y-15259912D01*
X14927015Y-15488484D02*
X14812729Y-15488484D01*
X14869872Y-15488484D02*
X14869872Y-15288484D01*
X14869872Y-15288484D02*
X14850825Y-15317055D01*
X14850825Y-15317055D02*
X14831777Y-15336103D01*
X14831777Y-15336103D02*
X14812729Y-15345627D01*
X15098444Y-15288484D02*
X15060348Y-15288484D01*
X15060348Y-15288484D02*
X15041301Y-15298008D01*
X15041301Y-15298008D02*
X15031777Y-15307531D01*
X15031777Y-15307531D02*
X15012729Y-15336103D01*
X15012729Y-15336103D02*
X15003206Y-15374198D01*
X15003206Y-15374198D02*
X15003206Y-15450388D01*
X15003206Y-15450388D02*
X15012729Y-15469436D01*
X15012729Y-15469436D02*
X15022253Y-15478960D01*
X15022253Y-15478960D02*
X15041301Y-15488484D01*
X15041301Y-15488484D02*
X15079396Y-15488484D01*
X15079396Y-15488484D02*
X15098444Y-15478960D01*
X15098444Y-15478960D02*
X15107968Y-15469436D01*
X15107968Y-15469436D02*
X15117491Y-15450388D01*
X15117491Y-15450388D02*
X15117491Y-15402769D01*
X15117491Y-15402769D02*
X15107968Y-15383722D01*
X15107968Y-15383722D02*
X15098444Y-15374198D01*
X15098444Y-15374198D02*
X15079396Y-15364674D01*
X15079396Y-15364674D02*
X15041301Y-15364674D01*
X15041301Y-15364674D02*
X15022253Y-15374198D01*
X15022253Y-15374198D02*
X15012729Y-15383722D01*
X15012729Y-15383722D02*
X15003206Y-15402769D01*
X15355587Y-15488484D02*
X15355587Y-15288484D01*
X15441301Y-15488484D02*
X15441301Y-15383722D01*
X15441301Y-15383722D02*
X15431777Y-15364674D01*
X15431777Y-15364674D02*
X15412730Y-15355150D01*
X15412730Y-15355150D02*
X15384158Y-15355150D01*
X15384158Y-15355150D02*
X15365110Y-15364674D01*
X15365110Y-15364674D02*
X15355587Y-15374198D01*
X15565110Y-15488484D02*
X15546063Y-15478960D01*
X15546063Y-15478960D02*
X15536539Y-15469436D01*
X15536539Y-15469436D02*
X15527015Y-15450388D01*
X15527015Y-15450388D02*
X15527015Y-15393246D01*
X15527015Y-15393246D02*
X15536539Y-15374198D01*
X15536539Y-15374198D02*
X15546063Y-15364674D01*
X15546063Y-15364674D02*
X15565110Y-15355150D01*
X15565110Y-15355150D02*
X15593682Y-15355150D01*
X15593682Y-15355150D02*
X15612730Y-15364674D01*
X15612730Y-15364674D02*
X15622253Y-15374198D01*
X15622253Y-15374198D02*
X15631777Y-15393246D01*
X15631777Y-15393246D02*
X15631777Y-15450388D01*
X15631777Y-15450388D02*
X15622253Y-15469436D01*
X15622253Y-15469436D02*
X15612730Y-15478960D01*
X15612730Y-15478960D02*
X15593682Y-15488484D01*
X15593682Y-15488484D02*
X15565110Y-15488484D01*
X15746063Y-15488484D02*
X15727015Y-15478960D01*
X15727015Y-15478960D02*
X15717491Y-15459912D01*
X15717491Y-15459912D02*
X15717491Y-15288484D01*
X15898444Y-15478960D02*
X15879396Y-15488484D01*
X15879396Y-15488484D02*
X15841301Y-15488484D01*
X15841301Y-15488484D02*
X15822253Y-15478960D01*
X15822253Y-15478960D02*
X15812730Y-15459912D01*
X15812730Y-15459912D02*
X15812730Y-15383722D01*
X15812730Y-15383722D02*
X15822253Y-15364674D01*
X15822253Y-15364674D02*
X15841301Y-15355150D01*
X15841301Y-15355150D02*
X15879396Y-15355150D01*
X15879396Y-15355150D02*
X15898444Y-15364674D01*
X15898444Y-15364674D02*
X15907968Y-15383722D01*
X15907968Y-15383722D02*
X15907968Y-15402769D01*
X15907968Y-15402769D02*
X15812730Y-15421817D01*
X15984158Y-15478960D02*
X16003206Y-15488484D01*
X16003206Y-15488484D02*
X16041301Y-15488484D01*
X16041301Y-15488484D02*
X16060349Y-15478960D01*
X16060349Y-15478960D02*
X16069872Y-15459912D01*
X16069872Y-15459912D02*
X16069872Y-15450388D01*
X16069872Y-15450388D02*
X16060349Y-15431341D01*
X16060349Y-15431341D02*
X16041301Y-15421817D01*
X16041301Y-15421817D02*
X16012730Y-15421817D01*
X16012730Y-15421817D02*
X15993682Y-15412293D01*
X15993682Y-15412293D02*
X15984158Y-15393246D01*
X15984158Y-15393246D02*
X15984158Y-15383722D01*
X15984158Y-15383722D02*
X15993682Y-15364674D01*
X15993682Y-15364674D02*
X16012730Y-15355150D01*
X16012730Y-15355150D02*
X16041301Y-15355150D01*
X16041301Y-15355150D02*
X16060349Y-15364674D01*
X16136539Y-15564674D02*
X16146063Y-15555150D01*
X16146063Y-15555150D02*
X16165111Y-15526579D01*
X16165111Y-15526579D02*
X16174634Y-15507531D01*
X16174634Y-15507531D02*
X16184158Y-15478960D01*
X16184158Y-15478960D02*
X16193682Y-15431341D01*
X16193682Y-15431341D02*
X16193682Y-15393246D01*
X16193682Y-15393246D02*
X16184158Y-15345627D01*
X16184158Y-15345627D02*
X16174634Y-15317055D01*
X16174634Y-15317055D02*
X16165111Y-15298008D01*
X16165111Y-15298008D02*
X16146063Y-15269436D01*
X16146063Y-15269436D02*
X16136539Y-15259912D01*
D10*
X11157088Y-15694588D02*
X11157088Y-15627412D01*
X11089912Y-15627412D01*
X11089912Y-15694588D01*
X11157088Y-15694588D01*
D11*
X11469872Y-15552484D02*
X11488920Y-15552484D01*
X11488920Y-15552484D02*
X11507967Y-15562008D01*
X11507967Y-15562008D02*
X11517491Y-15571531D01*
X11517491Y-15571531D02*
X11527015Y-15590579D01*
X11527015Y-15590579D02*
X11536539Y-15628674D01*
X11536539Y-15628674D02*
X11536539Y-15676293D01*
X11536539Y-15676293D02*
X11527015Y-15714388D01*
X11527015Y-15714388D02*
X11517491Y-15733436D01*
X11517491Y-15733436D02*
X11507967Y-15742960D01*
X11507967Y-15742960D02*
X11488920Y-15752484D01*
X11488920Y-15752484D02*
X11469872Y-15752484D01*
X11469872Y-15752484D02*
X11450824Y-15742960D01*
X11450824Y-15742960D02*
X11441301Y-15733436D01*
X11441301Y-15733436D02*
X11431777Y-15714388D01*
X11431777Y-15714388D02*
X11422253Y-15676293D01*
X11422253Y-15676293D02*
X11422253Y-15628674D01*
X11422253Y-15628674D02*
X11431777Y-15590579D01*
X11431777Y-15590579D02*
X11441301Y-15571531D01*
X11441301Y-15571531D02*
X11450824Y-15562008D01*
X11450824Y-15562008D02*
X11469872Y-15552484D01*
X11622253Y-15733436D02*
X11631777Y-15742960D01*
X11631777Y-15742960D02*
X11622253Y-15752484D01*
X11622253Y-15752484D02*
X11612729Y-15742960D01*
X11612729Y-15742960D02*
X11622253Y-15733436D01*
X11622253Y-15733436D02*
X11622253Y-15752484D01*
X11727015Y-15752484D02*
X11765110Y-15752484D01*
X11765110Y-15752484D02*
X11784158Y-15742960D01*
X11784158Y-15742960D02*
X11793682Y-15733436D01*
X11793682Y-15733436D02*
X11812729Y-15704865D01*
X11812729Y-15704865D02*
X11822253Y-15666769D01*
X11822253Y-15666769D02*
X11822253Y-15590579D01*
X11822253Y-15590579D02*
X11812729Y-15571531D01*
X11812729Y-15571531D02*
X11803205Y-15562008D01*
X11803205Y-15562008D02*
X11784158Y-15552484D01*
X11784158Y-15552484D02*
X11746062Y-15552484D01*
X11746062Y-15552484D02*
X11727015Y-15562008D01*
X11727015Y-15562008D02*
X11717491Y-15571531D01*
X11717491Y-15571531D02*
X11707967Y-15590579D01*
X11707967Y-15590579D02*
X11707967Y-15638198D01*
X11707967Y-15638198D02*
X11717491Y-15657246D01*
X11717491Y-15657246D02*
X11727015Y-15666769D01*
X11727015Y-15666769D02*
X11746062Y-15676293D01*
X11746062Y-15676293D02*
X11784158Y-15676293D01*
X11784158Y-15676293D02*
X11803205Y-15666769D01*
X11803205Y-15666769D02*
X11812729Y-15657246D01*
X11812729Y-15657246D02*
X11822253Y-15638198D01*
X12003205Y-15552484D02*
X11907967Y-15552484D01*
X11907967Y-15552484D02*
X11898443Y-15647722D01*
X11898443Y-15647722D02*
X11907967Y-15638198D01*
X11907967Y-15638198D02*
X11927015Y-15628674D01*
X11927015Y-15628674D02*
X11974634Y-15628674D01*
X11974634Y-15628674D02*
X11993682Y-15638198D01*
X11993682Y-15638198D02*
X12003205Y-15647722D01*
X12003205Y-15647722D02*
X12012729Y-15666769D01*
X12012729Y-15666769D02*
X12012729Y-15714388D01*
X12012729Y-15714388D02*
X12003205Y-15733436D01*
X12003205Y-15733436D02*
X11993682Y-15742960D01*
X11993682Y-15742960D02*
X11974634Y-15752484D01*
X11974634Y-15752484D02*
X11927015Y-15752484D01*
X11927015Y-15752484D02*
X11907967Y-15742960D01*
X11907967Y-15742960D02*
X11898443Y-15733436D01*
X12136539Y-15552484D02*
X12155586Y-15552484D01*
X12155586Y-15552484D02*
X12174634Y-15562008D01*
X12174634Y-15562008D02*
X12184158Y-15571531D01*
X12184158Y-15571531D02*
X12193682Y-15590579D01*
X12193682Y-15590579D02*
X12203205Y-15628674D01*
X12203205Y-15628674D02*
X12203205Y-15676293D01*
X12203205Y-15676293D02*
X12193682Y-15714388D01*
X12193682Y-15714388D02*
X12184158Y-15733436D01*
X12184158Y-15733436D02*
X12174634Y-15742960D01*
X12174634Y-15742960D02*
X12155586Y-15752484D01*
X12155586Y-15752484D02*
X12136539Y-15752484D01*
X12136539Y-15752484D02*
X12117491Y-15742960D01*
X12117491Y-15742960D02*
X12107967Y-15733436D01*
X12107967Y-15733436D02*
X12098443Y-15714388D01*
X12098443Y-15714388D02*
X12088920Y-15676293D01*
X12088920Y-15676293D02*
X12088920Y-15628674D01*
X12088920Y-15628674D02*
X12098443Y-15590579D01*
X12098443Y-15590579D02*
X12107967Y-15571531D01*
X12107967Y-15571531D02*
X12117491Y-15562008D01*
X12117491Y-15562008D02*
X12136539Y-15552484D01*
X12288920Y-15752484D02*
X12288920Y-15619150D01*
X12288920Y-15638198D02*
X12298443Y-15628674D01*
X12298443Y-15628674D02*
X12317491Y-15619150D01*
X12317491Y-15619150D02*
X12346063Y-15619150D01*
X12346063Y-15619150D02*
X12365110Y-15628674D01*
X12365110Y-15628674D02*
X12374634Y-15647722D01*
X12374634Y-15647722D02*
X12374634Y-15752484D01*
X12374634Y-15647722D02*
X12384158Y-15628674D01*
X12384158Y-15628674D02*
X12403205Y-15619150D01*
X12403205Y-15619150D02*
X12431777Y-15619150D01*
X12431777Y-15619150D02*
X12450824Y-15628674D01*
X12450824Y-15628674D02*
X12460348Y-15647722D01*
X12460348Y-15647722D02*
X12460348Y-15752484D01*
X12555586Y-15752484D02*
X12555586Y-15619150D01*
X12555586Y-15638198D02*
X12565110Y-15628674D01*
X12565110Y-15628674D02*
X12584158Y-15619150D01*
X12584158Y-15619150D02*
X12612729Y-15619150D01*
X12612729Y-15619150D02*
X12631777Y-15628674D01*
X12631777Y-15628674D02*
X12641301Y-15647722D01*
X12641301Y-15647722D02*
X12641301Y-15752484D01*
X12641301Y-15647722D02*
X12650824Y-15628674D01*
X12650824Y-15628674D02*
X12669872Y-15619150D01*
X12669872Y-15619150D02*
X12698443Y-15619150D01*
X12698443Y-15619150D02*
X12717491Y-15628674D01*
X12717491Y-15628674D02*
X12727015Y-15647722D01*
X12727015Y-15647722D02*
X12727015Y-15752484D01*
X13117491Y-15542960D02*
X12946063Y-15800103D01*
X13374634Y-15552484D02*
X13393682Y-15552484D01*
X13393682Y-15552484D02*
X13412729Y-15562008D01*
X13412729Y-15562008D02*
X13422253Y-15571531D01*
X13422253Y-15571531D02*
X13431777Y-15590579D01*
X13431777Y-15590579D02*
X13441301Y-15628674D01*
X13441301Y-15628674D02*
X13441301Y-15676293D01*
X13441301Y-15676293D02*
X13431777Y-15714388D01*
X13431777Y-15714388D02*
X13422253Y-15733436D01*
X13422253Y-15733436D02*
X13412729Y-15742960D01*
X13412729Y-15742960D02*
X13393682Y-15752484D01*
X13393682Y-15752484D02*
X13374634Y-15752484D01*
X13374634Y-15752484D02*
X13355586Y-15742960D01*
X13355586Y-15742960D02*
X13346063Y-15733436D01*
X13346063Y-15733436D02*
X13336539Y-15714388D01*
X13336539Y-15714388D02*
X13327015Y-15676293D01*
X13327015Y-15676293D02*
X13327015Y-15628674D01*
X13327015Y-15628674D02*
X13336539Y-15590579D01*
X13336539Y-15590579D02*
X13346063Y-15571531D01*
X13346063Y-15571531D02*
X13355586Y-15562008D01*
X13355586Y-15562008D02*
X13374634Y-15552484D01*
X13527015Y-15733436D02*
X13536539Y-15742960D01*
X13536539Y-15742960D02*
X13527015Y-15752484D01*
X13527015Y-15752484D02*
X13517491Y-15742960D01*
X13517491Y-15742960D02*
X13527015Y-15733436D01*
X13527015Y-15733436D02*
X13527015Y-15752484D01*
X13660348Y-15552484D02*
X13679396Y-15552484D01*
X13679396Y-15552484D02*
X13698444Y-15562008D01*
X13698444Y-15562008D02*
X13707967Y-15571531D01*
X13707967Y-15571531D02*
X13717491Y-15590579D01*
X13717491Y-15590579D02*
X13727015Y-15628674D01*
X13727015Y-15628674D02*
X13727015Y-15676293D01*
X13727015Y-15676293D02*
X13717491Y-15714388D01*
X13717491Y-15714388D02*
X13707967Y-15733436D01*
X13707967Y-15733436D02*
X13698444Y-15742960D01*
X13698444Y-15742960D02*
X13679396Y-15752484D01*
X13679396Y-15752484D02*
X13660348Y-15752484D01*
X13660348Y-15752484D02*
X13641301Y-15742960D01*
X13641301Y-15742960D02*
X13631777Y-15733436D01*
X13631777Y-15733436D02*
X13622253Y-15714388D01*
X13622253Y-15714388D02*
X13612729Y-15676293D01*
X13612729Y-15676293D02*
X13612729Y-15628674D01*
X13612729Y-15628674D02*
X13622253Y-15590579D01*
X13622253Y-15590579D02*
X13631777Y-15571531D01*
X13631777Y-15571531D02*
X13641301Y-15562008D01*
X13641301Y-15562008D02*
X13660348Y-15552484D01*
X13793682Y-15552484D02*
X13917491Y-15552484D01*
X13917491Y-15552484D02*
X13850825Y-15628674D01*
X13850825Y-15628674D02*
X13879396Y-15628674D01*
X13879396Y-15628674D02*
X13898444Y-15638198D01*
X13898444Y-15638198D02*
X13907967Y-15647722D01*
X13907967Y-15647722D02*
X13917491Y-15666769D01*
X13917491Y-15666769D02*
X13917491Y-15714388D01*
X13917491Y-15714388D02*
X13907967Y-15733436D01*
X13907967Y-15733436D02*
X13898444Y-15742960D01*
X13898444Y-15742960D02*
X13879396Y-15752484D01*
X13879396Y-15752484D02*
X13822253Y-15752484D01*
X13822253Y-15752484D02*
X13803206Y-15742960D01*
X13803206Y-15742960D02*
X13793682Y-15733436D01*
X13984158Y-15552484D02*
X14117491Y-15552484D01*
X14117491Y-15552484D02*
X14031777Y-15752484D01*
X14279396Y-15619150D02*
X14279396Y-15752484D01*
X14231777Y-15542960D02*
X14184158Y-15685817D01*
X14184158Y-15685817D02*
X14307967Y-15685817D01*
X14374634Y-15552484D02*
X14374634Y-15590579D01*
X14450825Y-15552484D02*
X14450825Y-15590579D01*
X14746063Y-15828674D02*
X14736539Y-15819150D01*
X14736539Y-15819150D02*
X14717491Y-15790579D01*
X14717491Y-15790579D02*
X14707968Y-15771531D01*
X14707968Y-15771531D02*
X14698444Y-15742960D01*
X14698444Y-15742960D02*
X14688920Y-15695341D01*
X14688920Y-15695341D02*
X14688920Y-15657246D01*
X14688920Y-15657246D02*
X14698444Y-15609627D01*
X14698444Y-15609627D02*
X14707968Y-15581055D01*
X14707968Y-15581055D02*
X14717491Y-15562008D01*
X14717491Y-15562008D02*
X14736539Y-15533436D01*
X14736539Y-15533436D02*
X14746063Y-15523912D01*
X14850825Y-15638198D02*
X14831777Y-15628674D01*
X14831777Y-15628674D02*
X14822253Y-15619150D01*
X14822253Y-15619150D02*
X14812729Y-15600103D01*
X14812729Y-15600103D02*
X14812729Y-15590579D01*
X14812729Y-15590579D02*
X14822253Y-15571531D01*
X14822253Y-15571531D02*
X14831777Y-15562008D01*
X14831777Y-15562008D02*
X14850825Y-15552484D01*
X14850825Y-15552484D02*
X14888920Y-15552484D01*
X14888920Y-15552484D02*
X14907968Y-15562008D01*
X14907968Y-15562008D02*
X14917491Y-15571531D01*
X14917491Y-15571531D02*
X14927015Y-15590579D01*
X14927015Y-15590579D02*
X14927015Y-15600103D01*
X14927015Y-15600103D02*
X14917491Y-15619150D01*
X14917491Y-15619150D02*
X14907968Y-15628674D01*
X14907968Y-15628674D02*
X14888920Y-15638198D01*
X14888920Y-15638198D02*
X14850825Y-15638198D01*
X14850825Y-15638198D02*
X14831777Y-15647722D01*
X14831777Y-15647722D02*
X14822253Y-15657246D01*
X14822253Y-15657246D02*
X14812729Y-15676293D01*
X14812729Y-15676293D02*
X14812729Y-15714388D01*
X14812729Y-15714388D02*
X14822253Y-15733436D01*
X14822253Y-15733436D02*
X14831777Y-15742960D01*
X14831777Y-15742960D02*
X14850825Y-15752484D01*
X14850825Y-15752484D02*
X14888920Y-15752484D01*
X14888920Y-15752484D02*
X14907968Y-15742960D01*
X14907968Y-15742960D02*
X14917491Y-15733436D01*
X14917491Y-15733436D02*
X14927015Y-15714388D01*
X14927015Y-15714388D02*
X14927015Y-15676293D01*
X14927015Y-15676293D02*
X14917491Y-15657246D01*
X14917491Y-15657246D02*
X14907968Y-15647722D01*
X14907968Y-15647722D02*
X14888920Y-15638198D01*
X15165110Y-15752484D02*
X15165110Y-15552484D01*
X15250825Y-15752484D02*
X15250825Y-15647722D01*
X15250825Y-15647722D02*
X15241301Y-15628674D01*
X15241301Y-15628674D02*
X15222253Y-15619150D01*
X15222253Y-15619150D02*
X15193682Y-15619150D01*
X15193682Y-15619150D02*
X15174634Y-15628674D01*
X15174634Y-15628674D02*
X15165110Y-15638198D01*
X15374634Y-15752484D02*
X15355587Y-15742960D01*
X15355587Y-15742960D02*
X15346063Y-15733436D01*
X15346063Y-15733436D02*
X15336539Y-15714388D01*
X15336539Y-15714388D02*
X15336539Y-15657246D01*
X15336539Y-15657246D02*
X15346063Y-15638198D01*
X15346063Y-15638198D02*
X15355587Y-15628674D01*
X15355587Y-15628674D02*
X15374634Y-15619150D01*
X15374634Y-15619150D02*
X15403206Y-15619150D01*
X15403206Y-15619150D02*
X15422253Y-15628674D01*
X15422253Y-15628674D02*
X15431777Y-15638198D01*
X15431777Y-15638198D02*
X15441301Y-15657246D01*
X15441301Y-15657246D02*
X15441301Y-15714388D01*
X15441301Y-15714388D02*
X15431777Y-15733436D01*
X15431777Y-15733436D02*
X15422253Y-15742960D01*
X15422253Y-15742960D02*
X15403206Y-15752484D01*
X15403206Y-15752484D02*
X15374634Y-15752484D01*
X15555587Y-15752484D02*
X15536539Y-15742960D01*
X15536539Y-15742960D02*
X15527015Y-15723912D01*
X15527015Y-15723912D02*
X15527015Y-15552484D01*
X15707968Y-15742960D02*
X15688920Y-15752484D01*
X15688920Y-15752484D02*
X15650825Y-15752484D01*
X15650825Y-15752484D02*
X15631777Y-15742960D01*
X15631777Y-15742960D02*
X15622253Y-15723912D01*
X15622253Y-15723912D02*
X15622253Y-15647722D01*
X15622253Y-15647722D02*
X15631777Y-15628674D01*
X15631777Y-15628674D02*
X15650825Y-15619150D01*
X15650825Y-15619150D02*
X15688920Y-15619150D01*
X15688920Y-15619150D02*
X15707968Y-15628674D01*
X15707968Y-15628674D02*
X15717491Y-15647722D01*
X15717491Y-15647722D02*
X15717491Y-15666769D01*
X15717491Y-15666769D02*
X15622253Y-15685817D01*
X15793682Y-15742960D02*
X15812730Y-15752484D01*
X15812730Y-15752484D02*
X15850825Y-15752484D01*
X15850825Y-15752484D02*
X15869872Y-15742960D01*
X15869872Y-15742960D02*
X15879396Y-15723912D01*
X15879396Y-15723912D02*
X15879396Y-15714388D01*
X15879396Y-15714388D02*
X15869872Y-15695341D01*
X15869872Y-15695341D02*
X15850825Y-15685817D01*
X15850825Y-15685817D02*
X15822253Y-15685817D01*
X15822253Y-15685817D02*
X15803206Y-15676293D01*
X15803206Y-15676293D02*
X15793682Y-15657246D01*
X15793682Y-15657246D02*
X15793682Y-15647722D01*
X15793682Y-15647722D02*
X15803206Y-15628674D01*
X15803206Y-15628674D02*
X15822253Y-15619150D01*
X15822253Y-15619150D02*
X15850825Y-15619150D01*
X15850825Y-15619150D02*
X15869872Y-15628674D01*
X15946063Y-15828674D02*
X15955587Y-15819150D01*
X15955587Y-15819150D02*
X15974634Y-15790579D01*
X15974634Y-15790579D02*
X15984158Y-15771531D01*
X15984158Y-15771531D02*
X15993682Y-15742960D01*
X15993682Y-15742960D02*
X16003206Y-15695341D01*
X16003206Y-15695341D02*
X16003206Y-15657246D01*
X16003206Y-15657246D02*
X15993682Y-15609627D01*
X15993682Y-15609627D02*
X15984158Y-15581055D01*
X15984158Y-15581055D02*
X15974634Y-15562008D01*
X15974634Y-15562008D02*
X15955587Y-15533436D01*
X15955587Y-15533436D02*
X15946063Y-15523912D01*
D10*
X11121000Y-15975000D02*
X11171000Y-15925000D01*
X11121000Y-15875000D01*
X11071000Y-15925000D01*
X11121000Y-15975000D01*
D11*
X11536539Y-16016484D02*
X11422253Y-16016484D01*
X11479396Y-16016484D02*
X11479396Y-15816484D01*
X11479396Y-15816484D02*
X11460348Y-15845055D01*
X11460348Y-15845055D02*
X11441301Y-15864103D01*
X11441301Y-15864103D02*
X11422253Y-15873627D01*
X11622253Y-15997436D02*
X11631777Y-16006960D01*
X11631777Y-16006960D02*
X11622253Y-16016484D01*
X11622253Y-16016484D02*
X11612729Y-16006960D01*
X11612729Y-16006960D02*
X11622253Y-15997436D01*
X11622253Y-15997436D02*
X11622253Y-16016484D01*
X11755586Y-15816484D02*
X11774634Y-15816484D01*
X11774634Y-15816484D02*
X11793682Y-15826008D01*
X11793682Y-15826008D02*
X11803205Y-15835531D01*
X11803205Y-15835531D02*
X11812729Y-15854579D01*
X11812729Y-15854579D02*
X11822253Y-15892674D01*
X11822253Y-15892674D02*
X11822253Y-15940293D01*
X11822253Y-15940293D02*
X11812729Y-15978388D01*
X11812729Y-15978388D02*
X11803205Y-15997436D01*
X11803205Y-15997436D02*
X11793682Y-16006960D01*
X11793682Y-16006960D02*
X11774634Y-16016484D01*
X11774634Y-16016484D02*
X11755586Y-16016484D01*
X11755586Y-16016484D02*
X11736539Y-16006960D01*
X11736539Y-16006960D02*
X11727015Y-15997436D01*
X11727015Y-15997436D02*
X11717491Y-15978388D01*
X11717491Y-15978388D02*
X11707967Y-15940293D01*
X11707967Y-15940293D02*
X11707967Y-15892674D01*
X11707967Y-15892674D02*
X11717491Y-15854579D01*
X11717491Y-15854579D02*
X11727015Y-15835531D01*
X11727015Y-15835531D02*
X11736539Y-15826008D01*
X11736539Y-15826008D02*
X11755586Y-15816484D01*
X11946062Y-15816484D02*
X11965110Y-15816484D01*
X11965110Y-15816484D02*
X11984158Y-15826008D01*
X11984158Y-15826008D02*
X11993682Y-15835531D01*
X11993682Y-15835531D02*
X12003205Y-15854579D01*
X12003205Y-15854579D02*
X12012729Y-15892674D01*
X12012729Y-15892674D02*
X12012729Y-15940293D01*
X12012729Y-15940293D02*
X12003205Y-15978388D01*
X12003205Y-15978388D02*
X11993682Y-15997436D01*
X11993682Y-15997436D02*
X11984158Y-16006960D01*
X11984158Y-16006960D02*
X11965110Y-16016484D01*
X11965110Y-16016484D02*
X11946062Y-16016484D01*
X11946062Y-16016484D02*
X11927015Y-16006960D01*
X11927015Y-16006960D02*
X11917491Y-15997436D01*
X11917491Y-15997436D02*
X11907967Y-15978388D01*
X11907967Y-15978388D02*
X11898443Y-15940293D01*
X11898443Y-15940293D02*
X11898443Y-15892674D01*
X11898443Y-15892674D02*
X11907967Y-15854579D01*
X11907967Y-15854579D02*
X11917491Y-15835531D01*
X11917491Y-15835531D02*
X11927015Y-15826008D01*
X11927015Y-15826008D02*
X11946062Y-15816484D01*
X12136539Y-15816484D02*
X12155586Y-15816484D01*
X12155586Y-15816484D02*
X12174634Y-15826008D01*
X12174634Y-15826008D02*
X12184158Y-15835531D01*
X12184158Y-15835531D02*
X12193682Y-15854579D01*
X12193682Y-15854579D02*
X12203205Y-15892674D01*
X12203205Y-15892674D02*
X12203205Y-15940293D01*
X12203205Y-15940293D02*
X12193682Y-15978388D01*
X12193682Y-15978388D02*
X12184158Y-15997436D01*
X12184158Y-15997436D02*
X12174634Y-16006960D01*
X12174634Y-16006960D02*
X12155586Y-16016484D01*
X12155586Y-16016484D02*
X12136539Y-16016484D01*
X12136539Y-16016484D02*
X12117491Y-16006960D01*
X12117491Y-16006960D02*
X12107967Y-15997436D01*
X12107967Y-15997436D02*
X12098443Y-15978388D01*
X12098443Y-15978388D02*
X12088920Y-15940293D01*
X12088920Y-15940293D02*
X12088920Y-15892674D01*
X12088920Y-15892674D02*
X12098443Y-15854579D01*
X12098443Y-15854579D02*
X12107967Y-15835531D01*
X12107967Y-15835531D02*
X12117491Y-15826008D01*
X12117491Y-15826008D02*
X12136539Y-15816484D01*
X12288920Y-16016484D02*
X12288920Y-15883150D01*
X12288920Y-15902198D02*
X12298443Y-15892674D01*
X12298443Y-15892674D02*
X12317491Y-15883150D01*
X12317491Y-15883150D02*
X12346063Y-15883150D01*
X12346063Y-15883150D02*
X12365110Y-15892674D01*
X12365110Y-15892674D02*
X12374634Y-15911722D01*
X12374634Y-15911722D02*
X12374634Y-16016484D01*
X12374634Y-15911722D02*
X12384158Y-15892674D01*
X12384158Y-15892674D02*
X12403205Y-15883150D01*
X12403205Y-15883150D02*
X12431777Y-15883150D01*
X12431777Y-15883150D02*
X12450824Y-15892674D01*
X12450824Y-15892674D02*
X12460348Y-15911722D01*
X12460348Y-15911722D02*
X12460348Y-16016484D01*
X12555586Y-16016484D02*
X12555586Y-15883150D01*
X12555586Y-15902198D02*
X12565110Y-15892674D01*
X12565110Y-15892674D02*
X12584158Y-15883150D01*
X12584158Y-15883150D02*
X12612729Y-15883150D01*
X12612729Y-15883150D02*
X12631777Y-15892674D01*
X12631777Y-15892674D02*
X12641301Y-15911722D01*
X12641301Y-15911722D02*
X12641301Y-16016484D01*
X12641301Y-15911722D02*
X12650824Y-15892674D01*
X12650824Y-15892674D02*
X12669872Y-15883150D01*
X12669872Y-15883150D02*
X12698443Y-15883150D01*
X12698443Y-15883150D02*
X12717491Y-15892674D01*
X12717491Y-15892674D02*
X12727015Y-15911722D01*
X12727015Y-15911722D02*
X12727015Y-16016484D01*
X13117491Y-15806960D02*
X12946063Y-16064103D01*
X13374634Y-15816484D02*
X13393682Y-15816484D01*
X13393682Y-15816484D02*
X13412729Y-15826008D01*
X13412729Y-15826008D02*
X13422253Y-15835531D01*
X13422253Y-15835531D02*
X13431777Y-15854579D01*
X13431777Y-15854579D02*
X13441301Y-15892674D01*
X13441301Y-15892674D02*
X13441301Y-15940293D01*
X13441301Y-15940293D02*
X13431777Y-15978388D01*
X13431777Y-15978388D02*
X13422253Y-15997436D01*
X13422253Y-15997436D02*
X13412729Y-16006960D01*
X13412729Y-16006960D02*
X13393682Y-16016484D01*
X13393682Y-16016484D02*
X13374634Y-16016484D01*
X13374634Y-16016484D02*
X13355586Y-16006960D01*
X13355586Y-16006960D02*
X13346063Y-15997436D01*
X13346063Y-15997436D02*
X13336539Y-15978388D01*
X13336539Y-15978388D02*
X13327015Y-15940293D01*
X13327015Y-15940293D02*
X13327015Y-15892674D01*
X13327015Y-15892674D02*
X13336539Y-15854579D01*
X13336539Y-15854579D02*
X13346063Y-15835531D01*
X13346063Y-15835531D02*
X13355586Y-15826008D01*
X13355586Y-15826008D02*
X13374634Y-15816484D01*
X13527015Y-15997436D02*
X13536539Y-16006960D01*
X13536539Y-16006960D02*
X13527015Y-16016484D01*
X13527015Y-16016484D02*
X13517491Y-16006960D01*
X13517491Y-16006960D02*
X13527015Y-15997436D01*
X13527015Y-15997436D02*
X13527015Y-16016484D01*
X13660348Y-15816484D02*
X13679396Y-15816484D01*
X13679396Y-15816484D02*
X13698444Y-15826008D01*
X13698444Y-15826008D02*
X13707967Y-15835531D01*
X13707967Y-15835531D02*
X13717491Y-15854579D01*
X13717491Y-15854579D02*
X13727015Y-15892674D01*
X13727015Y-15892674D02*
X13727015Y-15940293D01*
X13727015Y-15940293D02*
X13717491Y-15978388D01*
X13717491Y-15978388D02*
X13707967Y-15997436D01*
X13707967Y-15997436D02*
X13698444Y-16006960D01*
X13698444Y-16006960D02*
X13679396Y-16016484D01*
X13679396Y-16016484D02*
X13660348Y-16016484D01*
X13660348Y-16016484D02*
X13641301Y-16006960D01*
X13641301Y-16006960D02*
X13631777Y-15997436D01*
X13631777Y-15997436D02*
X13622253Y-15978388D01*
X13622253Y-15978388D02*
X13612729Y-15940293D01*
X13612729Y-15940293D02*
X13612729Y-15892674D01*
X13612729Y-15892674D02*
X13622253Y-15854579D01*
X13622253Y-15854579D02*
X13631777Y-15835531D01*
X13631777Y-15835531D02*
X13641301Y-15826008D01*
X13641301Y-15826008D02*
X13660348Y-15816484D01*
X13793682Y-15816484D02*
X13917491Y-15816484D01*
X13917491Y-15816484D02*
X13850825Y-15892674D01*
X13850825Y-15892674D02*
X13879396Y-15892674D01*
X13879396Y-15892674D02*
X13898444Y-15902198D01*
X13898444Y-15902198D02*
X13907967Y-15911722D01*
X13907967Y-15911722D02*
X13917491Y-15930769D01*
X13917491Y-15930769D02*
X13917491Y-15978388D01*
X13917491Y-15978388D02*
X13907967Y-15997436D01*
X13907967Y-15997436D02*
X13898444Y-16006960D01*
X13898444Y-16006960D02*
X13879396Y-16016484D01*
X13879396Y-16016484D02*
X13822253Y-16016484D01*
X13822253Y-16016484D02*
X13803206Y-16006960D01*
X13803206Y-16006960D02*
X13793682Y-15997436D01*
X14012729Y-16016484D02*
X14050825Y-16016484D01*
X14050825Y-16016484D02*
X14069872Y-16006960D01*
X14069872Y-16006960D02*
X14079396Y-15997436D01*
X14079396Y-15997436D02*
X14098444Y-15968865D01*
X14098444Y-15968865D02*
X14107967Y-15930769D01*
X14107967Y-15930769D02*
X14107967Y-15854579D01*
X14107967Y-15854579D02*
X14098444Y-15835531D01*
X14098444Y-15835531D02*
X14088920Y-15826008D01*
X14088920Y-15826008D02*
X14069872Y-15816484D01*
X14069872Y-15816484D02*
X14031777Y-15816484D01*
X14031777Y-15816484D02*
X14012729Y-15826008D01*
X14012729Y-15826008D02*
X14003206Y-15835531D01*
X14003206Y-15835531D02*
X13993682Y-15854579D01*
X13993682Y-15854579D02*
X13993682Y-15902198D01*
X13993682Y-15902198D02*
X14003206Y-15921246D01*
X14003206Y-15921246D02*
X14012729Y-15930769D01*
X14012729Y-15930769D02*
X14031777Y-15940293D01*
X14031777Y-15940293D02*
X14069872Y-15940293D01*
X14069872Y-15940293D02*
X14088920Y-15930769D01*
X14088920Y-15930769D02*
X14098444Y-15921246D01*
X14098444Y-15921246D02*
X14107967Y-15902198D01*
X14279396Y-15883150D02*
X14279396Y-16016484D01*
X14231777Y-15806960D02*
X14184158Y-15949817D01*
X14184158Y-15949817D02*
X14307967Y-15949817D01*
X14374634Y-15816484D02*
X14374634Y-15854579D01*
X14450825Y-15816484D02*
X14450825Y-15854579D01*
X14746063Y-16092674D02*
X14736539Y-16083150D01*
X14736539Y-16083150D02*
X14717491Y-16054579D01*
X14717491Y-16054579D02*
X14707968Y-16035531D01*
X14707968Y-16035531D02*
X14698444Y-16006960D01*
X14698444Y-16006960D02*
X14688920Y-15959341D01*
X14688920Y-15959341D02*
X14688920Y-15921246D01*
X14688920Y-15921246D02*
X14698444Y-15873627D01*
X14698444Y-15873627D02*
X14707968Y-15845055D01*
X14707968Y-15845055D02*
X14717491Y-15826008D01*
X14717491Y-15826008D02*
X14736539Y-15797436D01*
X14736539Y-15797436D02*
X14746063Y-15787912D01*
X14812729Y-15835531D02*
X14822253Y-15826008D01*
X14822253Y-15826008D02*
X14841301Y-15816484D01*
X14841301Y-15816484D02*
X14888920Y-15816484D01*
X14888920Y-15816484D02*
X14907968Y-15826008D01*
X14907968Y-15826008D02*
X14917491Y-15835531D01*
X14917491Y-15835531D02*
X14927015Y-15854579D01*
X14927015Y-15854579D02*
X14927015Y-15873627D01*
X14927015Y-15873627D02*
X14917491Y-15902198D01*
X14917491Y-15902198D02*
X14803206Y-16016484D01*
X14803206Y-16016484D02*
X14927015Y-16016484D01*
X15050825Y-15816484D02*
X15069872Y-15816484D01*
X15069872Y-15816484D02*
X15088920Y-15826008D01*
X15088920Y-15826008D02*
X15098444Y-15835531D01*
X15098444Y-15835531D02*
X15107968Y-15854579D01*
X15107968Y-15854579D02*
X15117491Y-15892674D01*
X15117491Y-15892674D02*
X15117491Y-15940293D01*
X15117491Y-15940293D02*
X15107968Y-15978388D01*
X15107968Y-15978388D02*
X15098444Y-15997436D01*
X15098444Y-15997436D02*
X15088920Y-16006960D01*
X15088920Y-16006960D02*
X15069872Y-16016484D01*
X15069872Y-16016484D02*
X15050825Y-16016484D01*
X15050825Y-16016484D02*
X15031777Y-16006960D01*
X15031777Y-16006960D02*
X15022253Y-15997436D01*
X15022253Y-15997436D02*
X15012729Y-15978388D01*
X15012729Y-15978388D02*
X15003206Y-15940293D01*
X15003206Y-15940293D02*
X15003206Y-15892674D01*
X15003206Y-15892674D02*
X15012729Y-15854579D01*
X15012729Y-15854579D02*
X15022253Y-15835531D01*
X15022253Y-15835531D02*
X15031777Y-15826008D01*
X15031777Y-15826008D02*
X15050825Y-15816484D01*
X15355587Y-16016484D02*
X15355587Y-15816484D01*
X15441301Y-16016484D02*
X15441301Y-15911722D01*
X15441301Y-15911722D02*
X15431777Y-15892674D01*
X15431777Y-15892674D02*
X15412730Y-15883150D01*
X15412730Y-15883150D02*
X15384158Y-15883150D01*
X15384158Y-15883150D02*
X15365110Y-15892674D01*
X15365110Y-15892674D02*
X15355587Y-15902198D01*
X15565110Y-16016484D02*
X15546063Y-16006960D01*
X15546063Y-16006960D02*
X15536539Y-15997436D01*
X15536539Y-15997436D02*
X15527015Y-15978388D01*
X15527015Y-15978388D02*
X15527015Y-15921246D01*
X15527015Y-15921246D02*
X15536539Y-15902198D01*
X15536539Y-15902198D02*
X15546063Y-15892674D01*
X15546063Y-15892674D02*
X15565110Y-15883150D01*
X15565110Y-15883150D02*
X15593682Y-15883150D01*
X15593682Y-15883150D02*
X15612730Y-15892674D01*
X15612730Y-15892674D02*
X15622253Y-15902198D01*
X15622253Y-15902198D02*
X15631777Y-15921246D01*
X15631777Y-15921246D02*
X15631777Y-15978388D01*
X15631777Y-15978388D02*
X15622253Y-15997436D01*
X15622253Y-15997436D02*
X15612730Y-16006960D01*
X15612730Y-16006960D02*
X15593682Y-16016484D01*
X15593682Y-16016484D02*
X15565110Y-16016484D01*
X15746063Y-16016484D02*
X15727015Y-16006960D01*
X15727015Y-16006960D02*
X15717491Y-15987912D01*
X15717491Y-15987912D02*
X15717491Y-15816484D01*
X15898444Y-16006960D02*
X15879396Y-16016484D01*
X15879396Y-16016484D02*
X15841301Y-16016484D01*
X15841301Y-16016484D02*
X15822253Y-16006960D01*
X15822253Y-16006960D02*
X15812730Y-15987912D01*
X15812730Y-15987912D02*
X15812730Y-15911722D01*
X15812730Y-15911722D02*
X15822253Y-15892674D01*
X15822253Y-15892674D02*
X15841301Y-15883150D01*
X15841301Y-15883150D02*
X15879396Y-15883150D01*
X15879396Y-15883150D02*
X15898444Y-15892674D01*
X15898444Y-15892674D02*
X15907968Y-15911722D01*
X15907968Y-15911722D02*
X15907968Y-15930769D01*
X15907968Y-15930769D02*
X15812730Y-15949817D01*
X15984158Y-16006960D02*
X16003206Y-16016484D01*
X16003206Y-16016484D02*
X16041301Y-16016484D01*
X16041301Y-16016484D02*
X16060349Y-16006960D01*
X16060349Y-16006960D02*
X16069872Y-15987912D01*
X16069872Y-15987912D02*
X16069872Y-15978388D01*
X16069872Y-15978388D02*
X16060349Y-15959341D01*
X16060349Y-15959341D02*
X16041301Y-15949817D01*
X16041301Y-15949817D02*
X16012730Y-15949817D01*
X16012730Y-15949817D02*
X15993682Y-15940293D01*
X15993682Y-15940293D02*
X15984158Y-15921246D01*
X15984158Y-15921246D02*
X15984158Y-15911722D01*
X15984158Y-15911722D02*
X15993682Y-15892674D01*
X15993682Y-15892674D02*
X16012730Y-15883150D01*
X16012730Y-15883150D02*
X16041301Y-15883150D01*
X16041301Y-15883150D02*
X16060349Y-15892674D01*
X16136539Y-16092674D02*
X16146063Y-16083150D01*
X16146063Y-16083150D02*
X16165111Y-16054579D01*
X16165111Y-16054579D02*
X16174634Y-16035531D01*
X16174634Y-16035531D02*
X16184158Y-16006960D01*
X16184158Y-16006960D02*
X16193682Y-15959341D01*
X16193682Y-15959341D02*
X16193682Y-15921246D01*
X16193682Y-15921246D02*
X16184158Y-15873627D01*
X16184158Y-15873627D02*
X16174634Y-15845055D01*
X16174634Y-15845055D02*
X16165111Y-15826008D01*
X16165111Y-15826008D02*
X16146063Y-15797436D01*
X16146063Y-15797436D02*
X16136539Y-15787912D01*
D12*
X11061000Y-16134000D02*
X11171000Y-16244000D01*
X11171000Y-16134000D02*
X11061000Y-16244000D01*
X11171000Y-16189000D02*
G75*
G03*
X11171000Y-16189000I-55000J0D01*
G01*
D11*
X11536539Y-16280484D02*
X11422253Y-16280484D01*
X11479396Y-16280484D02*
X11479396Y-16080484D01*
X11479396Y-16080484D02*
X11460348Y-16109055D01*
X11460348Y-16109055D02*
X11441301Y-16128103D01*
X11441301Y-16128103D02*
X11422253Y-16137627D01*
X11622253Y-16261436D02*
X11631777Y-16270960D01*
X11631777Y-16270960D02*
X11622253Y-16280484D01*
X11622253Y-16280484D02*
X11612729Y-16270960D01*
X11612729Y-16270960D02*
X11622253Y-16261436D01*
X11622253Y-16261436D02*
X11622253Y-16280484D01*
X11822253Y-16280484D02*
X11707967Y-16280484D01*
X11765110Y-16280484D02*
X11765110Y-16080484D01*
X11765110Y-16080484D02*
X11746062Y-16109055D01*
X11746062Y-16109055D02*
X11727015Y-16128103D01*
X11727015Y-16128103D02*
X11707967Y-16137627D01*
X11946062Y-16080484D02*
X11965110Y-16080484D01*
X11965110Y-16080484D02*
X11984158Y-16090008D01*
X11984158Y-16090008D02*
X11993682Y-16099531D01*
X11993682Y-16099531D02*
X12003205Y-16118579D01*
X12003205Y-16118579D02*
X12012729Y-16156674D01*
X12012729Y-16156674D02*
X12012729Y-16204293D01*
X12012729Y-16204293D02*
X12003205Y-16242388D01*
X12003205Y-16242388D02*
X11993682Y-16261436D01*
X11993682Y-16261436D02*
X11984158Y-16270960D01*
X11984158Y-16270960D02*
X11965110Y-16280484D01*
X11965110Y-16280484D02*
X11946062Y-16280484D01*
X11946062Y-16280484D02*
X11927015Y-16270960D01*
X11927015Y-16270960D02*
X11917491Y-16261436D01*
X11917491Y-16261436D02*
X11907967Y-16242388D01*
X11907967Y-16242388D02*
X11898443Y-16204293D01*
X11898443Y-16204293D02*
X11898443Y-16156674D01*
X11898443Y-16156674D02*
X11907967Y-16118579D01*
X11907967Y-16118579D02*
X11917491Y-16099531D01*
X11917491Y-16099531D02*
X11927015Y-16090008D01*
X11927015Y-16090008D02*
X11946062Y-16080484D01*
X12136539Y-16080484D02*
X12155586Y-16080484D01*
X12155586Y-16080484D02*
X12174634Y-16090008D01*
X12174634Y-16090008D02*
X12184158Y-16099531D01*
X12184158Y-16099531D02*
X12193682Y-16118579D01*
X12193682Y-16118579D02*
X12203205Y-16156674D01*
X12203205Y-16156674D02*
X12203205Y-16204293D01*
X12203205Y-16204293D02*
X12193682Y-16242388D01*
X12193682Y-16242388D02*
X12184158Y-16261436D01*
X12184158Y-16261436D02*
X12174634Y-16270960D01*
X12174634Y-16270960D02*
X12155586Y-16280484D01*
X12155586Y-16280484D02*
X12136539Y-16280484D01*
X12136539Y-16280484D02*
X12117491Y-16270960D01*
X12117491Y-16270960D02*
X12107967Y-16261436D01*
X12107967Y-16261436D02*
X12098443Y-16242388D01*
X12098443Y-16242388D02*
X12088920Y-16204293D01*
X12088920Y-16204293D02*
X12088920Y-16156674D01*
X12088920Y-16156674D02*
X12098443Y-16118579D01*
X12098443Y-16118579D02*
X12107967Y-16099531D01*
X12107967Y-16099531D02*
X12117491Y-16090008D01*
X12117491Y-16090008D02*
X12136539Y-16080484D01*
X12288920Y-16280484D02*
X12288920Y-16147150D01*
X12288920Y-16166198D02*
X12298443Y-16156674D01*
X12298443Y-16156674D02*
X12317491Y-16147150D01*
X12317491Y-16147150D02*
X12346063Y-16147150D01*
X12346063Y-16147150D02*
X12365110Y-16156674D01*
X12365110Y-16156674D02*
X12374634Y-16175722D01*
X12374634Y-16175722D02*
X12374634Y-16280484D01*
X12374634Y-16175722D02*
X12384158Y-16156674D01*
X12384158Y-16156674D02*
X12403205Y-16147150D01*
X12403205Y-16147150D02*
X12431777Y-16147150D01*
X12431777Y-16147150D02*
X12450824Y-16156674D01*
X12450824Y-16156674D02*
X12460348Y-16175722D01*
X12460348Y-16175722D02*
X12460348Y-16280484D01*
X12555586Y-16280484D02*
X12555586Y-16147150D01*
X12555586Y-16166198D02*
X12565110Y-16156674D01*
X12565110Y-16156674D02*
X12584158Y-16147150D01*
X12584158Y-16147150D02*
X12612729Y-16147150D01*
X12612729Y-16147150D02*
X12631777Y-16156674D01*
X12631777Y-16156674D02*
X12641301Y-16175722D01*
X12641301Y-16175722D02*
X12641301Y-16280484D01*
X12641301Y-16175722D02*
X12650824Y-16156674D01*
X12650824Y-16156674D02*
X12669872Y-16147150D01*
X12669872Y-16147150D02*
X12698443Y-16147150D01*
X12698443Y-16147150D02*
X12717491Y-16156674D01*
X12717491Y-16156674D02*
X12727015Y-16175722D01*
X12727015Y-16175722D02*
X12727015Y-16280484D01*
X13117491Y-16070960D02*
X12946063Y-16328103D01*
X13374634Y-16080484D02*
X13393682Y-16080484D01*
X13393682Y-16080484D02*
X13412729Y-16090008D01*
X13412729Y-16090008D02*
X13422253Y-16099531D01*
X13422253Y-16099531D02*
X13431777Y-16118579D01*
X13431777Y-16118579D02*
X13441301Y-16156674D01*
X13441301Y-16156674D02*
X13441301Y-16204293D01*
X13441301Y-16204293D02*
X13431777Y-16242388D01*
X13431777Y-16242388D02*
X13422253Y-16261436D01*
X13422253Y-16261436D02*
X13412729Y-16270960D01*
X13412729Y-16270960D02*
X13393682Y-16280484D01*
X13393682Y-16280484D02*
X13374634Y-16280484D01*
X13374634Y-16280484D02*
X13355586Y-16270960D01*
X13355586Y-16270960D02*
X13346063Y-16261436D01*
X13346063Y-16261436D02*
X13336539Y-16242388D01*
X13336539Y-16242388D02*
X13327015Y-16204293D01*
X13327015Y-16204293D02*
X13327015Y-16156674D01*
X13327015Y-16156674D02*
X13336539Y-16118579D01*
X13336539Y-16118579D02*
X13346063Y-16099531D01*
X13346063Y-16099531D02*
X13355586Y-16090008D01*
X13355586Y-16090008D02*
X13374634Y-16080484D01*
X13527015Y-16261436D02*
X13536539Y-16270960D01*
X13536539Y-16270960D02*
X13527015Y-16280484D01*
X13527015Y-16280484D02*
X13517491Y-16270960D01*
X13517491Y-16270960D02*
X13527015Y-16261436D01*
X13527015Y-16261436D02*
X13527015Y-16280484D01*
X13660348Y-16080484D02*
X13679396Y-16080484D01*
X13679396Y-16080484D02*
X13698444Y-16090008D01*
X13698444Y-16090008D02*
X13707967Y-16099531D01*
X13707967Y-16099531D02*
X13717491Y-16118579D01*
X13717491Y-16118579D02*
X13727015Y-16156674D01*
X13727015Y-16156674D02*
X13727015Y-16204293D01*
X13727015Y-16204293D02*
X13717491Y-16242388D01*
X13717491Y-16242388D02*
X13707967Y-16261436D01*
X13707967Y-16261436D02*
X13698444Y-16270960D01*
X13698444Y-16270960D02*
X13679396Y-16280484D01*
X13679396Y-16280484D02*
X13660348Y-16280484D01*
X13660348Y-16280484D02*
X13641301Y-16270960D01*
X13641301Y-16270960D02*
X13631777Y-16261436D01*
X13631777Y-16261436D02*
X13622253Y-16242388D01*
X13622253Y-16242388D02*
X13612729Y-16204293D01*
X13612729Y-16204293D02*
X13612729Y-16156674D01*
X13612729Y-16156674D02*
X13622253Y-16118579D01*
X13622253Y-16118579D02*
X13631777Y-16099531D01*
X13631777Y-16099531D02*
X13641301Y-16090008D01*
X13641301Y-16090008D02*
X13660348Y-16080484D01*
X13898444Y-16147150D02*
X13898444Y-16280484D01*
X13850825Y-16070960D02*
X13803206Y-16213817D01*
X13803206Y-16213817D02*
X13927015Y-16213817D01*
X13984158Y-16080484D02*
X14107967Y-16080484D01*
X14107967Y-16080484D02*
X14041301Y-16156674D01*
X14041301Y-16156674D02*
X14069872Y-16156674D01*
X14069872Y-16156674D02*
X14088920Y-16166198D01*
X14088920Y-16166198D02*
X14098444Y-16175722D01*
X14098444Y-16175722D02*
X14107967Y-16194769D01*
X14107967Y-16194769D02*
X14107967Y-16242388D01*
X14107967Y-16242388D02*
X14098444Y-16261436D01*
X14098444Y-16261436D02*
X14088920Y-16270960D01*
X14088920Y-16270960D02*
X14069872Y-16280484D01*
X14069872Y-16280484D02*
X14012729Y-16280484D01*
X14012729Y-16280484D02*
X13993682Y-16270960D01*
X13993682Y-16270960D02*
X13984158Y-16261436D01*
X14174634Y-16080484D02*
X14298444Y-16080484D01*
X14298444Y-16080484D02*
X14231777Y-16156674D01*
X14231777Y-16156674D02*
X14260348Y-16156674D01*
X14260348Y-16156674D02*
X14279396Y-16166198D01*
X14279396Y-16166198D02*
X14288920Y-16175722D01*
X14288920Y-16175722D02*
X14298444Y-16194769D01*
X14298444Y-16194769D02*
X14298444Y-16242388D01*
X14298444Y-16242388D02*
X14288920Y-16261436D01*
X14288920Y-16261436D02*
X14279396Y-16270960D01*
X14279396Y-16270960D02*
X14260348Y-16280484D01*
X14260348Y-16280484D02*
X14203206Y-16280484D01*
X14203206Y-16280484D02*
X14184158Y-16270960D01*
X14184158Y-16270960D02*
X14174634Y-16261436D01*
X14374634Y-16080484D02*
X14374634Y-16118579D01*
X14450825Y-16080484D02*
X14450825Y-16118579D01*
X14746063Y-16356674D02*
X14736539Y-16347150D01*
X14736539Y-16347150D02*
X14717491Y-16318579D01*
X14717491Y-16318579D02*
X14707968Y-16299531D01*
X14707968Y-16299531D02*
X14698444Y-16270960D01*
X14698444Y-16270960D02*
X14688920Y-16223341D01*
X14688920Y-16223341D02*
X14688920Y-16185246D01*
X14688920Y-16185246D02*
X14698444Y-16137627D01*
X14698444Y-16137627D02*
X14707968Y-16109055D01*
X14707968Y-16109055D02*
X14717491Y-16090008D01*
X14717491Y-16090008D02*
X14736539Y-16061436D01*
X14736539Y-16061436D02*
X14746063Y-16051912D01*
X14812729Y-16099531D02*
X14822253Y-16090008D01*
X14822253Y-16090008D02*
X14841301Y-16080484D01*
X14841301Y-16080484D02*
X14888920Y-16080484D01*
X14888920Y-16080484D02*
X14907968Y-16090008D01*
X14907968Y-16090008D02*
X14917491Y-16099531D01*
X14917491Y-16099531D02*
X14927015Y-16118579D01*
X14927015Y-16118579D02*
X14927015Y-16137627D01*
X14927015Y-16137627D02*
X14917491Y-16166198D01*
X14917491Y-16166198D02*
X14803206Y-16280484D01*
X14803206Y-16280484D02*
X14927015Y-16280484D01*
X15165110Y-16280484D02*
X15165110Y-16080484D01*
X15250825Y-16280484D02*
X15250825Y-16175722D01*
X15250825Y-16175722D02*
X15241301Y-16156674D01*
X15241301Y-16156674D02*
X15222253Y-16147150D01*
X15222253Y-16147150D02*
X15193682Y-16147150D01*
X15193682Y-16147150D02*
X15174634Y-16156674D01*
X15174634Y-16156674D02*
X15165110Y-16166198D01*
X15374634Y-16280484D02*
X15355587Y-16270960D01*
X15355587Y-16270960D02*
X15346063Y-16261436D01*
X15346063Y-16261436D02*
X15336539Y-16242388D01*
X15336539Y-16242388D02*
X15336539Y-16185246D01*
X15336539Y-16185246D02*
X15346063Y-16166198D01*
X15346063Y-16166198D02*
X15355587Y-16156674D01*
X15355587Y-16156674D02*
X15374634Y-16147150D01*
X15374634Y-16147150D02*
X15403206Y-16147150D01*
X15403206Y-16147150D02*
X15422253Y-16156674D01*
X15422253Y-16156674D02*
X15431777Y-16166198D01*
X15431777Y-16166198D02*
X15441301Y-16185246D01*
X15441301Y-16185246D02*
X15441301Y-16242388D01*
X15441301Y-16242388D02*
X15431777Y-16261436D01*
X15431777Y-16261436D02*
X15422253Y-16270960D01*
X15422253Y-16270960D02*
X15403206Y-16280484D01*
X15403206Y-16280484D02*
X15374634Y-16280484D01*
X15555587Y-16280484D02*
X15536539Y-16270960D01*
X15536539Y-16270960D02*
X15527015Y-16251912D01*
X15527015Y-16251912D02*
X15527015Y-16080484D01*
X15707968Y-16270960D02*
X15688920Y-16280484D01*
X15688920Y-16280484D02*
X15650825Y-16280484D01*
X15650825Y-16280484D02*
X15631777Y-16270960D01*
X15631777Y-16270960D02*
X15622253Y-16251912D01*
X15622253Y-16251912D02*
X15622253Y-16175722D01*
X15622253Y-16175722D02*
X15631777Y-16156674D01*
X15631777Y-16156674D02*
X15650825Y-16147150D01*
X15650825Y-16147150D02*
X15688920Y-16147150D01*
X15688920Y-16147150D02*
X15707968Y-16156674D01*
X15707968Y-16156674D02*
X15717491Y-16175722D01*
X15717491Y-16175722D02*
X15717491Y-16194769D01*
X15717491Y-16194769D02*
X15622253Y-16213817D01*
X15793682Y-16270960D02*
X15812730Y-16280484D01*
X15812730Y-16280484D02*
X15850825Y-16280484D01*
X15850825Y-16280484D02*
X15869872Y-16270960D01*
X15869872Y-16270960D02*
X15879396Y-16251912D01*
X15879396Y-16251912D02*
X15879396Y-16242388D01*
X15879396Y-16242388D02*
X15869872Y-16223341D01*
X15869872Y-16223341D02*
X15850825Y-16213817D01*
X15850825Y-16213817D02*
X15822253Y-16213817D01*
X15822253Y-16213817D02*
X15803206Y-16204293D01*
X15803206Y-16204293D02*
X15793682Y-16185246D01*
X15793682Y-16185246D02*
X15793682Y-16175722D01*
X15793682Y-16175722D02*
X15803206Y-16156674D01*
X15803206Y-16156674D02*
X15822253Y-16147150D01*
X15822253Y-16147150D02*
X15850825Y-16147150D01*
X15850825Y-16147150D02*
X15869872Y-16156674D01*
X15946063Y-16356674D02*
X15955587Y-16347150D01*
X15955587Y-16347150D02*
X15974634Y-16318579D01*
X15974634Y-16318579D02*
X15984158Y-16299531D01*
X15984158Y-16299531D02*
X15993682Y-16270960D01*
X15993682Y-16270960D02*
X16003206Y-16223341D01*
X16003206Y-16223341D02*
X16003206Y-16185246D01*
X16003206Y-16185246D02*
X15993682Y-16137627D01*
X15993682Y-16137627D02*
X15984158Y-16109055D01*
X15984158Y-16109055D02*
X15974634Y-16090008D01*
X15974634Y-16090008D02*
X15955587Y-16061436D01*
X15955587Y-16061436D02*
X15946063Y-16051912D01*
X10971000Y-16353000D02*
X11171000Y-16553000D01*
X11171000Y-16353000D02*
X10971000Y-16553000D01*
X11071000Y-16353000D02*
X11071000Y-16553000D01*
X10971000Y-16453000D02*
X11171000Y-16453000D01*
X11422253Y-16363531D02*
X11431777Y-16354008D01*
X11431777Y-16354008D02*
X11450824Y-16344484D01*
X11450824Y-16344484D02*
X11498443Y-16344484D01*
X11498443Y-16344484D02*
X11517491Y-16354008D01*
X11517491Y-16354008D02*
X11527015Y-16363531D01*
X11527015Y-16363531D02*
X11536539Y-16382579D01*
X11536539Y-16382579D02*
X11536539Y-16401627D01*
X11536539Y-16401627D02*
X11527015Y-16430198D01*
X11527015Y-16430198D02*
X11412729Y-16544484D01*
X11412729Y-16544484D02*
X11536539Y-16544484D01*
X11622253Y-16525436D02*
X11631777Y-16534960D01*
X11631777Y-16534960D02*
X11622253Y-16544484D01*
X11622253Y-16544484D02*
X11612729Y-16534960D01*
X11612729Y-16534960D02*
X11622253Y-16525436D01*
X11622253Y-16525436D02*
X11622253Y-16544484D01*
X11755586Y-16344484D02*
X11774634Y-16344484D01*
X11774634Y-16344484D02*
X11793682Y-16354008D01*
X11793682Y-16354008D02*
X11803205Y-16363531D01*
X11803205Y-16363531D02*
X11812729Y-16382579D01*
X11812729Y-16382579D02*
X11822253Y-16420674D01*
X11822253Y-16420674D02*
X11822253Y-16468293D01*
X11822253Y-16468293D02*
X11812729Y-16506388D01*
X11812729Y-16506388D02*
X11803205Y-16525436D01*
X11803205Y-16525436D02*
X11793682Y-16534960D01*
X11793682Y-16534960D02*
X11774634Y-16544484D01*
X11774634Y-16544484D02*
X11755586Y-16544484D01*
X11755586Y-16544484D02*
X11736539Y-16534960D01*
X11736539Y-16534960D02*
X11727015Y-16525436D01*
X11727015Y-16525436D02*
X11717491Y-16506388D01*
X11717491Y-16506388D02*
X11707967Y-16468293D01*
X11707967Y-16468293D02*
X11707967Y-16420674D01*
X11707967Y-16420674D02*
X11717491Y-16382579D01*
X11717491Y-16382579D02*
X11727015Y-16363531D01*
X11727015Y-16363531D02*
X11736539Y-16354008D01*
X11736539Y-16354008D02*
X11755586Y-16344484D01*
X11946062Y-16344484D02*
X11965110Y-16344484D01*
X11965110Y-16344484D02*
X11984158Y-16354008D01*
X11984158Y-16354008D02*
X11993682Y-16363531D01*
X11993682Y-16363531D02*
X12003205Y-16382579D01*
X12003205Y-16382579D02*
X12012729Y-16420674D01*
X12012729Y-16420674D02*
X12012729Y-16468293D01*
X12012729Y-16468293D02*
X12003205Y-16506388D01*
X12003205Y-16506388D02*
X11993682Y-16525436D01*
X11993682Y-16525436D02*
X11984158Y-16534960D01*
X11984158Y-16534960D02*
X11965110Y-16544484D01*
X11965110Y-16544484D02*
X11946062Y-16544484D01*
X11946062Y-16544484D02*
X11927015Y-16534960D01*
X11927015Y-16534960D02*
X11917491Y-16525436D01*
X11917491Y-16525436D02*
X11907967Y-16506388D01*
X11907967Y-16506388D02*
X11898443Y-16468293D01*
X11898443Y-16468293D02*
X11898443Y-16420674D01*
X11898443Y-16420674D02*
X11907967Y-16382579D01*
X11907967Y-16382579D02*
X11917491Y-16363531D01*
X11917491Y-16363531D02*
X11927015Y-16354008D01*
X11927015Y-16354008D02*
X11946062Y-16344484D01*
X12136539Y-16344484D02*
X12155586Y-16344484D01*
X12155586Y-16344484D02*
X12174634Y-16354008D01*
X12174634Y-16354008D02*
X12184158Y-16363531D01*
X12184158Y-16363531D02*
X12193682Y-16382579D01*
X12193682Y-16382579D02*
X12203205Y-16420674D01*
X12203205Y-16420674D02*
X12203205Y-16468293D01*
X12203205Y-16468293D02*
X12193682Y-16506388D01*
X12193682Y-16506388D02*
X12184158Y-16525436D01*
X12184158Y-16525436D02*
X12174634Y-16534960D01*
X12174634Y-16534960D02*
X12155586Y-16544484D01*
X12155586Y-16544484D02*
X12136539Y-16544484D01*
X12136539Y-16544484D02*
X12117491Y-16534960D01*
X12117491Y-16534960D02*
X12107967Y-16525436D01*
X12107967Y-16525436D02*
X12098443Y-16506388D01*
X12098443Y-16506388D02*
X12088920Y-16468293D01*
X12088920Y-16468293D02*
X12088920Y-16420674D01*
X12088920Y-16420674D02*
X12098443Y-16382579D01*
X12098443Y-16382579D02*
X12107967Y-16363531D01*
X12107967Y-16363531D02*
X12117491Y-16354008D01*
X12117491Y-16354008D02*
X12136539Y-16344484D01*
X12288920Y-16544484D02*
X12288920Y-16411150D01*
X12288920Y-16430198D02*
X12298443Y-16420674D01*
X12298443Y-16420674D02*
X12317491Y-16411150D01*
X12317491Y-16411150D02*
X12346063Y-16411150D01*
X12346063Y-16411150D02*
X12365110Y-16420674D01*
X12365110Y-16420674D02*
X12374634Y-16439722D01*
X12374634Y-16439722D02*
X12374634Y-16544484D01*
X12374634Y-16439722D02*
X12384158Y-16420674D01*
X12384158Y-16420674D02*
X12403205Y-16411150D01*
X12403205Y-16411150D02*
X12431777Y-16411150D01*
X12431777Y-16411150D02*
X12450824Y-16420674D01*
X12450824Y-16420674D02*
X12460348Y-16439722D01*
X12460348Y-16439722D02*
X12460348Y-16544484D01*
X12555586Y-16544484D02*
X12555586Y-16411150D01*
X12555586Y-16430198D02*
X12565110Y-16420674D01*
X12565110Y-16420674D02*
X12584158Y-16411150D01*
X12584158Y-16411150D02*
X12612729Y-16411150D01*
X12612729Y-16411150D02*
X12631777Y-16420674D01*
X12631777Y-16420674D02*
X12641301Y-16439722D01*
X12641301Y-16439722D02*
X12641301Y-16544484D01*
X12641301Y-16439722D02*
X12650824Y-16420674D01*
X12650824Y-16420674D02*
X12669872Y-16411150D01*
X12669872Y-16411150D02*
X12698443Y-16411150D01*
X12698443Y-16411150D02*
X12717491Y-16420674D01*
X12717491Y-16420674D02*
X12727015Y-16439722D01*
X12727015Y-16439722D02*
X12727015Y-16544484D01*
X13117491Y-16334960D02*
X12946063Y-16592103D01*
X13374634Y-16344484D02*
X13393682Y-16344484D01*
X13393682Y-16344484D02*
X13412729Y-16354008D01*
X13412729Y-16354008D02*
X13422253Y-16363531D01*
X13422253Y-16363531D02*
X13431777Y-16382579D01*
X13431777Y-16382579D02*
X13441301Y-16420674D01*
X13441301Y-16420674D02*
X13441301Y-16468293D01*
X13441301Y-16468293D02*
X13431777Y-16506388D01*
X13431777Y-16506388D02*
X13422253Y-16525436D01*
X13422253Y-16525436D02*
X13412729Y-16534960D01*
X13412729Y-16534960D02*
X13393682Y-16544484D01*
X13393682Y-16544484D02*
X13374634Y-16544484D01*
X13374634Y-16544484D02*
X13355586Y-16534960D01*
X13355586Y-16534960D02*
X13346063Y-16525436D01*
X13346063Y-16525436D02*
X13336539Y-16506388D01*
X13336539Y-16506388D02*
X13327015Y-16468293D01*
X13327015Y-16468293D02*
X13327015Y-16420674D01*
X13327015Y-16420674D02*
X13336539Y-16382579D01*
X13336539Y-16382579D02*
X13346063Y-16363531D01*
X13346063Y-16363531D02*
X13355586Y-16354008D01*
X13355586Y-16354008D02*
X13374634Y-16344484D01*
X13527015Y-16525436D02*
X13536539Y-16534960D01*
X13536539Y-16534960D02*
X13527015Y-16544484D01*
X13527015Y-16544484D02*
X13517491Y-16534960D01*
X13517491Y-16534960D02*
X13527015Y-16525436D01*
X13527015Y-16525436D02*
X13527015Y-16544484D01*
X13660348Y-16344484D02*
X13679396Y-16344484D01*
X13679396Y-16344484D02*
X13698444Y-16354008D01*
X13698444Y-16354008D02*
X13707967Y-16363531D01*
X13707967Y-16363531D02*
X13717491Y-16382579D01*
X13717491Y-16382579D02*
X13727015Y-16420674D01*
X13727015Y-16420674D02*
X13727015Y-16468293D01*
X13727015Y-16468293D02*
X13717491Y-16506388D01*
X13717491Y-16506388D02*
X13707967Y-16525436D01*
X13707967Y-16525436D02*
X13698444Y-16534960D01*
X13698444Y-16534960D02*
X13679396Y-16544484D01*
X13679396Y-16544484D02*
X13660348Y-16544484D01*
X13660348Y-16544484D02*
X13641301Y-16534960D01*
X13641301Y-16534960D02*
X13631777Y-16525436D01*
X13631777Y-16525436D02*
X13622253Y-16506388D01*
X13622253Y-16506388D02*
X13612729Y-16468293D01*
X13612729Y-16468293D02*
X13612729Y-16420674D01*
X13612729Y-16420674D02*
X13622253Y-16382579D01*
X13622253Y-16382579D02*
X13631777Y-16363531D01*
X13631777Y-16363531D02*
X13641301Y-16354008D01*
X13641301Y-16354008D02*
X13660348Y-16344484D01*
X13793682Y-16344484D02*
X13927015Y-16344484D01*
X13927015Y-16344484D02*
X13841301Y-16544484D01*
X14031777Y-16430198D02*
X14012729Y-16420674D01*
X14012729Y-16420674D02*
X14003206Y-16411150D01*
X14003206Y-16411150D02*
X13993682Y-16392103D01*
X13993682Y-16392103D02*
X13993682Y-16382579D01*
X13993682Y-16382579D02*
X14003206Y-16363531D01*
X14003206Y-16363531D02*
X14012729Y-16354008D01*
X14012729Y-16354008D02*
X14031777Y-16344484D01*
X14031777Y-16344484D02*
X14069872Y-16344484D01*
X14069872Y-16344484D02*
X14088920Y-16354008D01*
X14088920Y-16354008D02*
X14098444Y-16363531D01*
X14098444Y-16363531D02*
X14107967Y-16382579D01*
X14107967Y-16382579D02*
X14107967Y-16392103D01*
X14107967Y-16392103D02*
X14098444Y-16411150D01*
X14098444Y-16411150D02*
X14088920Y-16420674D01*
X14088920Y-16420674D02*
X14069872Y-16430198D01*
X14069872Y-16430198D02*
X14031777Y-16430198D01*
X14031777Y-16430198D02*
X14012729Y-16439722D01*
X14012729Y-16439722D02*
X14003206Y-16449246D01*
X14003206Y-16449246D02*
X13993682Y-16468293D01*
X13993682Y-16468293D02*
X13993682Y-16506388D01*
X13993682Y-16506388D02*
X14003206Y-16525436D01*
X14003206Y-16525436D02*
X14012729Y-16534960D01*
X14012729Y-16534960D02*
X14031777Y-16544484D01*
X14031777Y-16544484D02*
X14069872Y-16544484D01*
X14069872Y-16544484D02*
X14088920Y-16534960D01*
X14088920Y-16534960D02*
X14098444Y-16525436D01*
X14098444Y-16525436D02*
X14107967Y-16506388D01*
X14107967Y-16506388D02*
X14107967Y-16468293D01*
X14107967Y-16468293D02*
X14098444Y-16449246D01*
X14098444Y-16449246D02*
X14088920Y-16439722D01*
X14088920Y-16439722D02*
X14069872Y-16430198D01*
X14174634Y-16344484D02*
X14307967Y-16344484D01*
X14307967Y-16344484D02*
X14222253Y-16544484D01*
X14374634Y-16344484D02*
X14374634Y-16382579D01*
X14450825Y-16344484D02*
X14450825Y-16382579D01*
X14746063Y-16620674D02*
X14736539Y-16611150D01*
X14736539Y-16611150D02*
X14717491Y-16582579D01*
X14717491Y-16582579D02*
X14707968Y-16563531D01*
X14707968Y-16563531D02*
X14698444Y-16534960D01*
X14698444Y-16534960D02*
X14688920Y-16487341D01*
X14688920Y-16487341D02*
X14688920Y-16449246D01*
X14688920Y-16449246D02*
X14698444Y-16401627D01*
X14698444Y-16401627D02*
X14707968Y-16373055D01*
X14707968Y-16373055D02*
X14717491Y-16354008D01*
X14717491Y-16354008D02*
X14736539Y-16325436D01*
X14736539Y-16325436D02*
X14746063Y-16315912D01*
X14860348Y-16344484D02*
X14879396Y-16344484D01*
X14879396Y-16344484D02*
X14898444Y-16354008D01*
X14898444Y-16354008D02*
X14907968Y-16363531D01*
X14907968Y-16363531D02*
X14917491Y-16382579D01*
X14917491Y-16382579D02*
X14927015Y-16420674D01*
X14927015Y-16420674D02*
X14927015Y-16468293D01*
X14927015Y-16468293D02*
X14917491Y-16506388D01*
X14917491Y-16506388D02*
X14907968Y-16525436D01*
X14907968Y-16525436D02*
X14898444Y-16534960D01*
X14898444Y-16534960D02*
X14879396Y-16544484D01*
X14879396Y-16544484D02*
X14860348Y-16544484D01*
X14860348Y-16544484D02*
X14841301Y-16534960D01*
X14841301Y-16534960D02*
X14831777Y-16525436D01*
X14831777Y-16525436D02*
X14822253Y-16506388D01*
X14822253Y-16506388D02*
X14812729Y-16468293D01*
X14812729Y-16468293D02*
X14812729Y-16420674D01*
X14812729Y-16420674D02*
X14822253Y-16382579D01*
X14822253Y-16382579D02*
X14831777Y-16363531D01*
X14831777Y-16363531D02*
X14841301Y-16354008D01*
X14841301Y-16354008D02*
X14860348Y-16344484D01*
X15165110Y-16544484D02*
X15165110Y-16344484D01*
X15250825Y-16544484D02*
X15250825Y-16439722D01*
X15250825Y-16439722D02*
X15241301Y-16420674D01*
X15241301Y-16420674D02*
X15222253Y-16411150D01*
X15222253Y-16411150D02*
X15193682Y-16411150D01*
X15193682Y-16411150D02*
X15174634Y-16420674D01*
X15174634Y-16420674D02*
X15165110Y-16430198D01*
X15374634Y-16544484D02*
X15355587Y-16534960D01*
X15355587Y-16534960D02*
X15346063Y-16525436D01*
X15346063Y-16525436D02*
X15336539Y-16506388D01*
X15336539Y-16506388D02*
X15336539Y-16449246D01*
X15336539Y-16449246D02*
X15346063Y-16430198D01*
X15346063Y-16430198D02*
X15355587Y-16420674D01*
X15355587Y-16420674D02*
X15374634Y-16411150D01*
X15374634Y-16411150D02*
X15403206Y-16411150D01*
X15403206Y-16411150D02*
X15422253Y-16420674D01*
X15422253Y-16420674D02*
X15431777Y-16430198D01*
X15431777Y-16430198D02*
X15441301Y-16449246D01*
X15441301Y-16449246D02*
X15441301Y-16506388D01*
X15441301Y-16506388D02*
X15431777Y-16525436D01*
X15431777Y-16525436D02*
X15422253Y-16534960D01*
X15422253Y-16534960D02*
X15403206Y-16544484D01*
X15403206Y-16544484D02*
X15374634Y-16544484D01*
X15555587Y-16544484D02*
X15536539Y-16534960D01*
X15536539Y-16534960D02*
X15527015Y-16515912D01*
X15527015Y-16515912D02*
X15527015Y-16344484D01*
X15707968Y-16534960D02*
X15688920Y-16544484D01*
X15688920Y-16544484D02*
X15650825Y-16544484D01*
X15650825Y-16544484D02*
X15631777Y-16534960D01*
X15631777Y-16534960D02*
X15622253Y-16515912D01*
X15622253Y-16515912D02*
X15622253Y-16439722D01*
X15622253Y-16439722D02*
X15631777Y-16420674D01*
X15631777Y-16420674D02*
X15650825Y-16411150D01*
X15650825Y-16411150D02*
X15688920Y-16411150D01*
X15688920Y-16411150D02*
X15707968Y-16420674D01*
X15707968Y-16420674D02*
X15717491Y-16439722D01*
X15717491Y-16439722D02*
X15717491Y-16458769D01*
X15717491Y-16458769D02*
X15622253Y-16477817D01*
X15793682Y-16534960D02*
X15812730Y-16544484D01*
X15812730Y-16544484D02*
X15850825Y-16544484D01*
X15850825Y-16544484D02*
X15869872Y-16534960D01*
X15869872Y-16534960D02*
X15879396Y-16515912D01*
X15879396Y-16515912D02*
X15879396Y-16506388D01*
X15879396Y-16506388D02*
X15869872Y-16487341D01*
X15869872Y-16487341D02*
X15850825Y-16477817D01*
X15850825Y-16477817D02*
X15822253Y-16477817D01*
X15822253Y-16477817D02*
X15803206Y-16468293D01*
X15803206Y-16468293D02*
X15793682Y-16449246D01*
X15793682Y-16449246D02*
X15793682Y-16439722D01*
X15793682Y-16439722D02*
X15803206Y-16420674D01*
X15803206Y-16420674D02*
X15822253Y-16411150D01*
X15822253Y-16411150D02*
X15850825Y-16411150D01*
X15850825Y-16411150D02*
X15869872Y-16420674D01*
X16117492Y-16468293D02*
X16269873Y-16468293D01*
X16193682Y-16544484D02*
X16193682Y-16392103D01*
X16603206Y-16411150D02*
X16603206Y-16544484D01*
X16555587Y-16334960D02*
X16507968Y-16477817D01*
X16507968Y-16477817D02*
X16631777Y-16477817D01*
X16850825Y-16534960D02*
X16869873Y-16544484D01*
X16869873Y-16544484D02*
X16907968Y-16544484D01*
X16907968Y-16544484D02*
X16927016Y-16534960D01*
X16927016Y-16534960D02*
X16936539Y-16515912D01*
X16936539Y-16515912D02*
X16936539Y-16506388D01*
X16936539Y-16506388D02*
X16927016Y-16487341D01*
X16927016Y-16487341D02*
X16907968Y-16477817D01*
X16907968Y-16477817D02*
X16879396Y-16477817D01*
X16879396Y-16477817D02*
X16860349Y-16468293D01*
X16860349Y-16468293D02*
X16850825Y-16449246D01*
X16850825Y-16449246D02*
X16850825Y-16439722D01*
X16850825Y-16439722D02*
X16860349Y-16420674D01*
X16860349Y-16420674D02*
X16879396Y-16411150D01*
X16879396Y-16411150D02*
X16907968Y-16411150D01*
X16907968Y-16411150D02*
X16927016Y-16420674D01*
X17050825Y-16544484D02*
X17031777Y-16534960D01*
X17031777Y-16534960D02*
X17022254Y-16515912D01*
X17022254Y-16515912D02*
X17022254Y-16344484D01*
X17155587Y-16544484D02*
X17136539Y-16534960D01*
X17136539Y-16534960D02*
X17127016Y-16525436D01*
X17127016Y-16525436D02*
X17117492Y-16506388D01*
X17117492Y-16506388D02*
X17117492Y-16449246D01*
X17117492Y-16449246D02*
X17127016Y-16430198D01*
X17127016Y-16430198D02*
X17136539Y-16420674D01*
X17136539Y-16420674D02*
X17155587Y-16411150D01*
X17155587Y-16411150D02*
X17184158Y-16411150D01*
X17184158Y-16411150D02*
X17203206Y-16420674D01*
X17203206Y-16420674D02*
X17212730Y-16430198D01*
X17212730Y-16430198D02*
X17222254Y-16449246D01*
X17222254Y-16449246D02*
X17222254Y-16506388D01*
X17222254Y-16506388D02*
X17212730Y-16525436D01*
X17212730Y-16525436D02*
X17203206Y-16534960D01*
X17203206Y-16534960D02*
X17184158Y-16544484D01*
X17184158Y-16544484D02*
X17155587Y-16544484D01*
X17279397Y-16411150D02*
X17355587Y-16411150D01*
X17307968Y-16344484D02*
X17307968Y-16515912D01*
X17307968Y-16515912D02*
X17317492Y-16534960D01*
X17317492Y-16534960D02*
X17336539Y-16544484D01*
X17336539Y-16544484D02*
X17355587Y-16544484D01*
X17412730Y-16534960D02*
X17431777Y-16544484D01*
X17431777Y-16544484D02*
X17469873Y-16544484D01*
X17469873Y-16544484D02*
X17488920Y-16534960D01*
X17488920Y-16534960D02*
X17498444Y-16515912D01*
X17498444Y-16515912D02*
X17498444Y-16506388D01*
X17498444Y-16506388D02*
X17488920Y-16487341D01*
X17488920Y-16487341D02*
X17469873Y-16477817D01*
X17469873Y-16477817D02*
X17441301Y-16477817D01*
X17441301Y-16477817D02*
X17422254Y-16468293D01*
X17422254Y-16468293D02*
X17412730Y-16449246D01*
X17412730Y-16449246D02*
X17412730Y-16439722D01*
X17412730Y-16439722D02*
X17422254Y-16420674D01*
X17422254Y-16420674D02*
X17441301Y-16411150D01*
X17441301Y-16411150D02*
X17469873Y-16411150D01*
X17469873Y-16411150D02*
X17488920Y-16420674D01*
X17565111Y-16620674D02*
X17574635Y-16611150D01*
X17574635Y-16611150D02*
X17593682Y-16582579D01*
X17593682Y-16582579D02*
X17603206Y-16563531D01*
X17603206Y-16563531D02*
X17612730Y-16534960D01*
X17612730Y-16534960D02*
X17622254Y-16487341D01*
X17622254Y-16487341D02*
X17622254Y-16449246D01*
X17622254Y-16449246D02*
X17612730Y-16401627D01*
X17612730Y-16401627D02*
X17603206Y-16373055D01*
X17603206Y-16373055D02*
X17593682Y-16354008D01*
X17593682Y-16354008D02*
X17574635Y-16325436D01*
X17574635Y-16325436D02*
X17565111Y-16315912D01*
M02*
