M48
; DRILL file {KiCad 7.0.8} date Mon 13 Nov 2023 04:02:01 PM CET
; FORMAT={-:-/ absolute / metric / decimal}
; #@! TF.CreationDate,2023-11-13T16:02:01+01:00
; #@! TF.GenerationSoftware,Kicad,Pcbnew,7.0.8
; #@! TF.FileFunction,Plated,1,2,PTH
FMAT,2
METRIC
; #@! TA.AperFunction,Plated,PTH,ViaDrill
T1C0.400
; #@! TA.AperFunction,Plated,PTH,ComponentDrill
T2C0.800
; #@! TA.AperFunction,Plated,PTH,ComponentDrill
T3C0.900
; #@! TA.AperFunction,Plated,PTH,ComponentDrill
T4C0.950
; #@! TA.AperFunction,Plated,PTH,ComponentDrill
T5C1.000
; #@! TA.AperFunction,Plated,PTH,ComponentDrill
T6C2.000
%
G90
G05
T1
X123.952Y-101.6
X149.86Y-77.47
X151.765Y-98.425
X154.305Y-104.14
X156.21Y-114.3
X157.988Y-86.487
X158.75Y-84.6
X159.385Y-116.205
X171.45Y-110.49
T2
X117.922Y-110.78
X119.192Y-91.15
X120.838Y-117.82
X122.108Y-84.11
X133.34Y-105.44
X133.34Y-110.44
X133.34Y-113.02
X133.34Y-120.64
X133.35Y-86.4
X133.35Y-91.4
X133.35Y-93.98
X133.35Y-101.6
X134.91Y-131.892
X136.18Y-70.038
X137.16Y-105.41
X137.16Y-107.95
X137.16Y-110.49
X137.16Y-113.03
X137.17Y-88.91
X137.17Y-91.45
X137.17Y-93.99
X137.17Y-96.53
X138.47Y-101.6
X138.51Y-85.09
X141.95Y-134.808
X143.22Y-67.122
X143.47Y-101.6
X143.51Y-85.09
X144.78Y-105.41
X144.78Y-107.95
X144.78Y-110.49
X144.78Y-113.03
X144.79Y-88.91
X144.79Y-91.45
X144.79Y-93.99
X144.79Y-96.53
X148.59Y-91.48
X148.59Y-96.48
X148.59Y-107.99
X148.59Y-112.99
X157.48Y-92.71
X157.48Y-95.25
X157.48Y-97.79
X157.48Y-100.33
X157.48Y-102.87
X157.48Y-105.41
X157.48Y-107.95
X157.48Y-110.49
X160.06Y-88.9
X161.925Y-135.89
X164.12Y-68.392
X165.06Y-88.9
X167.64Y-92.71
X167.64Y-95.25
X167.64Y-97.79
X167.64Y-100.33
X167.64Y-102.87
X167.64Y-105.41
X167.64Y-107.95
X167.64Y-110.49
X168.965Y-132.974
X171.16Y-71.308
X182.692Y-120.36
X184.15Y-86.36
X185.608Y-113.32
X187.066Y-93.4
T3
X117.4Y-99.06
X117.4Y-101.6
X125.855Y-124.553
X127.651Y-76.851
X127.651Y-126.349
X129.447Y-75.055
X149.86Y-136.6
X152.4Y-66.6
X152.4Y-136.6
X154.94Y-66.6
X175.353Y-128.145
X177.149Y-76.851
X177.149Y-126.349
X178.945Y-78.647
X187.4Y-101.6
X187.4Y-104.14
T4
X162.4Y-84.6
X162.52Y-118.6
X164.9Y-84.6
X165.02Y-118.6
X167.4Y-84.6
X167.52Y-118.6
X169.9Y-84.6
X170.02Y-118.6
T5
X127.635Y-90.805
X127.635Y-93.345
X127.635Y-95.885
X127.635Y-107.95
X127.635Y-110.49
X127.635Y-113.03
X149.9Y-88.6
X149.9Y-128.6
X152.4Y-88.6
X152.4Y-128.6
X154.9Y-88.6
X154.9Y-128.6
X171.98Y-92.96
X171.98Y-95.5
X171.98Y-98.04
X177.909Y-86.469
X179.705Y-88.265
T6
X147.7Y-81.5G85X147.7Y-81.7
G05
X147.7Y-121.5G85X147.7Y-121.7
G05
X157.1Y-81.5G85X157.1Y-81.7
G05
X157.1Y-121.5G85X157.1Y-121.7
G05
T0
M30
