G04 #@! TF.GenerationSoftware,KiCad,Pcbnew,7.0.9*
G04 #@! TF.CreationDate,2023-12-01T15:39:20+01:00*
G04 #@! TF.ProjectId,christmas,63687269-7374-46d6-9173-2e6b69636164,rev?*
G04 #@! TF.SameCoordinates,Original*
G04 #@! TF.FileFunction,Legend,Top*
G04 #@! TF.FilePolarity,Positive*
%FSLAX46Y46*%
G04 Gerber Fmt 4.6, Leading zero omitted, Abs format (unit mm)*
G04 Created by KiCad (PCBNEW 7.0.9) date 2023-12-01 15:39:20*
%MOMM*%
%LPD*%
G01*
G04 APERTURE LIST*
G04 Aperture macros list*
%AMRoundRect*
0 Rectangle with rounded corners*
0 $1 Rounding radius*
0 $2 $3 $4 $5 $6 $7 $8 $9 X,Y pos of 4 corners*
0 Add a 4 corners polygon primitive as box body*
4,1,4,$2,$3,$4,$5,$6,$7,$8,$9,$2,$3,0*
0 Add four circle primitives for the rounded corners*
1,1,$1+$1,$2,$3*
1,1,$1+$1,$4,$5*
1,1,$1+$1,$6,$7*
1,1,$1+$1,$8,$9*
0 Add four rect primitives between the rounded corners*
20,1,$1+$1,$2,$3,$4,$5,0*
20,1,$1+$1,$4,$5,$6,$7,0*
20,1,$1+$1,$6,$7,$8,$9,0*
20,1,$1+$1,$8,$9,$2,$3,0*%
%AMHorizOval*
0 Thick line with rounded ends*
0 $1 width*
0 $2 $3 position (X,Y) of the first rounded end (center of the circle)*
0 $4 $5 position (X,Y) of the second rounded end (center of the circle)*
0 Add line between two ends*
20,1,$1,$2,$3,$4,$5,0*
0 Add two circle primitives to create the rounded ends*
1,1,$1,$2,$3*
1,1,$1,$4,$5*%
%AMRotRect*
0 Rectangle, with rotation*
0 The origin of the aperture is its center*
0 $1 length*
0 $2 width*
0 $3 Rotation angle, in degrees counterclockwise*
0 Add horizontal line*
21,1,$1,$2,0,0,$3*%
G04 Aperture macros list end*
%ADD10C,0.150000*%
%ADD11C,0.200000*%
%ADD12C,0.152400*%
%ADD13C,0.120000*%
%ADD14C,0.381000*%
%ADD15R,2.200000X2.200000*%
%ADD16O,2.200000X2.200000*%
%ADD17R,1.800000X1.800000*%
%ADD18C,1.800000*%
%ADD19R,2.400000X1.600000*%
%ADD20O,2.400000X1.600000*%
%ADD21C,1.600000*%
%ADD22O,1.600000X1.600000*%
%ADD23HorizOval,1.600000X0.000000X0.000000X0.000000X0.000000X0*%
%ADD24HorizOval,1.600000X0.000000X0.000000X0.000000X0.000000X0*%
%ADD25HorizOval,1.600000X0.000000X0.000000X0.000000X0.000000X0*%
%ADD26HorizOval,1.600000X0.000000X0.000000X0.000000X0.000000X0*%
%ADD27C,2.200000*%
%ADD28HorizOval,1.600000X0.000000X0.000000X0.000000X0.000000X0*%
%ADD29HorizOval,1.600000X0.000000X0.000000X0.000000X0.000000X0*%
%ADD30R,1.700000X1.700000*%
%ADD31O,1.700000X1.700000*%
%ADD32R,3.000000X3.200000*%
%ADD33C,1.750000*%
%ADD34RotRect,1.800000X1.800000X315.000000*%
%ADD35HorizOval,1.600000X0.000000X0.000000X0.000000X0.000000X0*%
%ADD36RotRect,1.800000X1.800000X135.000000*%
%ADD37R,1.600000X1.600000*%
%ADD38RotRect,1.800000X1.800000X225.000000*%
%ADD39RotRect,1.800000X1.800000X45.000000*%
%ADD40HorizOval,1.600000X0.000000X0.000000X0.000000X0.000000X0*%
%ADD41RoundRect,0.250000X0.725000X-0.600000X0.725000X0.600000X-0.725000X0.600000X-0.725000X-0.600000X0*%
%ADD42O,1.950000X1.700000*%
%ADD43RoundRect,0.250000X-0.725000X0.600000X-0.725000X-0.600000X0.725000X-0.600000X0.725000X0.600000X0*%
G04 APERTURE END LIST*
D10*
X132277619Y-95119819D02*
X132277619Y-94119819D01*
X132277619Y-94119819D02*
X132515714Y-94119819D01*
X132515714Y-94119819D02*
X132658571Y-94167438D01*
X132658571Y-94167438D02*
X132753809Y-94262676D01*
X132753809Y-94262676D02*
X132801428Y-94357914D01*
X132801428Y-94357914D02*
X132849047Y-94548390D01*
X132849047Y-94548390D02*
X132849047Y-94691247D01*
X132849047Y-94691247D02*
X132801428Y-94881723D01*
X132801428Y-94881723D02*
X132753809Y-94976961D01*
X132753809Y-94976961D02*
X132658571Y-95072200D01*
X132658571Y-95072200D02*
X132515714Y-95119819D01*
X132515714Y-95119819D02*
X132277619Y-95119819D01*
X133706190Y-95119819D02*
X133706190Y-94596009D01*
X133706190Y-94596009D02*
X133658571Y-94500771D01*
X133658571Y-94500771D02*
X133563333Y-94453152D01*
X133563333Y-94453152D02*
X133372857Y-94453152D01*
X133372857Y-94453152D02*
X133277619Y-94500771D01*
X133706190Y-95072200D02*
X133610952Y-95119819D01*
X133610952Y-95119819D02*
X133372857Y-95119819D01*
X133372857Y-95119819D02*
X133277619Y-95072200D01*
X133277619Y-95072200D02*
X133230000Y-94976961D01*
X133230000Y-94976961D02*
X133230000Y-94881723D01*
X133230000Y-94881723D02*
X133277619Y-94786485D01*
X133277619Y-94786485D02*
X133372857Y-94738866D01*
X133372857Y-94738866D02*
X133610952Y-94738866D01*
X133610952Y-94738866D02*
X133706190Y-94691247D01*
X134039524Y-94453152D02*
X134420476Y-94453152D01*
X134182381Y-94119819D02*
X134182381Y-94976961D01*
X134182381Y-94976961D02*
X134230000Y-95072200D01*
X134230000Y-95072200D02*
X134325238Y-95119819D01*
X134325238Y-95119819D02*
X134420476Y-95119819D01*
X135182381Y-95119819D02*
X135182381Y-94596009D01*
X135182381Y-94596009D02*
X135134762Y-94500771D01*
X135134762Y-94500771D02*
X135039524Y-94453152D01*
X135039524Y-94453152D02*
X134849048Y-94453152D01*
X134849048Y-94453152D02*
X134753810Y-94500771D01*
X135182381Y-95072200D02*
X135087143Y-95119819D01*
X135087143Y-95119819D02*
X134849048Y-95119819D01*
X134849048Y-95119819D02*
X134753810Y-95072200D01*
X134753810Y-95072200D02*
X134706191Y-94976961D01*
X134706191Y-94976961D02*
X134706191Y-94881723D01*
X134706191Y-94881723D02*
X134753810Y-94786485D01*
X134753810Y-94786485D02*
X134849048Y-94738866D01*
X134849048Y-94738866D02*
X135087143Y-94738866D01*
X135087143Y-94738866D02*
X135182381Y-94691247D01*
X169784285Y-94596009D02*
X169450952Y-94596009D01*
X169450952Y-95119819D02*
X169450952Y-94119819D01*
X169450952Y-94119819D02*
X169927142Y-94119819D01*
X170308095Y-95119819D02*
X170308095Y-94453152D01*
X170308095Y-94643628D02*
X170355714Y-94548390D01*
X170355714Y-94548390D02*
X170403333Y-94500771D01*
X170403333Y-94500771D02*
X170498571Y-94453152D01*
X170498571Y-94453152D02*
X170593809Y-94453152D01*
X171308095Y-95072200D02*
X171212857Y-95119819D01*
X171212857Y-95119819D02*
X171022381Y-95119819D01*
X171022381Y-95119819D02*
X170927143Y-95072200D01*
X170927143Y-95072200D02*
X170879524Y-94976961D01*
X170879524Y-94976961D02*
X170879524Y-94596009D01*
X170879524Y-94596009D02*
X170927143Y-94500771D01*
X170927143Y-94500771D02*
X171022381Y-94453152D01*
X171022381Y-94453152D02*
X171212857Y-94453152D01*
X171212857Y-94453152D02*
X171308095Y-94500771D01*
X171308095Y-94500771D02*
X171355714Y-94596009D01*
X171355714Y-94596009D02*
X171355714Y-94691247D01*
X171355714Y-94691247D02*
X170879524Y-94786485D01*
X172212857Y-94453152D02*
X172212857Y-95453152D01*
X172212857Y-95072200D02*
X172117619Y-95119819D01*
X172117619Y-95119819D02*
X171927143Y-95119819D01*
X171927143Y-95119819D02*
X171831905Y-95072200D01*
X171831905Y-95072200D02*
X171784286Y-95024580D01*
X171784286Y-95024580D02*
X171736667Y-94929342D01*
X171736667Y-94929342D02*
X171736667Y-94643628D01*
X171736667Y-94643628D02*
X171784286Y-94548390D01*
X171784286Y-94548390D02*
X171831905Y-94500771D01*
X171831905Y-94500771D02*
X171927143Y-94453152D01*
X171927143Y-94453152D02*
X172117619Y-94453152D01*
X172117619Y-94453152D02*
X172212857Y-94500771D01*
X172689048Y-95024580D02*
X172736667Y-95072200D01*
X172736667Y-95072200D02*
X172689048Y-95119819D01*
X172689048Y-95119819D02*
X172641429Y-95072200D01*
X172641429Y-95072200D02*
X172689048Y-95024580D01*
X172689048Y-95024580D02*
X172689048Y-95119819D01*
D11*
X142256190Y-132217219D02*
X142446666Y-132217219D01*
X142446666Y-132217219D02*
X142541904Y-132264838D01*
X142541904Y-132264838D02*
X142637142Y-132360076D01*
X142637142Y-132360076D02*
X142684761Y-132550552D01*
X142684761Y-132550552D02*
X142684761Y-132883885D01*
X142684761Y-132883885D02*
X142637142Y-133074361D01*
X142637142Y-133074361D02*
X142541904Y-133169600D01*
X142541904Y-133169600D02*
X142446666Y-133217219D01*
X142446666Y-133217219D02*
X142256190Y-133217219D01*
X142256190Y-133217219D02*
X142160952Y-133169600D01*
X142160952Y-133169600D02*
X142065714Y-133074361D01*
X142065714Y-133074361D02*
X142018095Y-132883885D01*
X142018095Y-132883885D02*
X142018095Y-132550552D01*
X142018095Y-132550552D02*
X142065714Y-132360076D01*
X142065714Y-132360076D02*
X142160952Y-132264838D01*
X142160952Y-132264838D02*
X142256190Y-132217219D01*
X143446666Y-132693409D02*
X143113333Y-132693409D01*
X143113333Y-133217219D02*
X143113333Y-132217219D01*
X143113333Y-132217219D02*
X143589523Y-132217219D01*
X144303809Y-132693409D02*
X143970476Y-132693409D01*
X143970476Y-133217219D02*
X143970476Y-132217219D01*
X143970476Y-132217219D02*
X144446666Y-132217219D01*
X145541904Y-132169600D02*
X144684762Y-133455314D01*
X146065714Y-132217219D02*
X146256190Y-132217219D01*
X146256190Y-132217219D02*
X146351428Y-132264838D01*
X146351428Y-132264838D02*
X146446666Y-132360076D01*
X146446666Y-132360076D02*
X146494285Y-132550552D01*
X146494285Y-132550552D02*
X146494285Y-132883885D01*
X146494285Y-132883885D02*
X146446666Y-133074361D01*
X146446666Y-133074361D02*
X146351428Y-133169600D01*
X146351428Y-133169600D02*
X146256190Y-133217219D01*
X146256190Y-133217219D02*
X146065714Y-133217219D01*
X146065714Y-133217219D02*
X145970476Y-133169600D01*
X145970476Y-133169600D02*
X145875238Y-133074361D01*
X145875238Y-133074361D02*
X145827619Y-132883885D01*
X145827619Y-132883885D02*
X145827619Y-132550552D01*
X145827619Y-132550552D02*
X145875238Y-132360076D01*
X145875238Y-132360076D02*
X145970476Y-132264838D01*
X145970476Y-132264838D02*
X146065714Y-132217219D01*
X146922857Y-133217219D02*
X146922857Y-132217219D01*
X146922857Y-132217219D02*
X147494285Y-133217219D01*
X147494285Y-133217219D02*
X147494285Y-132217219D01*
D10*
X156106905Y-130629819D02*
X156106905Y-129629819D01*
X156106905Y-129629819D02*
X156345000Y-129629819D01*
X156345000Y-129629819D02*
X156487857Y-129677438D01*
X156487857Y-129677438D02*
X156583095Y-129772676D01*
X156583095Y-129772676D02*
X156630714Y-129867914D01*
X156630714Y-129867914D02*
X156678333Y-130058390D01*
X156678333Y-130058390D02*
X156678333Y-130201247D01*
X156678333Y-130201247D02*
X156630714Y-130391723D01*
X156630714Y-130391723D02*
X156583095Y-130486961D01*
X156583095Y-130486961D02*
X156487857Y-130582200D01*
X156487857Y-130582200D02*
X156345000Y-130629819D01*
X156345000Y-130629819D02*
X156106905Y-130629819D01*
X157154524Y-130629819D02*
X157345000Y-130629819D01*
X157345000Y-130629819D02*
X157440238Y-130582200D01*
X157440238Y-130582200D02*
X157487857Y-130534580D01*
X157487857Y-130534580D02*
X157583095Y-130391723D01*
X157583095Y-130391723D02*
X157630714Y-130201247D01*
X157630714Y-130201247D02*
X157630714Y-129820295D01*
X157630714Y-129820295D02*
X157583095Y-129725057D01*
X157583095Y-129725057D02*
X157535476Y-129677438D01*
X157535476Y-129677438D02*
X157440238Y-129629819D01*
X157440238Y-129629819D02*
X157249762Y-129629819D01*
X157249762Y-129629819D02*
X157154524Y-129677438D01*
X157154524Y-129677438D02*
X157106905Y-129725057D01*
X157106905Y-129725057D02*
X157059286Y-129820295D01*
X157059286Y-129820295D02*
X157059286Y-130058390D01*
X157059286Y-130058390D02*
X157106905Y-130153628D01*
X157106905Y-130153628D02*
X157154524Y-130201247D01*
X157154524Y-130201247D02*
X157249762Y-130248866D01*
X157249762Y-130248866D02*
X157440238Y-130248866D01*
X157440238Y-130248866D02*
X157535476Y-130201247D01*
X157535476Y-130201247D02*
X157583095Y-130153628D01*
X157583095Y-130153628D02*
X157630714Y-130058390D01*
X191814819Y-102338094D02*
X190814819Y-102338094D01*
X190814819Y-102338094D02*
X190814819Y-102099999D01*
X190814819Y-102099999D02*
X190862438Y-101957142D01*
X190862438Y-101957142D02*
X190957676Y-101861904D01*
X190957676Y-101861904D02*
X191052914Y-101814285D01*
X191052914Y-101814285D02*
X191243390Y-101766666D01*
X191243390Y-101766666D02*
X191386247Y-101766666D01*
X191386247Y-101766666D02*
X191576723Y-101814285D01*
X191576723Y-101814285D02*
X191671961Y-101861904D01*
X191671961Y-101861904D02*
X191767200Y-101957142D01*
X191767200Y-101957142D02*
X191814819Y-102099999D01*
X191814819Y-102099999D02*
X191814819Y-102338094D01*
X190814819Y-101433332D02*
X190814819Y-100814285D01*
X190814819Y-100814285D02*
X191195771Y-101147618D01*
X191195771Y-101147618D02*
X191195771Y-101004761D01*
X191195771Y-101004761D02*
X191243390Y-100909523D01*
X191243390Y-100909523D02*
X191291009Y-100861904D01*
X191291009Y-100861904D02*
X191386247Y-100814285D01*
X191386247Y-100814285D02*
X191624342Y-100814285D01*
X191624342Y-100814285D02*
X191719580Y-100861904D01*
X191719580Y-100861904D02*
X191767200Y-100909523D01*
X191767200Y-100909523D02*
X191814819Y-101004761D01*
X191814819Y-101004761D02*
X191814819Y-101290475D01*
X191814819Y-101290475D02*
X191767200Y-101385713D01*
X191767200Y-101385713D02*
X191719580Y-101433332D01*
X151638095Y-85179819D02*
X151638095Y-85989342D01*
X151638095Y-85989342D02*
X151685714Y-86084580D01*
X151685714Y-86084580D02*
X151733333Y-86132200D01*
X151733333Y-86132200D02*
X151828571Y-86179819D01*
X151828571Y-86179819D02*
X152019047Y-86179819D01*
X152019047Y-86179819D02*
X152114285Y-86132200D01*
X152114285Y-86132200D02*
X152161904Y-86084580D01*
X152161904Y-86084580D02*
X152209523Y-85989342D01*
X152209523Y-85989342D02*
X152209523Y-85179819D01*
X152638095Y-85275057D02*
X152685714Y-85227438D01*
X152685714Y-85227438D02*
X152780952Y-85179819D01*
X152780952Y-85179819D02*
X153019047Y-85179819D01*
X153019047Y-85179819D02*
X153114285Y-85227438D01*
X153114285Y-85227438D02*
X153161904Y-85275057D01*
X153161904Y-85275057D02*
X153209523Y-85370295D01*
X153209523Y-85370295D02*
X153209523Y-85465533D01*
X153209523Y-85465533D02*
X153161904Y-85608390D01*
X153161904Y-85608390D02*
X152590476Y-86179819D01*
X152590476Y-86179819D02*
X153209523Y-86179819D01*
X142083333Y-125539819D02*
X141750000Y-125063628D01*
X141511905Y-125539819D02*
X141511905Y-124539819D01*
X141511905Y-124539819D02*
X141892857Y-124539819D01*
X141892857Y-124539819D02*
X141988095Y-124587438D01*
X141988095Y-124587438D02*
X142035714Y-124635057D01*
X142035714Y-124635057D02*
X142083333Y-124730295D01*
X142083333Y-124730295D02*
X142083333Y-124873152D01*
X142083333Y-124873152D02*
X142035714Y-124968390D01*
X142035714Y-124968390D02*
X141988095Y-125016009D01*
X141988095Y-125016009D02*
X141892857Y-125063628D01*
X141892857Y-125063628D02*
X141511905Y-125063628D01*
X142559524Y-125539819D02*
X142750000Y-125539819D01*
X142750000Y-125539819D02*
X142845238Y-125492200D01*
X142845238Y-125492200D02*
X142892857Y-125444580D01*
X142892857Y-125444580D02*
X142988095Y-125301723D01*
X142988095Y-125301723D02*
X143035714Y-125111247D01*
X143035714Y-125111247D02*
X143035714Y-124730295D01*
X143035714Y-124730295D02*
X142988095Y-124635057D01*
X142988095Y-124635057D02*
X142940476Y-124587438D01*
X142940476Y-124587438D02*
X142845238Y-124539819D01*
X142845238Y-124539819D02*
X142654762Y-124539819D01*
X142654762Y-124539819D02*
X142559524Y-124587438D01*
X142559524Y-124587438D02*
X142511905Y-124635057D01*
X142511905Y-124635057D02*
X142464286Y-124730295D01*
X142464286Y-124730295D02*
X142464286Y-124968390D01*
X142464286Y-124968390D02*
X142511905Y-125063628D01*
X142511905Y-125063628D02*
X142559524Y-125111247D01*
X142559524Y-125111247D02*
X142654762Y-125158866D01*
X142654762Y-125158866D02*
X142845238Y-125158866D01*
X142845238Y-125158866D02*
X142940476Y-125111247D01*
X142940476Y-125111247D02*
X142988095Y-125063628D01*
X142988095Y-125063628D02*
X143035714Y-124968390D01*
X166045091Y-135103978D02*
X165554901Y-134791596D01*
X165517160Y-135322654D02*
X165134476Y-134398775D01*
X165134476Y-134398775D02*
X165486430Y-134252990D01*
X165486430Y-134252990D02*
X165592642Y-134260539D01*
X165592642Y-134260539D02*
X165654859Y-134286310D01*
X165654859Y-134286310D02*
X165735299Y-134356075D01*
X165735299Y-134356075D02*
X165789968Y-134488058D01*
X165789968Y-134488058D02*
X165782420Y-134594270D01*
X165782420Y-134594270D02*
X165756649Y-134656487D01*
X165756649Y-134656487D02*
X165686883Y-134736927D01*
X165686883Y-134736927D02*
X165334929Y-134882712D01*
X166581865Y-134160044D02*
X166836987Y-134775964D01*
X166216110Y-133899205D02*
X166269484Y-134650234D01*
X166269484Y-134650234D02*
X166841409Y-134413335D01*
X134989580Y-117905666D02*
X135037200Y-117953285D01*
X135037200Y-117953285D02*
X135084819Y-118096142D01*
X135084819Y-118096142D02*
X135084819Y-118191380D01*
X135084819Y-118191380D02*
X135037200Y-118334237D01*
X135037200Y-118334237D02*
X134941961Y-118429475D01*
X134941961Y-118429475D02*
X134846723Y-118477094D01*
X134846723Y-118477094D02*
X134656247Y-118524713D01*
X134656247Y-118524713D02*
X134513390Y-118524713D01*
X134513390Y-118524713D02*
X134322914Y-118477094D01*
X134322914Y-118477094D02*
X134227676Y-118429475D01*
X134227676Y-118429475D02*
X134132438Y-118334237D01*
X134132438Y-118334237D02*
X134084819Y-118191380D01*
X134084819Y-118191380D02*
X134084819Y-118096142D01*
X134084819Y-118096142D02*
X134132438Y-117953285D01*
X134132438Y-117953285D02*
X134180057Y-117905666D01*
X134084819Y-117572332D02*
X134084819Y-116953285D01*
X134084819Y-116953285D02*
X134465771Y-117286618D01*
X134465771Y-117286618D02*
X134465771Y-117143761D01*
X134465771Y-117143761D02*
X134513390Y-117048523D01*
X134513390Y-117048523D02*
X134561009Y-117000904D01*
X134561009Y-117000904D02*
X134656247Y-116953285D01*
X134656247Y-116953285D02*
X134894342Y-116953285D01*
X134894342Y-116953285D02*
X134989580Y-117000904D01*
X134989580Y-117000904D02*
X135037200Y-117048523D01*
X135037200Y-117048523D02*
X135084819Y-117143761D01*
X135084819Y-117143761D02*
X135084819Y-117429475D01*
X135084819Y-117429475D02*
X135037200Y-117524713D01*
X135037200Y-117524713D02*
X134989580Y-117572332D01*
X166041968Y-68936417D02*
X165916239Y-68368913D01*
X165514037Y-68717741D02*
X165896721Y-67793861D01*
X165896721Y-67793861D02*
X166248675Y-67939646D01*
X166248675Y-67939646D02*
X166318440Y-68020086D01*
X166318440Y-68020086D02*
X166344211Y-68082303D01*
X166344211Y-68082303D02*
X166351760Y-68188515D01*
X166351760Y-68188515D02*
X166297091Y-68320497D01*
X166297091Y-68320497D02*
X166216650Y-68390263D01*
X166216650Y-68390263D02*
X166154433Y-68416034D01*
X166154433Y-68416034D02*
X166048221Y-68423582D01*
X166048221Y-68423582D02*
X165696267Y-68277798D01*
X166921854Y-69300878D02*
X166393922Y-69082201D01*
X166657888Y-69191539D02*
X167040571Y-68267660D01*
X167040571Y-68267660D02*
X166897914Y-68363197D01*
X166897914Y-68363197D02*
X166773479Y-68414739D01*
X166773479Y-68414739D02*
X166667268Y-68422287D01*
X184999033Y-87562022D02*
X185311415Y-87071832D01*
X184780357Y-87034091D02*
X185704236Y-86651407D01*
X185704236Y-86651407D02*
X185850021Y-87003361D01*
X185850021Y-87003361D02*
X185842472Y-87109573D01*
X185842472Y-87109573D02*
X185816701Y-87171790D01*
X185816701Y-87171790D02*
X185746936Y-87252230D01*
X185746936Y-87252230D02*
X185614953Y-87306899D01*
X185614953Y-87306899D02*
X185508741Y-87299351D01*
X185508741Y-87299351D02*
X185446524Y-87273580D01*
X185446524Y-87273580D02*
X185366084Y-87203814D01*
X185366084Y-87203814D02*
X185220299Y-86851860D01*
X185980708Y-87567738D02*
X186042926Y-87593510D01*
X186042926Y-87593510D02*
X186123366Y-87663275D01*
X186123366Y-87663275D02*
X186214481Y-87883247D01*
X186214481Y-87883247D02*
X186206933Y-87989458D01*
X186206933Y-87989458D02*
X186181161Y-88051675D01*
X186181161Y-88051675D02*
X186111396Y-88132116D01*
X186111396Y-88132116D02*
X186023407Y-88168562D01*
X186023407Y-88168562D02*
X185873202Y-88179236D01*
X185873202Y-88179236D02*
X185126594Y-87869982D01*
X185126594Y-87869982D02*
X185363494Y-88441907D01*
X171174580Y-115101666D02*
X171222200Y-115149285D01*
X171222200Y-115149285D02*
X171269819Y-115292142D01*
X171269819Y-115292142D02*
X171269819Y-115387380D01*
X171269819Y-115387380D02*
X171222200Y-115530237D01*
X171222200Y-115530237D02*
X171126961Y-115625475D01*
X171126961Y-115625475D02*
X171031723Y-115673094D01*
X171031723Y-115673094D02*
X170841247Y-115720713D01*
X170841247Y-115720713D02*
X170698390Y-115720713D01*
X170698390Y-115720713D02*
X170507914Y-115673094D01*
X170507914Y-115673094D02*
X170412676Y-115625475D01*
X170412676Y-115625475D02*
X170317438Y-115530237D01*
X170317438Y-115530237D02*
X170269819Y-115387380D01*
X170269819Y-115387380D02*
X170269819Y-115292142D01*
X170269819Y-115292142D02*
X170317438Y-115149285D01*
X170317438Y-115149285D02*
X170365057Y-115101666D01*
X170269819Y-114768332D02*
X170269819Y-114101666D01*
X170269819Y-114101666D02*
X171269819Y-114530237D01*
X151661905Y-141014819D02*
X151661905Y-140014819D01*
X151661905Y-140014819D02*
X151900000Y-140014819D01*
X151900000Y-140014819D02*
X152042857Y-140062438D01*
X152042857Y-140062438D02*
X152138095Y-140157676D01*
X152138095Y-140157676D02*
X152185714Y-140252914D01*
X152185714Y-140252914D02*
X152233333Y-140443390D01*
X152233333Y-140443390D02*
X152233333Y-140586247D01*
X152233333Y-140586247D02*
X152185714Y-140776723D01*
X152185714Y-140776723D02*
X152138095Y-140871961D01*
X152138095Y-140871961D02*
X152042857Y-140967200D01*
X152042857Y-140967200D02*
X151900000Y-141014819D01*
X151900000Y-141014819D02*
X151661905Y-141014819D01*
X153138095Y-140014819D02*
X152661905Y-140014819D01*
X152661905Y-140014819D02*
X152614286Y-140491009D01*
X152614286Y-140491009D02*
X152661905Y-140443390D01*
X152661905Y-140443390D02*
X152757143Y-140395771D01*
X152757143Y-140395771D02*
X152995238Y-140395771D01*
X152995238Y-140395771D02*
X153090476Y-140443390D01*
X153090476Y-140443390D02*
X153138095Y-140491009D01*
X153138095Y-140491009D02*
X153185714Y-140586247D01*
X153185714Y-140586247D02*
X153185714Y-140824342D01*
X153185714Y-140824342D02*
X153138095Y-140919580D01*
X153138095Y-140919580D02*
X153090476Y-140967200D01*
X153090476Y-140967200D02*
X152995238Y-141014819D01*
X152995238Y-141014819D02*
X152757143Y-141014819D01*
X152757143Y-141014819D02*
X152661905Y-140967200D01*
X152661905Y-140967200D02*
X152614286Y-140919580D01*
X185776417Y-115898031D02*
X185208913Y-116023760D01*
X185557741Y-116425962D02*
X184633861Y-116043278D01*
X184633861Y-116043278D02*
X184779646Y-115691324D01*
X184779646Y-115691324D02*
X184860086Y-115621559D01*
X184860086Y-115621559D02*
X184922303Y-115595788D01*
X184922303Y-115595788D02*
X185028515Y-115588239D01*
X185028515Y-115588239D02*
X185160497Y-115642908D01*
X185160497Y-115642908D02*
X185230263Y-115723349D01*
X185230263Y-115723349D02*
X185256034Y-115785566D01*
X185256034Y-115785566D02*
X185263582Y-115891778D01*
X185263582Y-115891778D02*
X185117798Y-116243732D01*
X184980099Y-115207387D02*
X185216998Y-114635462D01*
X185216998Y-114635462D02*
X185441391Y-115089206D01*
X185441391Y-115089206D02*
X185496060Y-114957223D01*
X185496060Y-114957223D02*
X185576500Y-114887458D01*
X185576500Y-114887458D02*
X185638718Y-114861686D01*
X185638718Y-114861686D02*
X185744929Y-114854138D01*
X185744929Y-114854138D02*
X185964900Y-114945253D01*
X185964900Y-114945253D02*
X186034666Y-115025694D01*
X186034666Y-115025694D02*
X186060437Y-115087911D01*
X186060437Y-115087911D02*
X186067985Y-115194122D01*
X186067985Y-115194122D02*
X185958647Y-115458088D01*
X185958647Y-115458088D02*
X185878207Y-115527854D01*
X185878207Y-115527854D02*
X185815990Y-115553625D01*
X151661905Y-63094819D02*
X151661905Y-62094819D01*
X151661905Y-62094819D02*
X151900000Y-62094819D01*
X151900000Y-62094819D02*
X152042857Y-62142438D01*
X152042857Y-62142438D02*
X152138095Y-62237676D01*
X152138095Y-62237676D02*
X152185714Y-62332914D01*
X152185714Y-62332914D02*
X152233333Y-62523390D01*
X152233333Y-62523390D02*
X152233333Y-62666247D01*
X152233333Y-62666247D02*
X152185714Y-62856723D01*
X152185714Y-62856723D02*
X152138095Y-62951961D01*
X152138095Y-62951961D02*
X152042857Y-63047200D01*
X152042857Y-63047200D02*
X151900000Y-63094819D01*
X151900000Y-63094819D02*
X151661905Y-63094819D01*
X153185714Y-63094819D02*
X152614286Y-63094819D01*
X152900000Y-63094819D02*
X152900000Y-62094819D01*
X152900000Y-62094819D02*
X152804762Y-62237676D01*
X152804762Y-62237676D02*
X152709524Y-62332914D01*
X152709524Y-62332914D02*
X152614286Y-62380533D01*
X162552142Y-125549819D02*
X162218809Y-125073628D01*
X161980714Y-125549819D02*
X161980714Y-124549819D01*
X161980714Y-124549819D02*
X162361666Y-124549819D01*
X162361666Y-124549819D02*
X162456904Y-124597438D01*
X162456904Y-124597438D02*
X162504523Y-124645057D01*
X162504523Y-124645057D02*
X162552142Y-124740295D01*
X162552142Y-124740295D02*
X162552142Y-124883152D01*
X162552142Y-124883152D02*
X162504523Y-124978390D01*
X162504523Y-124978390D02*
X162456904Y-125026009D01*
X162456904Y-125026009D02*
X162361666Y-125073628D01*
X162361666Y-125073628D02*
X161980714Y-125073628D01*
X163504523Y-125549819D02*
X162933095Y-125549819D01*
X163218809Y-125549819D02*
X163218809Y-124549819D01*
X163218809Y-124549819D02*
X163123571Y-124692676D01*
X163123571Y-124692676D02*
X163028333Y-124787914D01*
X163028333Y-124787914D02*
X162933095Y-124835533D01*
X164123571Y-124549819D02*
X164218809Y-124549819D01*
X164218809Y-124549819D02*
X164314047Y-124597438D01*
X164314047Y-124597438D02*
X164361666Y-124645057D01*
X164361666Y-124645057D02*
X164409285Y-124740295D01*
X164409285Y-124740295D02*
X164456904Y-124930771D01*
X164456904Y-124930771D02*
X164456904Y-125168866D01*
X164456904Y-125168866D02*
X164409285Y-125359342D01*
X164409285Y-125359342D02*
X164361666Y-125454580D01*
X164361666Y-125454580D02*
X164314047Y-125502200D01*
X164314047Y-125502200D02*
X164218809Y-125549819D01*
X164218809Y-125549819D02*
X164123571Y-125549819D01*
X164123571Y-125549819D02*
X164028333Y-125502200D01*
X164028333Y-125502200D02*
X163980714Y-125454580D01*
X163980714Y-125454580D02*
X163933095Y-125359342D01*
X163933095Y-125359342D02*
X163885476Y-125168866D01*
X163885476Y-125168866D02*
X163885476Y-124930771D01*
X163885476Y-124930771D02*
X163933095Y-124740295D01*
X163933095Y-124740295D02*
X163980714Y-124645057D01*
X163980714Y-124645057D02*
X164028333Y-124597438D01*
X164028333Y-124597438D02*
X164123571Y-124549819D01*
X119736417Y-87958031D02*
X119168913Y-88083760D01*
X119517741Y-88485962D02*
X118593861Y-88103278D01*
X118593861Y-88103278D02*
X118739646Y-87751324D01*
X118739646Y-87751324D02*
X118820086Y-87681559D01*
X118820086Y-87681559D02*
X118882303Y-87655788D01*
X118882303Y-87655788D02*
X118988515Y-87648239D01*
X118988515Y-87648239D02*
X119120497Y-87702908D01*
X119120497Y-87702908D02*
X119190263Y-87783349D01*
X119190263Y-87783349D02*
X119216034Y-87845566D01*
X119216034Y-87845566D02*
X119223582Y-87951778D01*
X119223582Y-87951778D02*
X119077798Y-88303732D01*
X118940099Y-87267387D02*
X119195221Y-86651468D01*
X119195221Y-86651468D02*
X119955093Y-87430100D01*
X138101968Y-134976417D02*
X137976239Y-134408913D01*
X137574037Y-134757741D02*
X137956721Y-133833861D01*
X137956721Y-133833861D02*
X138308675Y-133979646D01*
X138308675Y-133979646D02*
X138378440Y-134060086D01*
X138378440Y-134060086D02*
X138404211Y-134122303D01*
X138404211Y-134122303D02*
X138411760Y-134228515D01*
X138411760Y-134228515D02*
X138357091Y-134360497D01*
X138357091Y-134360497D02*
X138276650Y-134430263D01*
X138276650Y-134430263D02*
X138214433Y-134456034D01*
X138214433Y-134456034D02*
X138108221Y-134463582D01*
X138108221Y-134463582D02*
X137756267Y-134317798D01*
X139320543Y-134398775D02*
X138880600Y-134216545D01*
X138880600Y-134216545D02*
X138654376Y-134638264D01*
X138654376Y-134638264D02*
X138716593Y-134612493D01*
X138716593Y-134612493D02*
X138822804Y-134604945D01*
X138822804Y-134604945D02*
X139042776Y-134696060D01*
X139042776Y-134696060D02*
X139112541Y-134776500D01*
X139112541Y-134776500D02*
X139138313Y-134838718D01*
X139138313Y-134838718D02*
X139145861Y-134944929D01*
X139145861Y-134944929D02*
X139054746Y-135164900D01*
X139054746Y-135164900D02*
X138974305Y-135234666D01*
X138974305Y-135234666D02*
X138912088Y-135260437D01*
X138912088Y-135260437D02*
X138805877Y-135267985D01*
X138805877Y-135267985D02*
X138585905Y-135176870D01*
X138585905Y-135176870D02*
X138516140Y-135096430D01*
X138516140Y-135096430D02*
X138490368Y-135034213D01*
D12*
X133125238Y-106047095D02*
X132786571Y-105563286D01*
X132544666Y-106047095D02*
X132544666Y-105031095D01*
X132544666Y-105031095D02*
X132931714Y-105031095D01*
X132931714Y-105031095D02*
X133028476Y-105079476D01*
X133028476Y-105079476D02*
X133076857Y-105127857D01*
X133076857Y-105127857D02*
X133125238Y-105224619D01*
X133125238Y-105224619D02*
X133125238Y-105369762D01*
X133125238Y-105369762D02*
X133076857Y-105466524D01*
X133076857Y-105466524D02*
X133028476Y-105514905D01*
X133028476Y-105514905D02*
X132931714Y-105563286D01*
X132931714Y-105563286D02*
X132544666Y-105563286D01*
X133415523Y-105031095D02*
X133754190Y-106047095D01*
X133754190Y-106047095D02*
X134092857Y-105031095D01*
X134963714Y-106047095D02*
X134383142Y-106047095D01*
X134673428Y-106047095D02*
X134673428Y-105031095D01*
X134673428Y-105031095D02*
X134576666Y-105176238D01*
X134576666Y-105176238D02*
X134479904Y-105273000D01*
X134479904Y-105273000D02*
X134383142Y-105321381D01*
D10*
X143946666Y-106134819D02*
X143946666Y-106849104D01*
X143946666Y-106849104D02*
X143899047Y-106991961D01*
X143899047Y-106991961D02*
X143803809Y-107087200D01*
X143803809Y-107087200D02*
X143660952Y-107134819D01*
X143660952Y-107134819D02*
X143565714Y-107134819D01*
X144422857Y-107134819D02*
X144422857Y-106134819D01*
X144422857Y-106134819D02*
X144803809Y-106134819D01*
X144803809Y-106134819D02*
X144899047Y-106182438D01*
X144899047Y-106182438D02*
X144946666Y-106230057D01*
X144946666Y-106230057D02*
X144994285Y-106325295D01*
X144994285Y-106325295D02*
X144994285Y-106468152D01*
X144994285Y-106468152D02*
X144946666Y-106563390D01*
X144946666Y-106563390D02*
X144899047Y-106611009D01*
X144899047Y-106611009D02*
X144803809Y-106658628D01*
X144803809Y-106658628D02*
X144422857Y-106658628D01*
X145946666Y-107134819D02*
X145375238Y-107134819D01*
X145660952Y-107134819D02*
X145660952Y-106134819D01*
X145660952Y-106134819D02*
X145565714Y-106277676D01*
X145565714Y-106277676D02*
X145470476Y-106372914D01*
X145470476Y-106372914D02*
X145375238Y-106420533D01*
X178948876Y-73946300D02*
X179655983Y-73239194D01*
X179655983Y-73239194D02*
X179824342Y-73407552D01*
X179824342Y-73407552D02*
X179891685Y-73542239D01*
X179891685Y-73542239D02*
X179891685Y-73676926D01*
X179891685Y-73676926D02*
X179858013Y-73777942D01*
X179858013Y-73777942D02*
X179756998Y-73946300D01*
X179756998Y-73946300D02*
X179655983Y-74047316D01*
X179655983Y-74047316D02*
X179487624Y-74148331D01*
X179487624Y-74148331D02*
X179386609Y-74182003D01*
X179386609Y-74182003D02*
X179251922Y-74182003D01*
X179251922Y-74182003D02*
X179117235Y-74114659D01*
X179117235Y-74114659D02*
X178948876Y-73946300D01*
X180262074Y-73979972D02*
X180329418Y-73979972D01*
X180329418Y-73979972D02*
X180430433Y-74013644D01*
X180430433Y-74013644D02*
X180598792Y-74182003D01*
X180598792Y-74182003D02*
X180632464Y-74283018D01*
X180632464Y-74283018D02*
X180632464Y-74350361D01*
X180632464Y-74350361D02*
X180598792Y-74451377D01*
X180598792Y-74451377D02*
X180531448Y-74518720D01*
X180531448Y-74518720D02*
X180396761Y-74586064D01*
X180396761Y-74586064D02*
X179588639Y-74586064D01*
X179588639Y-74586064D02*
X180026372Y-75023796D01*
X113894819Y-102338094D02*
X112894819Y-102338094D01*
X112894819Y-102338094D02*
X112894819Y-102099999D01*
X112894819Y-102099999D02*
X112942438Y-101957142D01*
X112942438Y-101957142D02*
X113037676Y-101861904D01*
X113037676Y-101861904D02*
X113132914Y-101814285D01*
X113132914Y-101814285D02*
X113323390Y-101766666D01*
X113323390Y-101766666D02*
X113466247Y-101766666D01*
X113466247Y-101766666D02*
X113656723Y-101814285D01*
X113656723Y-101814285D02*
X113751961Y-101861904D01*
X113751961Y-101861904D02*
X113847200Y-101957142D01*
X113847200Y-101957142D02*
X113894819Y-102099999D01*
X113894819Y-102099999D02*
X113894819Y-102338094D01*
X112894819Y-101433332D02*
X112894819Y-100766666D01*
X112894819Y-100766666D02*
X113894819Y-101195237D01*
X118896021Y-115590072D02*
X119208403Y-115099882D01*
X118677345Y-115062141D02*
X119601224Y-114679457D01*
X119601224Y-114679457D02*
X119747009Y-115031411D01*
X119747009Y-115031411D02*
X119739460Y-115137623D01*
X119739460Y-115137623D02*
X119713689Y-115199840D01*
X119713689Y-115199840D02*
X119643924Y-115280280D01*
X119643924Y-115280280D02*
X119511941Y-115334949D01*
X119511941Y-115334949D02*
X119405729Y-115327401D01*
X119405729Y-115327401D02*
X119343512Y-115301630D01*
X119343512Y-115301630D02*
X119263072Y-115231864D01*
X119263072Y-115231864D02*
X119117287Y-114879910D01*
X120147915Y-115999285D02*
X120075023Y-115823308D01*
X120075023Y-115823308D02*
X119994583Y-115753542D01*
X119994583Y-115753542D02*
X119932365Y-115727771D01*
X119932365Y-115727771D02*
X119763937Y-115694452D01*
X119763937Y-115694452D02*
X119569736Y-115723350D01*
X119569736Y-115723350D02*
X119217782Y-115869134D01*
X119217782Y-115869134D02*
X119148017Y-115949574D01*
X119148017Y-115949574D02*
X119122246Y-116011791D01*
X119122246Y-116011791D02*
X119114697Y-116118003D01*
X119114697Y-116118003D02*
X119187589Y-116293980D01*
X119187589Y-116293980D02*
X119268030Y-116363745D01*
X119268030Y-116363745D02*
X119330247Y-116389517D01*
X119330247Y-116389517D02*
X119436459Y-116397065D01*
X119436459Y-116397065D02*
X119656430Y-116305950D01*
X119656430Y-116305950D02*
X119726195Y-116225510D01*
X119726195Y-116225510D02*
X119751967Y-116163292D01*
X119751967Y-116163292D02*
X119759515Y-116057081D01*
X119759515Y-116057081D02*
X119686623Y-115881104D01*
X119686623Y-115881104D02*
X119606182Y-115811338D01*
X119606182Y-115811338D02*
X119543965Y-115785567D01*
X119543965Y-115785567D02*
X119437754Y-115778019D01*
X152278333Y-73399580D02*
X152230714Y-73447200D01*
X152230714Y-73447200D02*
X152087857Y-73494819D01*
X152087857Y-73494819D02*
X151992619Y-73494819D01*
X151992619Y-73494819D02*
X151849762Y-73447200D01*
X151849762Y-73447200D02*
X151754524Y-73351961D01*
X151754524Y-73351961D02*
X151706905Y-73256723D01*
X151706905Y-73256723D02*
X151659286Y-73066247D01*
X151659286Y-73066247D02*
X151659286Y-72923390D01*
X151659286Y-72923390D02*
X151706905Y-72732914D01*
X151706905Y-72732914D02*
X151754524Y-72637676D01*
X151754524Y-72637676D02*
X151849762Y-72542438D01*
X151849762Y-72542438D02*
X151992619Y-72494819D01*
X151992619Y-72494819D02*
X152087857Y-72494819D01*
X152087857Y-72494819D02*
X152230714Y-72542438D01*
X152230714Y-72542438D02*
X152278333Y-72590057D01*
X153230714Y-73494819D02*
X152659286Y-73494819D01*
X152945000Y-73494819D02*
X152945000Y-72494819D01*
X152945000Y-72494819D02*
X152849762Y-72637676D01*
X152849762Y-72637676D02*
X152754524Y-72732914D01*
X152754524Y-72732914D02*
X152659286Y-72780533D01*
X150219580Y-115101666D02*
X150267200Y-115149285D01*
X150267200Y-115149285D02*
X150314819Y-115292142D01*
X150314819Y-115292142D02*
X150314819Y-115387380D01*
X150314819Y-115387380D02*
X150267200Y-115530237D01*
X150267200Y-115530237D02*
X150171961Y-115625475D01*
X150171961Y-115625475D02*
X150076723Y-115673094D01*
X150076723Y-115673094D02*
X149886247Y-115720713D01*
X149886247Y-115720713D02*
X149743390Y-115720713D01*
X149743390Y-115720713D02*
X149552914Y-115673094D01*
X149552914Y-115673094D02*
X149457676Y-115625475D01*
X149457676Y-115625475D02*
X149362438Y-115530237D01*
X149362438Y-115530237D02*
X149314819Y-115387380D01*
X149314819Y-115387380D02*
X149314819Y-115292142D01*
X149314819Y-115292142D02*
X149362438Y-115149285D01*
X149362438Y-115149285D02*
X149410057Y-115101666D01*
X149314819Y-114196904D02*
X149314819Y-114673094D01*
X149314819Y-114673094D02*
X149791009Y-114720713D01*
X149791009Y-114720713D02*
X149743390Y-114673094D01*
X149743390Y-114673094D02*
X149695771Y-114577856D01*
X149695771Y-114577856D02*
X149695771Y-114339761D01*
X149695771Y-114339761D02*
X149743390Y-114244523D01*
X149743390Y-114244523D02*
X149791009Y-114196904D01*
X149791009Y-114196904D02*
X149886247Y-114149285D01*
X149886247Y-114149285D02*
X150124342Y-114149285D01*
X150124342Y-114149285D02*
X150219580Y-114196904D01*
X150219580Y-114196904D02*
X150267200Y-114244523D01*
X150267200Y-114244523D02*
X150314819Y-114339761D01*
X150314819Y-114339761D02*
X150314819Y-114577856D01*
X150314819Y-114577856D02*
X150267200Y-114673094D01*
X150267200Y-114673094D02*
X150219580Y-114720713D01*
X123966772Y-129018682D02*
X124673879Y-128311576D01*
X124673879Y-128311576D02*
X124842238Y-128479934D01*
X124842238Y-128479934D02*
X124909581Y-128614621D01*
X124909581Y-128614621D02*
X124909581Y-128749308D01*
X124909581Y-128749308D02*
X124875909Y-128850324D01*
X124875909Y-128850324D02*
X124774894Y-129018682D01*
X124774894Y-129018682D02*
X124673879Y-129119698D01*
X124673879Y-129119698D02*
X124505520Y-129220713D01*
X124505520Y-129220713D02*
X124404505Y-129254385D01*
X124404505Y-129254385D02*
X124269818Y-129254385D01*
X124269818Y-129254385D02*
X124135131Y-129187041D01*
X124135131Y-129187041D02*
X123966772Y-129018682D01*
X125684031Y-129321728D02*
X125549344Y-129187041D01*
X125549344Y-129187041D02*
X125448329Y-129153369D01*
X125448329Y-129153369D02*
X125380986Y-129153369D01*
X125380986Y-129153369D02*
X125212627Y-129187041D01*
X125212627Y-129187041D02*
X125044268Y-129288056D01*
X125044268Y-129288056D02*
X124774894Y-129557430D01*
X124774894Y-129557430D02*
X124741222Y-129658446D01*
X124741222Y-129658446D02*
X124741222Y-129725789D01*
X124741222Y-129725789D02*
X124774894Y-129826804D01*
X124774894Y-129826804D02*
X124909581Y-129961491D01*
X124909581Y-129961491D02*
X125010596Y-129995163D01*
X125010596Y-129995163D02*
X125077940Y-129995163D01*
X125077940Y-129995163D02*
X125178955Y-129961491D01*
X125178955Y-129961491D02*
X125347314Y-129793133D01*
X125347314Y-129793133D02*
X125380986Y-129692117D01*
X125380986Y-129692117D02*
X125380986Y-129624774D01*
X125380986Y-129624774D02*
X125347314Y-129523759D01*
X125347314Y-129523759D02*
X125212627Y-129389072D01*
X125212627Y-129389072D02*
X125111612Y-129355400D01*
X125111612Y-129355400D02*
X125044268Y-129355400D01*
X125044268Y-129355400D02*
X124943253Y-129389072D01*
X141488095Y-116939819D02*
X141488095Y-117749342D01*
X141488095Y-117749342D02*
X141535714Y-117844580D01*
X141535714Y-117844580D02*
X141583333Y-117892200D01*
X141583333Y-117892200D02*
X141678571Y-117939819D01*
X141678571Y-117939819D02*
X141869047Y-117939819D01*
X141869047Y-117939819D02*
X141964285Y-117892200D01*
X141964285Y-117892200D02*
X142011904Y-117844580D01*
X142011904Y-117844580D02*
X142059523Y-117749342D01*
X142059523Y-117749342D02*
X142059523Y-116939819D01*
X143059523Y-117939819D02*
X142488095Y-117939819D01*
X142773809Y-117939819D02*
X142773809Y-116939819D01*
X142773809Y-116939819D02*
X142678571Y-117082676D01*
X142678571Y-117082676D02*
X142583333Y-117177914D01*
X142583333Y-117177914D02*
X142488095Y-117225533D01*
X179998336Y-130143283D02*
X179291230Y-129436176D01*
X179291230Y-129436176D02*
X179459588Y-129267817D01*
X179459588Y-129267817D02*
X179594275Y-129200474D01*
X179594275Y-129200474D02*
X179728962Y-129200474D01*
X179728962Y-129200474D02*
X179829978Y-129234146D01*
X179829978Y-129234146D02*
X179998336Y-129335161D01*
X179998336Y-129335161D02*
X180099352Y-129436176D01*
X180099352Y-129436176D02*
X180200367Y-129604535D01*
X180200367Y-129604535D02*
X180234039Y-129705550D01*
X180234039Y-129705550D02*
X180234039Y-129840237D01*
X180234039Y-129840237D02*
X180166695Y-129974924D01*
X180166695Y-129974924D02*
X179998336Y-130143283D01*
X180537084Y-128661726D02*
X181008489Y-129133130D01*
X180099352Y-128560711D02*
X180436069Y-129234146D01*
X180436069Y-129234146D02*
X180873802Y-128796413D01*
X159186666Y-106134819D02*
X159186666Y-106849104D01*
X159186666Y-106849104D02*
X159139047Y-106991961D01*
X159139047Y-106991961D02*
X159043809Y-107087200D01*
X159043809Y-107087200D02*
X158900952Y-107134819D01*
X158900952Y-107134819D02*
X158805714Y-107134819D01*
X159662857Y-107134819D02*
X159662857Y-106134819D01*
X159662857Y-106134819D02*
X160043809Y-106134819D01*
X160043809Y-106134819D02*
X160139047Y-106182438D01*
X160139047Y-106182438D02*
X160186666Y-106230057D01*
X160186666Y-106230057D02*
X160234285Y-106325295D01*
X160234285Y-106325295D02*
X160234285Y-106468152D01*
X160234285Y-106468152D02*
X160186666Y-106563390D01*
X160186666Y-106563390D02*
X160139047Y-106611009D01*
X160139047Y-106611009D02*
X160043809Y-106658628D01*
X160043809Y-106658628D02*
X159662857Y-106658628D01*
X160567619Y-106134819D02*
X161186666Y-106134819D01*
X161186666Y-106134819D02*
X160853333Y-106515771D01*
X160853333Y-106515771D02*
X160996190Y-106515771D01*
X160996190Y-106515771D02*
X161091428Y-106563390D01*
X161091428Y-106563390D02*
X161139047Y-106611009D01*
X161139047Y-106611009D02*
X161186666Y-106706247D01*
X161186666Y-106706247D02*
X161186666Y-106944342D01*
X161186666Y-106944342D02*
X161139047Y-107039580D01*
X161139047Y-107039580D02*
X161091428Y-107087200D01*
X161091428Y-107087200D02*
X160996190Y-107134819D01*
X160996190Y-107134819D02*
X160710476Y-107134819D01*
X160710476Y-107134819D02*
X160615238Y-107087200D01*
X160615238Y-107087200D02*
X160567619Y-107039580D01*
X124735899Y-74719291D02*
X124028793Y-74012184D01*
X124028793Y-74012184D02*
X124197151Y-73843825D01*
X124197151Y-73843825D02*
X124331838Y-73776482D01*
X124331838Y-73776482D02*
X124466525Y-73776482D01*
X124466525Y-73776482D02*
X124567541Y-73810154D01*
X124567541Y-73810154D02*
X124735899Y-73911169D01*
X124735899Y-73911169D02*
X124836915Y-74012184D01*
X124836915Y-74012184D02*
X124937930Y-74180543D01*
X124937930Y-74180543D02*
X124971602Y-74281558D01*
X124971602Y-74281558D02*
X124971602Y-74416245D01*
X124971602Y-74416245D02*
X124904258Y-74550932D01*
X124904258Y-74550932D02*
X124735899Y-74719291D01*
X125139960Y-73507108D02*
X125038945Y-73540780D01*
X125038945Y-73540780D02*
X124971602Y-73540780D01*
X124971602Y-73540780D02*
X124870586Y-73507108D01*
X124870586Y-73507108D02*
X124836915Y-73473436D01*
X124836915Y-73473436D02*
X124803243Y-73372421D01*
X124803243Y-73372421D02*
X124803243Y-73305077D01*
X124803243Y-73305077D02*
X124836915Y-73204062D01*
X124836915Y-73204062D02*
X124971602Y-73069375D01*
X124971602Y-73069375D02*
X125072617Y-73035703D01*
X125072617Y-73035703D02*
X125139960Y-73035703D01*
X125139960Y-73035703D02*
X125240976Y-73069375D01*
X125240976Y-73069375D02*
X125274647Y-73103047D01*
X125274647Y-73103047D02*
X125308319Y-73204062D01*
X125308319Y-73204062D02*
X125308319Y-73271406D01*
X125308319Y-73271406D02*
X125274647Y-73372421D01*
X125274647Y-73372421D02*
X125139960Y-73507108D01*
X125139960Y-73507108D02*
X125106289Y-73608123D01*
X125106289Y-73608123D02*
X125106289Y-73675467D01*
X125106289Y-73675467D02*
X125139960Y-73776482D01*
X125139960Y-73776482D02*
X125274647Y-73911169D01*
X125274647Y-73911169D02*
X125375663Y-73944841D01*
X125375663Y-73944841D02*
X125443006Y-73944841D01*
X125443006Y-73944841D02*
X125544021Y-73911169D01*
X125544021Y-73911169D02*
X125678708Y-73776482D01*
X125678708Y-73776482D02*
X125712380Y-73675467D01*
X125712380Y-73675467D02*
X125712380Y-73608123D01*
X125712380Y-73608123D02*
X125678708Y-73507108D01*
X125678708Y-73507108D02*
X125544021Y-73372421D01*
X125544021Y-73372421D02*
X125443006Y-73338749D01*
X125443006Y-73338749D02*
X125375663Y-73338749D01*
X125375663Y-73338749D02*
X125274647Y-73372421D01*
X162433095Y-116421819D02*
X162433095Y-117231342D01*
X162433095Y-117231342D02*
X162480714Y-117326580D01*
X162480714Y-117326580D02*
X162528333Y-117374200D01*
X162528333Y-117374200D02*
X162623571Y-117421819D01*
X162623571Y-117421819D02*
X162814047Y-117421819D01*
X162814047Y-117421819D02*
X162909285Y-117374200D01*
X162909285Y-117374200D02*
X162956904Y-117326580D01*
X162956904Y-117326580D02*
X163004523Y-117231342D01*
X163004523Y-117231342D02*
X163004523Y-116421819D01*
X163385476Y-116421819D02*
X164004523Y-116421819D01*
X164004523Y-116421819D02*
X163671190Y-116802771D01*
X163671190Y-116802771D02*
X163814047Y-116802771D01*
X163814047Y-116802771D02*
X163909285Y-116850390D01*
X163909285Y-116850390D02*
X163956904Y-116898009D01*
X163956904Y-116898009D02*
X164004523Y-116993247D01*
X164004523Y-116993247D02*
X164004523Y-117231342D01*
X164004523Y-117231342D02*
X163956904Y-117326580D01*
X163956904Y-117326580D02*
X163909285Y-117374200D01*
X163909285Y-117374200D02*
X163814047Y-117421819D01*
X163814047Y-117421819D02*
X163528333Y-117421819D01*
X163528333Y-117421819D02*
X163433095Y-117374200D01*
X163433095Y-117374200D02*
X163385476Y-117326580D01*
X151566666Y-106134819D02*
X151566666Y-106849104D01*
X151566666Y-106849104D02*
X151519047Y-106991961D01*
X151519047Y-106991961D02*
X151423809Y-107087200D01*
X151423809Y-107087200D02*
X151280952Y-107134819D01*
X151280952Y-107134819D02*
X151185714Y-107134819D01*
X152042857Y-107134819D02*
X152042857Y-106134819D01*
X152042857Y-106134819D02*
X152423809Y-106134819D01*
X152423809Y-106134819D02*
X152519047Y-106182438D01*
X152519047Y-106182438D02*
X152566666Y-106230057D01*
X152566666Y-106230057D02*
X152614285Y-106325295D01*
X152614285Y-106325295D02*
X152614285Y-106468152D01*
X152614285Y-106468152D02*
X152566666Y-106563390D01*
X152566666Y-106563390D02*
X152519047Y-106611009D01*
X152519047Y-106611009D02*
X152423809Y-106658628D01*
X152423809Y-106658628D02*
X152042857Y-106658628D01*
X152995238Y-106230057D02*
X153042857Y-106182438D01*
X153042857Y-106182438D02*
X153138095Y-106134819D01*
X153138095Y-106134819D02*
X153376190Y-106134819D01*
X153376190Y-106134819D02*
X153471428Y-106182438D01*
X153471428Y-106182438D02*
X153519047Y-106230057D01*
X153519047Y-106230057D02*
X153566666Y-106325295D01*
X153566666Y-106325295D02*
X153566666Y-106420533D01*
X153566666Y-106420533D02*
X153519047Y-106563390D01*
X153519047Y-106563390D02*
X152947619Y-107134819D01*
X152947619Y-107134819D02*
X153566666Y-107134819D01*
X138450072Y-69063978D02*
X137959882Y-68751596D01*
X137922141Y-69282654D02*
X137539457Y-68358775D01*
X137539457Y-68358775D02*
X137891411Y-68212990D01*
X137891411Y-68212990D02*
X137997623Y-68220539D01*
X137997623Y-68220539D02*
X138059840Y-68246310D01*
X138059840Y-68246310D02*
X138140280Y-68316075D01*
X138140280Y-68316075D02*
X138194949Y-68448058D01*
X138194949Y-68448058D02*
X138187401Y-68554270D01*
X138187401Y-68554270D02*
X138161630Y-68616487D01*
X138161630Y-68616487D02*
X138091864Y-68696927D01*
X138091864Y-68696927D02*
X137739910Y-68842712D01*
X138759327Y-68317370D02*
X138653115Y-68309822D01*
X138653115Y-68309822D02*
X138590898Y-68284051D01*
X138590898Y-68284051D02*
X138510458Y-68214286D01*
X138510458Y-68214286D02*
X138492234Y-68170291D01*
X138492234Y-68170291D02*
X138499783Y-68064080D01*
X138499783Y-68064080D02*
X138525554Y-68001862D01*
X138525554Y-68001862D02*
X138595319Y-67921422D01*
X138595319Y-67921422D02*
X138771297Y-67848530D01*
X138771297Y-67848530D02*
X138877508Y-67856078D01*
X138877508Y-67856078D02*
X138939725Y-67881850D01*
X138939725Y-67881850D02*
X139020166Y-67951615D01*
X139020166Y-67951615D02*
X139038389Y-67995609D01*
X139038389Y-67995609D02*
X139030840Y-68101821D01*
X139030840Y-68101821D02*
X139005069Y-68164038D01*
X139005069Y-68164038D02*
X138935304Y-68244478D01*
X138935304Y-68244478D02*
X138759327Y-68317370D01*
X138759327Y-68317370D02*
X138689561Y-68397811D01*
X138689561Y-68397811D02*
X138663790Y-68460028D01*
X138663790Y-68460028D02*
X138656242Y-68566240D01*
X138656242Y-68566240D02*
X138729134Y-68742217D01*
X138729134Y-68742217D02*
X138809574Y-68811982D01*
X138809574Y-68811982D02*
X138871791Y-68837753D01*
X138871791Y-68837753D02*
X138978003Y-68845302D01*
X138978003Y-68845302D02*
X139153980Y-68772410D01*
X139153980Y-68772410D02*
X139223745Y-68691969D01*
X139223745Y-68691969D02*
X139249517Y-68629752D01*
X139249517Y-68629752D02*
X139257065Y-68523540D01*
X139257065Y-68523540D02*
X139184173Y-68347563D01*
X139184173Y-68347563D02*
X139103733Y-68277798D01*
X139103733Y-68277798D02*
X139041515Y-68252027D01*
X139041515Y-68252027D02*
X138935304Y-68244478D01*
X150219580Y-122721666D02*
X150267200Y-122769285D01*
X150267200Y-122769285D02*
X150314819Y-122912142D01*
X150314819Y-122912142D02*
X150314819Y-123007380D01*
X150314819Y-123007380D02*
X150267200Y-123150237D01*
X150267200Y-123150237D02*
X150171961Y-123245475D01*
X150171961Y-123245475D02*
X150076723Y-123293094D01*
X150076723Y-123293094D02*
X149886247Y-123340713D01*
X149886247Y-123340713D02*
X149743390Y-123340713D01*
X149743390Y-123340713D02*
X149552914Y-123293094D01*
X149552914Y-123293094D02*
X149457676Y-123245475D01*
X149457676Y-123245475D02*
X149362438Y-123150237D01*
X149362438Y-123150237D02*
X149314819Y-123007380D01*
X149314819Y-123007380D02*
X149314819Y-122912142D01*
X149314819Y-122912142D02*
X149362438Y-122769285D01*
X149362438Y-122769285D02*
X149410057Y-122721666D01*
X149648152Y-121864523D02*
X150314819Y-121864523D01*
X149267200Y-122102618D02*
X149981485Y-122340713D01*
X149981485Y-122340713D02*
X149981485Y-121721666D01*
X155934580Y-117641666D02*
X155982200Y-117689285D01*
X155982200Y-117689285D02*
X156029819Y-117832142D01*
X156029819Y-117832142D02*
X156029819Y-117927380D01*
X156029819Y-117927380D02*
X155982200Y-118070237D01*
X155982200Y-118070237D02*
X155886961Y-118165475D01*
X155886961Y-118165475D02*
X155791723Y-118213094D01*
X155791723Y-118213094D02*
X155601247Y-118260713D01*
X155601247Y-118260713D02*
X155458390Y-118260713D01*
X155458390Y-118260713D02*
X155267914Y-118213094D01*
X155267914Y-118213094D02*
X155172676Y-118165475D01*
X155172676Y-118165475D02*
X155077438Y-118070237D01*
X155077438Y-118070237D02*
X155029819Y-117927380D01*
X155029819Y-117927380D02*
X155029819Y-117832142D01*
X155029819Y-117832142D02*
X155077438Y-117689285D01*
X155077438Y-117689285D02*
X155125057Y-117641666D01*
X155125057Y-117260713D02*
X155077438Y-117213094D01*
X155077438Y-117213094D02*
X155029819Y-117117856D01*
X155029819Y-117117856D02*
X155029819Y-116879761D01*
X155029819Y-116879761D02*
X155077438Y-116784523D01*
X155077438Y-116784523D02*
X155125057Y-116736904D01*
X155125057Y-116736904D02*
X155220295Y-116689285D01*
X155220295Y-116689285D02*
X155315533Y-116689285D01*
X155315533Y-116689285D02*
X155458390Y-116736904D01*
X155458390Y-116736904D02*
X156029819Y-117308332D01*
X156029819Y-117308332D02*
X156029819Y-116689285D01*
X171174580Y-122721666D02*
X171222200Y-122769285D01*
X171222200Y-122769285D02*
X171269819Y-122912142D01*
X171269819Y-122912142D02*
X171269819Y-123007380D01*
X171269819Y-123007380D02*
X171222200Y-123150237D01*
X171222200Y-123150237D02*
X171126961Y-123245475D01*
X171126961Y-123245475D02*
X171031723Y-123293094D01*
X171031723Y-123293094D02*
X170841247Y-123340713D01*
X170841247Y-123340713D02*
X170698390Y-123340713D01*
X170698390Y-123340713D02*
X170507914Y-123293094D01*
X170507914Y-123293094D02*
X170412676Y-123245475D01*
X170412676Y-123245475D02*
X170317438Y-123150237D01*
X170317438Y-123150237D02*
X170269819Y-123007380D01*
X170269819Y-123007380D02*
X170269819Y-122912142D01*
X170269819Y-122912142D02*
X170317438Y-122769285D01*
X170317438Y-122769285D02*
X170365057Y-122721666D01*
X170269819Y-121864523D02*
X170269819Y-122054999D01*
X170269819Y-122054999D02*
X170317438Y-122150237D01*
X170317438Y-122150237D02*
X170365057Y-122197856D01*
X170365057Y-122197856D02*
X170507914Y-122293094D01*
X170507914Y-122293094D02*
X170698390Y-122340713D01*
X170698390Y-122340713D02*
X171079342Y-122340713D01*
X171079342Y-122340713D02*
X171174580Y-122293094D01*
X171174580Y-122293094D02*
X171222200Y-122245475D01*
X171222200Y-122245475D02*
X171269819Y-122150237D01*
X171269819Y-122150237D02*
X171269819Y-121959761D01*
X171269819Y-121959761D02*
X171222200Y-121864523D01*
X171222200Y-121864523D02*
X171174580Y-121816904D01*
X171174580Y-121816904D02*
X171079342Y-121769285D01*
X171079342Y-121769285D02*
X170841247Y-121769285D01*
X170841247Y-121769285D02*
X170746009Y-121816904D01*
X170746009Y-121816904D02*
X170698390Y-121864523D01*
X170698390Y-121864523D02*
X170650771Y-121959761D01*
X170650771Y-121959761D02*
X170650771Y-122150237D01*
X170650771Y-122150237D02*
X170698390Y-122245475D01*
X170698390Y-122245475D02*
X170746009Y-122293094D01*
X170746009Y-122293094D02*
X170841247Y-122340713D01*
D12*
X170465238Y-106062095D02*
X170126571Y-105578286D01*
X169884666Y-106062095D02*
X169884666Y-105046095D01*
X169884666Y-105046095D02*
X170271714Y-105046095D01*
X170271714Y-105046095D02*
X170368476Y-105094476D01*
X170368476Y-105094476D02*
X170416857Y-105142857D01*
X170416857Y-105142857D02*
X170465238Y-105239619D01*
X170465238Y-105239619D02*
X170465238Y-105384762D01*
X170465238Y-105384762D02*
X170416857Y-105481524D01*
X170416857Y-105481524D02*
X170368476Y-105529905D01*
X170368476Y-105529905D02*
X170271714Y-105578286D01*
X170271714Y-105578286D02*
X169884666Y-105578286D01*
X170755523Y-105046095D02*
X171094190Y-106062095D01*
X171094190Y-106062095D02*
X171432857Y-105046095D01*
X171723142Y-105142857D02*
X171771523Y-105094476D01*
X171771523Y-105094476D02*
X171868285Y-105046095D01*
X171868285Y-105046095D02*
X172110190Y-105046095D01*
X172110190Y-105046095D02*
X172206952Y-105094476D01*
X172206952Y-105094476D02*
X172255333Y-105142857D01*
X172255333Y-105142857D02*
X172303714Y-105239619D01*
X172303714Y-105239619D02*
X172303714Y-105336381D01*
X172303714Y-105336381D02*
X172255333Y-105481524D01*
X172255333Y-105481524D02*
X171674761Y-106062095D01*
X171674761Y-106062095D02*
X172303714Y-106062095D01*
D13*
X161220000Y-130175000D02*
X160200000Y-130175000D01*
X160200000Y-131645000D02*
X160200000Y-128705000D01*
X160200000Y-128705000D02*
X154760000Y-128705000D01*
X159420000Y-131645000D02*
X159420000Y-128705000D01*
X159300000Y-131645000D02*
X159300000Y-128705000D01*
X159180000Y-131645000D02*
X159180000Y-128705000D01*
X154760000Y-131645000D02*
X160200000Y-131645000D01*
X154760000Y-128705000D02*
X154760000Y-131645000D01*
X153740000Y-130175000D02*
X154760000Y-130175000D01*
X188945000Y-99040000D02*
X185855000Y-99040000D01*
X187399538Y-104589999D02*
G75*
G03*
X188944830Y-99040001I462J2989999D01*
G01*
X185855170Y-99040000D02*
G75*
G03*
X187400462Y-104590000I1544830J-2560000D01*
G01*
X189900000Y-101600000D02*
G75*
G03*
X189900000Y-101600000I-2500000J0D01*
G01*
X150150000Y-75505000D02*
X150150000Y-95945000D01*
X150150000Y-95945000D02*
X154650000Y-95945000D01*
X151400000Y-75505000D02*
X150150000Y-75505000D01*
X154650000Y-75505000D02*
X153400000Y-75505000D01*
X154650000Y-95945000D02*
X154650000Y-75505000D01*
X151400000Y-75505000D02*
G75*
G03*
X153400000Y-75505000I1000000J0D01*
G01*
X145510000Y-126465000D02*
X138970000Y-126465000D01*
X145510000Y-126135000D02*
X145510000Y-126465000D01*
X145510000Y-124055000D02*
X145510000Y-123725000D01*
X145510000Y-123725000D02*
X138970000Y-123725000D01*
X138970000Y-126465000D02*
X138970000Y-126135000D01*
X138970000Y-123725000D02*
X138970000Y-124055000D01*
X162824638Y-134417636D02*
X168866810Y-131914886D01*
X162950923Y-134722516D02*
X162824638Y-134417636D01*
X163746905Y-136644186D02*
X163873190Y-136949066D01*
X163873190Y-136949066D02*
X169915362Y-134446316D01*
X168866810Y-131914886D02*
X168993095Y-132219767D01*
X169915362Y-134446316D02*
X169789077Y-134141436D01*
X135990000Y-114855000D02*
X135675000Y-114855000D01*
X135990000Y-114855000D02*
X135990000Y-120095000D01*
X133565000Y-114855000D02*
X133250000Y-114855000D01*
X133250000Y-114855000D02*
X133250000Y-120095000D01*
X135990000Y-120095000D02*
X135675000Y-120095000D01*
X133565000Y-120095000D02*
X133250000Y-120095000D01*
X168866810Y-71097090D02*
X162824638Y-68594340D01*
X168993095Y-70792210D02*
X168866810Y-71097090D01*
X169789077Y-68870540D02*
X169915362Y-68565660D01*
X169915362Y-68565660D02*
X163873190Y-66062910D01*
X162824638Y-68594340D02*
X162950923Y-68289460D01*
X163873190Y-66062910D02*
X163746905Y-66367791D01*
X185593684Y-91175362D02*
X183090934Y-85133190D01*
X185898564Y-91049077D02*
X185593684Y-91175362D01*
X187820234Y-90253095D02*
X188125114Y-90126810D01*
X188125114Y-90126810D02*
X185622364Y-84084638D01*
X183090934Y-85133190D02*
X183395815Y-85006905D01*
X185622364Y-84084638D02*
X185317484Y-84210923D01*
X169445000Y-117555000D02*
X169760000Y-117555000D01*
X169445000Y-117555000D02*
X169445000Y-112315000D01*
X171870000Y-117555000D02*
X172185000Y-117555000D01*
X172185000Y-117555000D02*
X172185000Y-112315000D01*
X169445000Y-112315000D02*
X169760000Y-112315000D01*
X171870000Y-112315000D02*
X172185000Y-112315000D01*
X154960000Y-138145000D02*
X154960000Y-135055000D01*
X149410001Y-136599538D02*
G75*
G03*
X154959999Y-138144830I2989999J-462D01*
G01*
X154960000Y-135055170D02*
G75*
G03*
X149410000Y-136600462I-2560000J-1544830D01*
G01*
X154900000Y-136600000D02*
G75*
G03*
X154900000Y-136600000I-2500000J0D01*
G01*
X182902910Y-118066810D02*
X185405660Y-112024638D01*
X183207790Y-118193095D02*
X182902910Y-118066810D01*
X185129460Y-118989077D02*
X185434340Y-119115362D01*
X185434340Y-119115362D02*
X187937090Y-113073190D01*
X185405660Y-112024638D02*
X185710540Y-112150923D01*
X187937090Y-113073190D02*
X187632209Y-112946905D01*
X149840000Y-65055000D02*
X149840000Y-68145000D01*
X155389999Y-66600462D02*
G75*
G03*
X149840001Y-65055170I-2989999J462D01*
G01*
X149840000Y-68144830D02*
G75*
G03*
X155390000Y-66599538I2560000J1544830D01*
G01*
X154900000Y-66600000D02*
G75*
G03*
X154900000Y-66600000I-2500000J0D01*
G01*
X166465000Y-126465000D02*
X159925000Y-126465000D01*
X166465000Y-126135000D02*
X166465000Y-126465000D01*
X166465000Y-124055000D02*
X166465000Y-123725000D01*
X166465000Y-123725000D02*
X159925000Y-123725000D01*
X159925000Y-126465000D02*
X159925000Y-126135000D01*
X159925000Y-123725000D02*
X159925000Y-124055000D01*
X121897090Y-85133190D02*
X119394340Y-91175362D01*
X121592210Y-85006905D02*
X121897090Y-85133190D01*
X119670540Y-84210923D02*
X119365660Y-84084638D01*
X119365660Y-84084638D02*
X116862910Y-90126810D01*
X119394340Y-91175362D02*
X119089460Y-91049077D01*
X116862910Y-90126810D02*
X117167791Y-90253095D01*
X135933190Y-132102910D02*
X141975362Y-134605660D01*
X135806905Y-132407790D02*
X135933190Y-132102910D01*
X135010923Y-134329460D02*
X134884638Y-134634340D01*
X134884638Y-134634340D02*
X140926810Y-137137090D01*
X141975362Y-134605660D02*
X141849077Y-134910540D01*
X140926810Y-137137090D02*
X141053095Y-136832209D01*
X140910000Y-131505000D02*
X140910000Y-130175000D01*
X142240000Y-131505000D02*
X140910000Y-131505000D01*
X143510000Y-131505000D02*
X148650000Y-131505000D01*
X143510000Y-131505000D02*
X143510000Y-128845000D01*
X148650000Y-131505000D02*
X148650000Y-128845000D01*
X143510000Y-128845000D02*
X148650000Y-128845000D01*
D14*
X128730000Y-96085000D02*
X138730000Y-96085000D01*
X128730000Y-99045000D02*
X128730000Y-96085000D01*
X128730000Y-107585000D02*
X128730000Y-104125000D01*
X138730000Y-107585000D02*
X128730000Y-107585000D01*
X138810000Y-99045000D02*
X138810000Y-96085000D01*
X138810000Y-107585000D02*
X138810000Y-104125000D01*
X135966068Y-101585000D02*
G75*
G03*
X135966068Y-101585000I-2236068J0D01*
G01*
D13*
X146110000Y-105470000D02*
X144780000Y-105470000D01*
X146110000Y-104140000D02*
X146110000Y-105470000D01*
X146110000Y-102870000D02*
X146110000Y-97730000D01*
X146110000Y-102870000D02*
X143450000Y-102870000D01*
X146110000Y-97730000D02*
X143450000Y-97730000D01*
X143450000Y-102870000D02*
X143450000Y-97730000D01*
G36*
X173253312Y-82754964D02*
G01*
X173328162Y-82829814D01*
X172945000Y-83212977D01*
X172561838Y-83596139D01*
X172486987Y-83521288D01*
X172412137Y-83446438D01*
X172795299Y-83063276D01*
X173178461Y-82680114D01*
X173253312Y-82754964D01*
G37*
G36*
X175554068Y-81306076D02*
G01*
X175580800Y-81332808D01*
X174162209Y-82751399D01*
X172743617Y-84169991D01*
X172716885Y-84143259D01*
X172690153Y-84116527D01*
X174108745Y-82697935D01*
X175527336Y-81279344D01*
X175554068Y-81306076D01*
G37*
G36*
X177402158Y-85307003D02*
G01*
X177466315Y-85371160D01*
X177202557Y-85634918D01*
X176938799Y-85898677D01*
X177099192Y-86059071D01*
X177259586Y-86219464D01*
X177206122Y-86272929D01*
X177152658Y-86326393D01*
X176928107Y-86101842D01*
X176703556Y-85877291D01*
X177020779Y-85560068D01*
X177338001Y-85242846D01*
X177402158Y-85307003D01*
G37*
G36*
X174283432Y-80356226D02*
G01*
X175089002Y-81161796D01*
X174930353Y-81318587D01*
X174771704Y-81475380D01*
X174290511Y-80995994D01*
X173809317Y-80516608D01*
X173713094Y-80612832D01*
X173616870Y-80709055D01*
X174023201Y-81115385D01*
X174429531Y-81521716D01*
X174270920Y-81680327D01*
X174112308Y-81838939D01*
X173705978Y-81432608D01*
X173299648Y-81026278D01*
X173194501Y-81131425D01*
X173089354Y-81236571D01*
X173588356Y-81735574D01*
X174087358Y-82234576D01*
X173928747Y-82393187D01*
X173770135Y-82551798D01*
X172946782Y-81728445D01*
X172123428Y-80905092D01*
X172800646Y-80227874D01*
X173477863Y-79550657D01*
X174283432Y-80356226D01*
G37*
G36*
X176113663Y-84018508D02*
G01*
X176179603Y-84084448D01*
X176054852Y-84209199D01*
X175930102Y-84333949D01*
X176054853Y-84458699D01*
X176179604Y-84583450D01*
X176304354Y-84458700D01*
X176429104Y-84333949D01*
X176495043Y-84399889D01*
X176560983Y-84465828D01*
X176243761Y-84783051D01*
X175926538Y-85100274D01*
X175860598Y-85034334D01*
X175794659Y-84968395D01*
X175933666Y-84829387D01*
X176072674Y-84690379D01*
X175947924Y-84565629D01*
X175823173Y-84440878D01*
X175684165Y-84579886D01*
X175545158Y-84718893D01*
X175479218Y-84652954D01*
X175413279Y-84587014D01*
X175730502Y-84269791D01*
X176047724Y-83952569D01*
X176113663Y-84018508D01*
G37*
G36*
X177774628Y-83847422D02*
G01*
X177840568Y-83913362D01*
X177715817Y-84038112D01*
X177591067Y-84162863D01*
X177715817Y-84287613D01*
X177840567Y-84412363D01*
X177965318Y-84287613D01*
X178090068Y-84162862D01*
X178156008Y-84228802D01*
X178221948Y-84294742D01*
X177904725Y-84611965D01*
X177587502Y-84929188D01*
X177521562Y-84863248D01*
X177455622Y-84797308D01*
X177594630Y-84658300D01*
X177733638Y-84519293D01*
X177608888Y-84394543D01*
X177484137Y-84269792D01*
X177345130Y-84408799D01*
X177206122Y-84547807D01*
X177140182Y-84481868D01*
X177074242Y-84415928D01*
X177391465Y-84098705D01*
X177708688Y-83781482D01*
X177774628Y-83847422D01*
G37*
G36*
X177304140Y-87033907D02*
G01*
X177541167Y-87270933D01*
X177487702Y-87324398D01*
X177434237Y-87377862D01*
X177263151Y-87206776D01*
X177092064Y-87035689D01*
X177022560Y-87105193D01*
X176953056Y-87174697D01*
X177111667Y-87333308D01*
X177270279Y-87491920D01*
X177216815Y-87545384D01*
X177163350Y-87598849D01*
X177004739Y-87440237D01*
X176846127Y-87281626D01*
X176758802Y-87368951D01*
X176671477Y-87456276D01*
X176849692Y-87634491D01*
X177027907Y-87812706D01*
X176974442Y-87866171D01*
X176920978Y-87919636D01*
X176676823Y-87675481D01*
X176432669Y-87431327D01*
X176749892Y-87114104D01*
X177067115Y-86796881D01*
X177304140Y-87033907D01*
G37*
G36*
X175794658Y-81863888D02*
G01*
X175862380Y-81931610D01*
X175739458Y-82056407D01*
X175616536Y-82181203D01*
X175737676Y-82302343D01*
X175858816Y-82423483D01*
X175983643Y-82298656D01*
X176108471Y-82173829D01*
X176176115Y-82243409D01*
X176243760Y-82312990D01*
X175924755Y-82631995D01*
X175605750Y-82951000D01*
X175536170Y-82883355D01*
X175466589Y-82815711D01*
X175605673Y-82676626D01*
X175744758Y-82537541D01*
X175623614Y-82416397D01*
X175502470Y-82295252D01*
X175363420Y-82432437D01*
X175224370Y-82569620D01*
X175156488Y-82503678D01*
X175131519Y-82479201D01*
X175113247Y-82460720D01*
X175100936Y-82447416D01*
X175093852Y-82438478D01*
X175091257Y-82433084D01*
X175091411Y-82431472D01*
X175095328Y-82427062D01*
X175105888Y-82416071D01*
X175122574Y-82399018D01*
X175144872Y-82376421D01*
X175172264Y-82348798D01*
X175204236Y-82316668D01*
X175240272Y-82280548D01*
X175279857Y-82240958D01*
X175322474Y-82198416D01*
X175367607Y-82153439D01*
X175410577Y-82110688D01*
X175726937Y-81796167D01*
X175794658Y-81863888D01*
G37*
G36*
X170105999Y-79607651D02*
G01*
X170184379Y-79686031D01*
X170017070Y-79855191D01*
X169849763Y-80024351D01*
X170172466Y-80010587D01*
X170495171Y-79996823D01*
X170598658Y-80100310D01*
X170628465Y-80130159D01*
X170651794Y-80153670D01*
X170669318Y-80171611D01*
X170681715Y-80184749D01*
X170689657Y-80193848D01*
X170693823Y-80199675D01*
X170694885Y-80202996D01*
X170693521Y-80204578D01*
X170691042Y-80205117D01*
X170684034Y-80205451D01*
X170667901Y-80205934D01*
X170643598Y-80206547D01*
X170612079Y-80207266D01*
X170574300Y-80208073D01*
X170531216Y-80208946D01*
X170483781Y-80209866D01*
X170432949Y-80210810D01*
X170400532Y-80211392D01*
X170348426Y-80212387D01*
X170299400Y-80213462D01*
X170254368Y-80214585D01*
X170214246Y-80215728D01*
X170179952Y-80216862D01*
X170152401Y-80217956D01*
X170132508Y-80218983D01*
X170121190Y-80219912D01*
X170118869Y-80220443D01*
X170117570Y-80225732D01*
X170114353Y-80240010D01*
X170109406Y-80262412D01*
X170102915Y-80292068D01*
X170095066Y-80328109D01*
X170086049Y-80369667D01*
X170076049Y-80415874D01*
X170065253Y-80465862D01*
X170053848Y-80518761D01*
X170042023Y-80573705D01*
X170029964Y-80629824D01*
X170017857Y-80686249D01*
X170005890Y-80742114D01*
X169994251Y-80796548D01*
X169983124Y-80848684D01*
X169972700Y-80897654D01*
X169963163Y-80942588D01*
X169956384Y-80974646D01*
X169953590Y-80987890D01*
X169852642Y-80886636D01*
X169751693Y-80785380D01*
X169826449Y-80501948D01*
X169901204Y-80218515D01*
X169776269Y-80218864D01*
X169651335Y-80219215D01*
X169534730Y-80335820D01*
X169418125Y-80452425D01*
X169339710Y-80374011D01*
X169261296Y-80295596D01*
X169644458Y-79912434D01*
X170027620Y-79529272D01*
X170105999Y-79607651D01*
G37*
G36*
X176047733Y-85779264D02*
G01*
X176088849Y-85821146D01*
X176123510Y-85856625D01*
X176152343Y-85886478D01*
X176175973Y-85911478D01*
X176195026Y-85932403D01*
X176210127Y-85950026D01*
X176221901Y-85965122D01*
X176230975Y-85978468D01*
X176237972Y-85990838D01*
X176243520Y-86003008D01*
X176248243Y-86015752D01*
X176252768Y-86029847D01*
X176254516Y-86035559D01*
X176261990Y-86075795D01*
X176261702Y-86119256D01*
X176254072Y-86163285D01*
X176239523Y-86205221D01*
X176222716Y-86236196D01*
X176207493Y-86256343D01*
X176186969Y-86279307D01*
X176163617Y-86302677D01*
X176139916Y-86324043D01*
X176118340Y-86340996D01*
X176108354Y-86347520D01*
X176063487Y-86368180D01*
X176015835Y-86379784D01*
X175966942Y-86382378D01*
X175918352Y-86376010D01*
X175871611Y-86360727D01*
X175831898Y-86339055D01*
X175821226Y-86330843D01*
X175804661Y-86316742D01*
X175783506Y-86297923D01*
X175759062Y-86275560D01*
X175732633Y-86250825D01*
X175710937Y-86230118D01*
X175615608Y-86138321D01*
X175496622Y-86257307D01*
X175377636Y-86376294D01*
X175311696Y-86310354D01*
X175245756Y-86244414D01*
X175458593Y-86031577D01*
X175722352Y-86031577D01*
X175796532Y-86101752D01*
X175828490Y-86131510D01*
X175854214Y-86154381D01*
X175874314Y-86170883D01*
X175889400Y-86181530D01*
X175894068Y-86184213D01*
X175925783Y-86195957D01*
X175957253Y-86198751D01*
X175987299Y-86193573D01*
X176014737Y-86181399D01*
X176038387Y-86163205D01*
X176057066Y-86139968D01*
X176069590Y-86112664D01*
X176074781Y-86082269D01*
X176071455Y-86049758D01*
X176068689Y-86039952D01*
X176058700Y-86019126D01*
X176040424Y-85992705D01*
X176013844Y-85960671D01*
X175978947Y-85923005D01*
X175957699Y-85901377D01*
X175905152Y-85848777D01*
X175813752Y-85940177D01*
X175722352Y-86031577D01*
X175458593Y-86031577D01*
X175563279Y-85926891D01*
X175773272Y-85716898D01*
X175880802Y-85609368D01*
X176047733Y-85779264D01*
G37*
G36*
X176639407Y-86370938D02*
G01*
X176680522Y-86412820D01*
X176715184Y-86448299D01*
X176744017Y-86478152D01*
X176767647Y-86503152D01*
X176786699Y-86524077D01*
X176801800Y-86541699D01*
X176813575Y-86556796D01*
X176822649Y-86570142D01*
X176829646Y-86582512D01*
X176835194Y-86594681D01*
X176839918Y-86607426D01*
X176844442Y-86621520D01*
X176846190Y-86627233D01*
X176853664Y-86667468D01*
X176853375Y-86710930D01*
X176845746Y-86754959D01*
X176831197Y-86796895D01*
X176814390Y-86827870D01*
X176799167Y-86848017D01*
X176778643Y-86870981D01*
X176755292Y-86894351D01*
X176731590Y-86915717D01*
X176710014Y-86932670D01*
X176700028Y-86939194D01*
X176655162Y-86959854D01*
X176607509Y-86971458D01*
X176558616Y-86974052D01*
X176510026Y-86967684D01*
X176463284Y-86952401D01*
X176423572Y-86930728D01*
X176412899Y-86922517D01*
X176396335Y-86908416D01*
X176375179Y-86889597D01*
X176350736Y-86867234D01*
X176324307Y-86842498D01*
X176302611Y-86821792D01*
X176207282Y-86729995D01*
X176088296Y-86848981D01*
X175969309Y-86967967D01*
X175903370Y-86902028D01*
X175837430Y-86836088D01*
X176050268Y-86623251D01*
X176314026Y-86623251D01*
X176388206Y-86693425D01*
X176420164Y-86723183D01*
X176445888Y-86746055D01*
X176465988Y-86762557D01*
X176481074Y-86773204D01*
X176485741Y-86775887D01*
X176517456Y-86787630D01*
X176548928Y-86790426D01*
X176578973Y-86785247D01*
X176606411Y-86773073D01*
X176630061Y-86754879D01*
X176648739Y-86731642D01*
X176661264Y-86704337D01*
X176666454Y-86673942D01*
X176663130Y-86641433D01*
X176660363Y-86631626D01*
X176650374Y-86610800D01*
X176632098Y-86584379D01*
X176605519Y-86552346D01*
X176570621Y-86514679D01*
X176549372Y-86493051D01*
X176496826Y-86440451D01*
X176405426Y-86531851D01*
X176314026Y-86623251D01*
X176050268Y-86623251D01*
X176154953Y-86518566D01*
X176364947Y-86308572D01*
X176472476Y-86201043D01*
X176639407Y-86370938D01*
G37*
G36*
X175298647Y-85028413D02*
G01*
X175362740Y-85092506D01*
X175142366Y-85315888D01*
X175094806Y-85364091D01*
X175053811Y-85405710D01*
X175018889Y-85441363D01*
X174989551Y-85471666D01*
X174965303Y-85497237D01*
X174945658Y-85518694D01*
X174930122Y-85536654D01*
X174918206Y-85551734D01*
X174909419Y-85564552D01*
X174903271Y-85575726D01*
X174899269Y-85585873D01*
X174896925Y-85595609D01*
X174895747Y-85605553D01*
X174895244Y-85616321D01*
X174894965Y-85627154D01*
X174895974Y-85655937D01*
X174901432Y-85681079D01*
X174912361Y-85704737D01*
X174929784Y-85729068D01*
X174954724Y-85756224D01*
X174957605Y-85759112D01*
X174989494Y-85787758D01*
X175019139Y-85807397D01*
X175047740Y-85818496D01*
X175076499Y-85821522D01*
X175106387Y-85817003D01*
X175115328Y-85814321D01*
X175124339Y-85810702D01*
X175134003Y-85805629D01*
X175144900Y-85798586D01*
X175157609Y-85789055D01*
X175172710Y-85776520D01*
X175190786Y-85760465D01*
X175212417Y-85740373D01*
X175238181Y-85715727D01*
X175268661Y-85686011D01*
X175304437Y-85650708D01*
X175346089Y-85609301D01*
X175394197Y-85561273D01*
X175398103Y-85557369D01*
X175612879Y-85342646D01*
X175678819Y-85408586D01*
X175744758Y-85474525D01*
X175554928Y-85664293D01*
X175499523Y-85719486D01*
X175450567Y-85767816D01*
X175407570Y-85809738D01*
X175370039Y-85845701D01*
X175337486Y-85876160D01*
X175309420Y-85901564D01*
X175285350Y-85922367D01*
X175264787Y-85939019D01*
X175247238Y-85951973D01*
X175232213Y-85961680D01*
X175231858Y-85961890D01*
X175185099Y-85983987D01*
X175137026Y-85996128D01*
X175087904Y-85998318D01*
X175038002Y-85990559D01*
X174987583Y-85972854D01*
X174960518Y-85959314D01*
X174945548Y-85950460D01*
X174930897Y-85940309D01*
X174914882Y-85927487D01*
X174895819Y-85910619D01*
X174872030Y-85888331D01*
X174862477Y-85879191D01*
X174840047Y-85857217D01*
X174818813Y-85835635D01*
X174800454Y-85816211D01*
X174786653Y-85800709D01*
X174780775Y-85793371D01*
X174749394Y-85743399D01*
X174727749Y-85692829D01*
X174715868Y-85642097D01*
X174713780Y-85591638D01*
X174721513Y-85541888D01*
X174739096Y-85493280D01*
X174758692Y-85457949D01*
X174763873Y-85450347D01*
X174770485Y-85441634D01*
X174779069Y-85431233D01*
X174790170Y-85418573D01*
X174804331Y-85403074D01*
X174822095Y-85384163D01*
X174844005Y-85361262D01*
X174870607Y-85333798D01*
X174902440Y-85301196D01*
X174940050Y-85262877D01*
X174983981Y-85218269D01*
X175007076Y-85194855D01*
X175234555Y-84964321D01*
X175298647Y-85028413D01*
G37*
G36*
X176756446Y-84661291D02*
G01*
X176820538Y-84725383D01*
X176600165Y-84948765D01*
X176552605Y-84996969D01*
X176511610Y-85038588D01*
X176476689Y-85074240D01*
X176447349Y-85104543D01*
X176423102Y-85130115D01*
X176403456Y-85151571D01*
X176387921Y-85169532D01*
X176376005Y-85184612D01*
X176367218Y-85197430D01*
X176361070Y-85208603D01*
X176357068Y-85218749D01*
X176354724Y-85228485D01*
X176353546Y-85238429D01*
X176353043Y-85249198D01*
X176352764Y-85260031D01*
X176353773Y-85288814D01*
X176359231Y-85313956D01*
X176370160Y-85337615D01*
X176387583Y-85361944D01*
X176412523Y-85389100D01*
X176415404Y-85391990D01*
X176447293Y-85420636D01*
X176476938Y-85440274D01*
X176505540Y-85451373D01*
X176534298Y-85454400D01*
X176564186Y-85449881D01*
X176573126Y-85447198D01*
X176582139Y-85443580D01*
X176591802Y-85438507D01*
X176602699Y-85431463D01*
X176615407Y-85421932D01*
X176630509Y-85409398D01*
X176648586Y-85393342D01*
X176670216Y-85373250D01*
X176695980Y-85348605D01*
X176726460Y-85318888D01*
X176762236Y-85283585D01*
X176803888Y-85242177D01*
X176851996Y-85194150D01*
X176855902Y-85190246D01*
X177070678Y-84975524D01*
X177136617Y-85041463D01*
X177202557Y-85107403D01*
X177012727Y-85297170D01*
X176957322Y-85352362D01*
X176908366Y-85400693D01*
X176865369Y-85442614D01*
X176827839Y-85478578D01*
X176795286Y-85509037D01*
X176767220Y-85534441D01*
X176743149Y-85555244D01*
X176722585Y-85571896D01*
X176705037Y-85584850D01*
X176690012Y-85594557D01*
X176689657Y-85594767D01*
X176642898Y-85616863D01*
X176594825Y-85629005D01*
X176545704Y-85631195D01*
X176495801Y-85623437D01*
X176445382Y-85605731D01*
X176418317Y-85592191D01*
X176403347Y-85583336D01*
X176388696Y-85573185D01*
X176372681Y-85560363D01*
X176353618Y-85543496D01*
X176329829Y-85521209D01*
X176320276Y-85512067D01*
X176297846Y-85490094D01*
X176276612Y-85468513D01*
X176258253Y-85449088D01*
X176244453Y-85433587D01*
X176238573Y-85426248D01*
X176207193Y-85376276D01*
X176185548Y-85325706D01*
X176173667Y-85274974D01*
X176171579Y-85224515D01*
X176179312Y-85174764D01*
X176196895Y-85126158D01*
X176216491Y-85090827D01*
X176221673Y-85083224D01*
X176228284Y-85074510D01*
X176236868Y-85064111D01*
X176247969Y-85051449D01*
X176262130Y-85035950D01*
X176279894Y-85017039D01*
X176301805Y-84994140D01*
X176328405Y-84966676D01*
X176360239Y-84934072D01*
X176397849Y-84895755D01*
X176441779Y-84851146D01*
X176464874Y-84827732D01*
X176692353Y-84597198D01*
X176756446Y-84661291D01*
G37*
G36*
X172413115Y-82395280D02*
G01*
X172468510Y-82409499D01*
X172521034Y-82432911D01*
X172540337Y-82444412D01*
X172572805Y-82468839D01*
X172605761Y-82499953D01*
X172636574Y-82534859D01*
X172662610Y-82570656D01*
X172676310Y-82594156D01*
X172699211Y-82648457D01*
X172712164Y-82703051D01*
X172715154Y-82758003D01*
X172708167Y-82813381D01*
X172691187Y-82869253D01*
X172664200Y-82925687D01*
X172627192Y-82982748D01*
X172580146Y-83040503D01*
X172577571Y-83043366D01*
X172534424Y-83091110D01*
X172349852Y-82906537D01*
X172165279Y-82721964D01*
X172145882Y-82746312D01*
X172121550Y-82783113D01*
X172106730Y-82820976D01*
X172100923Y-82859809D01*
X172103418Y-82897083D01*
X172113621Y-82930992D01*
X172130392Y-82960661D01*
X172152589Y-82985215D01*
X172179076Y-83003777D01*
X172208707Y-83015473D01*
X172240346Y-83019429D01*
X172272851Y-83014768D01*
X172292918Y-83007177D01*
X172307188Y-83001295D01*
X172317684Y-82998636D01*
X172321127Y-82999130D01*
X172325801Y-83005073D01*
X172334845Y-83017457D01*
X172347199Y-83034757D01*
X172361801Y-83055449D01*
X172377590Y-83078006D01*
X172393506Y-83100906D01*
X172408486Y-83122625D01*
X172421471Y-83141634D01*
X172431398Y-83156412D01*
X172437208Y-83165433D01*
X172438275Y-83167464D01*
X172433720Y-83171126D01*
X172421471Y-83176423D01*
X172403654Y-83182700D01*
X172382394Y-83189305D01*
X172359814Y-83195585D01*
X172338042Y-83200886D01*
X172319202Y-83204556D01*
X172316034Y-83205027D01*
X172266448Y-83207096D01*
X172215284Y-83200242D01*
X172164551Y-83184961D01*
X172116258Y-83161750D01*
X172099710Y-83151452D01*
X172073654Y-83131808D01*
X172044923Y-83106326D01*
X172016213Y-83077692D01*
X171990227Y-83048596D01*
X171970093Y-83022357D01*
X171939926Y-82970360D01*
X171919691Y-82916883D01*
X171909400Y-82862243D01*
X171909067Y-82806761D01*
X171918703Y-82750757D01*
X171938323Y-82694549D01*
X171955688Y-82659406D01*
X171970352Y-82636366D01*
X172257896Y-82636366D01*
X172367430Y-82745900D01*
X172476963Y-82855434D01*
X172493186Y-82834230D01*
X172510113Y-82808887D01*
X172524354Y-82781502D01*
X172534155Y-82755697D01*
X172536957Y-82743856D01*
X172537750Y-82710736D01*
X172530119Y-82676850D01*
X172515127Y-82644855D01*
X172493830Y-82617411D01*
X172482551Y-82607316D01*
X172449097Y-82586813D01*
X172413455Y-82575785D01*
X172376745Y-82574188D01*
X172340093Y-82581974D01*
X172304625Y-82599100D01*
X172282497Y-82615421D01*
X172257896Y-82636366D01*
X171970352Y-82636366D01*
X171989519Y-82606250D01*
X172030271Y-82556123D01*
X172076403Y-82510373D01*
X172107219Y-82485690D01*
X172126376Y-82470345D01*
X172178648Y-82437389D01*
X172231679Y-82412848D01*
X172241843Y-82409205D01*
X172298567Y-82394989D01*
X172356062Y-82390395D01*
X172413115Y-82395280D01*
G37*
G36*
X174773360Y-84505163D02*
G01*
X174815408Y-84547972D01*
X174850946Y-84584298D01*
X174880583Y-84614801D01*
X174904929Y-84640132D01*
X174924595Y-84660947D01*
X174940191Y-84677904D01*
X174952328Y-84691654D01*
X174961615Y-84702855D01*
X174968663Y-84712161D01*
X174974081Y-84720228D01*
X174974919Y-84721580D01*
X174997045Y-84766518D01*
X175009215Y-84812394D01*
X175011436Y-84858623D01*
X175003716Y-84904621D01*
X174986065Y-84949802D01*
X174971193Y-84975536D01*
X174938740Y-85017326D01*
X174901790Y-85050523D01*
X174861163Y-85074924D01*
X174817685Y-85090327D01*
X174772175Y-85096526D01*
X174725455Y-85093320D01*
X174678349Y-85080506D01*
X174633566Y-85058999D01*
X174617830Y-85049788D01*
X174605035Y-85042373D01*
X174598551Y-85038697D01*
X174595110Y-85040451D01*
X174595366Y-85051157D01*
X174596631Y-85058439D01*
X174603924Y-85115526D01*
X174602969Y-85174409D01*
X174598898Y-85208805D01*
X174595856Y-85226631D01*
X174591084Y-85251820D01*
X174584960Y-85282604D01*
X174577861Y-85317215D01*
X174570166Y-85353884D01*
X174562252Y-85390845D01*
X174554495Y-85426328D01*
X174547277Y-85458567D01*
X174540970Y-85485795D01*
X174535956Y-85506240D01*
X174533243Y-85516150D01*
X174529583Y-85528241D01*
X174452045Y-85450481D01*
X174374506Y-85372722D01*
X174401326Y-85239394D01*
X174413455Y-85178292D01*
X174423398Y-85126119D01*
X174431233Y-85081979D01*
X174437037Y-85044977D01*
X174440886Y-85014217D01*
X174442860Y-84988803D01*
X174443035Y-84967841D01*
X174441488Y-84950435D01*
X174438297Y-84935689D01*
X174433541Y-84922708D01*
X174429450Y-84914429D01*
X174422416Y-84903855D01*
X174410512Y-84888361D01*
X174395701Y-84870443D01*
X174386539Y-84859905D01*
X174352192Y-84821184D01*
X174219775Y-84953600D01*
X174087359Y-85086017D01*
X174021419Y-85020077D01*
X173955479Y-84954137D01*
X174187158Y-84722458D01*
X174450918Y-84722458D01*
X174521374Y-84792791D01*
X174546080Y-84817077D01*
X174571279Y-84841188D01*
X174595028Y-84863310D01*
X174615387Y-84881633D01*
X174628981Y-84893196D01*
X174656431Y-84913525D01*
X174679981Y-84926243D01*
X174701610Y-84931930D01*
X174723292Y-84931172D01*
X174741711Y-84926413D01*
X174769964Y-84912619D01*
X174794136Y-84892490D01*
X174812717Y-84867978D01*
X174824202Y-84841034D01*
X174827203Y-84815722D01*
X174826303Y-84803548D01*
X174824209Y-84792448D01*
X174820178Y-84781400D01*
X174813475Y-84769382D01*
X174803357Y-84755372D01*
X174789085Y-84738349D01*
X174769918Y-84717290D01*
X174745119Y-84691175D01*
X174713946Y-84658979D01*
X174713092Y-84658101D01*
X174615541Y-84557834D01*
X174533230Y-84640146D01*
X174450918Y-84722458D01*
X174187158Y-84722458D01*
X174272957Y-84636659D01*
X174483662Y-84425955D01*
X174590436Y-84319181D01*
X174773360Y-84505163D01*
G37*
G36*
X176443362Y-82586016D02*
G01*
X176458795Y-82589443D01*
X176506979Y-82605831D01*
X176555779Y-82630812D01*
X176603750Y-82663106D01*
X176649447Y-82701436D01*
X176691424Y-82744525D01*
X176728240Y-82791096D01*
X176758449Y-82839871D01*
X176771014Y-82865561D01*
X176791585Y-82923858D01*
X176802406Y-82983298D01*
X176803658Y-83043298D01*
X176795520Y-83103274D01*
X176778176Y-83162645D01*
X176751806Y-83220828D01*
X176716593Y-83277239D01*
X176672716Y-83331298D01*
X176620359Y-83382421D01*
X176606330Y-83394372D01*
X176551815Y-83435630D01*
X176498578Y-83467536D01*
X176445479Y-83490527D01*
X176391376Y-83505034D01*
X176335129Y-83511497D01*
X176298689Y-83511654D01*
X176244017Y-83505248D01*
X176188342Y-83490192D01*
X176134242Y-83467261D01*
X176113199Y-83455813D01*
X176089213Y-83439725D01*
X176061347Y-83417668D01*
X176031807Y-83391711D01*
X176002797Y-83363919D01*
X175976522Y-83336365D01*
X175955189Y-83311113D01*
X175947078Y-83300018D01*
X175913207Y-83242230D01*
X175889295Y-83183128D01*
X175875355Y-83123043D01*
X175874867Y-83115545D01*
X176052281Y-83115545D01*
X176060975Y-83160191D01*
X176078127Y-83202700D01*
X176103257Y-83241732D01*
X176135880Y-83275946D01*
X176158680Y-83293489D01*
X176197440Y-83314352D01*
X176240312Y-83327797D01*
X176284828Y-83333422D01*
X176328517Y-83330831D01*
X176353763Y-83325026D01*
X176384629Y-83314062D01*
X176413019Y-83300267D01*
X176440820Y-83282376D01*
X176469923Y-83259124D01*
X176502213Y-83229246D01*
X176513966Y-83217642D01*
X176546074Y-83184165D01*
X176571192Y-83154546D01*
X176590613Y-83126895D01*
X176605631Y-83099323D01*
X176617539Y-83069939D01*
X176619918Y-83062897D01*
X176626704Y-83031295D01*
X176628789Y-82995346D01*
X176626177Y-82959624D01*
X176619869Y-82931625D01*
X176601763Y-82890831D01*
X176575821Y-82852788D01*
X176543695Y-82819034D01*
X176507039Y-82791112D01*
X176467509Y-82770565D01*
X176436706Y-82760862D01*
X176407684Y-82757250D01*
X176374207Y-82757550D01*
X176340996Y-82761504D01*
X176317027Y-82767373D01*
X176285234Y-82779642D01*
X176255490Y-82795417D01*
X176225851Y-82816018D01*
X176194374Y-82842767D01*
X176166183Y-82869859D01*
X176134302Y-82903296D01*
X176109420Y-82933312D01*
X176090119Y-82962027D01*
X176074979Y-82991563D01*
X176062577Y-83024043D01*
X176062196Y-83025200D01*
X176052527Y-83070101D01*
X176052281Y-83115545D01*
X175874867Y-83115545D01*
X175871399Y-83062301D01*
X175877439Y-83001232D01*
X175893488Y-82940163D01*
X175919557Y-82879422D01*
X175930493Y-82859275D01*
X175939388Y-82844068D01*
X175947704Y-82831045D01*
X175956697Y-82818714D01*
X175967619Y-82805583D01*
X175981728Y-82790163D01*
X176000276Y-82770962D01*
X176024520Y-82746487D01*
X176030094Y-82740897D01*
X176033664Y-82737340D01*
X176056160Y-82714920D01*
X176076693Y-82694930D01*
X176093165Y-82679663D01*
X176107048Y-82667857D01*
X176119814Y-82658249D01*
X176132936Y-82649576D01*
X176145206Y-82642152D01*
X176202737Y-82613373D01*
X176262660Y-82593144D01*
X176323633Y-82581691D01*
X176384315Y-82579240D01*
X176443362Y-82586016D01*
G37*
G36*
X173985779Y-83776915D02*
G01*
X174045471Y-83796097D01*
X174103221Y-83824910D01*
X174132959Y-83844180D01*
X174153905Y-83859855D01*
X174174386Y-83877401D01*
X174196603Y-83898828D01*
X174222755Y-83926149D01*
X174223487Y-83926934D01*
X174257623Y-83965483D01*
X174284675Y-84000674D01*
X174306016Y-84034630D01*
X174323024Y-84069475D01*
X174333612Y-84097035D01*
X174342824Y-84133420D01*
X174347533Y-84174368D01*
X174347704Y-84216401D01*
X174343301Y-84256040D01*
X174335565Y-84286319D01*
X174327492Y-84307487D01*
X174318313Y-84328749D01*
X174309047Y-84348053D01*
X174300716Y-84363345D01*
X174294342Y-84372570D01*
X174291794Y-84374344D01*
X174286762Y-84371704D01*
X174275014Y-84364501D01*
X174258184Y-84353811D01*
X174237912Y-84340711D01*
X174215837Y-84326279D01*
X174193595Y-84311591D01*
X174172824Y-84297723D01*
X174155163Y-84285753D01*
X174142249Y-84276756D01*
X174135722Y-84271810D01*
X174135529Y-84271626D01*
X174135139Y-84265161D01*
X174138274Y-84252524D01*
X174143035Y-84239534D01*
X174153545Y-84201415D01*
X174154774Y-84161764D01*
X174147114Y-84121870D01*
X174130962Y-84083021D01*
X174106713Y-84046508D01*
X174074763Y-84013622D01*
X174073433Y-84012487D01*
X174031105Y-83982280D01*
X173987323Y-83961909D01*
X173942475Y-83951295D01*
X173896951Y-83950362D01*
X173851138Y-83959031D01*
X173805428Y-83977227D01*
X173760207Y-84004874D01*
X173715864Y-84041891D01*
X173672789Y-84088204D01*
X173669193Y-84092574D01*
X173637101Y-84135672D01*
X173613626Y-84176143D01*
X173598156Y-84215425D01*
X173590085Y-84254959D01*
X173588511Y-84283368D01*
X173593358Y-84329823D01*
X173607491Y-84373721D01*
X173630296Y-84414420D01*
X173661159Y-84451275D01*
X173699470Y-84483642D01*
X173744613Y-84510877D01*
X173795976Y-84532336D01*
X173836459Y-84543847D01*
X173861013Y-84549576D01*
X173897480Y-84513121D01*
X173933949Y-84476666D01*
X173860953Y-84401743D01*
X173787957Y-84326820D01*
X173843204Y-84271573D01*
X173898450Y-84216327D01*
X174041022Y-84358899D01*
X174183595Y-84501471D01*
X174060526Y-84626416D01*
X174024110Y-84663167D01*
X173992930Y-84694180D01*
X173967317Y-84719134D01*
X173947603Y-84737711D01*
X173934120Y-84749594D01*
X173927201Y-84754462D01*
X173927079Y-84754503D01*
X173912310Y-84755626D01*
X173890163Y-84752994D01*
X173862391Y-84747132D01*
X173830741Y-84738565D01*
X173796962Y-84727823D01*
X173762805Y-84715429D01*
X173730020Y-84701911D01*
X173700356Y-84687798D01*
X173693611Y-84684226D01*
X173647380Y-84655928D01*
X173601085Y-84621697D01*
X173557329Y-84583755D01*
X173518718Y-84544321D01*
X173493867Y-84513982D01*
X173461657Y-84464068D01*
X173435818Y-84410463D01*
X173416919Y-84355023D01*
X173405531Y-84299607D01*
X173402226Y-84246072D01*
X173403775Y-84220655D01*
X173410259Y-84183703D01*
X173421799Y-84142104D01*
X173437243Y-84099151D01*
X173455439Y-84058137D01*
X173470268Y-84030517D01*
X173494349Y-83994375D01*
X173524582Y-83956228D01*
X173558335Y-83919016D01*
X173592972Y-83885671D01*
X173620795Y-83862818D01*
X173679408Y-83824683D01*
X173739716Y-83796045D01*
X173801113Y-83776927D01*
X173862994Y-83767352D01*
X173924751Y-83767340D01*
X173985779Y-83776915D01*
G37*
G36*
X175415793Y-83448877D02*
G01*
X175475776Y-83455245D01*
X175532251Y-83470344D01*
X175585800Y-83494464D01*
X175637005Y-83527894D01*
X175686448Y-83570927D01*
X175711193Y-83596688D01*
X175745429Y-83638024D01*
X175771708Y-83678618D01*
X175791584Y-83721081D01*
X175800574Y-83746895D01*
X175808429Y-83780981D01*
X175812784Y-83819337D01*
X175813496Y-83858179D01*
X175810419Y-83893724D01*
X175806896Y-83911126D01*
X175800599Y-83932339D01*
X175792680Y-83954850D01*
X175784076Y-83976437D01*
X175775723Y-83994877D01*
X175768557Y-84007948D01*
X175763826Y-84013320D01*
X175757799Y-84011685D01*
X175744785Y-84005537D01*
X175726349Y-83995702D01*
X175704057Y-83983002D01*
X175687595Y-83973210D01*
X175663280Y-83958516D01*
X175641594Y-83945424D01*
X175624182Y-83934928D01*
X175612693Y-83928021D01*
X175609209Y-83925942D01*
X175604678Y-83919937D01*
X175606223Y-83916447D01*
X175612711Y-83905935D01*
X175619582Y-83888459D01*
X175625979Y-83867063D01*
X175631042Y-83844788D01*
X175633915Y-83824678D01*
X175634265Y-83816996D01*
X175629446Y-83776668D01*
X175615762Y-83738522D01*
X175594369Y-83703670D01*
X175566428Y-83673220D01*
X175533097Y-83648285D01*
X175495532Y-83629973D01*
X175454894Y-83619395D01*
X175425779Y-83617185D01*
X175389654Y-83620323D01*
X175354018Y-83630090D01*
X175317912Y-83647010D01*
X175280380Y-83671610D01*
X175240466Y-83704418D01*
X175203688Y-83739414D01*
X175163064Y-83782606D01*
X175131007Y-83822406D01*
X175106991Y-83859766D01*
X175090485Y-83895643D01*
X175080962Y-83930991D01*
X175077895Y-83966764D01*
X175077894Y-83966861D01*
X175082554Y-84008926D01*
X175095808Y-84048583D01*
X175116576Y-84084578D01*
X175143776Y-84115655D01*
X175176324Y-84140561D01*
X175213142Y-84158042D01*
X175250130Y-84166521D01*
X175281655Y-84166522D01*
X175317227Y-84160449D01*
X175353490Y-84149075D01*
X175381231Y-84136416D01*
X175397520Y-84128047D01*
X175410001Y-84122264D01*
X175416390Y-84120109D01*
X175416732Y-84120201D01*
X175419514Y-84125046D01*
X175426167Y-84137373D01*
X175435915Y-84155720D01*
X175447977Y-84178624D01*
X175460031Y-84201653D01*
X175475573Y-84231217D01*
X175486652Y-84253168D01*
X175493006Y-84269057D01*
X175494373Y-84280436D01*
X175490490Y-84288858D01*
X175481095Y-84295872D01*
X175465925Y-84303031D01*
X175444720Y-84311887D01*
X175441146Y-84313397D01*
X175381854Y-84333727D01*
X175323401Y-84344084D01*
X175265972Y-84344476D01*
X175209752Y-84334909D01*
X175154925Y-84315389D01*
X175128026Y-84301863D01*
X175104311Y-84286507D01*
X175076958Y-84265253D01*
X175048261Y-84240230D01*
X175020518Y-84213574D01*
X174996021Y-84187416D01*
X174977068Y-84163887D01*
X174972861Y-84157742D01*
X174941561Y-84101304D01*
X174920229Y-84043577D01*
X174908810Y-83984320D01*
X174907243Y-83923296D01*
X174909685Y-83895626D01*
X174919422Y-83842287D01*
X174935580Y-83791975D01*
X174958801Y-83743568D01*
X174989728Y-83695950D01*
X175029003Y-83648003D01*
X175077268Y-83598610D01*
X175083928Y-83592313D01*
X175110654Y-83567716D01*
X175132634Y-83548730D01*
X175152044Y-83533633D01*
X175171059Y-83520709D01*
X175186172Y-83511522D01*
X175240798Y-83483181D01*
X175293449Y-83463601D01*
X175346060Y-83452254D01*
X175400570Y-83448610D01*
X175415793Y-83448877D01*
G37*
G36*
X177073194Y-83274225D02*
G01*
X177133176Y-83280595D01*
X177189651Y-83295694D01*
X177243200Y-83319813D01*
X177294405Y-83353243D01*
X177343849Y-83396276D01*
X177368594Y-83422037D01*
X177402828Y-83463374D01*
X177429108Y-83503968D01*
X177448984Y-83546430D01*
X177457974Y-83572244D01*
X177465829Y-83606331D01*
X177470185Y-83644686D01*
X177470897Y-83683528D01*
X177467819Y-83719073D01*
X177464296Y-83736475D01*
X177457999Y-83757688D01*
X177450081Y-83780199D01*
X177441477Y-83801786D01*
X177433123Y-83820226D01*
X177425956Y-83833298D01*
X177421226Y-83838669D01*
X177415199Y-83837034D01*
X177402185Y-83830887D01*
X177383749Y-83821051D01*
X177361457Y-83808351D01*
X177344995Y-83798560D01*
X177320680Y-83783865D01*
X177298993Y-83770773D01*
X177281581Y-83760277D01*
X177270094Y-83753370D01*
X177266609Y-83751291D01*
X177262078Y-83745287D01*
X177263623Y-83741797D01*
X177270111Y-83731284D01*
X177276982Y-83713808D01*
X177283379Y-83692412D01*
X177288443Y-83670137D01*
X177291315Y-83650027D01*
X177291666Y-83642345D01*
X177286847Y-83602017D01*
X177273161Y-83563871D01*
X177251769Y-83529019D01*
X177223828Y-83498570D01*
X177190496Y-83473634D01*
X177152932Y-83455322D01*
X177112294Y-83444744D01*
X177083179Y-83442535D01*
X177047054Y-83445673D01*
X177011418Y-83455438D01*
X176975312Y-83472359D01*
X176937780Y-83496959D01*
X176897866Y-83529767D01*
X176861088Y-83564764D01*
X176820464Y-83607956D01*
X176788408Y-83647755D01*
X176764390Y-83685115D01*
X176747885Y-83720992D01*
X176738362Y-83756340D01*
X176735295Y-83792114D01*
X176735295Y-83792210D01*
X176739953Y-83834276D01*
X176753208Y-83873933D01*
X176773976Y-83909927D01*
X176801175Y-83941004D01*
X176833725Y-83965910D01*
X176870542Y-83983391D01*
X176907530Y-83991870D01*
X176939055Y-83991871D01*
X176974627Y-83985798D01*
X177010890Y-83974424D01*
X177038631Y-83961764D01*
X177054921Y-83953396D01*
X177067402Y-83947612D01*
X177073790Y-83945458D01*
X177074132Y-83945550D01*
X177076914Y-83950395D01*
X177083567Y-83962723D01*
X177093314Y-83981070D01*
X177105378Y-84003973D01*
X177117430Y-84027003D01*
X177132973Y-84056566D01*
X177144053Y-84078517D01*
X177150406Y-84094406D01*
X177151773Y-84105786D01*
X177147890Y-84114207D01*
X177138494Y-84121221D01*
X177123325Y-84128380D01*
X177102120Y-84137237D01*
X177098545Y-84138746D01*
X177039254Y-84159076D01*
X176980801Y-84169433D01*
X176923372Y-84169825D01*
X176867152Y-84160258D01*
X176812324Y-84140739D01*
X176785425Y-84127213D01*
X176761711Y-84111856D01*
X176734358Y-84090601D01*
X176705661Y-84065580D01*
X176677917Y-84038924D01*
X176653422Y-84012765D01*
X176634468Y-83989236D01*
X176630260Y-83983091D01*
X176598960Y-83926654D01*
X176577629Y-83868926D01*
X176566209Y-83809669D01*
X176564643Y-83748645D01*
X176567085Y-83720975D01*
X176576822Y-83667637D01*
X176592980Y-83617324D01*
X176616201Y-83568917D01*
X176647128Y-83521300D01*
X176686403Y-83473353D01*
X176734668Y-83423960D01*
X176741328Y-83417663D01*
X176768054Y-83393065D01*
X176790033Y-83374078D01*
X176809443Y-83358983D01*
X176828460Y-83346058D01*
X176843571Y-83336872D01*
X176898199Y-83308530D01*
X176950849Y-83288950D01*
X177003460Y-83277603D01*
X177057970Y-83273959D01*
X177073194Y-83274225D01*
G37*
G36*
X171815656Y-77889154D02*
G01*
X171890115Y-77963752D01*
X171957838Y-78031650D01*
X172019226Y-78093275D01*
X172074676Y-78149048D01*
X172124592Y-78199394D01*
X172169372Y-78244734D01*
X172209416Y-78285492D01*
X172245125Y-78322092D01*
X172276898Y-78354957D01*
X172305136Y-78384510D01*
X172330238Y-78411173D01*
X172352605Y-78435371D01*
X172372638Y-78457526D01*
X172390735Y-78478063D01*
X172407297Y-78497402D01*
X172422725Y-78515970D01*
X172437418Y-78534188D01*
X172451776Y-78552479D01*
X172466200Y-78571267D01*
X172481089Y-78590975D01*
X172488576Y-78600964D01*
X172557629Y-78697463D01*
X172617753Y-78790624D01*
X172669274Y-78881107D01*
X172712516Y-78969575D01*
X172747806Y-79056687D01*
X172775469Y-79143105D01*
X172794333Y-79221925D01*
X172802506Y-79274392D01*
X172807281Y-79331742D01*
X172808635Y-79390835D01*
X172806550Y-79448538D01*
X172801006Y-79501714D01*
X172796272Y-79528895D01*
X172775346Y-79608640D01*
X172745956Y-79684987D01*
X172707526Y-79759251D01*
X172669779Y-79818204D01*
X172647520Y-79847555D01*
X172619068Y-79880973D01*
X172586331Y-79916527D01*
X172551219Y-79952282D01*
X172515639Y-79986305D01*
X172481497Y-80016662D01*
X172450706Y-80041419D01*
X172446332Y-80044647D01*
X172365919Y-80098368D01*
X172285971Y-80142115D01*
X172206298Y-80175976D01*
X172126715Y-80200038D01*
X172097176Y-80206491D01*
X172009092Y-80218603D01*
X171919156Y-80220815D01*
X171827389Y-80213135D01*
X171733813Y-80195569D01*
X171638449Y-80168123D01*
X171541320Y-80130804D01*
X171442447Y-80083620D01*
X171341851Y-80026574D01*
X171239556Y-79959676D01*
X171214960Y-79942302D01*
X171190206Y-79924517D01*
X171167100Y-79907746D01*
X171145210Y-79891583D01*
X171124096Y-79875623D01*
X171103322Y-79859462D01*
X171082454Y-79842692D01*
X171061055Y-79824909D01*
X171038688Y-79805709D01*
X171014918Y-79784685D01*
X170989309Y-79761433D01*
X170961424Y-79735547D01*
X170930827Y-79706621D01*
X170897083Y-79674251D01*
X170859754Y-79638031D01*
X170818406Y-79597556D01*
X170772601Y-79552420D01*
X170721904Y-79502218D01*
X170665878Y-79446545D01*
X170604088Y-79384996D01*
X170536097Y-79317165D01*
X170461469Y-79242647D01*
X170452900Y-79234088D01*
X170298800Y-79080169D01*
X170932952Y-79080169D01*
X171024736Y-79171948D01*
X171052432Y-79199342D01*
X171080454Y-79226521D01*
X171107200Y-79251971D01*
X171131069Y-79274175D01*
X171150457Y-79291620D01*
X171159389Y-79299270D01*
X171226403Y-79351234D01*
X171290978Y-79393856D01*
X171353678Y-79427421D01*
X171415062Y-79452212D01*
X171475691Y-79468512D01*
X171504057Y-79473316D01*
X171564397Y-79476603D01*
X171624784Y-79469965D01*
X171684886Y-79453554D01*
X171744368Y-79427517D01*
X171802900Y-79392006D01*
X171860147Y-79347170D01*
X171915779Y-79293159D01*
X171924347Y-79283853D01*
X171972175Y-79227194D01*
X172010578Y-79172962D01*
X172039808Y-79120764D01*
X172059261Y-79072847D01*
X172067107Y-79040573D01*
X172071844Y-79003381D01*
X172073056Y-78966065D01*
X172071020Y-78937979D01*
X172063029Y-78896334D01*
X172050361Y-78854488D01*
X172032595Y-78811821D01*
X172009314Y-78767707D01*
X171980101Y-78721524D01*
X171944538Y-78672649D01*
X171902207Y-78620457D01*
X171852689Y-78564326D01*
X171795568Y-78503633D01*
X171746495Y-78453752D01*
X171652941Y-78360180D01*
X171292946Y-78720175D01*
X170932952Y-79080169D01*
X170298800Y-79080169D01*
X169966978Y-78748738D01*
X170644243Y-78071473D01*
X171004238Y-77711478D01*
X171321509Y-77394207D01*
X171815656Y-77889154D01*
G37*
G36*
X169078294Y-75153366D02*
G01*
X169088566Y-75163315D01*
X169104944Y-75179423D01*
X169126924Y-75201193D01*
X169154011Y-75228127D01*
X169185702Y-75259725D01*
X169221500Y-75295492D01*
X169260905Y-75334928D01*
X169303418Y-75377537D01*
X169348540Y-75422819D01*
X169395771Y-75470277D01*
X169401578Y-75476117D01*
X169727166Y-75803525D01*
X169598504Y-76091887D01*
X169546048Y-76209442D01*
X169497046Y-76319236D01*
X169451553Y-76421150D01*
X169409619Y-76515063D01*
X169371301Y-76600854D01*
X169336651Y-76678403D01*
X169305724Y-76747592D01*
X169278573Y-76808300D01*
X169255251Y-76860405D01*
X169235813Y-76903789D01*
X169220312Y-76938331D01*
X169208801Y-76963910D01*
X169201335Y-76980409D01*
X169201015Y-76981110D01*
X169191795Y-77001760D01*
X169184348Y-77019236D01*
X169179576Y-77031371D01*
X169178293Y-77035679D01*
X169182669Y-77034928D01*
X169195347Y-77030516D01*
X169215392Y-77022822D01*
X169241870Y-77012222D01*
X169273845Y-76999095D01*
X169310381Y-76983818D01*
X169350545Y-76966771D01*
X169378824Y-76954630D01*
X169414949Y-76939055D01*
X169459196Y-76919986D01*
X169510426Y-76897914D01*
X169567503Y-76873328D01*
X169629285Y-76846719D01*
X169694634Y-76818576D01*
X169762414Y-76789391D01*
X169831486Y-76759653D01*
X169900710Y-76729853D01*
X169968948Y-76700481D01*
X169999946Y-76687140D01*
X170061546Y-76660608D01*
X170120500Y-76635177D01*
X170176151Y-76611131D01*
X170227838Y-76588756D01*
X170274906Y-76568341D01*
X170316694Y-76550170D01*
X170352547Y-76534529D01*
X170381805Y-76521705D01*
X170403811Y-76511983D01*
X170417907Y-76505651D01*
X170423435Y-76502994D01*
X170423479Y-76502959D01*
X170427573Y-76505900D01*
X170438473Y-76515740D01*
X170455899Y-76532204D01*
X170479571Y-76555017D01*
X170509209Y-76583908D01*
X170544535Y-76618601D01*
X170585268Y-76658822D01*
X170631129Y-76704298D01*
X170681838Y-76754753D01*
X170737116Y-76809917D01*
X170754914Y-76827708D01*
X171083007Y-77155801D01*
X170719701Y-77275457D01*
X170657111Y-77296063D01*
X170593983Y-77316831D01*
X170531481Y-77337377D01*
X170470770Y-77357322D01*
X170413016Y-77376281D01*
X170359384Y-77393872D01*
X170311039Y-77409713D01*
X170269147Y-77423421D01*
X170234871Y-77434615D01*
X170216527Y-77440590D01*
X170190396Y-77449109D01*
X170155677Y-77460466D01*
X170113353Y-77474334D01*
X170064410Y-77490394D01*
X170009832Y-77508318D01*
X169950603Y-77527786D01*
X169887708Y-77548473D01*
X169822132Y-77570055D01*
X169754858Y-77592209D01*
X169686873Y-77614611D01*
X169637363Y-77630934D01*
X169571341Y-77652698D01*
X169506643Y-77674009D01*
X169444101Y-77694593D01*
X169384546Y-77714179D01*
X169328812Y-77732493D01*
X169277729Y-77749261D01*
X169232130Y-77764211D01*
X169192846Y-77777070D01*
X169160710Y-77787564D01*
X169136554Y-77795420D01*
X169122149Y-77800066D01*
X169046231Y-77824329D01*
X168719582Y-77499500D01*
X168392934Y-77174671D01*
X168478006Y-76922880D01*
X168489521Y-76888764D01*
X168503989Y-76845849D01*
X168521154Y-76794891D01*
X168540763Y-76736649D01*
X168562559Y-76671880D01*
X168586288Y-76601341D01*
X168611696Y-76525791D01*
X168638528Y-76445987D01*
X168666528Y-76362687D01*
X168695443Y-76276647D01*
X168725017Y-76188628D01*
X168754996Y-76099384D01*
X168785124Y-76009675D01*
X168815149Y-75920258D01*
X168818167Y-75911264D01*
X168846526Y-75826812D01*
X168874017Y-75744976D01*
X168900468Y-75666265D01*
X168925709Y-75591187D01*
X168949569Y-75520252D01*
X168971876Y-75453967D01*
X168992459Y-75392842D01*
X169011145Y-75337385D01*
X169027765Y-75288105D01*
X169042146Y-75245509D01*
X169054117Y-75210109D01*
X169063507Y-75182410D01*
X169070145Y-75162923D01*
X169073859Y-75152155D01*
X169074623Y-75150074D01*
X169078294Y-75153366D01*
G37*
G36*
X174847722Y-82804353D02*
G01*
X174895892Y-82818808D01*
X174944506Y-82842884D01*
X174993286Y-82876457D01*
X175041954Y-82919403D01*
X175067943Y-82946286D01*
X175109924Y-82997119D01*
X175141871Y-83047349D01*
X175163804Y-83097069D01*
X175175747Y-83146368D01*
X175177724Y-83195334D01*
X175169755Y-83244060D01*
X175153801Y-83288442D01*
X175144449Y-83306777D01*
X175132799Y-83326326D01*
X175120271Y-83345074D01*
X175108293Y-83361007D01*
X175098284Y-83372110D01*
X175091670Y-83376371D01*
X175086441Y-83373143D01*
X175075166Y-83364041D01*
X175059097Y-83350147D01*
X175039488Y-83332545D01*
X175018051Y-83312749D01*
X174949830Y-83248920D01*
X174960923Y-83232704D01*
X174976963Y-83202026D01*
X174985258Y-83169475D01*
X174985578Y-83137304D01*
X174977690Y-83107760D01*
X174974498Y-83101213D01*
X174952843Y-83068727D01*
X174924902Y-83038355D01*
X174893120Y-83012232D01*
X174859950Y-82992491D01*
X174840837Y-82984739D01*
X174812569Y-82979240D01*
X174788638Y-82982373D01*
X174769662Y-82993892D01*
X174756264Y-83013555D01*
X174754145Y-83018895D01*
X174750638Y-83034160D01*
X174750863Y-83051215D01*
X174755211Y-83071099D01*
X174764071Y-83094856D01*
X174777831Y-83123528D01*
X174796881Y-83158154D01*
X174821610Y-83199776D01*
X174821882Y-83200223D01*
X174856386Y-83258820D01*
X174884268Y-83310934D01*
X174905716Y-83357514D01*
X174920920Y-83399509D01*
X174930071Y-83437869D01*
X174933356Y-83473541D01*
X174930965Y-83507477D01*
X174923088Y-83540624D01*
X174909913Y-83573931D01*
X174900242Y-83593101D01*
X174884035Y-83617780D01*
X174862177Y-83643723D01*
X174837311Y-83668295D01*
X174812073Y-83688859D01*
X174791597Y-83701575D01*
X174741739Y-83722098D01*
X174692768Y-83732964D01*
X174644016Y-83734136D01*
X174594818Y-83725583D01*
X174544510Y-83707268D01*
X174505377Y-83686947D01*
X174486660Y-83674340D01*
X174463177Y-83655953D01*
X174436848Y-83633552D01*
X174409597Y-83608904D01*
X174383342Y-83583770D01*
X174360009Y-83559916D01*
X174341515Y-83539107D01*
X174334210Y-83529748D01*
X174301429Y-83477536D01*
X174278435Y-83424870D01*
X174265283Y-83372036D01*
X174262031Y-83319322D01*
X174268735Y-83267018D01*
X174277181Y-83237059D01*
X174286648Y-83212750D01*
X174299031Y-83185989D01*
X174312934Y-83159357D01*
X174326963Y-83135435D01*
X174339722Y-83116806D01*
X174346282Y-83109150D01*
X174349567Y-83106427D01*
X174353388Y-83105490D01*
X174358778Y-83107031D01*
X174366773Y-83111742D01*
X174378410Y-83120315D01*
X174394723Y-83133442D01*
X174416746Y-83151815D01*
X174441831Y-83173006D01*
X174463972Y-83191820D01*
X174479266Y-83205536D01*
X174488501Y-83215645D01*
X174492460Y-83223640D01*
X174491929Y-83231013D01*
X174487689Y-83239253D01*
X174481496Y-83248439D01*
X174465288Y-83279683D01*
X174455382Y-83315213D01*
X174452240Y-83351866D01*
X174456329Y-83386481D01*
X174459590Y-83397635D01*
X174475828Y-83431275D01*
X174500208Y-83464380D01*
X174530898Y-83494954D01*
X174566064Y-83521001D01*
X174580847Y-83529638D01*
X174603514Y-83538308D01*
X174629826Y-83542908D01*
X174656527Y-83543359D01*
X174680360Y-83539583D01*
X174696782Y-83532427D01*
X174719985Y-83511752D01*
X174733659Y-83487877D01*
X174737877Y-83460579D01*
X174732713Y-83429637D01*
X174731819Y-83426753D01*
X174727357Y-83416453D01*
X174718531Y-83399057D01*
X174706179Y-83376105D01*
X174691140Y-83349140D01*
X174674250Y-83319699D01*
X174665283Y-83304381D01*
X174635693Y-83253165D01*
X174611617Y-83208945D01*
X174592663Y-83170547D01*
X174578436Y-83136799D01*
X174568544Y-83106527D01*
X174562592Y-83078558D01*
X174560188Y-83051721D01*
X174560937Y-83024839D01*
X174563697Y-83001499D01*
X174575551Y-82955763D01*
X174596097Y-82914079D01*
X174624438Y-82877371D01*
X174659683Y-82846563D01*
X174700937Y-82822579D01*
X174747307Y-82806346D01*
X174753834Y-82804815D01*
X174800277Y-82799647D01*
X174847722Y-82804353D01*
G37*
G36*
X170633219Y-80591119D02*
G01*
X170682215Y-80608321D01*
X170716316Y-80626290D01*
X170734365Y-80638978D01*
X170757183Y-80657834D01*
X170783143Y-80681233D01*
X170810623Y-80707548D01*
X170837997Y-80735153D01*
X170863640Y-80762422D01*
X170885928Y-80787728D01*
X170903235Y-80809444D01*
X170911586Y-80821752D01*
X170935423Y-80868756D01*
X170949532Y-80914250D01*
X170953896Y-80958027D01*
X170948503Y-80999878D01*
X170933338Y-81039592D01*
X170926840Y-81051126D01*
X170921438Y-81059475D01*
X170914660Y-81068776D01*
X170905872Y-81079720D01*
X170894437Y-81092999D01*
X170879720Y-81109307D01*
X170861085Y-81129336D01*
X170837898Y-81153776D01*
X170809524Y-81183322D01*
X170775327Y-81218665D01*
X170735272Y-81259879D01*
X170694961Y-81301309D01*
X170661022Y-81336293D01*
X170632803Y-81365618D01*
X170609654Y-81390073D01*
X170590924Y-81410444D01*
X170575963Y-81427518D01*
X170564119Y-81442083D01*
X170554744Y-81454926D01*
X170547183Y-81466835D01*
X170540790Y-81478597D01*
X170534910Y-81491000D01*
X170528896Y-81504831D01*
X170524743Y-81514633D01*
X170511451Y-81546037D01*
X170439138Y-81471800D01*
X170366826Y-81397563D01*
X170385499Y-81360198D01*
X170404173Y-81322833D01*
X170368965Y-81320052D01*
X170313659Y-81310716D01*
X170260654Y-81291984D01*
X170211303Y-81264497D01*
X170166961Y-81228894D01*
X170158428Y-81220463D01*
X170142446Y-81203478D01*
X170127893Y-81186941D01*
X170117245Y-81173696D01*
X170115024Y-81170553D01*
X170091153Y-81126421D01*
X170076977Y-81081105D01*
X170076666Y-81078055D01*
X170273485Y-81078055D01*
X170276069Y-81106594D01*
X170286588Y-81134653D01*
X170288718Y-81138421D01*
X170303039Y-81156426D01*
X170323712Y-81174737D01*
X170347429Y-81190772D01*
X170369511Y-81201453D01*
X170402403Y-81210156D01*
X170435906Y-81212794D01*
X170466563Y-81209230D01*
X170477992Y-81205763D01*
X170490062Y-81200276D01*
X170502800Y-81192210D01*
X170518002Y-81180211D01*
X170537456Y-81162929D01*
X170549301Y-81151919D01*
X170597313Y-81106858D01*
X170504384Y-81050799D01*
X170469726Y-81030031D01*
X170442270Y-81014038D01*
X170420679Y-81002239D01*
X170403616Y-80994051D01*
X170389742Y-80988894D01*
X170377720Y-80986186D01*
X170366211Y-80985346D01*
X170354716Y-80985735D01*
X170328287Y-80991999D01*
X170306238Y-81006009D01*
X170289280Y-81026118D01*
X170278126Y-81050681D01*
X170273485Y-81078055D01*
X170076666Y-81078055D01*
X170072340Y-81035573D01*
X170077087Y-80990790D01*
X170091063Y-80947722D01*
X170114112Y-80907337D01*
X170146079Y-80870598D01*
X170159358Y-80859129D01*
X170165982Y-80853407D01*
X170203878Y-80829871D01*
X170245710Y-80814962D01*
X170289719Y-80808985D01*
X170334148Y-80812248D01*
X170361743Y-80819245D01*
X170385168Y-80828084D01*
X170411454Y-80840291D01*
X170441714Y-80856482D01*
X170477068Y-80877273D01*
X170518632Y-80903282D01*
X170545414Y-80920601D01*
X170572641Y-80938160D01*
X170600049Y-80955460D01*
X170625233Y-80971011D01*
X170645787Y-80983319D01*
X170654475Y-80988291D01*
X170690638Y-81008398D01*
X170715559Y-80983477D01*
X170737028Y-80957548D01*
X170748583Y-80932501D01*
X170750323Y-80908067D01*
X170747826Y-80896870D01*
X170735055Y-80869162D01*
X170715110Y-80840725D01*
X170690363Y-80814071D01*
X170663185Y-80791714D01*
X170635949Y-80776168D01*
X170632655Y-80774829D01*
X170607411Y-80769624D01*
X170578481Y-80770947D01*
X170549605Y-80778508D01*
X170541588Y-80781914D01*
X170530210Y-80786386D01*
X170523318Y-80787496D01*
X170522829Y-80787242D01*
X170518968Y-80782103D01*
X170510625Y-80770287D01*
X170498952Y-80753476D01*
X170485098Y-80733356D01*
X170470213Y-80711608D01*
X170455449Y-80689918D01*
X170441955Y-80669970D01*
X170430880Y-80653446D01*
X170423375Y-80642032D01*
X170420790Y-80637850D01*
X170419459Y-80631897D01*
X170423000Y-80626122D01*
X170432532Y-80619839D01*
X170449177Y-80612371D01*
X170474054Y-80603033D01*
X170483492Y-80599694D01*
X170534046Y-80586827D01*
X170583892Y-80583961D01*
X170633219Y-80591119D01*
G37*
G36*
X171224314Y-81177458D02*
G01*
X171273472Y-81196297D01*
X171301203Y-81211210D01*
X171314175Y-81219544D01*
X171327730Y-81229736D01*
X171343222Y-81242981D01*
X171362009Y-81260477D01*
X171385446Y-81283420D01*
X171403085Y-81301084D01*
X171435466Y-81334463D01*
X171461229Y-81363017D01*
X171481515Y-81388355D01*
X171497467Y-81412091D01*
X171510227Y-81435833D01*
X171520935Y-81461194D01*
X171525444Y-81473725D01*
X171533348Y-81508535D01*
X171535549Y-81547984D01*
X171532129Y-81588450D01*
X171523167Y-81626314D01*
X171522038Y-81629622D01*
X171512957Y-81654828D01*
X171506107Y-81671711D01*
X171500643Y-81681549D01*
X171495716Y-81685620D01*
X171490482Y-81685198D01*
X171486563Y-81683152D01*
X171478976Y-81678178D01*
X171465327Y-81668938D01*
X171447260Y-81656571D01*
X171426421Y-81642217D01*
X171404453Y-81627015D01*
X171383002Y-81612104D01*
X171363711Y-81598628D01*
X171348227Y-81587723D01*
X171338193Y-81580531D01*
X171335239Y-81578266D01*
X171335658Y-81572614D01*
X171339844Y-81561709D01*
X171341511Y-81558255D01*
X171346236Y-81543702D01*
X171349431Y-81523959D01*
X171350315Y-81507885D01*
X171348506Y-81484115D01*
X171342377Y-81462610D01*
X171330878Y-81441410D01*
X171312960Y-81418550D01*
X171289154Y-81393629D01*
X171257358Y-81365240D01*
X171228829Y-81346190D01*
X171203290Y-81336377D01*
X171180469Y-81335701D01*
X171160091Y-81344061D01*
X171158214Y-81345365D01*
X171149018Y-81353872D01*
X171143424Y-81364207D01*
X171141701Y-81377179D01*
X171144114Y-81393594D01*
X171150928Y-81414260D01*
X171162410Y-81439986D01*
X171178829Y-81471580D01*
X171200447Y-81509850D01*
X171227535Y-81555602D01*
X171227552Y-81555633D01*
X171261409Y-81614060D01*
X171288558Y-81665908D01*
X171309138Y-81711994D01*
X171323291Y-81753135D01*
X171331158Y-81790152D01*
X171332877Y-81823860D01*
X171328593Y-81855076D01*
X171318444Y-81884620D01*
X171302571Y-81913309D01*
X171291749Y-81928629D01*
X171258613Y-81964592D01*
X171220398Y-81992312D01*
X171178011Y-82011660D01*
X171132355Y-82022506D01*
X171084337Y-82024720D01*
X171034863Y-82018173D01*
X170984838Y-82002732D01*
X170937163Y-81979441D01*
X170918014Y-81966537D01*
X170894137Y-81947787D01*
X170867436Y-81924948D01*
X170839808Y-81899770D01*
X170813151Y-81874010D01*
X170789366Y-81849422D01*
X170770351Y-81827760D01*
X170763726Y-81819256D01*
X170732805Y-81770235D01*
X170709964Y-81718711D01*
X170695496Y-81665994D01*
X170689693Y-81613396D01*
X170692851Y-81562227D01*
X170699428Y-81531826D01*
X170706148Y-81510572D01*
X170713854Y-81490220D01*
X170721571Y-81472949D01*
X170728324Y-81460941D01*
X170733139Y-81456371D01*
X170733184Y-81456370D01*
X170738041Y-81459296D01*
X170749340Y-81467316D01*
X170765591Y-81479294D01*
X170785309Y-81494092D01*
X170807010Y-81510577D01*
X170829205Y-81527610D01*
X170850410Y-81544056D01*
X170869136Y-81558779D01*
X170883901Y-81570642D01*
X170893215Y-81578509D01*
X170894536Y-81579735D01*
X170897331Y-81587474D01*
X170895385Y-81591361D01*
X170886506Y-81605673D01*
X170879889Y-81626812D01*
X170875953Y-81651690D01*
X170875118Y-81677225D01*
X170877801Y-81700330D01*
X170879652Y-81707282D01*
X170891853Y-81734358D01*
X170910366Y-81761524D01*
X170933530Y-81787403D01*
X170959690Y-81810613D01*
X170987181Y-81829776D01*
X171014346Y-81843513D01*
X171039523Y-81850444D01*
X171052372Y-81850818D01*
X171076034Y-81844750D01*
X171095082Y-81832137D01*
X171108114Y-81814773D01*
X171113729Y-81794455D01*
X171111344Y-81775324D01*
X171106671Y-81764635D01*
X171097654Y-81747160D01*
X171085268Y-81724672D01*
X171070490Y-81698946D01*
X171055279Y-81673384D01*
X171022646Y-81618065D01*
X170994640Y-81567661D01*
X170971660Y-81522943D01*
X170954104Y-81484687D01*
X170942984Y-81455548D01*
X170933658Y-81413546D01*
X170932071Y-81369964D01*
X170938239Y-81328195D01*
X170942302Y-81314431D01*
X170947716Y-81299224D01*
X170952995Y-81287407D01*
X170959701Y-81276762D01*
X170969398Y-81265069D01*
X170983651Y-81250111D01*
X170997219Y-81236462D01*
X171015586Y-81218245D01*
X171029171Y-81205605D01*
X171040299Y-81196963D01*
X171051290Y-81190742D01*
X171064468Y-81185362D01*
X171080689Y-81179742D01*
X171127488Y-81169120D01*
X171175508Y-81168379D01*
X171224314Y-81177458D01*
G37*
G36*
X171819552Y-81772696D02*
G01*
X171868710Y-81791535D01*
X171896441Y-81806449D01*
X171909413Y-81814782D01*
X171922969Y-81824975D01*
X171938461Y-81838220D01*
X171957248Y-81855715D01*
X171980684Y-81878658D01*
X171998324Y-81896322D01*
X172030704Y-81929701D01*
X172056467Y-81958255D01*
X172076754Y-81983594D01*
X172092705Y-82007329D01*
X172105465Y-82031072D01*
X172116173Y-82056432D01*
X172120683Y-82068963D01*
X172128586Y-82103773D01*
X172130787Y-82143222D01*
X172127368Y-82183689D01*
X172118405Y-82221552D01*
X172117277Y-82224860D01*
X172108195Y-82250066D01*
X172101345Y-82266950D01*
X172095882Y-82276788D01*
X172090955Y-82280858D01*
X172085721Y-82280436D01*
X172081802Y-82278390D01*
X172074214Y-82273416D01*
X172060565Y-82264176D01*
X172042499Y-82251809D01*
X172021659Y-82237455D01*
X171999691Y-82222253D01*
X171978240Y-82207343D01*
X171958950Y-82193866D01*
X171943465Y-82182962D01*
X171933431Y-82175769D01*
X171930477Y-82173504D01*
X171930897Y-82167852D01*
X171935083Y-82156947D01*
X171936749Y-82153493D01*
X171941474Y-82138941D01*
X171944670Y-82119198D01*
X171945553Y-82103123D01*
X171943744Y-82079353D01*
X171937615Y-82057848D01*
X171926116Y-82036648D01*
X171908198Y-82013788D01*
X171884392Y-81988867D01*
X171852597Y-81960478D01*
X171824067Y-81941428D01*
X171798528Y-81931616D01*
X171775707Y-81930940D01*
X171755329Y-81939300D01*
X171753452Y-81940603D01*
X171744256Y-81949110D01*
X171738663Y-81959445D01*
X171736939Y-81972417D01*
X171739352Y-81988832D01*
X171746166Y-82009498D01*
X171757648Y-82035224D01*
X171774067Y-82066819D01*
X171795685Y-82105088D01*
X171822773Y-82150841D01*
X171822791Y-82150871D01*
X171856648Y-82209299D01*
X171883796Y-82261146D01*
X171904377Y-82307232D01*
X171918529Y-82348374D01*
X171926396Y-82385390D01*
X171928116Y-82419098D01*
X171923831Y-82450314D01*
X171913682Y-82479858D01*
X171897810Y-82508548D01*
X171886987Y-82523868D01*
X171853851Y-82559830D01*
X171815636Y-82587550D01*
X171773249Y-82606898D01*
X171727593Y-82617744D01*
X171679575Y-82619958D01*
X171630101Y-82613411D01*
X171580076Y-82597970D01*
X171532402Y-82574680D01*
X171513252Y-82561775D01*
X171489376Y-82543025D01*
X171462674Y-82520186D01*
X171435046Y-82495009D01*
X171408389Y-82469249D01*
X171384604Y-82444660D01*
X171365590Y-82422998D01*
X171358965Y-82414494D01*
X171328044Y-82365474D01*
X171305202Y-82313949D01*
X171290734Y-82261232D01*
X171284931Y-82208635D01*
X171288089Y-82157466D01*
X171294667Y-82127064D01*
X171301386Y-82105811D01*
X171309092Y-82085459D01*
X171316809Y-82068188D01*
X171323563Y-82056179D01*
X171328377Y-82051609D01*
X171328422Y-82051608D01*
X171333280Y-82054534D01*
X171344578Y-82062554D01*
X171360829Y-82074532D01*
X171380548Y-82089330D01*
X171402248Y-82105815D01*
X171424443Y-82122848D01*
X171445648Y-82139294D01*
X171464375Y-82154018D01*
X171479140Y-82165880D01*
X171488454Y-82173747D01*
X171489774Y-82174973D01*
X171492569Y-82182712D01*
X171490623Y-82186600D01*
X171481745Y-82200912D01*
X171475127Y-82222050D01*
X171471192Y-82246929D01*
X171470357Y-82272463D01*
X171473039Y-82295568D01*
X171474891Y-82302521D01*
X171487091Y-82329596D01*
X171505604Y-82356762D01*
X171528769Y-82382641D01*
X171554928Y-82405852D01*
X171582420Y-82425015D01*
X171609584Y-82438751D01*
X171634761Y-82445682D01*
X171647610Y-82446056D01*
X171671272Y-82439989D01*
X171690320Y-82427375D01*
X171703353Y-82410011D01*
X171708967Y-82389693D01*
X171706582Y-82370562D01*
X171701909Y-82359873D01*
X171692892Y-82342398D01*
X171680506Y-82319910D01*
X171665728Y-82294185D01*
X171650518Y-82268622D01*
X171617885Y-82213304D01*
X171589878Y-82162899D01*
X171566899Y-82118181D01*
X171549343Y-82079926D01*
X171538222Y-82050786D01*
X171528897Y-82008784D01*
X171527309Y-81965202D01*
X171533477Y-81923434D01*
X171537540Y-81909669D01*
X171542954Y-81894462D01*
X171548233Y-81882645D01*
X171554939Y-81872000D01*
X171564637Y-81860308D01*
X171578889Y-81845349D01*
X171592458Y-81831700D01*
X171610824Y-81813484D01*
X171624409Y-81800843D01*
X171635537Y-81792202D01*
X171646528Y-81785981D01*
X171659706Y-81780600D01*
X171675927Y-81774980D01*
X171722727Y-81764358D01*
X171770746Y-81763617D01*
X171819552Y-81772696D01*
G37*
X176274538Y-74044077D02*
X174089578Y-76229037D01*
X179106174Y-79061327D02*
G75*
G03*
X176274418Y-74044198I-2113922J2114576D01*
G01*
X174089700Y-76228917D02*
G75*
G03*
X179106828Y-79060673I2902552J-717834D01*
G01*
X179492252Y-76946751D02*
G75*
G03*
X179492252Y-76946751I-2500000J0D01*
G01*
X115855000Y-104160000D02*
X118945000Y-104160000D01*
X117400462Y-98610001D02*
G75*
G03*
X115855170Y-104159999I-462J-2989999D01*
G01*
X118944830Y-104160000D02*
G75*
G03*
X117399538Y-98610000I-1544830J2560000D01*
G01*
X119900000Y-101600000D02*
G75*
G03*
X119900000Y-101600000I-2500000J0D01*
G01*
X119394340Y-112024638D02*
X121897090Y-118066810D01*
X119089460Y-112150923D02*
X119394340Y-112024638D01*
X117167790Y-112946905D02*
X116862910Y-113073190D01*
X116862910Y-113073190D02*
X119365660Y-119115362D01*
X121897090Y-118066810D02*
X121592209Y-118193095D01*
X119365660Y-119115362D02*
X119670540Y-118989077D01*
X149825000Y-71670000D02*
X149825000Y-71985000D01*
X149825000Y-71670000D02*
X155065000Y-71670000D01*
X149825000Y-74095000D02*
X149825000Y-74410000D01*
X149825000Y-74410000D02*
X155065000Y-74410000D01*
X155065000Y-71670000D02*
X155065000Y-71985000D01*
X155065000Y-74095000D02*
X155065000Y-74410000D01*
X148490000Y-117555000D02*
X148805000Y-117555000D01*
X148490000Y-117555000D02*
X148490000Y-112315000D01*
X150915000Y-117555000D02*
X151230000Y-117555000D01*
X151230000Y-117555000D02*
X151230000Y-112315000D01*
X148490000Y-112315000D02*
X148805000Y-112315000D01*
X150915000Y-112315000D02*
X151230000Y-112315000D01*
X128328147Y-129321520D02*
X130513107Y-127136560D01*
X125496511Y-124304270D02*
G75*
G03*
X128328267Y-129321399I2113922J-2114576D01*
G01*
X130512985Y-127136680D02*
G75*
G03*
X125495857Y-124304924I-2902552J717834D01*
G01*
X130110433Y-126418846D02*
G75*
G03*
X130110433Y-126418846I-2500000J0D01*
G01*
X139600000Y-112345000D02*
X139600000Y-122625000D01*
X139600000Y-122625000D02*
X144900000Y-122625000D01*
X141250000Y-112345000D02*
X139600000Y-112345000D01*
X144900000Y-112345000D02*
X143250000Y-112345000D01*
X144900000Y-122625000D02*
X144900000Y-112345000D01*
X141250000Y-112345000D02*
G75*
G03*
X143250000Y-112345000I1000000J0D01*
G01*
X180301174Y-125781910D02*
X178116214Y-123596950D01*
X175283924Y-128613546D02*
G75*
G03*
X180301053Y-125781790I2114576J2113922D01*
G01*
X178116334Y-123597072D02*
G75*
G03*
X175284578Y-128614200I-717834J-2902552D01*
G01*
X179898500Y-126499624D02*
G75*
G03*
X179898500Y-126499624I-2500000J0D01*
G01*
X161350000Y-105470000D02*
X160020000Y-105470000D01*
X161350000Y-104140000D02*
X161350000Y-105470000D01*
X161350000Y-102870000D02*
X161350000Y-97730000D01*
X161350000Y-102870000D02*
X158690000Y-102870000D01*
X161350000Y-97730000D02*
X158690000Y-97730000D01*
X158690000Y-102870000D02*
X158690000Y-97730000D01*
X124833676Y-77393631D02*
X127018636Y-79578591D01*
X129850926Y-74561995D02*
G75*
G03*
X124833797Y-77393751I-2114576J-2113922D01*
G01*
X127018516Y-79578469D02*
G75*
G03*
X129850272Y-74561341I717834J2902552D01*
G01*
X130236350Y-76675917D02*
G75*
G03*
X130236350Y-76675917I-2500000J0D01*
G01*
X160555000Y-112345000D02*
X160555000Y-122625000D01*
X160555000Y-122625000D02*
X165855000Y-122625000D01*
X162205000Y-112345000D02*
X160555000Y-112345000D01*
X165855000Y-112345000D02*
X164205000Y-112345000D01*
X165855000Y-122625000D02*
X165855000Y-112345000D01*
X162205000Y-112345000D02*
G75*
G03*
X164205000Y-112345000I1000000J0D01*
G01*
G36*
X134478034Y-82412078D02*
G01*
X134500836Y-82434880D01*
X133678148Y-83257569D01*
X132855459Y-84080258D01*
X132832657Y-84057456D01*
X132809856Y-84034654D01*
X133632545Y-83211965D01*
X134455233Y-82389277D01*
X134478034Y-82412078D01*
G37*
G36*
X139147840Y-77742272D02*
G01*
X139170642Y-77765074D01*
X138347954Y-78587763D01*
X137525265Y-79410452D01*
X137502463Y-79387650D01*
X137479662Y-79364848D01*
X138302351Y-78542159D01*
X139125039Y-77719471D01*
X139147840Y-77742272D01*
G37*
G36*
X136306738Y-80483048D02*
G01*
X136708049Y-80884359D01*
X136663358Y-80929051D01*
X136618666Y-80973742D01*
X136259310Y-80614385D01*
X135899954Y-80255029D01*
X135832625Y-80322359D01*
X135765296Y-80389687D01*
X135746492Y-80324696D01*
X135727687Y-80259705D01*
X135816557Y-80170720D01*
X135905426Y-80081737D01*
X136306738Y-80483048D01*
G37*
G36*
X134478026Y-78614205D02*
G01*
X135126501Y-79262680D01*
X135327165Y-79062943D01*
X135527829Y-78863208D01*
X135604462Y-78938890D01*
X135681097Y-79014572D01*
X135400159Y-79295510D01*
X135119220Y-79576449D01*
X134394123Y-78851352D01*
X133669026Y-78126255D01*
X133749289Y-78045992D01*
X133829551Y-77965730D01*
X134478026Y-78614205D01*
G37*
G36*
X131264807Y-80683703D02*
G01*
X131341420Y-80760317D01*
X131091513Y-81010224D01*
X130841605Y-81260132D01*
X131055030Y-81473557D01*
X131268455Y-81686982D01*
X131510154Y-81445283D01*
X131751853Y-81203584D01*
X131828466Y-81280198D01*
X131905081Y-81356812D01*
X131663382Y-81598511D01*
X131421683Y-81840210D01*
X131780126Y-82198654D01*
X132138571Y-82557098D01*
X132058309Y-82637360D01*
X131978046Y-82717623D01*
X131252949Y-81992526D01*
X130527852Y-81267429D01*
X130858022Y-80937259D01*
X131188192Y-80607089D01*
X131264807Y-80683703D01*
G37*
G36*
X134849247Y-81221825D02*
G01*
X134891202Y-81263781D01*
X134752568Y-81402415D01*
X134613933Y-81541050D01*
X134732502Y-81659619D01*
X134851072Y-81778189D01*
X134984234Y-81645027D01*
X135117397Y-81511864D01*
X135159351Y-81553819D01*
X135201307Y-81595775D01*
X135068145Y-81728937D01*
X134934982Y-81862099D01*
X135133814Y-82060931D01*
X135332646Y-82259763D01*
X135287954Y-82304455D01*
X135243262Y-82349146D01*
X134841951Y-81947835D01*
X134440640Y-81546523D01*
X134623966Y-81363196D01*
X134807292Y-81179871D01*
X134849247Y-81221825D01*
G37*
G36*
X132910231Y-79421443D02*
G01*
X133313413Y-79824625D01*
X133312207Y-79807725D01*
X133480976Y-79807725D01*
X133482337Y-79853704D01*
X133488699Y-79899652D01*
X133500098Y-79945234D01*
X133504811Y-79959674D01*
X133522865Y-80004431D01*
X133545386Y-80047607D01*
X133571988Y-80088853D01*
X133602284Y-80127822D01*
X133635886Y-80164168D01*
X133672406Y-80197541D01*
X133711456Y-80227594D01*
X133752649Y-80253979D01*
X133795598Y-80276348D01*
X133839914Y-80294354D01*
X133885211Y-80307649D01*
X133895103Y-80309872D01*
X133940834Y-80317055D01*
X133986085Y-80319122D01*
X134030720Y-80316102D01*
X134074607Y-80308026D01*
X134117610Y-80294926D01*
X134159596Y-80276832D01*
X134200432Y-80253774D01*
X134230648Y-80232924D01*
X134234279Y-80229714D01*
X134240854Y-80223408D01*
X134249738Y-80214634D01*
X134260301Y-80204017D01*
X134271911Y-80192185D01*
X134275549Y-80188443D01*
X134289658Y-80173779D01*
X134300700Y-80161950D01*
X134309321Y-80152204D01*
X134316163Y-80143787D01*
X134321866Y-80135946D01*
X134326781Y-80128402D01*
X134347248Y-80092559D01*
X134363221Y-80057669D01*
X134374988Y-80022744D01*
X134382837Y-79986797D01*
X134387052Y-79948839D01*
X134388003Y-79917563D01*
X134385705Y-79872676D01*
X134378730Y-79828725D01*
X134366961Y-79785240D01*
X134350282Y-79741750D01*
X134337338Y-79714408D01*
X134320915Y-79684171D01*
X134303312Y-79656243D01*
X134283702Y-79629508D01*
X134261259Y-79602852D01*
X134235156Y-79575162D01*
X134230883Y-79570860D01*
X134200046Y-79541532D01*
X134169976Y-79516236D01*
X134139598Y-79494178D01*
X134107841Y-79474568D01*
X134079940Y-79459722D01*
X134035820Y-79440410D01*
X133991032Y-79426059D01*
X133945859Y-79416658D01*
X133900579Y-79412194D01*
X133855472Y-79412654D01*
X133810818Y-79418026D01*
X133766898Y-79428298D01*
X133723990Y-79443456D01*
X133682374Y-79463488D01*
X133656930Y-79478617D01*
X133644626Y-79487529D01*
X133630135Y-79499674D01*
X133614354Y-79514144D01*
X133598178Y-79530035D01*
X133582501Y-79546438D01*
X133568220Y-79562451D01*
X133556227Y-79577164D01*
X133547808Y-79589059D01*
X133524752Y-79630181D01*
X133506502Y-79672943D01*
X133493097Y-79717011D01*
X133484575Y-79762049D01*
X133480976Y-79807725D01*
X133312207Y-79807725D01*
X133311766Y-79801553D01*
X133310510Y-79748465D01*
X133314322Y-79696101D01*
X133323132Y-79644672D01*
X133336874Y-79594386D01*
X133355480Y-79545453D01*
X133378883Y-79498081D01*
X133407017Y-79452481D01*
X133436995Y-79412302D01*
X133448763Y-79398739D01*
X133463615Y-79383028D01*
X133480522Y-79366142D01*
X133498461Y-79349053D01*
X133516405Y-79332735D01*
X133533328Y-79318162D01*
X133548206Y-79306307D01*
X133550447Y-79304640D01*
X133596744Y-79273679D01*
X133644618Y-79247557D01*
X133693874Y-79226267D01*
X133744320Y-79209800D01*
X133795763Y-79198151D01*
X133848010Y-79191311D01*
X133900868Y-79189272D01*
X133954145Y-79192026D01*
X134007646Y-79199566D01*
X134061179Y-79211886D01*
X134114552Y-79228976D01*
X134167571Y-79250830D01*
X134220044Y-79277440D01*
X134271777Y-79308799D01*
X134308604Y-79334419D01*
X134326640Y-79348518D01*
X134346844Y-79365761D01*
X134368237Y-79385202D01*
X134389838Y-79405899D01*
X134410668Y-79426906D01*
X134429745Y-79447281D01*
X134446090Y-79466079D01*
X134448978Y-79469606D01*
X134485409Y-79518177D01*
X134517260Y-79567999D01*
X134544512Y-79618852D01*
X134567142Y-79670519D01*
X134585128Y-79722779D01*
X134598450Y-79775411D01*
X134607083Y-79828196D01*
X134611009Y-79880916D01*
X134610205Y-79933350D01*
X134604647Y-79985279D01*
X134594317Y-80036484D01*
X134579192Y-80086744D01*
X134559248Y-80135839D01*
X134534467Y-80183552D01*
X134521533Y-80204824D01*
X134500995Y-80234535D01*
X134476880Y-80265161D01*
X134450297Y-80295479D01*
X134422364Y-80324257D01*
X134394193Y-80350270D01*
X134375444Y-80365773D01*
X134331640Y-80397000D01*
X134286038Y-80423394D01*
X134238586Y-80444976D01*
X134189236Y-80461765D01*
X134137939Y-80473782D01*
X134100700Y-80479382D01*
X134087849Y-80480468D01*
X134071318Y-80481246D01*
X134052524Y-80481707D01*
X134032880Y-80481846D01*
X134013805Y-80481654D01*
X133996712Y-80481126D01*
X133983016Y-80480253D01*
X133980438Y-80479997D01*
X133967355Y-80478568D01*
X134029792Y-80541004D01*
X134092228Y-80603441D01*
X134013790Y-80681879D01*
X133935352Y-80760317D01*
X133487544Y-80312509D01*
X133142761Y-79967727D01*
X132350171Y-79175137D01*
X132428609Y-79096699D01*
X132507048Y-79018260D01*
X132910231Y-79421443D01*
G37*
G36*
X135974791Y-76356883D02*
G01*
X136377973Y-76760066D01*
X136376766Y-76743164D01*
X136545536Y-76743164D01*
X136546898Y-76789143D01*
X136553259Y-76835091D01*
X136564658Y-76880673D01*
X136569372Y-76895114D01*
X136587424Y-76939871D01*
X136609946Y-76983046D01*
X136636548Y-77024292D01*
X136666844Y-77063262D01*
X136700445Y-77099608D01*
X136736966Y-77132980D01*
X136776016Y-77163033D01*
X136817209Y-77189418D01*
X136860158Y-77211787D01*
X136904475Y-77229794D01*
X136949771Y-77243088D01*
X136959664Y-77245311D01*
X137005394Y-77252495D01*
X137050646Y-77254562D01*
X137095280Y-77251542D01*
X137139166Y-77243467D01*
X137182170Y-77230366D01*
X137224156Y-77212272D01*
X137264992Y-77189214D01*
X137295208Y-77168365D01*
X137298840Y-77165153D01*
X137305413Y-77158848D01*
X137314298Y-77150073D01*
X137324861Y-77139457D01*
X137336472Y-77127624D01*
X137340110Y-77123883D01*
X137354218Y-77109219D01*
X137365260Y-77097390D01*
X137373881Y-77087644D01*
X137380722Y-77079227D01*
X137386427Y-77071386D01*
X137391341Y-77063842D01*
X137411808Y-77027998D01*
X137427782Y-76993108D01*
X137439549Y-76958184D01*
X137447397Y-76922236D01*
X137451613Y-76884279D01*
X137452564Y-76853003D01*
X137450265Y-76808115D01*
X137443290Y-76764164D01*
X137431522Y-76720679D01*
X137414842Y-76677189D01*
X137401898Y-76649848D01*
X137385476Y-76619610D01*
X137367873Y-76591682D01*
X137348263Y-76564947D01*
X137325819Y-76538292D01*
X137299716Y-76510601D01*
X137295444Y-76506299D01*
X137264606Y-76476973D01*
X137234536Y-76451676D01*
X137204159Y-76429617D01*
X137172401Y-76410008D01*
X137144500Y-76395161D01*
X137100379Y-76375850D01*
X137055593Y-76361499D01*
X137010419Y-76352098D01*
X136965139Y-76347634D01*
X136920033Y-76348094D01*
X136875378Y-76353466D01*
X136831458Y-76363737D01*
X136788550Y-76378896D01*
X136746934Y-76398928D01*
X136721490Y-76414056D01*
X136709186Y-76422968D01*
X136694696Y-76435113D01*
X136678915Y-76449584D01*
X136662738Y-76465474D01*
X136647061Y-76481879D01*
X136632780Y-76497891D01*
X136620788Y-76512604D01*
X136612368Y-76524498D01*
X136589312Y-76565621D01*
X136571063Y-76608383D01*
X136557658Y-76652450D01*
X136549136Y-76697489D01*
X136545536Y-76743164D01*
X136376766Y-76743164D01*
X136376325Y-76736993D01*
X136375071Y-76683905D01*
X136378882Y-76631541D01*
X136387692Y-76580112D01*
X136401434Y-76529825D01*
X136420040Y-76480893D01*
X136443444Y-76433521D01*
X136471577Y-76387921D01*
X136501555Y-76347742D01*
X136513324Y-76334179D01*
X136528175Y-76318468D01*
X136545083Y-76301581D01*
X136563021Y-76284493D01*
X136580966Y-76268175D01*
X136597889Y-76253602D01*
X136612766Y-76241747D01*
X136615007Y-76240080D01*
X136661304Y-76209119D01*
X136709178Y-76182997D01*
X136758434Y-76161707D01*
X136808880Y-76145240D01*
X136860324Y-76133591D01*
X136912570Y-76126750D01*
X136965428Y-76124711D01*
X137018704Y-76127466D01*
X137072205Y-76135007D01*
X137125739Y-76147326D01*
X137179112Y-76164416D01*
X137232131Y-76186270D01*
X137284604Y-76212880D01*
X137336337Y-76244238D01*
X137373164Y-76269859D01*
X137391200Y-76283958D01*
X137411405Y-76301201D01*
X137432797Y-76320642D01*
X137454399Y-76341338D01*
X137475228Y-76362346D01*
X137494305Y-76382721D01*
X137510651Y-76401519D01*
X137513538Y-76405046D01*
X137549968Y-76453617D01*
X137581821Y-76503438D01*
X137609072Y-76554293D01*
X137631702Y-76605960D01*
X137649689Y-76658218D01*
X137663010Y-76710850D01*
X137671644Y-76763636D01*
X137675569Y-76816356D01*
X137674764Y-76868790D01*
X137669208Y-76920719D01*
X137658877Y-76971923D01*
X137643751Y-77022184D01*
X137623809Y-77071279D01*
X137599028Y-77118992D01*
X137586094Y-77140264D01*
X137565556Y-77169974D01*
X137541439Y-77200602D01*
X137514858Y-77230918D01*
X137486924Y-77259696D01*
X137458753Y-77285709D01*
X137440003Y-77301213D01*
X137396200Y-77332440D01*
X137350598Y-77358835D01*
X137303146Y-77380415D01*
X137253797Y-77397204D01*
X137202500Y-77409222D01*
X137165261Y-77414822D01*
X137152410Y-77415908D01*
X137135878Y-77416685D01*
X137117084Y-77417147D01*
X137097441Y-77417285D01*
X137078364Y-77417094D01*
X137061271Y-77416566D01*
X137047577Y-77415693D01*
X137044999Y-77415437D01*
X137031915Y-77414008D01*
X137094351Y-77476444D01*
X137156788Y-77538881D01*
X137078350Y-77617319D01*
X136999912Y-77695757D01*
X136552104Y-77247949D01*
X136207322Y-76903166D01*
X135414732Y-76110576D01*
X135493170Y-76032138D01*
X135571607Y-75953700D01*
X135974791Y-76356883D01*
G37*
G36*
X135412483Y-80748436D02*
G01*
X135447611Y-80756933D01*
X135482287Y-80770540D01*
X135516443Y-80789260D01*
X135530034Y-80798243D01*
X135544039Y-80808953D01*
X135559660Y-80822539D01*
X135575798Y-80837898D01*
X135591355Y-80853928D01*
X135605228Y-80869528D01*
X135616320Y-80883594D01*
X135618989Y-80887421D01*
X135636572Y-80917678D01*
X135649957Y-80949451D01*
X135658968Y-80982058D01*
X135663430Y-81014807D01*
X135663168Y-81047013D01*
X135662097Y-81056813D01*
X135661156Y-81065398D01*
X135660865Y-81071744D01*
X135661221Y-81074300D01*
X135664023Y-81073947D01*
X135669120Y-81071345D01*
X135669735Y-81070956D01*
X135680164Y-81065211D01*
X135694028Y-81058947D01*
X135709735Y-81052797D01*
X135725688Y-81047397D01*
X135736998Y-81044185D01*
X135772290Y-81037652D01*
X135807557Y-81036097D01*
X135843153Y-81039536D01*
X135879436Y-81047985D01*
X135889895Y-81051293D01*
X135927059Y-81066364D01*
X135961551Y-81085685D01*
X135993089Y-81108936D01*
X136021393Y-81135797D01*
X136046178Y-81165943D01*
X136067165Y-81199054D01*
X136084069Y-81234809D01*
X136096609Y-81272885D01*
X136101004Y-81291932D01*
X136105984Y-81329911D01*
X136105877Y-81368180D01*
X136100732Y-81406532D01*
X136090597Y-81444758D01*
X136075521Y-81482649D01*
X136055551Y-81520000D01*
X136043543Y-81538707D01*
X136040283Y-81543437D01*
X136036974Y-81548021D01*
X136033338Y-81552756D01*
X136029094Y-81557937D01*
X136023963Y-81563864D01*
X136017667Y-81570831D01*
X136009924Y-81579137D01*
X136000456Y-81589076D01*
X135988984Y-81600946D01*
X135975230Y-81615045D01*
X135958912Y-81631667D01*
X135939751Y-81651109D01*
X135917470Y-81673670D01*
X135896248Y-81695134D01*
X135765184Y-81827658D01*
X135394191Y-81456665D01*
X135363764Y-81426238D01*
X135304807Y-81367281D01*
X135483574Y-81367281D01*
X135627266Y-81510973D01*
X135770958Y-81654665D01*
X135843330Y-81580194D01*
X135864368Y-81558456D01*
X135882048Y-81539979D01*
X135896695Y-81524410D01*
X135908631Y-81511396D01*
X135918182Y-81500584D01*
X135925669Y-81491620D01*
X135931419Y-81484152D01*
X135931472Y-81484079D01*
X135948646Y-81458465D01*
X135961582Y-81434254D01*
X135970629Y-81410478D01*
X135976132Y-81386174D01*
X135978439Y-81360377D01*
X135978559Y-81353076D01*
X135977013Y-81324823D01*
X135971970Y-81299249D01*
X135963064Y-81274934D01*
X135953659Y-81256725D01*
X135942469Y-81240154D01*
X135928097Y-81223112D01*
X135911857Y-81206906D01*
X135895058Y-81192848D01*
X135879325Y-81182422D01*
X135850906Y-81169273D01*
X135821908Y-81161252D01*
X135792344Y-81158358D01*
X135762227Y-81160592D01*
X135731572Y-81167957D01*
X135725805Y-81169894D01*
X135711991Y-81174999D01*
X135699215Y-81180378D01*
X135687014Y-81186375D01*
X135674927Y-81193337D01*
X135662492Y-81201611D01*
X135649247Y-81211540D01*
X135634730Y-81223474D01*
X135618481Y-81237754D01*
X135600036Y-81254730D01*
X135578934Y-81274745D01*
X135555268Y-81297605D01*
X135483574Y-81367281D01*
X135304807Y-81367281D01*
X135046255Y-81108729D01*
X134962344Y-81024818D01*
X134967817Y-81019345D01*
X135135638Y-81019345D01*
X135269712Y-81153420D01*
X135403787Y-81287494D01*
X135448898Y-81242311D01*
X135462128Y-81228911D01*
X135474763Y-81215834D01*
X135486135Y-81203798D01*
X135495569Y-81193517D01*
X135502396Y-81185709D01*
X135504947Y-81182527D01*
X135524698Y-81153046D01*
X135539334Y-81124132D01*
X135548863Y-81095730D01*
X135553291Y-81067782D01*
X135552623Y-81040233D01*
X135546869Y-81013029D01*
X135536035Y-80986112D01*
X135530508Y-80975807D01*
X135520609Y-80961117D01*
X135507416Y-80945192D01*
X135492163Y-80929265D01*
X135476086Y-80914572D01*
X135460420Y-80902348D01*
X135450877Y-80896217D01*
X135430516Y-80885692D01*
X135411593Y-80878675D01*
X135392298Y-80874666D01*
X135370819Y-80873167D01*
X135367173Y-80873127D01*
X135352050Y-80873368D01*
X135339900Y-80874476D01*
X135328561Y-80876802D01*
X135315873Y-80880692D01*
X135312058Y-80882014D01*
X135294516Y-80888846D01*
X135277785Y-80896870D01*
X135261263Y-80906521D01*
X135244346Y-80918235D01*
X135226433Y-80932450D01*
X135206919Y-80949600D01*
X135185204Y-80970124D01*
X135170814Y-80984292D01*
X135135638Y-81019345D01*
X134967817Y-81019345D01*
X135050622Y-80936540D01*
X135069095Y-80918148D01*
X135087123Y-80900351D01*
X135104245Y-80883594D01*
X135119996Y-80868325D01*
X135133912Y-80854992D01*
X135145531Y-80844042D01*
X135154390Y-80835921D01*
X135159507Y-80831491D01*
X135195939Y-80804396D01*
X135232384Y-80782368D01*
X135268776Y-80765412D01*
X135305049Y-80753535D01*
X135341135Y-80746742D01*
X135376969Y-80745041D01*
X135412483Y-80748436D01*
G37*
G36*
X133188365Y-80604353D02*
G01*
X133639841Y-81055828D01*
X133561403Y-81134266D01*
X133482965Y-81212704D01*
X133420528Y-81150268D01*
X133358092Y-81087831D01*
X133359517Y-81100919D01*
X133360486Y-81113719D01*
X133361113Y-81130233D01*
X133361404Y-81149030D01*
X133361359Y-81168677D01*
X133360984Y-81187741D01*
X133360282Y-81204788D01*
X133359255Y-81218387D01*
X133359244Y-81218498D01*
X133351387Y-81270251D01*
X133338839Y-81320074D01*
X133321508Y-81368214D01*
X133299301Y-81414915D01*
X133272127Y-81460423D01*
X133264313Y-81471979D01*
X133254153Y-81485494D01*
X133240872Y-81501428D01*
X133225318Y-81518901D01*
X133208336Y-81537032D01*
X133190772Y-81554939D01*
X133173473Y-81571744D01*
X133157285Y-81586566D01*
X133143055Y-81598522D01*
X133141606Y-81599656D01*
X133094175Y-81633374D01*
X133045358Y-81662173D01*
X132995345Y-81686049D01*
X132944325Y-81704994D01*
X132892490Y-81719003D01*
X132840028Y-81728072D01*
X132787128Y-81732192D01*
X132733982Y-81731361D01*
X132680779Y-81725570D01*
X132627708Y-81714816D01*
X132574961Y-81699091D01*
X132522726Y-81678391D01*
X132471192Y-81652710D01*
X132420552Y-81622042D01*
X132419474Y-81621328D01*
X132401248Y-81609062D01*
X132385283Y-81597884D01*
X132370811Y-81587142D01*
X132357056Y-81576189D01*
X132343247Y-81564374D01*
X132328611Y-81551049D01*
X132312373Y-81535564D01*
X132293764Y-81517269D01*
X132289520Y-81513037D01*
X132283679Y-81507214D01*
X132263646Y-81487027D01*
X132246756Y-81469593D01*
X132232370Y-81454160D01*
X132219850Y-81439973D01*
X132208557Y-81426277D01*
X132197852Y-81412318D01*
X132187096Y-81397341D01*
X132175651Y-81380591D01*
X132172462Y-81375821D01*
X132142273Y-81326259D01*
X132116784Y-81275369D01*
X132096077Y-81223408D01*
X132080233Y-81170632D01*
X132069334Y-81117294D01*
X132063461Y-81063653D01*
X132062379Y-81030208D01*
X132063438Y-81004752D01*
X132286265Y-81004752D01*
X132288503Y-81049023D01*
X132295300Y-81092010D01*
X132306777Y-81134100D01*
X132323056Y-81175682D01*
X132344259Y-81217143D01*
X132362128Y-81246352D01*
X132387807Y-81282280D01*
X132417553Y-81317922D01*
X132450328Y-81352230D01*
X132485095Y-81384160D01*
X132520819Y-81412665D01*
X132540999Y-81426837D01*
X132584477Y-81453225D01*
X132628266Y-81474723D01*
X132672195Y-81491324D01*
X132716090Y-81503020D01*
X132759778Y-81509808D01*
X132803086Y-81511678D01*
X132845842Y-81508626D01*
X132887872Y-81500645D01*
X132929003Y-81487729D01*
X132969063Y-81469871D01*
X133007877Y-81447064D01*
X133012155Y-81444191D01*
X133021078Y-81438091D01*
X133028342Y-81432964D01*
X133034666Y-81428167D01*
X133040773Y-81423061D01*
X133047382Y-81417004D01*
X133055214Y-81409356D01*
X133064989Y-81399475D01*
X133077428Y-81386721D01*
X133081666Y-81382363D01*
X133096251Y-81367223D01*
X133107750Y-81354913D01*
X133116800Y-81344698D01*
X133124039Y-81335835D01*
X133130104Y-81327584D01*
X133134467Y-81321039D01*
X133156861Y-81282240D01*
X133174279Y-81243226D01*
X133186891Y-81203421D01*
X133194868Y-81162252D01*
X133198382Y-81119144D01*
X133198592Y-81105084D01*
X133196229Y-81059133D01*
X133189092Y-81014181D01*
X133177091Y-80969921D01*
X133160141Y-80926050D01*
X133138153Y-80882263D01*
X133130952Y-80869758D01*
X133116287Y-80845942D01*
X133101867Y-80824731D01*
X133086718Y-80804883D01*
X133069858Y-80785157D01*
X133050312Y-80764310D01*
X133038520Y-80752374D01*
X133010251Y-80725382D01*
X132983149Y-80702180D01*
X132956096Y-80681935D01*
X132927969Y-80663813D01*
X132897649Y-80646979D01*
X132895345Y-80645792D01*
X132851839Y-80626203D01*
X132807595Y-80611626D01*
X132762861Y-80602063D01*
X132717881Y-80597516D01*
X132672902Y-80597989D01*
X132628174Y-80603484D01*
X132583940Y-80614003D01*
X132540449Y-80629551D01*
X132514270Y-80641564D01*
X132476011Y-80663461D01*
X132439934Y-80689707D01*
X132406582Y-80719764D01*
X132376493Y-80753091D01*
X132350209Y-80789147D01*
X132328269Y-80827393D01*
X132328091Y-80827750D01*
X132310999Y-80866300D01*
X132298580Y-80904443D01*
X132290573Y-80943287D01*
X132286717Y-80983933D01*
X132286265Y-81004752D01*
X132063438Y-81004752D01*
X132064513Y-80978924D01*
X132071271Y-80928621D01*
X132082793Y-80878466D01*
X132093716Y-80843152D01*
X132113003Y-80793191D01*
X132135904Y-80746142D01*
X132162761Y-80701465D01*
X132193909Y-80658624D01*
X132229689Y-80617084D01*
X132248966Y-80597090D01*
X132289863Y-80559418D01*
X132332545Y-80526547D01*
X132376938Y-80498502D01*
X132422974Y-80475312D01*
X132470579Y-80457000D01*
X132519686Y-80443596D01*
X132570221Y-80435123D01*
X132622115Y-80431611D01*
X132675296Y-80433084D01*
X132685770Y-80433951D01*
X132706069Y-80435809D01*
X132643041Y-80372781D01*
X132580014Y-80309754D01*
X132658452Y-80231316D01*
X132736890Y-80152878D01*
X133188365Y-80604353D01*
G37*
G36*
X136252925Y-77539792D02*
G01*
X136704401Y-77991268D01*
X136625963Y-78069706D01*
X136547524Y-78148145D01*
X136485088Y-78085708D01*
X136422651Y-78023272D01*
X136424078Y-78036358D01*
X136425046Y-78049158D01*
X136425674Y-78065673D01*
X136425964Y-78084470D01*
X136425920Y-78104117D01*
X136425545Y-78123180D01*
X136424843Y-78140228D01*
X136423815Y-78153826D01*
X136423804Y-78153938D01*
X136415947Y-78205690D01*
X136403400Y-78255514D01*
X136386069Y-78303654D01*
X136363862Y-78350355D01*
X136336687Y-78395863D01*
X136328874Y-78407419D01*
X136318713Y-78420934D01*
X136305432Y-78436868D01*
X136289878Y-78454341D01*
X136272896Y-78472471D01*
X136255332Y-78490379D01*
X136238034Y-78507184D01*
X136221846Y-78522005D01*
X136207615Y-78533962D01*
X136206166Y-78535096D01*
X136158734Y-78568814D01*
X136109918Y-78597613D01*
X136059905Y-78621489D01*
X136008886Y-78640434D01*
X135957051Y-78654443D01*
X135904588Y-78663512D01*
X135851689Y-78667632D01*
X135798543Y-78666800D01*
X135745339Y-78661010D01*
X135692269Y-78650255D01*
X135639522Y-78634531D01*
X135587286Y-78613831D01*
X135535753Y-78588150D01*
X135485112Y-78557482D01*
X135484034Y-78556767D01*
X135465807Y-78544503D01*
X135449844Y-78533323D01*
X135435371Y-78522582D01*
X135421617Y-78511629D01*
X135407807Y-78499814D01*
X135393170Y-78486489D01*
X135376934Y-78471003D01*
X135358325Y-78452708D01*
X135354080Y-78448478D01*
X135348239Y-78442655D01*
X135328206Y-78422467D01*
X135311316Y-78405033D01*
X135296930Y-78389600D01*
X135284410Y-78375412D01*
X135273118Y-78361717D01*
X135262412Y-78347757D01*
X135251656Y-78332780D01*
X135240212Y-78316031D01*
X135237023Y-78311261D01*
X135206834Y-78261698D01*
X135181344Y-78210809D01*
X135160637Y-78158848D01*
X135144794Y-78106071D01*
X135133894Y-78052734D01*
X135128022Y-77999092D01*
X135126940Y-77965647D01*
X135127999Y-77940192D01*
X135350825Y-77940192D01*
X135353063Y-77984463D01*
X135359860Y-78027449D01*
X135371337Y-78069540D01*
X135387617Y-78111121D01*
X135408819Y-78152583D01*
X135426688Y-78181792D01*
X135452367Y-78217720D01*
X135482113Y-78253361D01*
X135514888Y-78287670D01*
X135549655Y-78319600D01*
X135585380Y-78348104D01*
X135605559Y-78362276D01*
X135649036Y-78388666D01*
X135692826Y-78410163D01*
X135736755Y-78426764D01*
X135780650Y-78438460D01*
X135824339Y-78445248D01*
X135867647Y-78447118D01*
X135910402Y-78444067D01*
X135952433Y-78436085D01*
X135993564Y-78423169D01*
X136033623Y-78405311D01*
X136072438Y-78382504D01*
X136076716Y-78379630D01*
X136085638Y-78373531D01*
X136092902Y-78368403D01*
X136099226Y-78363606D01*
X136105334Y-78358500D01*
X136111942Y-78352443D01*
X136119774Y-78344795D01*
X136129549Y-78334914D01*
X136141989Y-78322161D01*
X136146226Y-78317803D01*
X136160811Y-78302662D01*
X136172310Y-78290353D01*
X136181360Y-78280137D01*
X136188600Y-78271275D01*
X136194664Y-78263024D01*
X136199027Y-78256479D01*
X136221421Y-78217680D01*
X136238838Y-78178666D01*
X136251450Y-78138862D01*
X136259429Y-78097692D01*
X136262942Y-78054583D01*
X136263152Y-78040524D01*
X136260790Y-77994572D01*
X136253652Y-77949620D01*
X136241652Y-77905360D01*
X136224702Y-77861489D01*
X136202713Y-77817703D01*
X136195513Y-77805198D01*
X136180847Y-77781382D01*
X136166428Y-77760171D01*
X136151278Y-77740323D01*
X136134418Y-77720597D01*
X136114872Y-77699751D01*
X136103080Y-77687813D01*
X136074812Y-77660821D01*
X136047710Y-77637620D01*
X136020656Y-77617375D01*
X135992529Y-77599253D01*
X135962209Y-77582419D01*
X135959906Y-77581232D01*
X135916400Y-77561643D01*
X135872155Y-77547066D01*
X135827421Y-77537503D01*
X135782441Y-77532956D01*
X135737463Y-77533428D01*
X135692734Y-77538924D01*
X135648500Y-77549443D01*
X135605008Y-77564992D01*
X135578830Y-77577004D01*
X135540571Y-77598900D01*
X135504495Y-77625147D01*
X135471142Y-77655203D01*
X135441054Y-77688531D01*
X135414769Y-77724588D01*
X135392830Y-77762833D01*
X135392651Y-77763190D01*
X135375559Y-77801739D01*
X135363140Y-77839883D01*
X135355133Y-77878727D01*
X135351278Y-77919373D01*
X135350825Y-77940192D01*
X135127999Y-77940192D01*
X135129074Y-77914364D01*
X135135832Y-77864061D01*
X135147353Y-77813906D01*
X135158276Y-77778592D01*
X135177562Y-77728632D01*
X135200465Y-77681581D01*
X135227321Y-77636904D01*
X135258469Y-77594064D01*
X135294249Y-77552524D01*
X135313525Y-77532530D01*
X135354424Y-77494858D01*
X135397105Y-77461987D01*
X135441498Y-77433942D01*
X135487534Y-77410752D01*
X135535140Y-77392440D01*
X135584246Y-77379035D01*
X135634781Y-77370563D01*
X135686676Y-77367050D01*
X135739856Y-77368523D01*
X135750330Y-77369390D01*
X135770629Y-77371249D01*
X135707601Y-77308221D01*
X135644574Y-77245194D01*
X135723012Y-77166755D01*
X135801450Y-77088317D01*
X136252925Y-77539792D01*
G37*
G36*
X136561463Y-79489068D02*
G01*
X136562752Y-79496161D01*
X136564738Y-79507444D01*
X136567344Y-79522470D01*
X136570495Y-79540789D01*
X136574117Y-79561953D01*
X136578131Y-79585512D01*
X136582463Y-79611016D01*
X136587039Y-79638019D01*
X136591782Y-79666069D01*
X136596615Y-79694719D01*
X136601463Y-79723518D01*
X136606252Y-79752020D01*
X136610906Y-79779773D01*
X136615347Y-79806328D01*
X136619502Y-79831239D01*
X136623294Y-79854055D01*
X136626647Y-79874327D01*
X136629487Y-79891605D01*
X136631737Y-79905442D01*
X136633321Y-79915388D01*
X136634164Y-79920994D01*
X136634257Y-79921730D01*
X136635004Y-79924253D01*
X136636762Y-79922756D01*
X136638798Y-79919453D01*
X136647287Y-79905364D01*
X136655408Y-79893233D01*
X136664225Y-79881658D01*
X136674798Y-79869238D01*
X136686770Y-79856097D01*
X136705926Y-79836349D01*
X136723908Y-79819850D01*
X136742170Y-79805402D01*
X136762164Y-79791813D01*
X136773520Y-79784814D01*
X136810897Y-79765334D01*
X136849728Y-79750693D01*
X136889654Y-79740903D01*
X136930314Y-79735971D01*
X136971347Y-79735909D01*
X137012394Y-79740728D01*
X137053092Y-79750437D01*
X137093083Y-79765046D01*
X137114699Y-79775202D01*
X137132917Y-79784885D01*
X137149014Y-79794488D01*
X137163979Y-79804761D01*
X137178797Y-79816457D01*
X137194456Y-79830325D01*
X137211945Y-79847116D01*
X137220513Y-79855663D01*
X137234341Y-79869694D01*
X137245143Y-79880979D01*
X137253624Y-79890335D01*
X137260489Y-79898576D01*
X137266445Y-79906522D01*
X137272196Y-79914987D01*
X137273412Y-79916858D01*
X137296555Y-79956794D01*
X137314803Y-79997332D01*
X137328107Y-80038279D01*
X137336414Y-80079446D01*
X137339675Y-80120637D01*
X137337848Y-80161584D01*
X137330647Y-80204712D01*
X137318499Y-80246971D01*
X137301606Y-80287874D01*
X137280166Y-80326939D01*
X137255272Y-80362539D01*
X137244317Y-80375536D01*
X137230450Y-80390472D01*
X137214869Y-80406170D01*
X137198778Y-80421454D01*
X137183375Y-80435149D01*
X137170449Y-80445633D01*
X137133243Y-80470789D01*
X137094518Y-80491103D01*
X137054565Y-80506566D01*
X137013669Y-80517172D01*
X136972120Y-80522910D01*
X136930206Y-80523772D01*
X136888212Y-80519752D01*
X136846428Y-80510839D01*
X136805142Y-80497026D01*
X136764641Y-80478304D01*
X136730866Y-80458407D01*
X136715954Y-80447792D01*
X136699443Y-80434528D01*
X136682478Y-80419661D01*
X136668312Y-80406244D01*
X136666197Y-80404241D01*
X136651744Y-80389315D01*
X136640259Y-80375930D01*
X136638439Y-80373559D01*
X136613012Y-80335432D01*
X136591216Y-80293943D01*
X136573284Y-80249615D01*
X136559454Y-80202971D01*
X136557025Y-80192629D01*
X136556107Y-80187887D01*
X136554431Y-80178515D01*
X136552054Y-80164877D01*
X136549040Y-80147338D01*
X136546563Y-80132812D01*
X136678737Y-80132812D01*
X136681238Y-80167090D01*
X136688495Y-80200411D01*
X136700141Y-80232411D01*
X136715804Y-80262727D01*
X136735116Y-80290994D01*
X136757708Y-80316847D01*
X136783212Y-80339925D01*
X136811259Y-80359861D01*
X136841479Y-80376292D01*
X136873503Y-80388854D01*
X136906962Y-80397183D01*
X136941488Y-80400915D01*
X136950660Y-80401087D01*
X136985018Y-80398554D01*
X137019225Y-80391100D01*
X137052648Y-80378938D01*
X137084649Y-80362283D01*
X137104730Y-80348902D01*
X137117510Y-80338356D01*
X137131742Y-80324627D01*
X137146282Y-80308987D01*
X137159986Y-80292715D01*
X137171712Y-80277082D01*
X137178392Y-80266762D01*
X137194827Y-80234238D01*
X137206547Y-80200517D01*
X137213401Y-80166134D01*
X137215287Y-80136460D01*
X137212746Y-80101528D01*
X137205283Y-80067022D01*
X137193131Y-80033447D01*
X137176527Y-80001305D01*
X137155706Y-79971101D01*
X137130903Y-79943340D01*
X137120623Y-79933663D01*
X137091408Y-79910642D01*
X137060420Y-79892250D01*
X137028039Y-79878532D01*
X136994641Y-79869537D01*
X136960607Y-79865309D01*
X136926316Y-79865896D01*
X136892146Y-79871347D01*
X136858475Y-79881706D01*
X136825683Y-79897022D01*
X136825463Y-79897143D01*
X136793999Y-79917233D01*
X136765741Y-79940685D01*
X136740963Y-79967061D01*
X136719938Y-79995924D01*
X136702937Y-80026835D01*
X136690231Y-80059361D01*
X136682094Y-80093062D01*
X136678797Y-80127502D01*
X136678737Y-80132812D01*
X136546563Y-80132812D01*
X136545447Y-80126266D01*
X136541337Y-80102023D01*
X136536770Y-80074977D01*
X136531808Y-80045492D01*
X136526511Y-80013934D01*
X136520939Y-79980668D01*
X136515154Y-79946058D01*
X136509217Y-79910472D01*
X136503187Y-79874274D01*
X136497126Y-79837829D01*
X136491094Y-79801502D01*
X136485152Y-79765660D01*
X136479361Y-79730667D01*
X136473782Y-79696889D01*
X136468476Y-79664691D01*
X136463502Y-79634439D01*
X136458922Y-79606496D01*
X136454797Y-79581230D01*
X136451187Y-79559006D01*
X136448152Y-79540189D01*
X136445755Y-79525143D01*
X136444054Y-79514236D01*
X136443112Y-79507831D01*
X136442937Y-79506299D01*
X136445352Y-79505024D01*
X136452241Y-79503243D01*
X136462954Y-79501084D01*
X136476842Y-79498670D01*
X136493259Y-79496130D01*
X136501411Y-79494962D01*
X136518167Y-79492620D01*
X136533136Y-79490525D01*
X136545589Y-79488780D01*
X136554796Y-79487488D01*
X136560027Y-79486749D01*
X136560946Y-79486616D01*
X136561463Y-79489068D01*
G37*
G36*
X128869289Y-83127366D02*
G01*
X128906154Y-83129606D01*
X128940848Y-83135023D01*
X128973810Y-83143847D01*
X129005477Y-83156308D01*
X129036285Y-83172633D01*
X129066674Y-83193054D01*
X129097080Y-83217800D01*
X129127942Y-83247099D01*
X129157131Y-83278295D01*
X129167677Y-83290096D01*
X129177229Y-83300745D01*
X129185185Y-83309572D01*
X129190945Y-83315909D01*
X129193905Y-83319091D01*
X129193965Y-83319151D01*
X129197146Y-83320870D01*
X129201422Y-83319612D01*
X129207068Y-83315853D01*
X129216562Y-83309359D01*
X129229573Y-83301191D01*
X129245004Y-83291983D01*
X129261757Y-83282366D01*
X129278734Y-83272973D01*
X129294837Y-83264436D01*
X129306624Y-83258516D01*
X129324783Y-83250291D01*
X129345914Y-83241690D01*
X129368645Y-83233192D01*
X129391604Y-83225280D01*
X129413422Y-83218435D01*
X129432727Y-83213138D01*
X129441616Y-83211094D01*
X129489825Y-83203315D01*
X129537496Y-83200160D01*
X129584130Y-83201625D01*
X129629228Y-83207705D01*
X129654329Y-83213305D01*
X129687761Y-83223317D01*
X129719359Y-83235870D01*
X129750773Y-83251678D01*
X129773045Y-83264759D01*
X129782070Y-83270415D01*
X129789638Y-83275443D01*
X129796519Y-83280498D01*
X129803483Y-83286233D01*
X129811301Y-83293303D01*
X129820740Y-83302360D01*
X129832573Y-83314061D01*
X129840955Y-83322434D01*
X129854997Y-83336571D01*
X129865984Y-83347885D01*
X129874575Y-83357133D01*
X129881429Y-83365074D01*
X129887207Y-83372464D01*
X129892569Y-83380060D01*
X129896995Y-83386787D01*
X129922939Y-83431784D01*
X129944368Y-83479192D01*
X129961257Y-83528872D01*
X129973582Y-83580693D01*
X129981314Y-83634515D01*
X129984429Y-83690208D01*
X129982900Y-83747632D01*
X129976920Y-83805123D01*
X129965462Y-83868316D01*
X129948940Y-83931552D01*
X129927446Y-83994646D01*
X129901069Y-84057411D01*
X129869901Y-84119661D01*
X129834031Y-84181213D01*
X129793552Y-84241879D01*
X129748553Y-84301474D01*
X129714394Y-84342476D01*
X129706378Y-84351969D01*
X129699786Y-84360233D01*
X129695276Y-84366411D01*
X129693504Y-84369643D01*
X129693500Y-84369718D01*
X129694152Y-84373023D01*
X129695973Y-84380543D01*
X129698767Y-84391515D01*
X129702338Y-84405176D01*
X129706492Y-84420765D01*
X129708425Y-84427934D01*
X129725869Y-84495235D01*
X129740895Y-84559272D01*
X129753475Y-84619869D01*
X129763581Y-84676849D01*
X129771182Y-84730037D01*
X129776250Y-84779258D01*
X129778757Y-84824334D01*
X129778945Y-84854886D01*
X129778366Y-84873296D01*
X129777178Y-84889448D01*
X129775143Y-84904562D01*
X129772024Y-84919861D01*
X129767581Y-84936563D01*
X129761575Y-84955891D01*
X129755877Y-84972920D01*
X129729734Y-85042193D01*
X129698586Y-85111459D01*
X129662412Y-85180751D01*
X129621189Y-85250107D01*
X129574894Y-85319561D01*
X129523506Y-85389150D01*
X129467003Y-85458907D01*
X129419677Y-85513112D01*
X129409438Y-85524218D01*
X129396168Y-85538209D01*
X129380552Y-85554395D01*
X129363274Y-85572084D01*
X129345024Y-85590585D01*
X129326484Y-85609208D01*
X129308343Y-85627260D01*
X129291285Y-85644051D01*
X129275996Y-85658889D01*
X129263163Y-85671083D01*
X129259761Y-85674247D01*
X129201947Y-85726124D01*
X129145819Y-85773407D01*
X129091122Y-85816281D01*
X129037599Y-85854930D01*
X128984990Y-85889540D01*
X128933042Y-85920296D01*
X128881497Y-85947382D01*
X128879171Y-85948524D01*
X128838431Y-85967386D01*
X128797206Y-85984436D01*
X128756490Y-85999322D01*
X128717281Y-86011688D01*
X128680576Y-86021181D01*
X128666575Y-86024142D01*
X128639716Y-86027853D01*
X128608493Y-86029386D01*
X128573187Y-86028810D01*
X128534081Y-86026193D01*
X128491455Y-86021603D01*
X128445590Y-86015109D01*
X128396768Y-86006778D01*
X128345271Y-85996679D01*
X128291379Y-85984881D01*
X128235374Y-85971450D01*
X128177537Y-85956456D01*
X128118150Y-85939967D01*
X128057494Y-85922050D01*
X127995851Y-85902775D01*
X127933500Y-85882208D01*
X127889576Y-85866963D01*
X127870725Y-85860420D01*
X127807806Y-85837476D01*
X127745024Y-85813448D01*
X127682661Y-85788401D01*
X127666335Y-85781641D01*
X127574247Y-85741880D01*
X127486769Y-85701278D01*
X127403975Y-85659876D01*
X127325939Y-85617717D01*
X127252736Y-85574842D01*
X127184439Y-85531292D01*
X127121123Y-85487109D01*
X127062860Y-85442335D01*
X127061674Y-85441375D01*
X127048165Y-85429914D01*
X127032891Y-85416097D01*
X127016559Y-85400642D01*
X126999876Y-85384265D01*
X126999220Y-85383600D01*
X126983547Y-85367686D01*
X126968280Y-85351620D01*
X126954779Y-85336784D01*
X126943754Y-85323898D01*
X126935909Y-85313677D01*
X126935871Y-85313622D01*
X126914640Y-85278954D01*
X126897869Y-85242440D01*
X126885566Y-85204032D01*
X126877738Y-85163684D01*
X126874391Y-85121348D01*
X126874911Y-85101120D01*
X127218421Y-85101120D01*
X127221316Y-85119040D01*
X127227799Y-85133668D01*
X127237930Y-85144891D01*
X127243778Y-85148850D01*
X127257718Y-85154563D01*
X127274313Y-85157050D01*
X127293865Y-85156292D01*
X127316675Y-85152269D01*
X127343048Y-85144963D01*
X127352102Y-85141991D01*
X127384333Y-85129977D01*
X127417794Y-85115307D01*
X127452993Y-85097720D01*
X127490436Y-85076957D01*
X127530631Y-85052760D01*
X127549282Y-85040981D01*
X127595169Y-85010897D01*
X127641421Y-84979090D01*
X127688329Y-84945327D01*
X127736182Y-84909372D01*
X127785273Y-84870990D01*
X127835892Y-84829947D01*
X127888328Y-84786006D01*
X127942875Y-84738933D01*
X127999822Y-84688492D01*
X128059460Y-84634449D01*
X128110679Y-84587186D01*
X128118390Y-84579837D01*
X128129282Y-84569195D01*
X128142947Y-84555675D01*
X128158977Y-84539691D01*
X128176965Y-84521658D01*
X128196501Y-84501991D01*
X128217180Y-84481103D01*
X128238593Y-84459410D01*
X128260334Y-84437326D01*
X128281993Y-84415265D01*
X128303163Y-84393643D01*
X128323436Y-84372873D01*
X128342406Y-84353370D01*
X128359664Y-84335549D01*
X128374802Y-84319824D01*
X128387413Y-84306610D01*
X128397089Y-84296321D01*
X128401922Y-84291055D01*
X128462684Y-84222782D01*
X128519325Y-84157371D01*
X128571936Y-84094703D01*
X128620611Y-84034659D01*
X128665441Y-83977123D01*
X128706518Y-83921978D01*
X128743935Y-83869105D01*
X128777783Y-83818386D01*
X128802995Y-83778231D01*
X128828979Y-83734128D01*
X128851120Y-83693436D01*
X128869421Y-83656133D01*
X128883891Y-83622200D01*
X128894535Y-83591615D01*
X128901362Y-83564356D01*
X128904379Y-83540402D01*
X128904195Y-83535578D01*
X129352019Y-83535578D01*
X129354242Y-83538786D01*
X129358558Y-83545865D01*
X129364595Y-83556157D01*
X129371981Y-83568998D01*
X129380342Y-83583730D01*
X129389307Y-83599692D01*
X129398503Y-83616222D01*
X129407558Y-83632661D01*
X129416100Y-83648347D01*
X129423757Y-83662621D01*
X129425592Y-83666086D01*
X129452448Y-83718536D01*
X129479859Y-83775054D01*
X129507385Y-83834645D01*
X129534587Y-83896315D01*
X129561027Y-83959068D01*
X129586266Y-84021911D01*
X129609866Y-84083846D01*
X129610458Y-84085447D01*
X129616423Y-84101489D01*
X129620903Y-84113248D01*
X129624149Y-84121303D01*
X129626411Y-84126228D01*
X129627939Y-84128601D01*
X129628982Y-84128999D01*
X129629261Y-84128799D01*
X129630942Y-84126491D01*
X129634811Y-84120952D01*
X129640150Y-84113211D01*
X129642364Y-84109980D01*
X129673577Y-84060652D01*
X129701053Y-84009495D01*
X129724539Y-83957134D01*
X129743780Y-83904195D01*
X129758523Y-83851303D01*
X129768239Y-83800940D01*
X129770395Y-83782077D01*
X129771839Y-83760119D01*
X129772571Y-83736437D01*
X129772588Y-83712401D01*
X129771890Y-83689381D01*
X129770475Y-83668747D01*
X129768372Y-83652045D01*
X129760116Y-83614286D01*
X129748780Y-83579500D01*
X129734546Y-83547985D01*
X129717593Y-83520041D01*
X129698103Y-83495966D01*
X129676254Y-83476057D01*
X129653061Y-83461054D01*
X129623696Y-83448292D01*
X129593130Y-83440411D01*
X129561655Y-83437352D01*
X129529567Y-83439059D01*
X129497159Y-83445473D01*
X129464725Y-83456537D01*
X129432558Y-83472193D01*
X129400954Y-83492385D01*
X129371040Y-83516312D01*
X129362825Y-83523797D01*
X129356457Y-83530013D01*
X129352685Y-83534205D01*
X129352019Y-83535578D01*
X128904195Y-83535578D01*
X128903591Y-83519734D01*
X128899006Y-83502328D01*
X128894895Y-83494182D01*
X128885111Y-83482924D01*
X128871809Y-83475301D01*
X128855094Y-83471275D01*
X128835068Y-83470804D01*
X128811834Y-83473849D01*
X128785496Y-83480372D01*
X128756157Y-83490331D01*
X128723920Y-83503686D01*
X128688889Y-83520398D01*
X128651166Y-83540426D01*
X128610856Y-83563731D01*
X128568062Y-83590273D01*
X128522886Y-83620013D01*
X128475431Y-83652910D01*
X128465568Y-83659942D01*
X128389260Y-83716380D01*
X128311243Y-83777605D01*
X128231584Y-83843559D01*
X128150346Y-83914185D01*
X128067596Y-83989425D01*
X127983399Y-84069223D01*
X127897822Y-84153520D01*
X127858782Y-84193004D01*
X127819210Y-84233556D01*
X127782882Y-84271252D01*
X127749229Y-84306717D01*
X127717683Y-84340570D01*
X127687676Y-84373438D01*
X127658639Y-84405941D01*
X127630007Y-84438704D01*
X127601209Y-84472348D01*
X127571680Y-84507497D01*
X127567368Y-84512679D01*
X127523195Y-84566665D01*
X127481765Y-84619024D01*
X127443133Y-84669646D01*
X127407357Y-84718419D01*
X127374491Y-84765231D01*
X127344595Y-84809973D01*
X127317723Y-84852533D01*
X127293933Y-84892800D01*
X127273279Y-84930661D01*
X127255821Y-84966008D01*
X127241613Y-84998728D01*
X127230713Y-85028710D01*
X127223177Y-85055843D01*
X127219061Y-85080017D01*
X127218421Y-85101120D01*
X126874911Y-85101120D01*
X126875532Y-85076977D01*
X126881168Y-85030524D01*
X126891306Y-84981942D01*
X126905953Y-84931184D01*
X126925116Y-84878205D01*
X126948802Y-84822954D01*
X126977017Y-84765387D01*
X127009769Y-84705456D01*
X127030260Y-84670569D01*
X127058868Y-84624362D01*
X127089483Y-84577589D01*
X127122323Y-84529974D01*
X127157601Y-84481243D01*
X127195532Y-84431117D01*
X127236330Y-84379326D01*
X127280212Y-84325591D01*
X127327391Y-84269639D01*
X127378083Y-84211194D01*
X127432501Y-84149981D01*
X127462901Y-84116349D01*
X127474881Y-84103404D01*
X127490165Y-84087263D01*
X127508359Y-84068327D01*
X127529062Y-84046992D01*
X127551878Y-84023657D01*
X127576409Y-83998719D01*
X127602256Y-83972576D01*
X127629022Y-83945626D01*
X127656310Y-83918267D01*
X127683720Y-83890897D01*
X127710856Y-83863914D01*
X127737318Y-83837715D01*
X127762711Y-83812698D01*
X127786635Y-83789260D01*
X127808694Y-83767801D01*
X127828488Y-83748718D01*
X127845620Y-83732408D01*
X127859694Y-83719269D01*
X127863311Y-83715959D01*
X127932094Y-83654150D01*
X127998087Y-83596421D01*
X128061474Y-83542638D01*
X128122434Y-83492665D01*
X128181151Y-83446363D01*
X128237806Y-83403600D01*
X128292582Y-83364237D01*
X128345661Y-83328140D01*
X128397225Y-83295171D01*
X128447456Y-83265194D01*
X128496536Y-83238074D01*
X128516795Y-83227531D01*
X128571660Y-83200926D01*
X128623910Y-83178537D01*
X128673801Y-83160292D01*
X128721585Y-83146119D01*
X128767518Y-83135946D01*
X128811854Y-83129701D01*
X128854846Y-83127311D01*
X128869289Y-83127366D01*
G37*
G36*
X130606042Y-83811965D02*
G01*
X130625284Y-83816332D01*
X130642878Y-83824463D01*
X130658384Y-83835899D01*
X130671365Y-83850178D01*
X130681380Y-83866839D01*
X130687991Y-83885420D01*
X130690760Y-83905460D01*
X130689247Y-83926498D01*
X130684904Y-83943044D01*
X130682280Y-83950178D01*
X130678001Y-83961346D01*
X130672357Y-83975807D01*
X130665642Y-83992821D01*
X130658147Y-84011643D01*
X130650165Y-84031534D01*
X130645568Y-84042921D01*
X130637454Y-84063202D01*
X130629722Y-84082955D01*
X130622660Y-84101417D01*
X130616554Y-84117824D01*
X130611691Y-84131409D01*
X130608356Y-84141411D01*
X130607282Y-84145093D01*
X130599814Y-84183263D01*
X130596973Y-84222783D01*
X130598675Y-84262900D01*
X130604832Y-84302866D01*
X130615360Y-84341928D01*
X130630174Y-84379337D01*
X130635070Y-84389396D01*
X130653233Y-84419938D01*
X130675787Y-84449202D01*
X130701997Y-84476499D01*
X130731129Y-84501136D01*
X130762448Y-84522427D01*
X130794861Y-84539517D01*
X130833979Y-84554622D01*
X130873924Y-84565007D01*
X130914220Y-84570639D01*
X130954390Y-84571485D01*
X130993957Y-84567510D01*
X131032448Y-84558683D01*
X131039083Y-84556622D01*
X131077613Y-84541610D01*
X131113985Y-84522331D01*
X131147723Y-84499160D01*
X131178357Y-84472468D01*
X131205412Y-84442630D01*
X131228416Y-84410017D01*
X131231540Y-84404820D01*
X131234826Y-84398570D01*
X131239818Y-84388189D01*
X131246235Y-84374310D01*
X131253790Y-84357562D01*
X131262201Y-84338577D01*
X131271185Y-84317984D01*
X131280456Y-84296415D01*
X131282591Y-84291402D01*
X131323403Y-84195402D01*
X131338802Y-84179791D01*
X131353341Y-84166767D01*
X131367665Y-84157859D01*
X131383220Y-84152305D01*
X131394849Y-84150104D01*
X131416323Y-84149482D01*
X131437096Y-84153351D01*
X131456298Y-84161354D01*
X131473054Y-84173133D01*
X131485750Y-84187266D01*
X131493209Y-84200127D01*
X131500707Y-84217483D01*
X131508016Y-84238672D01*
X131514910Y-84263040D01*
X131521009Y-84289211D01*
X131530347Y-84345833D01*
X131534591Y-84402555D01*
X131533799Y-84459143D01*
X131528026Y-84515359D01*
X131517327Y-84570968D01*
X131501757Y-84625733D01*
X131481374Y-84679418D01*
X131456232Y-84731787D01*
X131426387Y-84782605D01*
X131393659Y-84829319D01*
X131380255Y-84845844D01*
X131363754Y-84864422D01*
X131345190Y-84884017D01*
X131325600Y-84903592D01*
X131306019Y-84922113D01*
X131287484Y-84938545D01*
X131271442Y-84951537D01*
X131221329Y-84986487D01*
X131169323Y-85016650D01*
X131115464Y-85042011D01*
X131059795Y-85062548D01*
X131002359Y-85078244D01*
X130981060Y-85082744D01*
X130950078Y-85088790D01*
X130854980Y-85318011D01*
X130840616Y-85352639D01*
X130826237Y-85387302D01*
X130812044Y-85421520D01*
X130798238Y-85454813D01*
X130785014Y-85486698D01*
X130772576Y-85516695D01*
X130761122Y-85544324D01*
X130750850Y-85569101D01*
X130741963Y-85590547D01*
X130734657Y-85608179D01*
X130729228Y-85621289D01*
X130719584Y-85644847D01*
X130712071Y-85663787D01*
X130706694Y-85678094D01*
X130703457Y-85687753D01*
X130702366Y-85692751D01*
X130702895Y-85693460D01*
X130714778Y-85688349D01*
X130730346Y-85681756D01*
X130749217Y-85673840D01*
X130771009Y-85664755D01*
X130795340Y-85654657D01*
X130821828Y-85643702D01*
X130850094Y-85632045D01*
X130879751Y-85619844D01*
X130910421Y-85607253D01*
X130941722Y-85594427D01*
X130973271Y-85581525D01*
X131004686Y-85568701D01*
X131035586Y-85556109D01*
X131065590Y-85543909D01*
X131094315Y-85532252D01*
X131121379Y-85521298D01*
X131146400Y-85511202D01*
X131168999Y-85502117D01*
X131188790Y-85494203D01*
X131205393Y-85487612D01*
X131218428Y-85482503D01*
X131227511Y-85479030D01*
X131232261Y-85477349D01*
X131232558Y-85477265D01*
X131273633Y-85469337D01*
X131315115Y-85466335D01*
X131356472Y-85468211D01*
X131397169Y-85474915D01*
X131436672Y-85486399D01*
X131466276Y-85498627D01*
X131502955Y-85518614D01*
X131536223Y-85542232D01*
X131565923Y-85569124D01*
X131591905Y-85598934D01*
X131614014Y-85631306D01*
X131632096Y-85665882D01*
X131645998Y-85702306D01*
X131655566Y-85740221D01*
X131660647Y-85779272D01*
X131661087Y-85819102D01*
X131656733Y-85859354D01*
X131647430Y-85899673D01*
X131643917Y-85910928D01*
X131628914Y-85948380D01*
X131609439Y-85983987D01*
X131585941Y-86017200D01*
X131558864Y-86047467D01*
X131528656Y-86074237D01*
X131495763Y-86096962D01*
X131490538Y-86100038D01*
X131486239Y-86102128D01*
X131477370Y-86106100D01*
X131464134Y-86111871D01*
X131446730Y-86119354D01*
X131425359Y-86128468D01*
X131400223Y-86139127D01*
X131371523Y-86151246D01*
X131339460Y-86164741D01*
X131304233Y-86179530D01*
X131266045Y-86195526D01*
X131225095Y-86212645D01*
X131181586Y-86230804D01*
X131135717Y-86249919D01*
X131087690Y-86269904D01*
X131037706Y-86290676D01*
X130985966Y-86312149D01*
X130932670Y-86334241D01*
X130900623Y-86347512D01*
X130666338Y-86444497D01*
X130330967Y-86583327D01*
X130096352Y-87150311D01*
X130074857Y-87202233D01*
X130053808Y-87253030D01*
X130033295Y-87302488D01*
X130013407Y-87350389D01*
X129994237Y-87396517D01*
X129975873Y-87440658D01*
X129958407Y-87482593D01*
X129941929Y-87522105D01*
X129926529Y-87558980D01*
X129912298Y-87593000D01*
X129899326Y-87623951D01*
X129887704Y-87651613D01*
X129877521Y-87675773D01*
X129868869Y-87696212D01*
X129861838Y-87712716D01*
X129856518Y-87725067D01*
X129852999Y-87733049D01*
X129851493Y-87736238D01*
X129833421Y-87765330D01*
X129811351Y-87793679D01*
X129786411Y-87819970D01*
X129760801Y-87842061D01*
X129726328Y-87865539D01*
X129689953Y-87884386D01*
X129652083Y-87898585D01*
X129613123Y-87908120D01*
X129573477Y-87912975D01*
X129533551Y-87913134D01*
X129493751Y-87908580D01*
X129454481Y-87899298D01*
X129416147Y-87885272D01*
X129379153Y-87866484D01*
X129365128Y-87857832D01*
X129345601Y-87843573D01*
X129325269Y-87825953D01*
X129305465Y-87806306D01*
X129300692Y-87800895D01*
X129287522Y-87785966D01*
X129272777Y-87766268D01*
X129271244Y-87763948D01*
X129250968Y-87728314D01*
X129234966Y-87690707D01*
X129223333Y-87651710D01*
X129216163Y-87611905D01*
X129213554Y-87571878D01*
X129215134Y-87541194D01*
X129445717Y-87541194D01*
X129447234Y-87564937D01*
X129453635Y-87588724D01*
X129459031Y-87601141D01*
X129463816Y-87609931D01*
X129469162Y-87617464D01*
X129476302Y-87625285D01*
X129484783Y-87633390D01*
X129494130Y-87641738D01*
X129501677Y-87647484D01*
X129509211Y-87651738D01*
X129518523Y-87655603D01*
X129523722Y-87657495D01*
X129547708Y-87663482D01*
X129571558Y-87664600D01*
X129594667Y-87661064D01*
X129616436Y-87653089D01*
X129636262Y-87640891D01*
X129653544Y-87624686D01*
X129666733Y-87606330D01*
X129675408Y-87588461D01*
X129680429Y-87570010D01*
X129682181Y-87549356D01*
X129682106Y-87541723D01*
X129680338Y-87521354D01*
X129675937Y-87504048D01*
X129668302Y-87488444D01*
X129656832Y-87473177D01*
X129647541Y-87463294D01*
X129638110Y-87454105D01*
X129630760Y-87447739D01*
X129624108Y-87443192D01*
X129616769Y-87439463D01*
X129611568Y-87437245D01*
X129587577Y-87430024D01*
X129563467Y-87427756D01*
X129539809Y-87430351D01*
X129517176Y-87437715D01*
X129496140Y-87449755D01*
X129486432Y-87457471D01*
X129469443Y-87475636D01*
X129456925Y-87496004D01*
X129448982Y-87518037D01*
X129445717Y-87541194D01*
X129215134Y-87541194D01*
X129215597Y-87532209D01*
X129222392Y-87493483D01*
X129225299Y-87482385D01*
X129226991Y-87477500D01*
X129230529Y-87468192D01*
X129235773Y-87454804D01*
X129242586Y-87437674D01*
X129250829Y-87417146D01*
X129260365Y-87393557D01*
X129271055Y-87367251D01*
X129282761Y-87338569D01*
X129295345Y-87307850D01*
X129308669Y-87275436D01*
X129322597Y-87241667D01*
X129334864Y-87212008D01*
X129349073Y-87177687D01*
X129362733Y-87144668D01*
X129375716Y-87113265D01*
X129387887Y-87083796D01*
X129399120Y-87056579D01*
X129409280Y-87031932D01*
X129418239Y-87010170D01*
X129425866Y-86991611D01*
X129432029Y-86976572D01*
X129436598Y-86965372D01*
X129439443Y-86958327D01*
X129440425Y-86955785D01*
X129439628Y-86954148D01*
X129435399Y-86954696D01*
X129427274Y-86957523D01*
X129422599Y-86959408D01*
X129396004Y-86970404D01*
X129367185Y-86982327D01*
X129336476Y-86995037D01*
X129304215Y-87008394D01*
X129270736Y-87022260D01*
X129236377Y-87036494D01*
X129201473Y-87050958D01*
X129166362Y-87065512D01*
X129131378Y-87080016D01*
X129096858Y-87094330D01*
X129063138Y-87108317D01*
X129030554Y-87121835D01*
X128999443Y-87134747D01*
X128970140Y-87146911D01*
X128942981Y-87158190D01*
X128918303Y-87168443D01*
X128896442Y-87177530D01*
X128877734Y-87185313D01*
X128862514Y-87191653D01*
X128851120Y-87196410D01*
X128843887Y-87199442D01*
X128841321Y-87200536D01*
X128838731Y-87202736D01*
X128836428Y-87207373D01*
X128834136Y-87215258D01*
X128831579Y-87227202D01*
X128830689Y-87231860D01*
X128817594Y-87287853D01*
X128799534Y-87342939D01*
X128776679Y-87396747D01*
X128749196Y-87448903D01*
X128717254Y-87499031D01*
X128699394Y-87523573D01*
X128684489Y-87541924D01*
X128666454Y-87562100D01*
X128646350Y-87583059D01*
X128625230Y-87603757D01*
X128604153Y-87623155D01*
X128584173Y-87640207D01*
X128569914Y-87651297D01*
X128519246Y-87685598D01*
X128467263Y-87714941D01*
X128414011Y-87739311D01*
X128359535Y-87758690D01*
X128303881Y-87773064D01*
X128247093Y-87782419D01*
X128189217Y-87786738D01*
X128169181Y-87787056D01*
X128140264Y-87786331D01*
X128110591Y-87784189D01*
X128080855Y-87780777D01*
X128051747Y-87776239D01*
X128023957Y-87770722D01*
X127998178Y-87764370D01*
X127975102Y-87757333D01*
X127955420Y-87749753D01*
X127939822Y-87741777D01*
X127933246Y-87737283D01*
X127917935Y-87722206D01*
X127906544Y-87704140D01*
X127899386Y-87683786D01*
X127896776Y-87661846D01*
X127896877Y-87656071D01*
X127899237Y-87637404D01*
X127904889Y-87621060D01*
X127914417Y-87605787D01*
X127926800Y-87591908D01*
X127943260Y-87575533D01*
X128039300Y-87534764D01*
X128061025Y-87525468D01*
X128081926Y-87516386D01*
X128101371Y-87507803D01*
X128118729Y-87500003D01*
X128133367Y-87493272D01*
X128144651Y-87487894D01*
X128151950Y-87484153D01*
X128152989Y-87483559D01*
X128185285Y-87461560D01*
X128215270Y-87435290D01*
X128242434Y-87405319D01*
X128266265Y-87372210D01*
X128286254Y-87336533D01*
X128287042Y-87334903D01*
X128302490Y-87296944D01*
X128312975Y-87257968D01*
X128318523Y-87218284D01*
X128319158Y-87178196D01*
X128314906Y-87138013D01*
X128305790Y-87098040D01*
X128291838Y-87058585D01*
X128273071Y-87019955D01*
X128259783Y-86997722D01*
X128254070Y-86989330D01*
X128247567Y-86980941D01*
X128239538Y-86971719D01*
X128229252Y-86960830D01*
X128215978Y-86947438D01*
X128213762Y-86945239D01*
X128201150Y-86932840D01*
X128191246Y-86923413D01*
X128183167Y-86916226D01*
X128176027Y-86910546D01*
X128168942Y-86905642D01*
X128161029Y-86900782D01*
X128157699Y-86898839D01*
X128118904Y-86879199D01*
X128079008Y-86864413D01*
X128038333Y-86854526D01*
X127997199Y-86849584D01*
X127955927Y-86849634D01*
X127914838Y-86854722D01*
X127890188Y-86860270D01*
X127883459Y-86862381D01*
X127872631Y-86866190D01*
X127858383Y-86871440D01*
X127841392Y-86877876D01*
X127822332Y-86885240D01*
X127801885Y-86893276D01*
X127781662Y-86901352D01*
X127760887Y-86909671D01*
X127741181Y-86917483D01*
X127723162Y-86924550D01*
X127707447Y-86930631D01*
X127694650Y-86935490D01*
X127685389Y-86938886D01*
X127680282Y-86940582D01*
X127680236Y-86940595D01*
X127664544Y-86942901D01*
X127646782Y-86942468D01*
X127629169Y-86939434D01*
X127620799Y-86936874D01*
X127612782Y-86933627D01*
X127606122Y-86929876D01*
X127599358Y-86924593D01*
X127591031Y-86916755D01*
X127588284Y-86914026D01*
X127579567Y-86905016D01*
X127573687Y-86897969D01*
X127569617Y-86891425D01*
X127566334Y-86883925D01*
X127565436Y-86881511D01*
X127560467Y-86862618D01*
X127559483Y-86843629D01*
X127562584Y-86823851D01*
X127569865Y-86802592D01*
X127579355Y-86782954D01*
X127608477Y-86734135D01*
X127641780Y-86688173D01*
X127678982Y-86645334D01*
X127719800Y-86605888D01*
X127763954Y-86570098D01*
X127811160Y-86538235D01*
X127861137Y-86510564D01*
X127872709Y-86504955D01*
X127927049Y-86482085D01*
X127982604Y-86464119D01*
X128039069Y-86451036D01*
X128096136Y-86442811D01*
X128153499Y-86439421D01*
X128210851Y-86440840D01*
X128267886Y-86447046D01*
X128324297Y-86458015D01*
X128379776Y-86473724D01*
X128434019Y-86494147D01*
X128486716Y-86519261D01*
X128537564Y-86549043D01*
X128550606Y-86557658D01*
X128575829Y-86574730D01*
X128665141Y-86537648D01*
X128676166Y-86533072D01*
X128691691Y-86526633D01*
X128711453Y-86518438D01*
X128735185Y-86508600D01*
X128762622Y-86497228D01*
X128793498Y-86484430D01*
X128827548Y-86470318D01*
X128864508Y-86455002D01*
X128904110Y-86438591D01*
X128946090Y-86421196D01*
X128990184Y-86402926D01*
X129036124Y-86383892D01*
X129083645Y-86364202D01*
X129132482Y-86343968D01*
X129182370Y-86323301D01*
X129233044Y-86302308D01*
X129282569Y-86281791D01*
X129810683Y-86063019D01*
X129915202Y-85810713D01*
X131175761Y-85810713D01*
X131176639Y-85833586D01*
X131182120Y-85856670D01*
X131185713Y-85865929D01*
X131189591Y-85873863D01*
X131194319Y-85881102D01*
X131200893Y-85888963D01*
X131210309Y-85898765D01*
X131211188Y-85899647D01*
X131225482Y-85912743D01*
X131238931Y-85922094D01*
X131253101Y-85928513D01*
X131269561Y-85932816D01*
X131277760Y-85934223D01*
X131300351Y-85935182D01*
X131322862Y-85931552D01*
X131344425Y-85923757D01*
X131364179Y-85912218D01*
X131381258Y-85897360D01*
X131394798Y-85879607D01*
X131396978Y-85875798D01*
X131406592Y-85854322D01*
X131411702Y-85833185D01*
X131412800Y-85816841D01*
X131410361Y-85792966D01*
X131403375Y-85770681D01*
X131392336Y-85750480D01*
X131377737Y-85732858D01*
X131360073Y-85718308D01*
X131339838Y-85707325D01*
X131317525Y-85700403D01*
X131293993Y-85698034D01*
X131270183Y-85700404D01*
X131248279Y-85707168D01*
X131228618Y-85717800D01*
X131211538Y-85731780D01*
X131197375Y-85748584D01*
X131186466Y-85767689D01*
X131179149Y-85788573D01*
X131175761Y-85810713D01*
X129915202Y-85810713D01*
X130020432Y-85556693D01*
X130041363Y-85506164D01*
X130062173Y-85455938D01*
X130082738Y-85406299D01*
X130102943Y-85357537D01*
X130122666Y-85309938D01*
X130141789Y-85263793D01*
X130160192Y-85219386D01*
X130177756Y-85177007D01*
X130194361Y-85136943D01*
X130209890Y-85099483D01*
X130224220Y-85064914D01*
X130237235Y-85033524D01*
X130248814Y-85005601D01*
X130258838Y-84981431D01*
X130267188Y-84961306D01*
X130273745Y-84945510D01*
X130276390Y-84939141D01*
X130322599Y-84827916D01*
X130309007Y-84808356D01*
X130279265Y-84761197D01*
X130253285Y-84710973D01*
X130231270Y-84658335D01*
X130213427Y-84603935D01*
X130199961Y-84548425D01*
X130191079Y-84492460D01*
X130186986Y-84436689D01*
X130186725Y-84420689D01*
X130189002Y-84362412D01*
X130196109Y-84305117D01*
X130207896Y-84249092D01*
X130224216Y-84194622D01*
X130244917Y-84141998D01*
X130269852Y-84091506D01*
X130298871Y-84043434D01*
X130331826Y-83998069D01*
X130368567Y-83955699D01*
X130408944Y-83916611D01*
X130452810Y-83881093D01*
X130474345Y-83865880D01*
X130492722Y-83853938D01*
X130511394Y-83842657D01*
X130529368Y-83832580D01*
X130545655Y-83824257D01*
X130559261Y-83818230D01*
X130564367Y-83816372D01*
X130585590Y-83811825D01*
X130606042Y-83811965D01*
G37*
X153730000Y-105470000D02*
X152400000Y-105470000D01*
X153730000Y-104140000D02*
X153730000Y-105470000D01*
X153730000Y-102870000D02*
X153730000Y-97730000D01*
X153730000Y-102870000D02*
X151070000Y-102870000D01*
X153730000Y-97730000D02*
X151070000Y-97730000D01*
X151070000Y-102870000D02*
X151070000Y-97730000D01*
X141975362Y-68594340D02*
X135933190Y-71097090D01*
X141849077Y-68289460D02*
X141975362Y-68594340D01*
X141053095Y-66367790D02*
X140926810Y-66062910D01*
X140926810Y-66062910D02*
X134884638Y-68565660D01*
X135933190Y-71097090D02*
X135806905Y-70792209D01*
X134884638Y-68565660D02*
X135010923Y-68870540D01*
X148490000Y-125175000D02*
X148805000Y-125175000D01*
X148490000Y-125175000D02*
X148490000Y-119935000D01*
X150915000Y-125175000D02*
X151230000Y-125175000D01*
X151230000Y-125175000D02*
X151230000Y-119935000D01*
X148490000Y-119935000D02*
X148805000Y-119935000D01*
X150915000Y-119935000D02*
X151230000Y-119935000D01*
X156945000Y-114855000D02*
X156630000Y-114855000D01*
X156945000Y-114855000D02*
X156945000Y-120095000D01*
X154520000Y-114855000D02*
X154205000Y-114855000D01*
X154205000Y-114855000D02*
X154205000Y-120095000D01*
X156945000Y-120095000D02*
X156630000Y-120095000D01*
X154520000Y-120095000D02*
X154205000Y-120095000D01*
X169445000Y-125175000D02*
X169760000Y-125175000D01*
X169445000Y-125175000D02*
X169445000Y-119935000D01*
X171870000Y-125175000D02*
X172185000Y-125175000D01*
X172185000Y-125175000D02*
X172185000Y-119935000D01*
X169445000Y-119935000D02*
X169760000Y-119935000D01*
X171870000Y-119935000D02*
X172185000Y-119935000D01*
D14*
X166070000Y-96100000D02*
X176070000Y-96100000D01*
X166070000Y-99060000D02*
X166070000Y-96100000D01*
X166070000Y-107600000D02*
X166070000Y-104140000D01*
X176070000Y-107600000D02*
X166070000Y-107600000D01*
X176150000Y-99060000D02*
X176150000Y-96100000D01*
X176150000Y-107600000D02*
X176150000Y-104140000D01*
X173306068Y-101600000D02*
G75*
G03*
X173306068Y-101600000I-2236068J0D01*
G01*
%LPC*%
D15*
X162560000Y-130175000D03*
D16*
X152400000Y-130175000D03*
D17*
X187400000Y-100330000D03*
D18*
X187400000Y-102870000D03*
D19*
X148590000Y-76835000D03*
D20*
X148590000Y-79375000D03*
X148590000Y-81915000D03*
X148590000Y-84455000D03*
X148590000Y-86995000D03*
X148590000Y-89535000D03*
X148590000Y-92075000D03*
X148590000Y-94615000D03*
X156210000Y-94615000D03*
X156210000Y-92075000D03*
X156210000Y-89535000D03*
X156210000Y-86995000D03*
X156210000Y-84455000D03*
X156210000Y-81915000D03*
X156210000Y-79375000D03*
X156210000Y-76835000D03*
D21*
X146050000Y-125095000D03*
D22*
X138430000Y-125095000D03*
D21*
X162850019Y-135890000D03*
D23*
X169889981Y-132973952D03*
D21*
X134620000Y-114975000D03*
X134620000Y-119975000D03*
X169889981Y-70038024D03*
D24*
X162850019Y-67121976D03*
D21*
X187066048Y-91149981D03*
D25*
X184150000Y-84110019D03*
D21*
X170815000Y-117435000D03*
X170815000Y-112435000D03*
D17*
X153670000Y-136600000D03*
D18*
X151130000Y-136600000D03*
D21*
X183961976Y-119089981D03*
D26*
X186878024Y-112050019D03*
D27*
X144780000Y-71120000D03*
D17*
X151130000Y-66600000D03*
D18*
X153670000Y-66600000D03*
D21*
X167005000Y-125095000D03*
D22*
X159385000Y-125095000D03*
D21*
X120838024Y-84110019D03*
D28*
X117921976Y-91149981D03*
D27*
X160020000Y-71120000D03*
D21*
X134910019Y-133161976D03*
D29*
X141949981Y-136078024D03*
D30*
X142240000Y-130175000D03*
D31*
X144780000Y-130175000D03*
X147320000Y-130175000D03*
D32*
X129030000Y-101585000D03*
X138430000Y-101585000D03*
D33*
X131230000Y-108585000D03*
X133730000Y-108585000D03*
X136230000Y-108585000D03*
D30*
X144780000Y-104140000D03*
D31*
X144780000Y-101600000D03*
X144780000Y-99060000D03*
D34*
X176094226Y-76048725D03*
D18*
X177890277Y-77844776D03*
D17*
X117400000Y-102870000D03*
D18*
X117400000Y-100330000D03*
D21*
X117921976Y-112050019D03*
D35*
X120838024Y-119089981D03*
D21*
X149945000Y-73040000D03*
X154945000Y-73040000D03*
X149860000Y-117435000D03*
X149860000Y-112435000D03*
D36*
X128508459Y-127316872D03*
D18*
X126712408Y-125520821D03*
D37*
X138440000Y-113675000D03*
D22*
X138440000Y-116215000D03*
X138440000Y-118755000D03*
X138440000Y-121295000D03*
X146060000Y-121295000D03*
X146060000Y-118755000D03*
X146060000Y-116215000D03*
X146060000Y-113675000D03*
D38*
X178296526Y-125601598D03*
D18*
X176500475Y-127397649D03*
D30*
X160020000Y-104140000D03*
D31*
X160020000Y-101600000D03*
X160020000Y-99060000D03*
D39*
X126838324Y-77573943D03*
D18*
X128634375Y-75777892D03*
D37*
X159395000Y-113675000D03*
D22*
X159395000Y-116215000D03*
X159395000Y-118755000D03*
X159395000Y-121295000D03*
X167015000Y-121295000D03*
X167015000Y-118755000D03*
X167015000Y-116215000D03*
X167015000Y-113675000D03*
D30*
X152400000Y-104140000D03*
D31*
X152400000Y-101600000D03*
X152400000Y-99060000D03*
D21*
X141949981Y-67121976D03*
D40*
X134910019Y-70038024D03*
D21*
X149860000Y-125055000D03*
X149860000Y-120055000D03*
X155575000Y-114975000D03*
X155575000Y-119975000D03*
X170815000Y-125055000D03*
X170815000Y-120055000D03*
D32*
X166370000Y-101600000D03*
X175770000Y-101600000D03*
D33*
X168570000Y-108600000D03*
X171070000Y-108600000D03*
X173570000Y-108600000D03*
D41*
X138430000Y-91480000D03*
D42*
X138430000Y-88980000D03*
X138430000Y-86480000D03*
X138430000Y-83980000D03*
D43*
X166370000Y-83980000D03*
D42*
X166370000Y-86480000D03*
X166370000Y-88980000D03*
X166370000Y-91480000D03*
D30*
X128270000Y-115570000D03*
D31*
X125730000Y-115570000D03*
%LPD*%
M02*
