G04 #@! TF.GenerationSoftware,KiCad,Pcbnew,7.0.9*
G04 #@! TF.CreationDate,2023-12-01T15:39:20+01:00*
G04 #@! TF.ProjectId,christmas,63687269-7374-46d6-9173-2e6b69636164,rev?*
G04 #@! TF.SameCoordinates,Original*
G04 #@! TF.FileFunction,Legend,Bot*
G04 #@! TF.FilePolarity,Positive*
%FSLAX46Y46*%
G04 Gerber Fmt 4.6, Leading zero omitted, Abs format (unit mm)*
G04 Created by KiCad (PCBNEW 7.0.9) date 2023-12-01 15:39:20*
%MOMM*%
%LPD*%
G01*
G04 APERTURE LIST*
G04 Aperture macros list*
%AMRoundRect*
0 Rectangle with rounded corners*
0 $1 Rounding radius*
0 $2 $3 $4 $5 $6 $7 $8 $9 X,Y pos of 4 corners*
0 Add a 4 corners polygon primitive as box body*
4,1,4,$2,$3,$4,$5,$6,$7,$8,$9,$2,$3,0*
0 Add four circle primitives for the rounded corners*
1,1,$1+$1,$2,$3*
1,1,$1+$1,$4,$5*
1,1,$1+$1,$6,$7*
1,1,$1+$1,$8,$9*
0 Add four rect primitives between the rounded corners*
20,1,$1+$1,$2,$3,$4,$5,0*
20,1,$1+$1,$4,$5,$6,$7,0*
20,1,$1+$1,$6,$7,$8,$9,0*
20,1,$1+$1,$8,$9,$2,$3,0*%
%AMHorizOval*
0 Thick line with rounded ends*
0 $1 width*
0 $2 $3 position (X,Y) of the first rounded end (center of the circle)*
0 $4 $5 position (X,Y) of the second rounded end (center of the circle)*
0 Add line between two ends*
20,1,$1,$2,$3,$4,$5,0*
0 Add two circle primitives to create the rounded ends*
1,1,$1,$2,$3*
1,1,$1,$4,$5*%
%AMRotRect*
0 Rectangle, with rotation*
0 The origin of the aperture is its center*
0 $1 length*
0 $2 width*
0 $3 Rotation angle, in degrees counterclockwise*
0 Add horizontal line*
21,1,$1,$2,0,0,$3*%
G04 Aperture macros list end*
%ADD10C,0.150000*%
%ADD11C,0.250000*%
%ADD12C,0.120000*%
%ADD13R,2.200000X2.200000*%
%ADD14O,2.200000X2.200000*%
%ADD15R,1.800000X1.800000*%
%ADD16C,1.800000*%
%ADD17R,2.400000X1.600000*%
%ADD18O,2.400000X1.600000*%
%ADD19C,1.600000*%
%ADD20O,1.600000X1.600000*%
%ADD21HorizOval,1.600000X0.000000X0.000000X0.000000X0.000000X0*%
%ADD22HorizOval,1.600000X0.000000X0.000000X0.000000X0.000000X0*%
%ADD23HorizOval,1.600000X0.000000X0.000000X0.000000X0.000000X0*%
%ADD24HorizOval,1.600000X0.000000X0.000000X0.000000X0.000000X0*%
%ADD25C,2.200000*%
%ADD26HorizOval,1.600000X0.000000X0.000000X0.000000X0.000000X0*%
%ADD27HorizOval,1.600000X0.000000X0.000000X0.000000X0.000000X0*%
%ADD28R,1.700000X1.700000*%
%ADD29O,1.700000X1.700000*%
%ADD30R,3.000000X3.200000*%
%ADD31C,1.750000*%
%ADD32RotRect,1.800000X1.800000X315.000000*%
%ADD33HorizOval,1.600000X0.000000X0.000000X0.000000X0.000000X0*%
%ADD34RotRect,1.800000X1.800000X135.000000*%
%ADD35R,1.600000X1.600000*%
%ADD36RotRect,1.800000X1.800000X225.000000*%
%ADD37RotRect,1.800000X1.800000X45.000000*%
%ADD38HorizOval,1.600000X0.000000X0.000000X0.000000X0.000000X0*%
%ADD39RoundRect,0.250000X0.725000X-0.600000X0.725000X0.600000X-0.725000X0.600000X-0.725000X-0.600000X0*%
%ADD40O,1.950000X1.700000*%
%ADD41RoundRect,0.250000X-0.725000X0.600000X-0.725000X-0.600000X0.725000X-0.600000X0.725000X0.600000X0*%
G04 APERTURE END LIST*
D10*
X132035713Y-112687914D02*
X131821427Y-112759342D01*
X131821427Y-112759342D02*
X131749998Y-112830771D01*
X131749998Y-112830771D02*
X131678570Y-112973628D01*
X131678570Y-112973628D02*
X131678570Y-113187914D01*
X131678570Y-113187914D02*
X131749998Y-113330771D01*
X131749998Y-113330771D02*
X131821427Y-113402200D01*
X131821427Y-113402200D02*
X131964284Y-113473628D01*
X131964284Y-113473628D02*
X132535713Y-113473628D01*
X132535713Y-113473628D02*
X132535713Y-111973628D01*
X132535713Y-111973628D02*
X132035713Y-111973628D01*
X132035713Y-111973628D02*
X131892856Y-112045057D01*
X131892856Y-112045057D02*
X131821427Y-112116485D01*
X131821427Y-112116485D02*
X131749998Y-112259342D01*
X131749998Y-112259342D02*
X131749998Y-112402200D01*
X131749998Y-112402200D02*
X131821427Y-112545057D01*
X131821427Y-112545057D02*
X131892856Y-112616485D01*
X131892856Y-112616485D02*
X132035713Y-112687914D01*
X132035713Y-112687914D02*
X132535713Y-112687914D01*
X130392856Y-113473628D02*
X130392856Y-112687914D01*
X130392856Y-112687914D02*
X130464284Y-112545057D01*
X130464284Y-112545057D02*
X130607141Y-112473628D01*
X130607141Y-112473628D02*
X130892856Y-112473628D01*
X130892856Y-112473628D02*
X131035713Y-112545057D01*
X130392856Y-113402200D02*
X130535713Y-113473628D01*
X130535713Y-113473628D02*
X130892856Y-113473628D01*
X130892856Y-113473628D02*
X131035713Y-113402200D01*
X131035713Y-113402200D02*
X131107141Y-113259342D01*
X131107141Y-113259342D02*
X131107141Y-113116485D01*
X131107141Y-113116485D02*
X131035713Y-112973628D01*
X131035713Y-112973628D02*
X130892856Y-112902200D01*
X130892856Y-112902200D02*
X130535713Y-112902200D01*
X130535713Y-112902200D02*
X130392856Y-112830771D01*
X129892855Y-112473628D02*
X129321427Y-112473628D01*
X129678570Y-111973628D02*
X129678570Y-113259342D01*
X129678570Y-113259342D02*
X129607141Y-113402200D01*
X129607141Y-113402200D02*
X129464284Y-113473628D01*
X129464284Y-113473628D02*
X129321427Y-113473628D01*
X129035712Y-112473628D02*
X128464284Y-112473628D01*
X128821427Y-111973628D02*
X128821427Y-113259342D01*
X128821427Y-113259342D02*
X128749998Y-113402200D01*
X128749998Y-113402200D02*
X128607141Y-113473628D01*
X128607141Y-113473628D02*
X128464284Y-113473628D01*
X127392855Y-113402200D02*
X127535712Y-113473628D01*
X127535712Y-113473628D02*
X127821427Y-113473628D01*
X127821427Y-113473628D02*
X127964284Y-113402200D01*
X127964284Y-113402200D02*
X128035712Y-113259342D01*
X128035712Y-113259342D02*
X128035712Y-112687914D01*
X128035712Y-112687914D02*
X127964284Y-112545057D01*
X127964284Y-112545057D02*
X127821427Y-112473628D01*
X127821427Y-112473628D02*
X127535712Y-112473628D01*
X127535712Y-112473628D02*
X127392855Y-112545057D01*
X127392855Y-112545057D02*
X127321427Y-112687914D01*
X127321427Y-112687914D02*
X127321427Y-112830771D01*
X127321427Y-112830771D02*
X128035712Y-112973628D01*
X126678570Y-113473628D02*
X126678570Y-112473628D01*
X126678570Y-112759342D02*
X126607141Y-112616485D01*
X126607141Y-112616485D02*
X126535713Y-112545057D01*
X126535713Y-112545057D02*
X126392855Y-112473628D01*
X126392855Y-112473628D02*
X126249998Y-112473628D01*
X125892856Y-112473628D02*
X125535713Y-113473628D01*
X125178570Y-112473628D02*
X125535713Y-113473628D01*
X125535713Y-113473628D02*
X125678570Y-113830771D01*
X125678570Y-113830771D02*
X125749999Y-113902200D01*
X125749999Y-113902200D02*
X125892856Y-113973628D01*
X123392856Y-113473628D02*
X123107142Y-113473628D01*
X123107142Y-113473628D02*
X122964285Y-113402200D01*
X122964285Y-113402200D02*
X122892856Y-113330771D01*
X122892856Y-113330771D02*
X122749999Y-113116485D01*
X122749999Y-113116485D02*
X122678570Y-112830771D01*
X122678570Y-112830771D02*
X122678570Y-112259342D01*
X122678570Y-112259342D02*
X122749999Y-112116485D01*
X122749999Y-112116485D02*
X122821428Y-112045057D01*
X122821428Y-112045057D02*
X122964285Y-111973628D01*
X122964285Y-111973628D02*
X123249999Y-111973628D01*
X123249999Y-111973628D02*
X123392856Y-112045057D01*
X123392856Y-112045057D02*
X123464285Y-112116485D01*
X123464285Y-112116485D02*
X123535713Y-112259342D01*
X123535713Y-112259342D02*
X123535713Y-112616485D01*
X123535713Y-112616485D02*
X123464285Y-112759342D01*
X123464285Y-112759342D02*
X123392856Y-112830771D01*
X123392856Y-112830771D02*
X123249999Y-112902200D01*
X123249999Y-112902200D02*
X122964285Y-112902200D01*
X122964285Y-112902200D02*
X122821428Y-112830771D01*
X122821428Y-112830771D02*
X122749999Y-112759342D01*
X122749999Y-112759342D02*
X122678570Y-112616485D01*
X122249999Y-111973628D02*
X121749999Y-113473628D01*
X121749999Y-113473628D02*
X121249999Y-111973628D01*
X164477506Y-106774819D02*
X164477506Y-107489104D01*
X164477506Y-107489104D02*
X164525125Y-107631961D01*
X164525125Y-107631961D02*
X164620363Y-107727200D01*
X164620363Y-107727200D02*
X164763220Y-107774819D01*
X164763220Y-107774819D02*
X164858458Y-107774819D01*
X163477506Y-107774819D02*
X164048934Y-107774819D01*
X163763220Y-107774819D02*
X163763220Y-106774819D01*
X163763220Y-106774819D02*
X163858458Y-106917676D01*
X163858458Y-106917676D02*
X163953696Y-107012914D01*
X163953696Y-107012914D02*
X164048934Y-107060533D01*
X163048934Y-107679580D02*
X163001315Y-107727200D01*
X163001315Y-107727200D02*
X163048934Y-107774819D01*
X163048934Y-107774819D02*
X163096553Y-107727200D01*
X163096553Y-107727200D02*
X163048934Y-107679580D01*
X163048934Y-107679580D02*
X163048934Y-107774819D01*
X163048934Y-107155771D02*
X163001315Y-107203390D01*
X163001315Y-107203390D02*
X163048934Y-107251009D01*
X163048934Y-107251009D02*
X163096553Y-107203390D01*
X163096553Y-107203390D02*
X163048934Y-107155771D01*
X163048934Y-107155771D02*
X163048934Y-107251009D01*
X161810839Y-107774819D02*
X161810839Y-106774819D01*
X161810839Y-106774819D02*
X161572744Y-106774819D01*
X161572744Y-106774819D02*
X161429887Y-106822438D01*
X161429887Y-106822438D02*
X161334649Y-106917676D01*
X161334649Y-106917676D02*
X161287030Y-107012914D01*
X161287030Y-107012914D02*
X161239411Y-107203390D01*
X161239411Y-107203390D02*
X161239411Y-107346247D01*
X161239411Y-107346247D02*
X161287030Y-107536723D01*
X161287030Y-107536723D02*
X161334649Y-107631961D01*
X161334649Y-107631961D02*
X161429887Y-107727200D01*
X161429887Y-107727200D02*
X161572744Y-107774819D01*
X161572744Y-107774819D02*
X161810839Y-107774819D01*
X160382268Y-107774819D02*
X160382268Y-107251009D01*
X160382268Y-107251009D02*
X160429887Y-107155771D01*
X160429887Y-107155771D02*
X160525125Y-107108152D01*
X160525125Y-107108152D02*
X160715601Y-107108152D01*
X160715601Y-107108152D02*
X160810839Y-107155771D01*
X160382268Y-107727200D02*
X160477506Y-107774819D01*
X160477506Y-107774819D02*
X160715601Y-107774819D01*
X160715601Y-107774819D02*
X160810839Y-107727200D01*
X160810839Y-107727200D02*
X160858458Y-107631961D01*
X160858458Y-107631961D02*
X160858458Y-107536723D01*
X160858458Y-107536723D02*
X160810839Y-107441485D01*
X160810839Y-107441485D02*
X160715601Y-107393866D01*
X160715601Y-107393866D02*
X160477506Y-107393866D01*
X160477506Y-107393866D02*
X160382268Y-107346247D01*
X160048934Y-107108152D02*
X159667982Y-107108152D01*
X159906077Y-106774819D02*
X159906077Y-107631961D01*
X159906077Y-107631961D02*
X159858458Y-107727200D01*
X159858458Y-107727200D02*
X159763220Y-107774819D01*
X159763220Y-107774819D02*
X159667982Y-107774819D01*
X158906077Y-107774819D02*
X158906077Y-107251009D01*
X158906077Y-107251009D02*
X158953696Y-107155771D01*
X158953696Y-107155771D02*
X159048934Y-107108152D01*
X159048934Y-107108152D02*
X159239410Y-107108152D01*
X159239410Y-107108152D02*
X159334648Y-107155771D01*
X158906077Y-107727200D02*
X159001315Y-107774819D01*
X159001315Y-107774819D02*
X159239410Y-107774819D01*
X159239410Y-107774819D02*
X159334648Y-107727200D01*
X159334648Y-107727200D02*
X159382267Y-107631961D01*
X159382267Y-107631961D02*
X159382267Y-107536723D01*
X159382267Y-107536723D02*
X159334648Y-107441485D01*
X159334648Y-107441485D02*
X159239410Y-107393866D01*
X159239410Y-107393866D02*
X159001315Y-107393866D01*
X159001315Y-107393866D02*
X158906077Y-107346247D01*
X157667981Y-107774819D02*
X157667981Y-106774819D01*
X157191791Y-107774819D02*
X157191791Y-106774819D01*
X157191791Y-106774819D02*
X156620363Y-107774819D01*
X156620363Y-107774819D02*
X156620363Y-106774819D01*
X156144172Y-107679580D02*
X156096553Y-107727200D01*
X156096553Y-107727200D02*
X156144172Y-107774819D01*
X156144172Y-107774819D02*
X156191791Y-107727200D01*
X156191791Y-107727200D02*
X156144172Y-107679580D01*
X156144172Y-107679580D02*
X156144172Y-107774819D01*
X156144172Y-107155771D02*
X156096553Y-107203390D01*
X156096553Y-107203390D02*
X156144172Y-107251009D01*
X156144172Y-107251009D02*
X156191791Y-107203390D01*
X156191791Y-107203390D02*
X156144172Y-107155771D01*
X156144172Y-107155771D02*
X156144172Y-107251009D01*
X154715601Y-106774819D02*
X154525125Y-106774819D01*
X154525125Y-106774819D02*
X154429887Y-106822438D01*
X154429887Y-106822438D02*
X154334649Y-106917676D01*
X154334649Y-106917676D02*
X154287030Y-107108152D01*
X154287030Y-107108152D02*
X154287030Y-107441485D01*
X154287030Y-107441485D02*
X154334649Y-107631961D01*
X154334649Y-107631961D02*
X154429887Y-107727200D01*
X154429887Y-107727200D02*
X154525125Y-107774819D01*
X154525125Y-107774819D02*
X154715601Y-107774819D01*
X154715601Y-107774819D02*
X154810839Y-107727200D01*
X154810839Y-107727200D02*
X154906077Y-107631961D01*
X154906077Y-107631961D02*
X154953696Y-107441485D01*
X154953696Y-107441485D02*
X154953696Y-107108152D01*
X154953696Y-107108152D02*
X154906077Y-106917676D01*
X154906077Y-106917676D02*
X154810839Y-106822438D01*
X154810839Y-106822438D02*
X154715601Y-106774819D01*
X153953696Y-107108152D02*
X153763220Y-107774819D01*
X153763220Y-107774819D02*
X153572744Y-107298628D01*
X153572744Y-107298628D02*
X153382268Y-107774819D01*
X153382268Y-107774819D02*
X153191792Y-107108152D01*
X152810839Y-107108152D02*
X152810839Y-107774819D01*
X152810839Y-107203390D02*
X152763220Y-107155771D01*
X152763220Y-107155771D02*
X152667982Y-107108152D01*
X152667982Y-107108152D02*
X152525125Y-107108152D01*
X152525125Y-107108152D02*
X152429887Y-107155771D01*
X152429887Y-107155771D02*
X152382268Y-107251009D01*
X152382268Y-107251009D02*
X152382268Y-107774819D01*
X151287029Y-106774819D02*
X150715601Y-106774819D01*
X151001315Y-107774819D02*
X151001315Y-106774819D01*
X150382267Y-107774819D02*
X150382267Y-107108152D01*
X150382267Y-106774819D02*
X150429886Y-106822438D01*
X150429886Y-106822438D02*
X150382267Y-106870057D01*
X150382267Y-106870057D02*
X150334648Y-106822438D01*
X150334648Y-106822438D02*
X150382267Y-106774819D01*
X150382267Y-106774819D02*
X150382267Y-106870057D01*
X149906077Y-107774819D02*
X149906077Y-107108152D01*
X149906077Y-107203390D02*
X149858458Y-107155771D01*
X149858458Y-107155771D02*
X149763220Y-107108152D01*
X149763220Y-107108152D02*
X149620363Y-107108152D01*
X149620363Y-107108152D02*
X149525125Y-107155771D01*
X149525125Y-107155771D02*
X149477506Y-107251009D01*
X149477506Y-107251009D02*
X149477506Y-107774819D01*
X149477506Y-107251009D02*
X149429887Y-107155771D01*
X149429887Y-107155771D02*
X149334649Y-107108152D01*
X149334649Y-107108152D02*
X149191792Y-107108152D01*
X149191792Y-107108152D02*
X149096553Y-107155771D01*
X149096553Y-107155771D02*
X149048934Y-107251009D01*
X149048934Y-107251009D02*
X149048934Y-107774819D01*
X148191792Y-107727200D02*
X148287030Y-107774819D01*
X148287030Y-107774819D02*
X148477506Y-107774819D01*
X148477506Y-107774819D02*
X148572744Y-107727200D01*
X148572744Y-107727200D02*
X148620363Y-107631961D01*
X148620363Y-107631961D02*
X148620363Y-107251009D01*
X148620363Y-107251009D02*
X148572744Y-107155771D01*
X148572744Y-107155771D02*
X148477506Y-107108152D01*
X148477506Y-107108152D02*
X148287030Y-107108152D01*
X148287030Y-107108152D02*
X148191792Y-107155771D01*
X148191792Y-107155771D02*
X148144173Y-107251009D01*
X148144173Y-107251009D02*
X148144173Y-107346247D01*
X148144173Y-107346247D02*
X148620363Y-107441485D01*
X147715601Y-107774819D02*
X147715601Y-107108152D01*
X147715601Y-107298628D02*
X147667982Y-107203390D01*
X147667982Y-107203390D02*
X147620363Y-107155771D01*
X147620363Y-107155771D02*
X147525125Y-107108152D01*
X147525125Y-107108152D02*
X147429887Y-107108152D01*
X145620363Y-106727200D02*
X146477505Y-108012914D01*
X144525124Y-107774819D02*
X144525124Y-106774819D01*
X144048934Y-107108152D02*
X144048934Y-107774819D01*
X144048934Y-107203390D02*
X144001315Y-107155771D01*
X144001315Y-107155771D02*
X143906077Y-107108152D01*
X143906077Y-107108152D02*
X143763220Y-107108152D01*
X143763220Y-107108152D02*
X143667982Y-107155771D01*
X143667982Y-107155771D02*
X143620363Y-107251009D01*
X143620363Y-107251009D02*
X143620363Y-107774819D01*
X143144172Y-107108152D02*
X143144172Y-108108152D01*
X143144172Y-107155771D02*
X143048934Y-107108152D01*
X143048934Y-107108152D02*
X142858458Y-107108152D01*
X142858458Y-107108152D02*
X142763220Y-107155771D01*
X142763220Y-107155771D02*
X142715601Y-107203390D01*
X142715601Y-107203390D02*
X142667982Y-107298628D01*
X142667982Y-107298628D02*
X142667982Y-107584342D01*
X142667982Y-107584342D02*
X142715601Y-107679580D01*
X142715601Y-107679580D02*
X142763220Y-107727200D01*
X142763220Y-107727200D02*
X142858458Y-107774819D01*
X142858458Y-107774819D02*
X143048934Y-107774819D01*
X143048934Y-107774819D02*
X143144172Y-107727200D01*
X141810839Y-107108152D02*
X141810839Y-107774819D01*
X142239410Y-107108152D02*
X142239410Y-107631961D01*
X142239410Y-107631961D02*
X142191791Y-107727200D01*
X142191791Y-107727200D02*
X142096553Y-107774819D01*
X142096553Y-107774819D02*
X141953696Y-107774819D01*
X141953696Y-107774819D02*
X141858458Y-107727200D01*
X141858458Y-107727200D02*
X141810839Y-107679580D01*
X141477505Y-107108152D02*
X141096553Y-107108152D01*
X141334648Y-106774819D02*
X141334648Y-107631961D01*
X141334648Y-107631961D02*
X141287029Y-107727200D01*
X141287029Y-107727200D02*
X141191791Y-107774819D01*
X141191791Y-107774819D02*
X141096553Y-107774819D01*
X164477506Y-108384819D02*
X164477506Y-109099104D01*
X164477506Y-109099104D02*
X164525125Y-109241961D01*
X164525125Y-109241961D02*
X164620363Y-109337200D01*
X164620363Y-109337200D02*
X164763220Y-109384819D01*
X164763220Y-109384819D02*
X164858458Y-109384819D01*
X164048934Y-108480057D02*
X164001315Y-108432438D01*
X164001315Y-108432438D02*
X163906077Y-108384819D01*
X163906077Y-108384819D02*
X163667982Y-108384819D01*
X163667982Y-108384819D02*
X163572744Y-108432438D01*
X163572744Y-108432438D02*
X163525125Y-108480057D01*
X163525125Y-108480057D02*
X163477506Y-108575295D01*
X163477506Y-108575295D02*
X163477506Y-108670533D01*
X163477506Y-108670533D02*
X163525125Y-108813390D01*
X163525125Y-108813390D02*
X164096553Y-109384819D01*
X164096553Y-109384819D02*
X163477506Y-109384819D01*
X163048934Y-109289580D02*
X163001315Y-109337200D01*
X163001315Y-109337200D02*
X163048934Y-109384819D01*
X163048934Y-109384819D02*
X163096553Y-109337200D01*
X163096553Y-109337200D02*
X163048934Y-109289580D01*
X163048934Y-109289580D02*
X163048934Y-109384819D01*
X163048934Y-108765771D02*
X163001315Y-108813390D01*
X163001315Y-108813390D02*
X163048934Y-108861009D01*
X163048934Y-108861009D02*
X163096553Y-108813390D01*
X163096553Y-108813390D02*
X163048934Y-108765771D01*
X163048934Y-108765771D02*
X163048934Y-108861009D01*
X161239411Y-109289580D02*
X161287030Y-109337200D01*
X161287030Y-109337200D02*
X161429887Y-109384819D01*
X161429887Y-109384819D02*
X161525125Y-109384819D01*
X161525125Y-109384819D02*
X161667982Y-109337200D01*
X161667982Y-109337200D02*
X161763220Y-109241961D01*
X161763220Y-109241961D02*
X161810839Y-109146723D01*
X161810839Y-109146723D02*
X161858458Y-108956247D01*
X161858458Y-108956247D02*
X161858458Y-108813390D01*
X161858458Y-108813390D02*
X161810839Y-108622914D01*
X161810839Y-108622914D02*
X161763220Y-108527676D01*
X161763220Y-108527676D02*
X161667982Y-108432438D01*
X161667982Y-108432438D02*
X161525125Y-108384819D01*
X161525125Y-108384819D02*
X161429887Y-108384819D01*
X161429887Y-108384819D02*
X161287030Y-108432438D01*
X161287030Y-108432438D02*
X161239411Y-108480057D01*
X160667982Y-109384819D02*
X160763220Y-109337200D01*
X160763220Y-109337200D02*
X160810839Y-109241961D01*
X160810839Y-109241961D02*
X160810839Y-108384819D01*
X160144172Y-109384819D02*
X160239410Y-109337200D01*
X160239410Y-109337200D02*
X160287029Y-109289580D01*
X160287029Y-109289580D02*
X160334648Y-109194342D01*
X160334648Y-109194342D02*
X160334648Y-108908628D01*
X160334648Y-108908628D02*
X160287029Y-108813390D01*
X160287029Y-108813390D02*
X160239410Y-108765771D01*
X160239410Y-108765771D02*
X160144172Y-108718152D01*
X160144172Y-108718152D02*
X160001315Y-108718152D01*
X160001315Y-108718152D02*
X159906077Y-108765771D01*
X159906077Y-108765771D02*
X159858458Y-108813390D01*
X159858458Y-108813390D02*
X159810839Y-108908628D01*
X159810839Y-108908628D02*
X159810839Y-109194342D01*
X159810839Y-109194342D02*
X159858458Y-109289580D01*
X159858458Y-109289580D02*
X159906077Y-109337200D01*
X159906077Y-109337200D02*
X160001315Y-109384819D01*
X160001315Y-109384819D02*
X160144172Y-109384819D01*
X158953696Y-109337200D02*
X159048934Y-109384819D01*
X159048934Y-109384819D02*
X159239410Y-109384819D01*
X159239410Y-109384819D02*
X159334648Y-109337200D01*
X159334648Y-109337200D02*
X159382267Y-109289580D01*
X159382267Y-109289580D02*
X159429886Y-109194342D01*
X159429886Y-109194342D02*
X159429886Y-108908628D01*
X159429886Y-108908628D02*
X159382267Y-108813390D01*
X159382267Y-108813390D02*
X159334648Y-108765771D01*
X159334648Y-108765771D02*
X159239410Y-108718152D01*
X159239410Y-108718152D02*
X159048934Y-108718152D01*
X159048934Y-108718152D02*
X158953696Y-108765771D01*
X158525124Y-109384819D02*
X158525124Y-108384819D01*
X158429886Y-109003866D02*
X158144172Y-109384819D01*
X158144172Y-108718152D02*
X158525124Y-109099104D01*
X156953695Y-109384819D02*
X156953695Y-108384819D01*
X156477505Y-109384819D02*
X156477505Y-108384819D01*
X156477505Y-108384819D02*
X155906077Y-109384819D01*
X155906077Y-109384819D02*
X155906077Y-108384819D01*
X155429886Y-109289580D02*
X155382267Y-109337200D01*
X155382267Y-109337200D02*
X155429886Y-109384819D01*
X155429886Y-109384819D02*
X155477505Y-109337200D01*
X155477505Y-109337200D02*
X155429886Y-109289580D01*
X155429886Y-109289580D02*
X155429886Y-109384819D01*
X155429886Y-108765771D02*
X155382267Y-108813390D01*
X155382267Y-108813390D02*
X155429886Y-108861009D01*
X155429886Y-108861009D02*
X155477505Y-108813390D01*
X155477505Y-108813390D02*
X155429886Y-108765771D01*
X155429886Y-108765771D02*
X155429886Y-108861009D01*
X154001315Y-108384819D02*
X153810839Y-108384819D01*
X153810839Y-108384819D02*
X153715601Y-108432438D01*
X153715601Y-108432438D02*
X153620363Y-108527676D01*
X153620363Y-108527676D02*
X153572744Y-108718152D01*
X153572744Y-108718152D02*
X153572744Y-109051485D01*
X153572744Y-109051485D02*
X153620363Y-109241961D01*
X153620363Y-109241961D02*
X153715601Y-109337200D01*
X153715601Y-109337200D02*
X153810839Y-109384819D01*
X153810839Y-109384819D02*
X154001315Y-109384819D01*
X154001315Y-109384819D02*
X154096553Y-109337200D01*
X154096553Y-109337200D02*
X154191791Y-109241961D01*
X154191791Y-109241961D02*
X154239410Y-109051485D01*
X154239410Y-109051485D02*
X154239410Y-108718152D01*
X154239410Y-108718152D02*
X154191791Y-108527676D01*
X154191791Y-108527676D02*
X154096553Y-108432438D01*
X154096553Y-108432438D02*
X154001315Y-108384819D01*
X153239410Y-108718152D02*
X153048934Y-109384819D01*
X153048934Y-109384819D02*
X152858458Y-108908628D01*
X152858458Y-108908628D02*
X152667982Y-109384819D01*
X152667982Y-109384819D02*
X152477506Y-108718152D01*
X152096553Y-108718152D02*
X152096553Y-109384819D01*
X152096553Y-108813390D02*
X152048934Y-108765771D01*
X152048934Y-108765771D02*
X151953696Y-108718152D01*
X151953696Y-108718152D02*
X151810839Y-108718152D01*
X151810839Y-108718152D02*
X151715601Y-108765771D01*
X151715601Y-108765771D02*
X151667982Y-108861009D01*
X151667982Y-108861009D02*
X151667982Y-109384819D01*
X150572743Y-108384819D02*
X150001315Y-108384819D01*
X150287029Y-109384819D02*
X150287029Y-108384819D01*
X149667981Y-109384819D02*
X149667981Y-108718152D01*
X149667981Y-108384819D02*
X149715600Y-108432438D01*
X149715600Y-108432438D02*
X149667981Y-108480057D01*
X149667981Y-108480057D02*
X149620362Y-108432438D01*
X149620362Y-108432438D02*
X149667981Y-108384819D01*
X149667981Y-108384819D02*
X149667981Y-108480057D01*
X149191791Y-109384819D02*
X149191791Y-108718152D01*
X149191791Y-108813390D02*
X149144172Y-108765771D01*
X149144172Y-108765771D02*
X149048934Y-108718152D01*
X149048934Y-108718152D02*
X148906077Y-108718152D01*
X148906077Y-108718152D02*
X148810839Y-108765771D01*
X148810839Y-108765771D02*
X148763220Y-108861009D01*
X148763220Y-108861009D02*
X148763220Y-109384819D01*
X148763220Y-108861009D02*
X148715601Y-108765771D01*
X148715601Y-108765771D02*
X148620363Y-108718152D01*
X148620363Y-108718152D02*
X148477506Y-108718152D01*
X148477506Y-108718152D02*
X148382267Y-108765771D01*
X148382267Y-108765771D02*
X148334648Y-108861009D01*
X148334648Y-108861009D02*
X148334648Y-109384819D01*
X147477506Y-109337200D02*
X147572744Y-109384819D01*
X147572744Y-109384819D02*
X147763220Y-109384819D01*
X147763220Y-109384819D02*
X147858458Y-109337200D01*
X147858458Y-109337200D02*
X147906077Y-109241961D01*
X147906077Y-109241961D02*
X147906077Y-108861009D01*
X147906077Y-108861009D02*
X147858458Y-108765771D01*
X147858458Y-108765771D02*
X147763220Y-108718152D01*
X147763220Y-108718152D02*
X147572744Y-108718152D01*
X147572744Y-108718152D02*
X147477506Y-108765771D01*
X147477506Y-108765771D02*
X147429887Y-108861009D01*
X147429887Y-108861009D02*
X147429887Y-108956247D01*
X147429887Y-108956247D02*
X147906077Y-109051485D01*
X147001315Y-109384819D02*
X147001315Y-108718152D01*
X147001315Y-108908628D02*
X146953696Y-108813390D01*
X146953696Y-108813390D02*
X146906077Y-108765771D01*
X146906077Y-108765771D02*
X146810839Y-108718152D01*
X146810839Y-108718152D02*
X146715601Y-108718152D01*
X144906077Y-108337200D02*
X145763219Y-109622914D01*
X143810838Y-109384819D02*
X143810838Y-108384819D01*
X143334648Y-108718152D02*
X143334648Y-109384819D01*
X143334648Y-108813390D02*
X143287029Y-108765771D01*
X143287029Y-108765771D02*
X143191791Y-108718152D01*
X143191791Y-108718152D02*
X143048934Y-108718152D01*
X143048934Y-108718152D02*
X142953696Y-108765771D01*
X142953696Y-108765771D02*
X142906077Y-108861009D01*
X142906077Y-108861009D02*
X142906077Y-109384819D01*
X142429886Y-108718152D02*
X142429886Y-109718152D01*
X142429886Y-108765771D02*
X142334648Y-108718152D01*
X142334648Y-108718152D02*
X142144172Y-108718152D01*
X142144172Y-108718152D02*
X142048934Y-108765771D01*
X142048934Y-108765771D02*
X142001315Y-108813390D01*
X142001315Y-108813390D02*
X141953696Y-108908628D01*
X141953696Y-108908628D02*
X141953696Y-109194342D01*
X141953696Y-109194342D02*
X142001315Y-109289580D01*
X142001315Y-109289580D02*
X142048934Y-109337200D01*
X142048934Y-109337200D02*
X142144172Y-109384819D01*
X142144172Y-109384819D02*
X142334648Y-109384819D01*
X142334648Y-109384819D02*
X142429886Y-109337200D01*
X141096553Y-108718152D02*
X141096553Y-109384819D01*
X141525124Y-108718152D02*
X141525124Y-109241961D01*
X141525124Y-109241961D02*
X141477505Y-109337200D01*
X141477505Y-109337200D02*
X141382267Y-109384819D01*
X141382267Y-109384819D02*
X141239410Y-109384819D01*
X141239410Y-109384819D02*
X141144172Y-109337200D01*
X141144172Y-109337200D02*
X141096553Y-109289580D01*
X140763219Y-108718152D02*
X140382267Y-108718152D01*
X140620362Y-108384819D02*
X140620362Y-109241961D01*
X140620362Y-109241961D02*
X140572743Y-109337200D01*
X140572743Y-109337200D02*
X140477505Y-109384819D01*
X140477505Y-109384819D02*
X140382267Y-109384819D01*
X164477506Y-109994819D02*
X164477506Y-110709104D01*
X164477506Y-110709104D02*
X164525125Y-110851961D01*
X164525125Y-110851961D02*
X164620363Y-110947200D01*
X164620363Y-110947200D02*
X164763220Y-110994819D01*
X164763220Y-110994819D02*
X164858458Y-110994819D01*
X164096553Y-109994819D02*
X163477506Y-109994819D01*
X163477506Y-109994819D02*
X163810839Y-110375771D01*
X163810839Y-110375771D02*
X163667982Y-110375771D01*
X163667982Y-110375771D02*
X163572744Y-110423390D01*
X163572744Y-110423390D02*
X163525125Y-110471009D01*
X163525125Y-110471009D02*
X163477506Y-110566247D01*
X163477506Y-110566247D02*
X163477506Y-110804342D01*
X163477506Y-110804342D02*
X163525125Y-110899580D01*
X163525125Y-110899580D02*
X163572744Y-110947200D01*
X163572744Y-110947200D02*
X163667982Y-110994819D01*
X163667982Y-110994819D02*
X163953696Y-110994819D01*
X163953696Y-110994819D02*
X164048934Y-110947200D01*
X164048934Y-110947200D02*
X164096553Y-110899580D01*
X163048934Y-110899580D02*
X163001315Y-110947200D01*
X163001315Y-110947200D02*
X163048934Y-110994819D01*
X163048934Y-110994819D02*
X163096553Y-110947200D01*
X163096553Y-110947200D02*
X163048934Y-110899580D01*
X163048934Y-110899580D02*
X163048934Y-110994819D01*
X163048934Y-110375771D02*
X163001315Y-110423390D01*
X163001315Y-110423390D02*
X163048934Y-110471009D01*
X163048934Y-110471009D02*
X163096553Y-110423390D01*
X163096553Y-110423390D02*
X163048934Y-110375771D01*
X163048934Y-110375771D02*
X163048934Y-110471009D01*
X161810839Y-110994819D02*
X161810839Y-109994819D01*
X161810839Y-109994819D02*
X161572744Y-109994819D01*
X161572744Y-109994819D02*
X161429887Y-110042438D01*
X161429887Y-110042438D02*
X161334649Y-110137676D01*
X161334649Y-110137676D02*
X161287030Y-110232914D01*
X161287030Y-110232914D02*
X161239411Y-110423390D01*
X161239411Y-110423390D02*
X161239411Y-110566247D01*
X161239411Y-110566247D02*
X161287030Y-110756723D01*
X161287030Y-110756723D02*
X161334649Y-110851961D01*
X161334649Y-110851961D02*
X161429887Y-110947200D01*
X161429887Y-110947200D02*
X161572744Y-110994819D01*
X161572744Y-110994819D02*
X161810839Y-110994819D01*
X160382268Y-110994819D02*
X160382268Y-110471009D01*
X160382268Y-110471009D02*
X160429887Y-110375771D01*
X160429887Y-110375771D02*
X160525125Y-110328152D01*
X160525125Y-110328152D02*
X160715601Y-110328152D01*
X160715601Y-110328152D02*
X160810839Y-110375771D01*
X160382268Y-110947200D02*
X160477506Y-110994819D01*
X160477506Y-110994819D02*
X160715601Y-110994819D01*
X160715601Y-110994819D02*
X160810839Y-110947200D01*
X160810839Y-110947200D02*
X160858458Y-110851961D01*
X160858458Y-110851961D02*
X160858458Y-110756723D01*
X160858458Y-110756723D02*
X160810839Y-110661485D01*
X160810839Y-110661485D02*
X160715601Y-110613866D01*
X160715601Y-110613866D02*
X160477506Y-110613866D01*
X160477506Y-110613866D02*
X160382268Y-110566247D01*
X160048934Y-110328152D02*
X159667982Y-110328152D01*
X159906077Y-109994819D02*
X159906077Y-110851961D01*
X159906077Y-110851961D02*
X159858458Y-110947200D01*
X159858458Y-110947200D02*
X159763220Y-110994819D01*
X159763220Y-110994819D02*
X159667982Y-110994819D01*
X158906077Y-110994819D02*
X158906077Y-110471009D01*
X158906077Y-110471009D02*
X158953696Y-110375771D01*
X158953696Y-110375771D02*
X159048934Y-110328152D01*
X159048934Y-110328152D02*
X159239410Y-110328152D01*
X159239410Y-110328152D02*
X159334648Y-110375771D01*
X158906077Y-110947200D02*
X159001315Y-110994819D01*
X159001315Y-110994819D02*
X159239410Y-110994819D01*
X159239410Y-110994819D02*
X159334648Y-110947200D01*
X159334648Y-110947200D02*
X159382267Y-110851961D01*
X159382267Y-110851961D02*
X159382267Y-110756723D01*
X159382267Y-110756723D02*
X159334648Y-110661485D01*
X159334648Y-110661485D02*
X159239410Y-110613866D01*
X159239410Y-110613866D02*
X159001315Y-110613866D01*
X159001315Y-110613866D02*
X158906077Y-110566247D01*
X157477505Y-109994819D02*
X157287029Y-109994819D01*
X157287029Y-109994819D02*
X157191791Y-110042438D01*
X157191791Y-110042438D02*
X157096553Y-110137676D01*
X157096553Y-110137676D02*
X157048934Y-110328152D01*
X157048934Y-110328152D02*
X157048934Y-110661485D01*
X157048934Y-110661485D02*
X157096553Y-110851961D01*
X157096553Y-110851961D02*
X157191791Y-110947200D01*
X157191791Y-110947200D02*
X157287029Y-110994819D01*
X157287029Y-110994819D02*
X157477505Y-110994819D01*
X157477505Y-110994819D02*
X157572743Y-110947200D01*
X157572743Y-110947200D02*
X157667981Y-110851961D01*
X157667981Y-110851961D02*
X157715600Y-110661485D01*
X157715600Y-110661485D02*
X157715600Y-110328152D01*
X157715600Y-110328152D02*
X157667981Y-110137676D01*
X157667981Y-110137676D02*
X157572743Y-110042438D01*
X157572743Y-110042438D02*
X157477505Y-109994819D01*
X156620362Y-109994819D02*
X156620362Y-110804342D01*
X156620362Y-110804342D02*
X156572743Y-110899580D01*
X156572743Y-110899580D02*
X156525124Y-110947200D01*
X156525124Y-110947200D02*
X156429886Y-110994819D01*
X156429886Y-110994819D02*
X156239410Y-110994819D01*
X156239410Y-110994819D02*
X156144172Y-110947200D01*
X156144172Y-110947200D02*
X156096553Y-110899580D01*
X156096553Y-110899580D02*
X156048934Y-110804342D01*
X156048934Y-110804342D02*
X156048934Y-109994819D01*
X155715600Y-109994819D02*
X155144172Y-109994819D01*
X155429886Y-110994819D02*
X155429886Y-109994819D01*
X154810838Y-110899580D02*
X154763219Y-110947200D01*
X154763219Y-110947200D02*
X154810838Y-110994819D01*
X154810838Y-110994819D02*
X154858457Y-110947200D01*
X154858457Y-110947200D02*
X154810838Y-110899580D01*
X154810838Y-110899580D02*
X154810838Y-110994819D01*
X154810838Y-110375771D02*
X154763219Y-110423390D01*
X154763219Y-110423390D02*
X154810838Y-110471009D01*
X154810838Y-110471009D02*
X154858457Y-110423390D01*
X154858457Y-110423390D02*
X154810838Y-110375771D01*
X154810838Y-110375771D02*
X154810838Y-110471009D01*
X153620362Y-110947200D02*
X153477505Y-110994819D01*
X153477505Y-110994819D02*
X153239410Y-110994819D01*
X153239410Y-110994819D02*
X153144172Y-110947200D01*
X153144172Y-110947200D02*
X153096553Y-110899580D01*
X153096553Y-110899580D02*
X153048934Y-110804342D01*
X153048934Y-110804342D02*
X153048934Y-110709104D01*
X153048934Y-110709104D02*
X153096553Y-110613866D01*
X153096553Y-110613866D02*
X153144172Y-110566247D01*
X153144172Y-110566247D02*
X153239410Y-110518628D01*
X153239410Y-110518628D02*
X153429886Y-110471009D01*
X153429886Y-110471009D02*
X153525124Y-110423390D01*
X153525124Y-110423390D02*
X153572743Y-110375771D01*
X153572743Y-110375771D02*
X153620362Y-110280533D01*
X153620362Y-110280533D02*
X153620362Y-110185295D01*
X153620362Y-110185295D02*
X153572743Y-110090057D01*
X153572743Y-110090057D02*
X153525124Y-110042438D01*
X153525124Y-110042438D02*
X153429886Y-109994819D01*
X153429886Y-109994819D02*
X153191791Y-109994819D01*
X153191791Y-109994819D02*
X153048934Y-110042438D01*
X152239410Y-110947200D02*
X152334648Y-110994819D01*
X152334648Y-110994819D02*
X152525124Y-110994819D01*
X152525124Y-110994819D02*
X152620362Y-110947200D01*
X152620362Y-110947200D02*
X152667981Y-110851961D01*
X152667981Y-110851961D02*
X152667981Y-110471009D01*
X152667981Y-110471009D02*
X152620362Y-110375771D01*
X152620362Y-110375771D02*
X152525124Y-110328152D01*
X152525124Y-110328152D02*
X152334648Y-110328152D01*
X152334648Y-110328152D02*
X152239410Y-110375771D01*
X152239410Y-110375771D02*
X152191791Y-110471009D01*
X152191791Y-110471009D02*
X152191791Y-110566247D01*
X152191791Y-110566247D02*
X152667981Y-110661485D01*
X151763219Y-110994819D02*
X151763219Y-110328152D01*
X151763219Y-110518628D02*
X151715600Y-110423390D01*
X151715600Y-110423390D02*
X151667981Y-110375771D01*
X151667981Y-110375771D02*
X151572743Y-110328152D01*
X151572743Y-110328152D02*
X151477505Y-110328152D01*
X151144171Y-110994819D02*
X151144171Y-110328152D01*
X151144171Y-109994819D02*
X151191790Y-110042438D01*
X151191790Y-110042438D02*
X151144171Y-110090057D01*
X151144171Y-110090057D02*
X151096552Y-110042438D01*
X151096552Y-110042438D02*
X151144171Y-109994819D01*
X151144171Y-109994819D02*
X151144171Y-110090057D01*
X150287029Y-110947200D02*
X150382267Y-110994819D01*
X150382267Y-110994819D02*
X150572743Y-110994819D01*
X150572743Y-110994819D02*
X150667981Y-110947200D01*
X150667981Y-110947200D02*
X150715600Y-110851961D01*
X150715600Y-110851961D02*
X150715600Y-110471009D01*
X150715600Y-110471009D02*
X150667981Y-110375771D01*
X150667981Y-110375771D02*
X150572743Y-110328152D01*
X150572743Y-110328152D02*
X150382267Y-110328152D01*
X150382267Y-110328152D02*
X150287029Y-110375771D01*
X150287029Y-110375771D02*
X150239410Y-110471009D01*
X150239410Y-110471009D02*
X150239410Y-110566247D01*
X150239410Y-110566247D02*
X150715600Y-110661485D01*
X149858457Y-110947200D02*
X149763219Y-110994819D01*
X149763219Y-110994819D02*
X149572743Y-110994819D01*
X149572743Y-110994819D02*
X149477505Y-110947200D01*
X149477505Y-110947200D02*
X149429886Y-110851961D01*
X149429886Y-110851961D02*
X149429886Y-110804342D01*
X149429886Y-110804342D02*
X149477505Y-110709104D01*
X149477505Y-110709104D02*
X149572743Y-110661485D01*
X149572743Y-110661485D02*
X149715600Y-110661485D01*
X149715600Y-110661485D02*
X149810838Y-110613866D01*
X149810838Y-110613866D02*
X149858457Y-110518628D01*
X149858457Y-110518628D02*
X149858457Y-110471009D01*
X149858457Y-110471009D02*
X149810838Y-110375771D01*
X149810838Y-110375771D02*
X149715600Y-110328152D01*
X149715600Y-110328152D02*
X149572743Y-110328152D01*
X149572743Y-110328152D02*
X149477505Y-110375771D01*
X147525124Y-109947200D02*
X148382266Y-111232914D01*
X146429885Y-110994819D02*
X146429885Y-109994819D01*
X146429885Y-109994819D02*
X146048933Y-109994819D01*
X146048933Y-109994819D02*
X145953695Y-110042438D01*
X145953695Y-110042438D02*
X145906076Y-110090057D01*
X145906076Y-110090057D02*
X145858457Y-110185295D01*
X145858457Y-110185295D02*
X145858457Y-110328152D01*
X145858457Y-110328152D02*
X145906076Y-110423390D01*
X145906076Y-110423390D02*
X145953695Y-110471009D01*
X145953695Y-110471009D02*
X146048933Y-110518628D01*
X146048933Y-110518628D02*
X146429885Y-110518628D01*
X145001314Y-110994819D02*
X145001314Y-110471009D01*
X145001314Y-110471009D02*
X145048933Y-110375771D01*
X145048933Y-110375771D02*
X145144171Y-110328152D01*
X145144171Y-110328152D02*
X145334647Y-110328152D01*
X145334647Y-110328152D02*
X145429885Y-110375771D01*
X145001314Y-110947200D02*
X145096552Y-110994819D01*
X145096552Y-110994819D02*
X145334647Y-110994819D01*
X145334647Y-110994819D02*
X145429885Y-110947200D01*
X145429885Y-110947200D02*
X145477504Y-110851961D01*
X145477504Y-110851961D02*
X145477504Y-110756723D01*
X145477504Y-110756723D02*
X145429885Y-110661485D01*
X145429885Y-110661485D02*
X145334647Y-110613866D01*
X145334647Y-110613866D02*
X145096552Y-110613866D01*
X145096552Y-110613866D02*
X145001314Y-110566247D01*
X144525123Y-110994819D02*
X144525123Y-110328152D01*
X144525123Y-110518628D02*
X144477504Y-110423390D01*
X144477504Y-110423390D02*
X144429885Y-110375771D01*
X144429885Y-110375771D02*
X144334647Y-110328152D01*
X144334647Y-110328152D02*
X144239409Y-110328152D01*
X143477504Y-110994819D02*
X143477504Y-110471009D01*
X143477504Y-110471009D02*
X143525123Y-110375771D01*
X143525123Y-110375771D02*
X143620361Y-110328152D01*
X143620361Y-110328152D02*
X143810837Y-110328152D01*
X143810837Y-110328152D02*
X143906075Y-110375771D01*
X143477504Y-110947200D02*
X143572742Y-110994819D01*
X143572742Y-110994819D02*
X143810837Y-110994819D01*
X143810837Y-110994819D02*
X143906075Y-110947200D01*
X143906075Y-110947200D02*
X143953694Y-110851961D01*
X143953694Y-110851961D02*
X143953694Y-110756723D01*
X143953694Y-110756723D02*
X143906075Y-110661485D01*
X143906075Y-110661485D02*
X143810837Y-110613866D01*
X143810837Y-110613866D02*
X143572742Y-110613866D01*
X143572742Y-110613866D02*
X143477504Y-110566247D01*
X142858456Y-110994819D02*
X142953694Y-110947200D01*
X142953694Y-110947200D02*
X143001313Y-110851961D01*
X143001313Y-110851961D02*
X143001313Y-109994819D01*
X142334646Y-110994819D02*
X142429884Y-110947200D01*
X142429884Y-110947200D02*
X142477503Y-110851961D01*
X142477503Y-110851961D02*
X142477503Y-109994819D01*
X141572741Y-110947200D02*
X141667979Y-110994819D01*
X141667979Y-110994819D02*
X141858455Y-110994819D01*
X141858455Y-110994819D02*
X141953693Y-110947200D01*
X141953693Y-110947200D02*
X142001312Y-110851961D01*
X142001312Y-110851961D02*
X142001312Y-110471009D01*
X142001312Y-110471009D02*
X141953693Y-110375771D01*
X141953693Y-110375771D02*
X141858455Y-110328152D01*
X141858455Y-110328152D02*
X141667979Y-110328152D01*
X141667979Y-110328152D02*
X141572741Y-110375771D01*
X141572741Y-110375771D02*
X141525122Y-110471009D01*
X141525122Y-110471009D02*
X141525122Y-110566247D01*
X141525122Y-110566247D02*
X142001312Y-110661485D01*
X140953693Y-110994819D02*
X141048931Y-110947200D01*
X141048931Y-110947200D02*
X141096550Y-110851961D01*
X141096550Y-110851961D02*
X141096550Y-109994819D01*
X138600727Y-80323242D02*
X138600727Y-79323242D01*
X138124537Y-80323242D02*
X138124537Y-79323242D01*
X138124537Y-79323242D02*
X137553109Y-80323242D01*
X137553109Y-80323242D02*
X137553109Y-79323242D01*
X167768217Y-79431375D02*
X167577741Y-79431375D01*
X167577741Y-79431375D02*
X167482503Y-79478994D01*
X167482503Y-79478994D02*
X167387265Y-79574232D01*
X167387265Y-79574232D02*
X167339646Y-79764708D01*
X167339646Y-79764708D02*
X167339646Y-80098041D01*
X167339646Y-80098041D02*
X167387265Y-80288517D01*
X167387265Y-80288517D02*
X167482503Y-80383756D01*
X167482503Y-80383756D02*
X167577741Y-80431375D01*
X167577741Y-80431375D02*
X167768217Y-80431375D01*
X167768217Y-80431375D02*
X167863455Y-80383756D01*
X167863455Y-80383756D02*
X167958693Y-80288517D01*
X167958693Y-80288517D02*
X168006312Y-80098041D01*
X168006312Y-80098041D02*
X168006312Y-79764708D01*
X168006312Y-79764708D02*
X167958693Y-79574232D01*
X167958693Y-79574232D02*
X167863455Y-79478994D01*
X167863455Y-79478994D02*
X167768217Y-79431375D01*
X166911074Y-79431375D02*
X166911074Y-80240898D01*
X166911074Y-80240898D02*
X166863455Y-80336136D01*
X166863455Y-80336136D02*
X166815836Y-80383756D01*
X166815836Y-80383756D02*
X166720598Y-80431375D01*
X166720598Y-80431375D02*
X166530122Y-80431375D01*
X166530122Y-80431375D02*
X166434884Y-80383756D01*
X166434884Y-80383756D02*
X166387265Y-80336136D01*
X166387265Y-80336136D02*
X166339646Y-80240898D01*
X166339646Y-80240898D02*
X166339646Y-79431375D01*
X166006312Y-79431375D02*
X165434884Y-79431375D01*
X165720598Y-80431375D02*
X165720598Y-79431375D01*
X141285333Y-87084819D02*
X141285333Y-87799104D01*
X141285333Y-87799104D02*
X141332952Y-87941961D01*
X141332952Y-87941961D02*
X141428190Y-88037200D01*
X141428190Y-88037200D02*
X141571047Y-88084819D01*
X141571047Y-88084819D02*
X141666285Y-88084819D01*
X140285333Y-88084819D02*
X140856761Y-88084819D01*
X140571047Y-88084819D02*
X140571047Y-87084819D01*
X140571047Y-87084819D02*
X140666285Y-87227676D01*
X140666285Y-87227676D02*
X140761523Y-87322914D01*
X140761523Y-87322914D02*
X140856761Y-87370533D01*
X164163333Y-87184819D02*
X164163333Y-87899104D01*
X164163333Y-87899104D02*
X164210952Y-88041961D01*
X164210952Y-88041961D02*
X164306190Y-88137200D01*
X164306190Y-88137200D02*
X164449047Y-88184819D01*
X164449047Y-88184819D02*
X164544285Y-88184819D01*
X163734761Y-87280057D02*
X163687142Y-87232438D01*
X163687142Y-87232438D02*
X163591904Y-87184819D01*
X163591904Y-87184819D02*
X163353809Y-87184819D01*
X163353809Y-87184819D02*
X163258571Y-87232438D01*
X163258571Y-87232438D02*
X163210952Y-87280057D01*
X163210952Y-87280057D02*
X163163333Y-87375295D01*
X163163333Y-87375295D02*
X163163333Y-87470533D01*
X163163333Y-87470533D02*
X163210952Y-87613390D01*
X163210952Y-87613390D02*
X163782380Y-88184819D01*
X163782380Y-88184819D02*
X163163333Y-88184819D01*
D11*
X129441544Y-117852291D02*
X128451068Y-117852291D01*
X125851068Y-117852291D02*
X124860592Y-117852291D01*
X125355830Y-118347529D02*
X125355830Y-117357053D01*
D12*
X129120000Y-94040000D02*
X140840000Y-94040000D01*
X140840000Y-94040000D02*
X140840000Y-92620000D01*
X136340000Y-92620000D02*
X136340000Y-87730000D01*
X140840000Y-92620000D02*
X136340000Y-92620000D01*
X140530000Y-91780000D02*
X140530000Y-91180000D01*
X129730000Y-91730000D02*
X129730000Y-91230000D01*
X135230000Y-91730000D02*
X129730000Y-91730000D01*
X139930000Y-91480000D02*
X140530000Y-91780000D01*
X129730000Y-91230000D02*
X135230000Y-91230000D01*
X135230000Y-91230000D02*
X135230000Y-91730000D01*
X140530000Y-91180000D02*
X139930000Y-91480000D01*
X129730000Y-89230000D02*
X129730000Y-88730000D01*
X135230000Y-89230000D02*
X129730000Y-89230000D01*
X129730000Y-88730000D02*
X135230000Y-88730000D01*
X135230000Y-88730000D02*
X135230000Y-89230000D01*
X129120000Y-87730000D02*
X129120000Y-94040000D01*
X129120000Y-87730000D02*
X129120000Y-81420000D01*
X129730000Y-86730000D02*
X129730000Y-86230000D01*
X135230000Y-86730000D02*
X129730000Y-86730000D01*
X129730000Y-86230000D02*
X135230000Y-86230000D01*
X135230000Y-86230000D02*
X135230000Y-86730000D01*
X129730000Y-84230000D02*
X129730000Y-83730000D01*
X135230000Y-84230000D02*
X129730000Y-84230000D01*
X129730000Y-83730000D02*
X135230000Y-83730000D01*
X135230000Y-83730000D02*
X135230000Y-84230000D01*
X136340000Y-82840000D02*
X136340000Y-87730000D01*
X140840000Y-82840000D02*
X136340000Y-82840000D01*
X129120000Y-81420000D02*
X140840000Y-81420000D01*
X140840000Y-81420000D02*
X140840000Y-82840000D01*
X175680000Y-81420000D02*
X163960000Y-81420000D01*
X163960000Y-81420000D02*
X163960000Y-82840000D01*
X168460000Y-82840000D02*
X168460000Y-87730000D01*
X163960000Y-82840000D02*
X168460000Y-82840000D01*
X164270000Y-83680000D02*
X164270000Y-84280000D01*
X175070000Y-83730000D02*
X175070000Y-84230000D01*
X169570000Y-83730000D02*
X175070000Y-83730000D01*
X164870000Y-83980000D02*
X164270000Y-83680000D01*
X175070000Y-84230000D02*
X169570000Y-84230000D01*
X169570000Y-84230000D02*
X169570000Y-83730000D01*
X164270000Y-84280000D02*
X164870000Y-83980000D01*
X175070000Y-86230000D02*
X175070000Y-86730000D01*
X169570000Y-86230000D02*
X175070000Y-86230000D01*
X175070000Y-86730000D02*
X169570000Y-86730000D01*
X169570000Y-86730000D02*
X169570000Y-86230000D01*
X175680000Y-87730000D02*
X175680000Y-81420000D01*
X175680000Y-87730000D02*
X175680000Y-94040000D01*
X175070000Y-88730000D02*
X175070000Y-89230000D01*
X169570000Y-88730000D02*
X175070000Y-88730000D01*
X175070000Y-89230000D02*
X169570000Y-89230000D01*
X169570000Y-89230000D02*
X169570000Y-88730000D01*
X175070000Y-91230000D02*
X175070000Y-91730000D01*
X169570000Y-91230000D02*
X175070000Y-91230000D01*
X175070000Y-91730000D02*
X169570000Y-91730000D01*
X169570000Y-91730000D02*
X169570000Y-91230000D01*
X168460000Y-92620000D02*
X168460000Y-87730000D01*
X163960000Y-92620000D02*
X168460000Y-92620000D01*
X175680000Y-94040000D02*
X163960000Y-94040000D01*
X163960000Y-94040000D02*
X163960000Y-92620000D01*
X124400000Y-116900000D02*
X124400000Y-114240000D01*
X127000000Y-116900000D02*
X124400000Y-116900000D01*
X127000000Y-116900000D02*
X127000000Y-114240000D01*
X128270000Y-116900000D02*
X129600000Y-116900000D01*
X129600000Y-116900000D02*
X129600000Y-115570000D01*
X127000000Y-114240000D02*
X124400000Y-114240000D01*
%LPC*%
D13*
X162560000Y-130175000D03*
D14*
X152400000Y-130175000D03*
D15*
X187400000Y-100330000D03*
D16*
X187400000Y-102870000D03*
D17*
X148590000Y-76835000D03*
D18*
X148590000Y-79375000D03*
X148590000Y-81915000D03*
X148590000Y-84455000D03*
X148590000Y-86995000D03*
X148590000Y-89535000D03*
X148590000Y-92075000D03*
X148590000Y-94615000D03*
X156210000Y-94615000D03*
X156210000Y-92075000D03*
X156210000Y-89535000D03*
X156210000Y-86995000D03*
X156210000Y-84455000D03*
X156210000Y-81915000D03*
X156210000Y-79375000D03*
X156210000Y-76835000D03*
D19*
X146050000Y-125095000D03*
D20*
X138430000Y-125095000D03*
D19*
X162850019Y-135890000D03*
D21*
X169889981Y-132973952D03*
D19*
X134620000Y-114975000D03*
X134620000Y-119975000D03*
X169889981Y-70038024D03*
D22*
X162850019Y-67121976D03*
D19*
X187066048Y-91149981D03*
D23*
X184150000Y-84110019D03*
D19*
X170815000Y-117435000D03*
X170815000Y-112435000D03*
D15*
X153670000Y-136600000D03*
D16*
X151130000Y-136600000D03*
D19*
X183961976Y-119089981D03*
D24*
X186878024Y-112050019D03*
D25*
X144780000Y-71120000D03*
D15*
X151130000Y-66600000D03*
D16*
X153670000Y-66600000D03*
D19*
X167005000Y-125095000D03*
D20*
X159385000Y-125095000D03*
D19*
X120838024Y-84110019D03*
D26*
X117921976Y-91149981D03*
D25*
X160020000Y-71120000D03*
D19*
X134910019Y-133161976D03*
D27*
X141949981Y-136078024D03*
D28*
X142240000Y-130175000D03*
D29*
X144780000Y-130175000D03*
X147320000Y-130175000D03*
D30*
X129030000Y-101585000D03*
X138430000Y-101585000D03*
D31*
X131230000Y-108585000D03*
X133730000Y-108585000D03*
X136230000Y-108585000D03*
D28*
X144780000Y-104140000D03*
D29*
X144780000Y-101600000D03*
X144780000Y-99060000D03*
D32*
X176094226Y-76048725D03*
D16*
X177890277Y-77844776D03*
D15*
X117400000Y-102870000D03*
D16*
X117400000Y-100330000D03*
D19*
X117921976Y-112050019D03*
D33*
X120838024Y-119089981D03*
D19*
X149945000Y-73040000D03*
X154945000Y-73040000D03*
X149860000Y-117435000D03*
X149860000Y-112435000D03*
D34*
X128508459Y-127316872D03*
D16*
X126712408Y-125520821D03*
D35*
X138440000Y-113675000D03*
D20*
X138440000Y-116215000D03*
X138440000Y-118755000D03*
X138440000Y-121295000D03*
X146060000Y-121295000D03*
X146060000Y-118755000D03*
X146060000Y-116215000D03*
X146060000Y-113675000D03*
D36*
X178296526Y-125601598D03*
D16*
X176500475Y-127397649D03*
D28*
X160020000Y-104140000D03*
D29*
X160020000Y-101600000D03*
X160020000Y-99060000D03*
D37*
X126838324Y-77573943D03*
D16*
X128634375Y-75777892D03*
D35*
X159395000Y-113675000D03*
D20*
X159395000Y-116215000D03*
X159395000Y-118755000D03*
X159395000Y-121295000D03*
X167015000Y-121295000D03*
X167015000Y-118755000D03*
X167015000Y-116215000D03*
X167015000Y-113675000D03*
D28*
X152400000Y-104140000D03*
D29*
X152400000Y-101600000D03*
X152400000Y-99060000D03*
D19*
X141949981Y-67121976D03*
D38*
X134910019Y-70038024D03*
D19*
X149860000Y-125055000D03*
X149860000Y-120055000D03*
X155575000Y-114975000D03*
X155575000Y-119975000D03*
X170815000Y-125055000D03*
X170815000Y-120055000D03*
D30*
X166370000Y-101600000D03*
X175770000Y-101600000D03*
D31*
X168570000Y-108600000D03*
X171070000Y-108600000D03*
X173570000Y-108600000D03*
D39*
X138430000Y-91480000D03*
D40*
X138430000Y-88980000D03*
X138430000Y-86480000D03*
X138430000Y-83980000D03*
D41*
X166370000Y-83980000D03*
D40*
X166370000Y-86480000D03*
X166370000Y-88980000D03*
X166370000Y-91480000D03*
D28*
X128270000Y-115570000D03*
D29*
X125730000Y-115570000D03*
%LPD*%
M02*
