%TF.GenerationSoftware,KiCad,Pcbnew,7.0.9*%
%TF.CreationDate,2023-12-01T15:39:26+01:00*%
%TF.ProjectId,christmas,63687269-7374-46d6-9173-2e6b69636164,rev?*%
%TF.SameCoordinates,Original*%
%TF.FileFunction,Drillmap*%
%TF.FilePolarity,Positive*%
%FSLAX45Y45*%
G04 Gerber Fmt 4.5, Leading zero omitted, Abs format (unit mm)*
G04 Created by KiCad (PCBNEW 7.0.9) date 2023-12-01 15:39:26*
%MOMM*%
%LPD*%
G01*
G04 APERTURE LIST*
%ADD10C,0.100000*%
%ADD11C,0.200000*%
%ADD12C,0.220000*%
G04 APERTURE END LIST*
D10*
X17766500Y-10414000D02*
G75*
G03*
X17716500Y-10464000I0J-50000D01*
G01*
X18301500Y-10668000D02*
G75*
G03*
X18351500Y-10618000I0J50000D01*
G01*
X18047500Y-10414000D02*
G75*
G03*
X18097500Y-10364000I0J50000D01*
G01*
X12713500Y-10668000D02*
X12178500Y-10668000D01*
X18351500Y-9702000D02*
G75*
G03*
X18301500Y-9652000I-50000J0D01*
G01*
X17766500Y-9652000D02*
X18301500Y-9652000D01*
X12128500Y-10618000D02*
X12128500Y-9702000D01*
X18047500Y-9906000D02*
X17766500Y-9906000D01*
X12432500Y-9906000D02*
G75*
G03*
X12382500Y-9956000I0J-50000D01*
G01*
X17716500Y-10618000D02*
G75*
G03*
X17766500Y-10668000I50000J0D01*
G01*
X18097500Y-9956000D02*
G75*
G03*
X18047500Y-9906000I-50000J0D01*
G01*
X12763500Y-9702000D02*
G75*
G03*
X12713500Y-9652000I-50000J0D01*
G01*
X12178500Y-9652000D02*
X12713500Y-9652000D01*
X17716500Y-9856000D02*
G75*
G03*
X17766500Y-9906000I50000J0D01*
G01*
X12763500Y-10464000D02*
X12763500Y-10618000D01*
X18351500Y-9702000D02*
X18351500Y-10618000D01*
X12382500Y-9956000D02*
X12382500Y-10364000D01*
X17716500Y-9856000D02*
X17716500Y-9702000D01*
X18097500Y-10364000D02*
X18097500Y-9956000D01*
X12763500Y-10464000D02*
G75*
G03*
X12713500Y-10414000I-50000J0D01*
G01*
X12713500Y-9906000D02*
G75*
G03*
X12763500Y-9856000I0J50000D01*
G01*
X12382500Y-10364000D02*
G75*
G03*
X12432500Y-10414000I50000J0D01*
G01*
X19304000Y-10160000D02*
G75*
G03*
X19304000Y-10160000I-4064000J0D01*
G01*
X12178500Y-9652000D02*
G75*
G03*
X12128500Y-9702000I0J-50000D01*
G01*
X17716500Y-10618000D02*
X17716500Y-10464000D01*
X12713500Y-9906000D02*
X12432500Y-9906000D01*
X12432500Y-10414000D02*
X12713500Y-10414000D01*
X12713500Y-10668000D02*
G75*
G03*
X12763500Y-10618000I0J50000D01*
G01*
X12128500Y-10618000D02*
G75*
G03*
X12178500Y-10668000I50000J0D01*
G01*
X12763500Y-9702000D02*
X12763500Y-9856000D01*
X18301500Y-10668000D02*
X17766500Y-10668000D01*
X17766500Y-10414000D02*
X18047500Y-10414000D01*
X17766500Y-9652000D02*
G75*
G03*
X17716500Y-9702000I0J-50000D01*
G01*
D11*
D12*
X14368000Y-7002000D02*
X14588000Y-7222000D01*
X14588000Y-7002000D02*
X14368000Y-7222000D01*
X15892000Y-7002000D02*
X16112000Y-7222000D01*
X16112000Y-7002000D02*
X15892000Y-7222000D01*
D11*
X11431777Y-14540484D02*
X11431777Y-14340484D01*
X11431777Y-14340484D02*
X11479396Y-14340484D01*
X11479396Y-14340484D02*
X11507967Y-14350008D01*
X11507967Y-14350008D02*
X11527015Y-14369055D01*
X11527015Y-14369055D02*
X11536539Y-14388103D01*
X11536539Y-14388103D02*
X11546062Y-14426198D01*
X11546062Y-14426198D02*
X11546062Y-14454769D01*
X11546062Y-14454769D02*
X11536539Y-14492865D01*
X11536539Y-14492865D02*
X11527015Y-14511912D01*
X11527015Y-14511912D02*
X11507967Y-14530960D01*
X11507967Y-14530960D02*
X11479396Y-14540484D01*
X11479396Y-14540484D02*
X11431777Y-14540484D01*
X11631777Y-14540484D02*
X11631777Y-14407150D01*
X11631777Y-14445246D02*
X11641301Y-14426198D01*
X11641301Y-14426198D02*
X11650824Y-14416674D01*
X11650824Y-14416674D02*
X11669872Y-14407150D01*
X11669872Y-14407150D02*
X11688920Y-14407150D01*
X11755586Y-14540484D02*
X11755586Y-14407150D01*
X11755586Y-14340484D02*
X11746062Y-14350008D01*
X11746062Y-14350008D02*
X11755586Y-14359531D01*
X11755586Y-14359531D02*
X11765110Y-14350008D01*
X11765110Y-14350008D02*
X11755586Y-14340484D01*
X11755586Y-14340484D02*
X11755586Y-14359531D01*
X11879396Y-14540484D02*
X11860348Y-14530960D01*
X11860348Y-14530960D02*
X11850824Y-14511912D01*
X11850824Y-14511912D02*
X11850824Y-14340484D01*
X11984158Y-14540484D02*
X11965110Y-14530960D01*
X11965110Y-14530960D02*
X11955586Y-14511912D01*
X11955586Y-14511912D02*
X11955586Y-14340484D01*
X12212729Y-14540484D02*
X12212729Y-14340484D01*
X12212729Y-14340484D02*
X12279396Y-14483341D01*
X12279396Y-14483341D02*
X12346062Y-14340484D01*
X12346062Y-14340484D02*
X12346062Y-14540484D01*
X12527015Y-14540484D02*
X12527015Y-14435722D01*
X12527015Y-14435722D02*
X12517491Y-14416674D01*
X12517491Y-14416674D02*
X12498443Y-14407150D01*
X12498443Y-14407150D02*
X12460348Y-14407150D01*
X12460348Y-14407150D02*
X12441301Y-14416674D01*
X12527015Y-14530960D02*
X12507967Y-14540484D01*
X12507967Y-14540484D02*
X12460348Y-14540484D01*
X12460348Y-14540484D02*
X12441301Y-14530960D01*
X12441301Y-14530960D02*
X12431777Y-14511912D01*
X12431777Y-14511912D02*
X12431777Y-14492865D01*
X12431777Y-14492865D02*
X12441301Y-14473817D01*
X12441301Y-14473817D02*
X12460348Y-14464293D01*
X12460348Y-14464293D02*
X12507967Y-14464293D01*
X12507967Y-14464293D02*
X12527015Y-14454769D01*
X12622253Y-14407150D02*
X12622253Y-14607150D01*
X12622253Y-14416674D02*
X12641301Y-14407150D01*
X12641301Y-14407150D02*
X12679396Y-14407150D01*
X12679396Y-14407150D02*
X12698443Y-14416674D01*
X12698443Y-14416674D02*
X12707967Y-14426198D01*
X12707967Y-14426198D02*
X12717491Y-14445246D01*
X12717491Y-14445246D02*
X12717491Y-14502388D01*
X12717491Y-14502388D02*
X12707967Y-14521436D01*
X12707967Y-14521436D02*
X12698443Y-14530960D01*
X12698443Y-14530960D02*
X12679396Y-14540484D01*
X12679396Y-14540484D02*
X12641301Y-14540484D01*
X12641301Y-14540484D02*
X12622253Y-14530960D01*
X12803205Y-14521436D02*
X12812729Y-14530960D01*
X12812729Y-14530960D02*
X12803205Y-14540484D01*
X12803205Y-14540484D02*
X12793682Y-14530960D01*
X12793682Y-14530960D02*
X12803205Y-14521436D01*
X12803205Y-14521436D02*
X12803205Y-14540484D01*
X12803205Y-14416674D02*
X12812729Y-14426198D01*
X12812729Y-14426198D02*
X12803205Y-14435722D01*
X12803205Y-14435722D02*
X12793682Y-14426198D01*
X12793682Y-14426198D02*
X12803205Y-14416674D01*
X12803205Y-14416674D02*
X12803205Y-14435722D01*
X10971000Y-14769000D02*
X11171000Y-14969000D01*
X11171000Y-14769000D02*
X10971000Y-14969000D01*
X11422253Y-14779531D02*
X11431777Y-14770008D01*
X11431777Y-14770008D02*
X11450824Y-14760484D01*
X11450824Y-14760484D02*
X11498443Y-14760484D01*
X11498443Y-14760484D02*
X11517491Y-14770008D01*
X11517491Y-14770008D02*
X11527015Y-14779531D01*
X11527015Y-14779531D02*
X11536539Y-14798579D01*
X11536539Y-14798579D02*
X11536539Y-14817627D01*
X11536539Y-14817627D02*
X11527015Y-14846198D01*
X11527015Y-14846198D02*
X11412729Y-14960484D01*
X11412729Y-14960484D02*
X11536539Y-14960484D01*
X11622253Y-14941436D02*
X11631777Y-14950960D01*
X11631777Y-14950960D02*
X11622253Y-14960484D01*
X11622253Y-14960484D02*
X11612729Y-14950960D01*
X11612729Y-14950960D02*
X11622253Y-14941436D01*
X11622253Y-14941436D02*
X11622253Y-14960484D01*
X11707967Y-14779531D02*
X11717491Y-14770008D01*
X11717491Y-14770008D02*
X11736539Y-14760484D01*
X11736539Y-14760484D02*
X11784158Y-14760484D01*
X11784158Y-14760484D02*
X11803205Y-14770008D01*
X11803205Y-14770008D02*
X11812729Y-14779531D01*
X11812729Y-14779531D02*
X11822253Y-14798579D01*
X11822253Y-14798579D02*
X11822253Y-14817627D01*
X11822253Y-14817627D02*
X11812729Y-14846198D01*
X11812729Y-14846198D02*
X11698443Y-14960484D01*
X11698443Y-14960484D02*
X11822253Y-14960484D01*
X11946062Y-14760484D02*
X11965110Y-14760484D01*
X11965110Y-14760484D02*
X11984158Y-14770008D01*
X11984158Y-14770008D02*
X11993682Y-14779531D01*
X11993682Y-14779531D02*
X12003205Y-14798579D01*
X12003205Y-14798579D02*
X12012729Y-14836674D01*
X12012729Y-14836674D02*
X12012729Y-14884293D01*
X12012729Y-14884293D02*
X12003205Y-14922388D01*
X12003205Y-14922388D02*
X11993682Y-14941436D01*
X11993682Y-14941436D02*
X11984158Y-14950960D01*
X11984158Y-14950960D02*
X11965110Y-14960484D01*
X11965110Y-14960484D02*
X11946062Y-14960484D01*
X11946062Y-14960484D02*
X11927015Y-14950960D01*
X11927015Y-14950960D02*
X11917491Y-14941436D01*
X11917491Y-14941436D02*
X11907967Y-14922388D01*
X11907967Y-14922388D02*
X11898443Y-14884293D01*
X11898443Y-14884293D02*
X11898443Y-14836674D01*
X11898443Y-14836674D02*
X11907967Y-14798579D01*
X11907967Y-14798579D02*
X11917491Y-14779531D01*
X11917491Y-14779531D02*
X11927015Y-14770008D01*
X11927015Y-14770008D02*
X11946062Y-14760484D01*
X12136539Y-14760484D02*
X12155586Y-14760484D01*
X12155586Y-14760484D02*
X12174634Y-14770008D01*
X12174634Y-14770008D02*
X12184158Y-14779531D01*
X12184158Y-14779531D02*
X12193682Y-14798579D01*
X12193682Y-14798579D02*
X12203205Y-14836674D01*
X12203205Y-14836674D02*
X12203205Y-14884293D01*
X12203205Y-14884293D02*
X12193682Y-14922388D01*
X12193682Y-14922388D02*
X12184158Y-14941436D01*
X12184158Y-14941436D02*
X12174634Y-14950960D01*
X12174634Y-14950960D02*
X12155586Y-14960484D01*
X12155586Y-14960484D02*
X12136539Y-14960484D01*
X12136539Y-14960484D02*
X12117491Y-14950960D01*
X12117491Y-14950960D02*
X12107967Y-14941436D01*
X12107967Y-14941436D02*
X12098443Y-14922388D01*
X12098443Y-14922388D02*
X12088920Y-14884293D01*
X12088920Y-14884293D02*
X12088920Y-14836674D01*
X12088920Y-14836674D02*
X12098443Y-14798579D01*
X12098443Y-14798579D02*
X12107967Y-14779531D01*
X12107967Y-14779531D02*
X12117491Y-14770008D01*
X12117491Y-14770008D02*
X12136539Y-14760484D01*
X12288920Y-14960484D02*
X12288920Y-14827150D01*
X12288920Y-14846198D02*
X12298443Y-14836674D01*
X12298443Y-14836674D02*
X12317491Y-14827150D01*
X12317491Y-14827150D02*
X12346063Y-14827150D01*
X12346063Y-14827150D02*
X12365110Y-14836674D01*
X12365110Y-14836674D02*
X12374634Y-14855722D01*
X12374634Y-14855722D02*
X12374634Y-14960484D01*
X12374634Y-14855722D02*
X12384158Y-14836674D01*
X12384158Y-14836674D02*
X12403205Y-14827150D01*
X12403205Y-14827150D02*
X12431777Y-14827150D01*
X12431777Y-14827150D02*
X12450824Y-14836674D01*
X12450824Y-14836674D02*
X12460348Y-14855722D01*
X12460348Y-14855722D02*
X12460348Y-14960484D01*
X12555586Y-14960484D02*
X12555586Y-14827150D01*
X12555586Y-14846198D02*
X12565110Y-14836674D01*
X12565110Y-14836674D02*
X12584158Y-14827150D01*
X12584158Y-14827150D02*
X12612729Y-14827150D01*
X12612729Y-14827150D02*
X12631777Y-14836674D01*
X12631777Y-14836674D02*
X12641301Y-14855722D01*
X12641301Y-14855722D02*
X12641301Y-14960484D01*
X12641301Y-14855722D02*
X12650824Y-14836674D01*
X12650824Y-14836674D02*
X12669872Y-14827150D01*
X12669872Y-14827150D02*
X12698443Y-14827150D01*
X12698443Y-14827150D02*
X12717491Y-14836674D01*
X12717491Y-14836674D02*
X12727015Y-14855722D01*
X12727015Y-14855722D02*
X12727015Y-14960484D01*
X13117491Y-14750960D02*
X12946063Y-15008103D01*
X13374634Y-14760484D02*
X13393682Y-14760484D01*
X13393682Y-14760484D02*
X13412729Y-14770008D01*
X13412729Y-14770008D02*
X13422253Y-14779531D01*
X13422253Y-14779531D02*
X13431777Y-14798579D01*
X13431777Y-14798579D02*
X13441301Y-14836674D01*
X13441301Y-14836674D02*
X13441301Y-14884293D01*
X13441301Y-14884293D02*
X13431777Y-14922388D01*
X13431777Y-14922388D02*
X13422253Y-14941436D01*
X13422253Y-14941436D02*
X13412729Y-14950960D01*
X13412729Y-14950960D02*
X13393682Y-14960484D01*
X13393682Y-14960484D02*
X13374634Y-14960484D01*
X13374634Y-14960484D02*
X13355586Y-14950960D01*
X13355586Y-14950960D02*
X13346063Y-14941436D01*
X13346063Y-14941436D02*
X13336539Y-14922388D01*
X13336539Y-14922388D02*
X13327015Y-14884293D01*
X13327015Y-14884293D02*
X13327015Y-14836674D01*
X13327015Y-14836674D02*
X13336539Y-14798579D01*
X13336539Y-14798579D02*
X13346063Y-14779531D01*
X13346063Y-14779531D02*
X13355586Y-14770008D01*
X13355586Y-14770008D02*
X13374634Y-14760484D01*
X13527015Y-14941436D02*
X13536539Y-14950960D01*
X13536539Y-14950960D02*
X13527015Y-14960484D01*
X13527015Y-14960484D02*
X13517491Y-14950960D01*
X13517491Y-14950960D02*
X13527015Y-14941436D01*
X13527015Y-14941436D02*
X13527015Y-14960484D01*
X13660348Y-14760484D02*
X13679396Y-14760484D01*
X13679396Y-14760484D02*
X13698444Y-14770008D01*
X13698444Y-14770008D02*
X13707967Y-14779531D01*
X13707967Y-14779531D02*
X13717491Y-14798579D01*
X13717491Y-14798579D02*
X13727015Y-14836674D01*
X13727015Y-14836674D02*
X13727015Y-14884293D01*
X13727015Y-14884293D02*
X13717491Y-14922388D01*
X13717491Y-14922388D02*
X13707967Y-14941436D01*
X13707967Y-14941436D02*
X13698444Y-14950960D01*
X13698444Y-14950960D02*
X13679396Y-14960484D01*
X13679396Y-14960484D02*
X13660348Y-14960484D01*
X13660348Y-14960484D02*
X13641301Y-14950960D01*
X13641301Y-14950960D02*
X13631777Y-14941436D01*
X13631777Y-14941436D02*
X13622253Y-14922388D01*
X13622253Y-14922388D02*
X13612729Y-14884293D01*
X13612729Y-14884293D02*
X13612729Y-14836674D01*
X13612729Y-14836674D02*
X13622253Y-14798579D01*
X13622253Y-14798579D02*
X13631777Y-14779531D01*
X13631777Y-14779531D02*
X13641301Y-14770008D01*
X13641301Y-14770008D02*
X13660348Y-14760484D01*
X13841301Y-14846198D02*
X13822253Y-14836674D01*
X13822253Y-14836674D02*
X13812729Y-14827150D01*
X13812729Y-14827150D02*
X13803206Y-14808103D01*
X13803206Y-14808103D02*
X13803206Y-14798579D01*
X13803206Y-14798579D02*
X13812729Y-14779531D01*
X13812729Y-14779531D02*
X13822253Y-14770008D01*
X13822253Y-14770008D02*
X13841301Y-14760484D01*
X13841301Y-14760484D02*
X13879396Y-14760484D01*
X13879396Y-14760484D02*
X13898444Y-14770008D01*
X13898444Y-14770008D02*
X13907967Y-14779531D01*
X13907967Y-14779531D02*
X13917491Y-14798579D01*
X13917491Y-14798579D02*
X13917491Y-14808103D01*
X13917491Y-14808103D02*
X13907967Y-14827150D01*
X13907967Y-14827150D02*
X13898444Y-14836674D01*
X13898444Y-14836674D02*
X13879396Y-14846198D01*
X13879396Y-14846198D02*
X13841301Y-14846198D01*
X13841301Y-14846198D02*
X13822253Y-14855722D01*
X13822253Y-14855722D02*
X13812729Y-14865246D01*
X13812729Y-14865246D02*
X13803206Y-14884293D01*
X13803206Y-14884293D02*
X13803206Y-14922388D01*
X13803206Y-14922388D02*
X13812729Y-14941436D01*
X13812729Y-14941436D02*
X13822253Y-14950960D01*
X13822253Y-14950960D02*
X13841301Y-14960484D01*
X13841301Y-14960484D02*
X13879396Y-14960484D01*
X13879396Y-14960484D02*
X13898444Y-14950960D01*
X13898444Y-14950960D02*
X13907967Y-14941436D01*
X13907967Y-14941436D02*
X13917491Y-14922388D01*
X13917491Y-14922388D02*
X13917491Y-14884293D01*
X13917491Y-14884293D02*
X13907967Y-14865246D01*
X13907967Y-14865246D02*
X13898444Y-14855722D01*
X13898444Y-14855722D02*
X13879396Y-14846198D01*
X14088920Y-14760484D02*
X14050825Y-14760484D01*
X14050825Y-14760484D02*
X14031777Y-14770008D01*
X14031777Y-14770008D02*
X14022253Y-14779531D01*
X14022253Y-14779531D02*
X14003206Y-14808103D01*
X14003206Y-14808103D02*
X13993682Y-14846198D01*
X13993682Y-14846198D02*
X13993682Y-14922388D01*
X13993682Y-14922388D02*
X14003206Y-14941436D01*
X14003206Y-14941436D02*
X14012729Y-14950960D01*
X14012729Y-14950960D02*
X14031777Y-14960484D01*
X14031777Y-14960484D02*
X14069872Y-14960484D01*
X14069872Y-14960484D02*
X14088920Y-14950960D01*
X14088920Y-14950960D02*
X14098444Y-14941436D01*
X14098444Y-14941436D02*
X14107967Y-14922388D01*
X14107967Y-14922388D02*
X14107967Y-14874769D01*
X14107967Y-14874769D02*
X14098444Y-14855722D01*
X14098444Y-14855722D02*
X14088920Y-14846198D01*
X14088920Y-14846198D02*
X14069872Y-14836674D01*
X14069872Y-14836674D02*
X14031777Y-14836674D01*
X14031777Y-14836674D02*
X14012729Y-14846198D01*
X14012729Y-14846198D02*
X14003206Y-14855722D01*
X14003206Y-14855722D02*
X13993682Y-14874769D01*
X14279396Y-14760484D02*
X14241301Y-14760484D01*
X14241301Y-14760484D02*
X14222253Y-14770008D01*
X14222253Y-14770008D02*
X14212729Y-14779531D01*
X14212729Y-14779531D02*
X14193682Y-14808103D01*
X14193682Y-14808103D02*
X14184158Y-14846198D01*
X14184158Y-14846198D02*
X14184158Y-14922388D01*
X14184158Y-14922388D02*
X14193682Y-14941436D01*
X14193682Y-14941436D02*
X14203206Y-14950960D01*
X14203206Y-14950960D02*
X14222253Y-14960484D01*
X14222253Y-14960484D02*
X14260348Y-14960484D01*
X14260348Y-14960484D02*
X14279396Y-14950960D01*
X14279396Y-14950960D02*
X14288920Y-14941436D01*
X14288920Y-14941436D02*
X14298444Y-14922388D01*
X14298444Y-14922388D02*
X14298444Y-14874769D01*
X14298444Y-14874769D02*
X14288920Y-14855722D01*
X14288920Y-14855722D02*
X14279396Y-14846198D01*
X14279396Y-14846198D02*
X14260348Y-14836674D01*
X14260348Y-14836674D02*
X14222253Y-14836674D01*
X14222253Y-14836674D02*
X14203206Y-14846198D01*
X14203206Y-14846198D02*
X14193682Y-14855722D01*
X14193682Y-14855722D02*
X14184158Y-14874769D01*
X14374634Y-14760484D02*
X14374634Y-14798579D01*
X14450825Y-14760484D02*
X14450825Y-14798579D01*
X14746063Y-15036674D02*
X14736539Y-15027150D01*
X14736539Y-15027150D02*
X14717491Y-14998579D01*
X14717491Y-14998579D02*
X14707968Y-14979531D01*
X14707968Y-14979531D02*
X14698444Y-14950960D01*
X14698444Y-14950960D02*
X14688920Y-14903341D01*
X14688920Y-14903341D02*
X14688920Y-14865246D01*
X14688920Y-14865246D02*
X14698444Y-14817627D01*
X14698444Y-14817627D02*
X14707968Y-14789055D01*
X14707968Y-14789055D02*
X14717491Y-14770008D01*
X14717491Y-14770008D02*
X14736539Y-14741436D01*
X14736539Y-14741436D02*
X14746063Y-14731912D01*
X14812729Y-14779531D02*
X14822253Y-14770008D01*
X14822253Y-14770008D02*
X14841301Y-14760484D01*
X14841301Y-14760484D02*
X14888920Y-14760484D01*
X14888920Y-14760484D02*
X14907968Y-14770008D01*
X14907968Y-14770008D02*
X14917491Y-14779531D01*
X14917491Y-14779531D02*
X14927015Y-14798579D01*
X14927015Y-14798579D02*
X14927015Y-14817627D01*
X14927015Y-14817627D02*
X14917491Y-14846198D01*
X14917491Y-14846198D02*
X14803206Y-14960484D01*
X14803206Y-14960484D02*
X14927015Y-14960484D01*
X15165110Y-14960484D02*
X15165110Y-14760484D01*
X15250825Y-14960484D02*
X15250825Y-14855722D01*
X15250825Y-14855722D02*
X15241301Y-14836674D01*
X15241301Y-14836674D02*
X15222253Y-14827150D01*
X15222253Y-14827150D02*
X15193682Y-14827150D01*
X15193682Y-14827150D02*
X15174634Y-14836674D01*
X15174634Y-14836674D02*
X15165110Y-14846198D01*
X15374634Y-14960484D02*
X15355587Y-14950960D01*
X15355587Y-14950960D02*
X15346063Y-14941436D01*
X15346063Y-14941436D02*
X15336539Y-14922388D01*
X15336539Y-14922388D02*
X15336539Y-14865246D01*
X15336539Y-14865246D02*
X15346063Y-14846198D01*
X15346063Y-14846198D02*
X15355587Y-14836674D01*
X15355587Y-14836674D02*
X15374634Y-14827150D01*
X15374634Y-14827150D02*
X15403206Y-14827150D01*
X15403206Y-14827150D02*
X15422253Y-14836674D01*
X15422253Y-14836674D02*
X15431777Y-14846198D01*
X15431777Y-14846198D02*
X15441301Y-14865246D01*
X15441301Y-14865246D02*
X15441301Y-14922388D01*
X15441301Y-14922388D02*
X15431777Y-14941436D01*
X15431777Y-14941436D02*
X15422253Y-14950960D01*
X15422253Y-14950960D02*
X15403206Y-14960484D01*
X15403206Y-14960484D02*
X15374634Y-14960484D01*
X15555587Y-14960484D02*
X15536539Y-14950960D01*
X15536539Y-14950960D02*
X15527015Y-14931912D01*
X15527015Y-14931912D02*
X15527015Y-14760484D01*
X15707968Y-14950960D02*
X15688920Y-14960484D01*
X15688920Y-14960484D02*
X15650825Y-14960484D01*
X15650825Y-14960484D02*
X15631777Y-14950960D01*
X15631777Y-14950960D02*
X15622253Y-14931912D01*
X15622253Y-14931912D02*
X15622253Y-14855722D01*
X15622253Y-14855722D02*
X15631777Y-14836674D01*
X15631777Y-14836674D02*
X15650825Y-14827150D01*
X15650825Y-14827150D02*
X15688920Y-14827150D01*
X15688920Y-14827150D02*
X15707968Y-14836674D01*
X15707968Y-14836674D02*
X15717491Y-14855722D01*
X15717491Y-14855722D02*
X15717491Y-14874769D01*
X15717491Y-14874769D02*
X15622253Y-14893817D01*
X15793682Y-14950960D02*
X15812730Y-14960484D01*
X15812730Y-14960484D02*
X15850825Y-14960484D01*
X15850825Y-14960484D02*
X15869872Y-14950960D01*
X15869872Y-14950960D02*
X15879396Y-14931912D01*
X15879396Y-14931912D02*
X15879396Y-14922388D01*
X15879396Y-14922388D02*
X15869872Y-14903341D01*
X15869872Y-14903341D02*
X15850825Y-14893817D01*
X15850825Y-14893817D02*
X15822253Y-14893817D01*
X15822253Y-14893817D02*
X15803206Y-14884293D01*
X15803206Y-14884293D02*
X15793682Y-14865246D01*
X15793682Y-14865246D02*
X15793682Y-14855722D01*
X15793682Y-14855722D02*
X15803206Y-14836674D01*
X15803206Y-14836674D02*
X15822253Y-14827150D01*
X15822253Y-14827150D02*
X15850825Y-14827150D01*
X15850825Y-14827150D02*
X15869872Y-14836674D01*
X15946063Y-15036674D02*
X15955587Y-15027150D01*
X15955587Y-15027150D02*
X15974634Y-14998579D01*
X15974634Y-14998579D02*
X15984158Y-14979531D01*
X15984158Y-14979531D02*
X15993682Y-14950960D01*
X15993682Y-14950960D02*
X16003206Y-14903341D01*
X16003206Y-14903341D02*
X16003206Y-14865246D01*
X16003206Y-14865246D02*
X15993682Y-14817627D01*
X15993682Y-14817627D02*
X15984158Y-14789055D01*
X15984158Y-14789055D02*
X15974634Y-14770008D01*
X15974634Y-14770008D02*
X15955587Y-14741436D01*
X15955587Y-14741436D02*
X15946063Y-14731912D01*
X16307968Y-15036674D02*
X16298444Y-15027150D01*
X16298444Y-15027150D02*
X16279396Y-14998579D01*
X16279396Y-14998579D02*
X16269872Y-14979531D01*
X16269872Y-14979531D02*
X16260349Y-14950960D01*
X16260349Y-14950960D02*
X16250825Y-14903341D01*
X16250825Y-14903341D02*
X16250825Y-14865246D01*
X16250825Y-14865246D02*
X16260349Y-14817627D01*
X16260349Y-14817627D02*
X16269872Y-14789055D01*
X16269872Y-14789055D02*
X16279396Y-14770008D01*
X16279396Y-14770008D02*
X16298444Y-14741436D01*
X16298444Y-14741436D02*
X16307968Y-14731912D01*
X16384158Y-14827150D02*
X16384158Y-14960484D01*
X16384158Y-14846198D02*
X16393682Y-14836674D01*
X16393682Y-14836674D02*
X16412730Y-14827150D01*
X16412730Y-14827150D02*
X16441301Y-14827150D01*
X16441301Y-14827150D02*
X16460349Y-14836674D01*
X16460349Y-14836674D02*
X16469872Y-14855722D01*
X16469872Y-14855722D02*
X16469872Y-14960484D01*
X16593682Y-14960484D02*
X16574634Y-14950960D01*
X16574634Y-14950960D02*
X16565111Y-14941436D01*
X16565111Y-14941436D02*
X16555587Y-14922388D01*
X16555587Y-14922388D02*
X16555587Y-14865246D01*
X16555587Y-14865246D02*
X16565111Y-14846198D01*
X16565111Y-14846198D02*
X16574634Y-14836674D01*
X16574634Y-14836674D02*
X16593682Y-14827150D01*
X16593682Y-14827150D02*
X16622253Y-14827150D01*
X16622253Y-14827150D02*
X16641301Y-14836674D01*
X16641301Y-14836674D02*
X16650825Y-14846198D01*
X16650825Y-14846198D02*
X16660349Y-14865246D01*
X16660349Y-14865246D02*
X16660349Y-14922388D01*
X16660349Y-14922388D02*
X16650825Y-14941436D01*
X16650825Y-14941436D02*
X16641301Y-14950960D01*
X16641301Y-14950960D02*
X16622253Y-14960484D01*
X16622253Y-14960484D02*
X16593682Y-14960484D01*
X16717492Y-14827150D02*
X16793682Y-14827150D01*
X16746063Y-14760484D02*
X16746063Y-14931912D01*
X16746063Y-14931912D02*
X16755587Y-14950960D01*
X16755587Y-14950960D02*
X16774634Y-14960484D01*
X16774634Y-14960484D02*
X16793682Y-14960484D01*
X17012730Y-14827150D02*
X17012730Y-15027150D01*
X17012730Y-14836674D02*
X17031777Y-14827150D01*
X17031777Y-14827150D02*
X17069873Y-14827150D01*
X17069873Y-14827150D02*
X17088920Y-14836674D01*
X17088920Y-14836674D02*
X17098444Y-14846198D01*
X17098444Y-14846198D02*
X17107968Y-14865246D01*
X17107968Y-14865246D02*
X17107968Y-14922388D01*
X17107968Y-14922388D02*
X17098444Y-14941436D01*
X17098444Y-14941436D02*
X17088920Y-14950960D01*
X17088920Y-14950960D02*
X17069873Y-14960484D01*
X17069873Y-14960484D02*
X17031777Y-14960484D01*
X17031777Y-14960484D02*
X17012730Y-14950960D01*
X17222254Y-14960484D02*
X17203206Y-14950960D01*
X17203206Y-14950960D02*
X17193682Y-14931912D01*
X17193682Y-14931912D02*
X17193682Y-14760484D01*
X17384158Y-14960484D02*
X17384158Y-14855722D01*
X17384158Y-14855722D02*
X17374635Y-14836674D01*
X17374635Y-14836674D02*
X17355587Y-14827150D01*
X17355587Y-14827150D02*
X17317492Y-14827150D01*
X17317492Y-14827150D02*
X17298444Y-14836674D01*
X17384158Y-14950960D02*
X17365111Y-14960484D01*
X17365111Y-14960484D02*
X17317492Y-14960484D01*
X17317492Y-14960484D02*
X17298444Y-14950960D01*
X17298444Y-14950960D02*
X17288920Y-14931912D01*
X17288920Y-14931912D02*
X17288920Y-14912865D01*
X17288920Y-14912865D02*
X17298444Y-14893817D01*
X17298444Y-14893817D02*
X17317492Y-14884293D01*
X17317492Y-14884293D02*
X17365111Y-14884293D01*
X17365111Y-14884293D02*
X17384158Y-14874769D01*
X17450825Y-14827150D02*
X17527015Y-14827150D01*
X17479396Y-14760484D02*
X17479396Y-14931912D01*
X17479396Y-14931912D02*
X17488920Y-14950960D01*
X17488920Y-14950960D02*
X17507968Y-14960484D01*
X17507968Y-14960484D02*
X17527015Y-14960484D01*
X17669873Y-14950960D02*
X17650825Y-14960484D01*
X17650825Y-14960484D02*
X17612730Y-14960484D01*
X17612730Y-14960484D02*
X17593682Y-14950960D01*
X17593682Y-14950960D02*
X17584158Y-14931912D01*
X17584158Y-14931912D02*
X17584158Y-14855722D01*
X17584158Y-14855722D02*
X17593682Y-14836674D01*
X17593682Y-14836674D02*
X17612730Y-14827150D01*
X17612730Y-14827150D02*
X17650825Y-14827150D01*
X17650825Y-14827150D02*
X17669873Y-14836674D01*
X17669873Y-14836674D02*
X17679396Y-14855722D01*
X17679396Y-14855722D02*
X17679396Y-14874769D01*
X17679396Y-14874769D02*
X17584158Y-14893817D01*
X17850825Y-14960484D02*
X17850825Y-14760484D01*
X17850825Y-14950960D02*
X17831777Y-14960484D01*
X17831777Y-14960484D02*
X17793682Y-14960484D01*
X17793682Y-14960484D02*
X17774635Y-14950960D01*
X17774635Y-14950960D02*
X17765111Y-14941436D01*
X17765111Y-14941436D02*
X17755587Y-14922388D01*
X17755587Y-14922388D02*
X17755587Y-14865246D01*
X17755587Y-14865246D02*
X17765111Y-14846198D01*
X17765111Y-14846198D02*
X17774635Y-14836674D01*
X17774635Y-14836674D02*
X17793682Y-14827150D01*
X17793682Y-14827150D02*
X17831777Y-14827150D01*
X17831777Y-14827150D02*
X17850825Y-14836674D01*
X17927016Y-15036674D02*
X17936539Y-15027150D01*
X17936539Y-15027150D02*
X17955587Y-14998579D01*
X17955587Y-14998579D02*
X17965111Y-14979531D01*
X17965111Y-14979531D02*
X17974635Y-14950960D01*
X17974635Y-14950960D02*
X17984158Y-14903341D01*
X17984158Y-14903341D02*
X17984158Y-14865246D01*
X17984158Y-14865246D02*
X17974635Y-14817627D01*
X17974635Y-14817627D02*
X17965111Y-14789055D01*
X17965111Y-14789055D02*
X17955587Y-14770008D01*
X17955587Y-14770008D02*
X17936539Y-14741436D01*
X17936539Y-14741436D02*
X17927016Y-14731912D01*
M02*
